<?xml version="1.0" encoding="UTF-8"?>
<svg width="101px" height="22px" viewBox="0 0 101 22" version="1.1" xmlns="http://www.w3.org/2000/svg" xmlns:xlink="http://www.w3.org/1999/xlink">
    <!-- Generator: Sketch 53.2 (72643) - https://sketchapp.com -->
    <title>Combine</title>
    <desc>Created with Sketch.</desc>
    <g id="Page-1" stroke="none" stroke-width="1" fill="none" fill-rule="evenodd">
        <g id="Combine" fill="#000000" fill-rule="nonzero">
            <rect id="Rectangle" x="65.4471545" y="7.25934959" width="2.39674797" height="13.8788618"></rect>
            <path d="M46.8455285,11.5528455 C46.6837398,8.90487805 44.5056911,6.8 41.8162602,6.8 C40.2317073,6.8 38.8333333,7.54390244 37.904878,8.68373984 C36.9788618,7.54308943 35.5804878,6.79756098 33.9943089,6.79756098 C31.300813,6.79756098 29.1252033,8.90243902 28.9650407,11.5528455 L28.9658537,21.1382114 L31.2308943,21.1382114 L31.2308943,16.0894309 L31.2308943,11.8577236 C31.2308943,10.3333333 32.4674797,9.09512195 33.9934959,9.09512195 C35.5186992,9.09512195 36.7560976,10.3325203 36.7560976,11.8577236 L36.7560976,16.0894309 L36.7560976,21.1382114 L39.0536585,21.1382114 L39.0536585,16.0894309 L39.0536585,11.8577236 C39.0536585,10.3333333 40.2902439,9.09512195 41.8162602,9.09512195 C43.3406504,9.09512195 44.5788618,10.3325203 44.5788618,11.8577236 L44.5788618,16.0894309 L44.5788618,21.1382114 L46.8447154,21.1382114 L46.8455285,11.5528455 Z" id="Path"></path>
            <path d="M12.8796748,19.6585366 C11.596748,20.7788618 9.91869919,21.4585366 8.08130081,21.4585366 C4.05121951,21.4585366 0.784552846,18.1918699 0.784552846,14.1626016 C0.784552846,10.1333333 4.05121951,6.86666667 8.0804878,6.86666667 C9.89268293,6.86666667 11.5495935,7.52682927 12.8252033,8.6203252 L11.2138211,10.4430894 C10.3674797,9.72926829 9.27479675,9.3 8.0804878,9.3 C5.39349593,9.3 3.21626016,11.4772358 3.21626016,14.1634146 C3.21626016,16.8495935 5.39349593,19.0276423 8.0804878,19.0276423 C9.32357724,19.0276423 10.4569106,18.5617886 11.3162602,17.795122 L12.8796748,19.6585366 Z" id="Path"></path>
            <path d="M27.5373984,14.1626016 C27.5373984,18.1918699 24.2707317,21.4585366 20.2406504,21.4585366 C16.2113821,21.4585366 12.9447154,18.1918699 12.9447154,14.1626016 C12.9447154,10.1333333 16.2113821,6.86666667 20.2406504,6.86666667 C24.2699187,6.86585366 27.5373984,10.1333333 27.5373984,14.1626016 Z M20.2406504,9.29918699 C17.5544715,9.29918699 15.3764228,11.4764228 15.3764228,14.1626016 C15.3764228,16.8487805 17.5536585,19.0268293 20.2406504,19.0268293 C22.9268293,19.0268293 25.104878,16.8487805 25.104878,14.1626016 C25.104878,11.4764228 22.9268293,9.29918699 20.2406504,9.29918699 Z" id="Shape"></path>
            <path d="M56.3146341,6.86585366 C54.4300813,6.86585366 52.7113821,7.58211382 51.4162602,8.75528455 L51.4162602,0.320325203 L49.0195122,0.320325203 L49.0195122,14.2 L49.0203252,14.2 C49.0203252,14.201626 49.0203252,14.204065 49.0203252,14.2056911 C49.0203252,14.2081301 49.0195122,14.2097561 49.0195122,14.2130081 C49.0195122,14.3219512 49.0227642,14.4178862 49.0284553,14.504878 C49.2073171,18.3747967 52.400813,21.4585366 56.3162602,21.4585366 C60.3463415,21.4585366 63.6130081,18.1918699 63.6130081,14.1626016 C63.6113821,10.1333333 60.3447154,6.86585366 56.3146341,6.86585366 Z M56.3146341,19.0268293 C53.6284553,19.0268293 51.4504065,16.8487805 51.4504065,14.1626016 C51.4504065,11.4764228 53.6292683,9.29918699 56.3146341,9.29918699 C59.001626,9.29918699 61.1796748,11.4764228 61.1796748,14.1626016 C61.1796748,16.8487805 59.001626,19.0268293 56.3146341,19.0268293 Z" id="Shape"></path>
            <path d="M100.092683,14.1626016 C100.092683,14.4569106 100.073171,14.7471545 100.039837,15.0317073 L97.5813008,15.0317073 L88.0113821,15.0317073 C88.4211382,17.303252 90.4065041,19.0260163 92.796748,19.0260163 C92.8601626,19.0260163 92.9845528,19.0260163 92.9845528,19.0260163 L92.9845528,21.4577236 C92.9845528,21.4577236 92.8601626,21.4577236 92.796748,21.4577236 C88.7666667,21.4577236 85.5,18.1910569 85.5,14.1617886 C85.5,10.1325203 88.7666667,6.86585366 92.796748,6.86585366 C96.4560976,6.86585366 99.4853659,9.56097561 100.011382,13.0731707 C100.064228,13.4300813 100.092683,13.7926829 100.092683,14.1626016 Z M97.5365854,13.0731707 C97.0422764,10.9121951 95.1081301,9.29837398 92.796748,9.29837398 C90.4845528,9.29837398 88.5495935,10.9113821 88.0560976,13.0731707 L97.5365854,13.0731707 Z" id="Shape"></path>
            <path d="M81.2642276,8.42845528 C80.0731707,7.41219512 78.5284553,6.79837398 76.8398374,6.79837398 C75.1504065,6.79837398 73.6073171,7.41300813 72.4154472,8.42845528 C70.9479675,9.6796748 70.0162602,11.5406504 70.0162602,13.6219512 L70.0162602,21.1382114 L72.4154472,21.1382114 L72.4154472,18.8146341 L72.4154472,13.9495935 L72.4154472,13.2926829 C72.5845528,10.995935 74.499187,9.18373984 76.8398374,9.18373984 C79.1804878,9.18373984 81.0943089,10.995122 81.2642276,13.2926829 L81.2642276,13.9504065 L81.2642276,18.8154472 L81.2642276,21.1382114 L83.6634152,21.1382114 L83.6634146,13.6219512 C83.6642276,11.5406504 82.7325203,9.6796748 81.2642276,8.42845528 Z" id="Path"></path>
        </g>
    </g>
</svg>