<svg width="122" height="50" viewBox="0 0 122 50" fill="none" 
    xmlns="http://www.w3.org/2000/svg">
    <path fill-rule="evenodd" clip-rule="evenodd" d="M0 25C0 11.1687 11.0966 0 24.8386 0C31.1037 0 36.9275 2.31758 41.3907 6.41918C45.25 9.96574 45.522 15.9897 41.9983 19.874C38.4747 23.7583 32.4897 24.0321 28.6304 20.4856C27.6528 19.5872 26.3799 19.0476 24.8386 19.0476C21.5484 19.0476 18.9246 21.6884 18.9246 25C18.9246 28.3116 21.5484 30.9524 24.8386 30.9524C26.3799 30.9524 27.6528 30.4128 28.6304 29.5144C32.4897 25.9679 38.4747 26.2417 41.9983 30.126C45.522 34.0103 45.25 40.0343 41.3907 43.5808C36.9275 47.6824 31.1037 50 24.8386 50C11.0966 50 0 38.8313 0 25ZM70.1393 27.5C70.0802 27.5 70.021 27.5298 69.9619 27.5595C69.9028 27.5893 69.8436 27.619 69.7845 27.619H69.6662C69.3114 27.8571 68.8383 27.9762 68.4834 27.9762C66.7092 27.9762 65.5264 26.5476 65.5264 24.6428C65.5264 22.8571 66.7092 21.4285 68.3651 21.4285C68.8383 21.4285 69.3114 21.5475 69.6662 21.6666C69.6662 21.6666 69.7845 21.7856 69.9028 21.7856C71.0856 22.2618 71.7952 21.7856 72.0318 21.5475L72.5049 20.9523C71.5587 19.7618 70.3759 19.0475 68.3651 19.0475C65.2899 19.0475 62.9243 21.6666 62.9243 24.6428C62.9243 27.619 65.1716 30.2381 68.3651 30.2381C70.3759 30.2381 71.5587 29.4048 72.6232 28.2143L72.2683 27.8571C72.1501 27.7381 71.4404 27.0238 70.1393 27.5ZM79.8383 19.2856V20.9523C79.8383 21.3094 79.6017 21.6665 79.2469 21.9046C79.0497 22.0237 78.7738 22.0634 78.4671 22.1074C77.8538 22.1956 77.1179 22.3014 76.6447 23.0951C76.6447 23.0951 76.5265 23.2141 76.5265 23.3332V23.4522C76.5265 23.5117 76.4969 23.5713 76.4673 23.6308C76.4377 23.6903 76.4082 23.7498 76.4082 23.8094C76.1716 24.4046 76.1716 24.8808 76.1716 25.476V29.9998H73.5695V20.238V19.4047H76.1716V20.8332C76.5265 20.357 76.9996 19.8808 77.591 19.6428C77.7092 19.5237 77.9458 19.4047 78.0641 19.4047H78.1824C78.4189 19.2856 78.5372 19.2856 78.5372 19.2856H79.2469H79.8383ZM84.806 19.2856C81.8491 19.2856 79.7201 21.7856 79.7201 24.7619C79.7201 27.9762 82.0857 30.2381 85.0426 30.2381C86.6985 30.2381 88.2361 29.5238 89.1823 28.3333L88.9458 28.0952C88.8275 27.8571 88.1178 27.1429 86.6985 27.7381C86.6254 27.8117 86.5523 27.8398 86.4513 27.8786C86.3888 27.9026 86.3157 27.9307 86.2254 27.9762C85.8705 28.0952 85.3974 28.2143 85.0426 28.2143C83.6233 28.2143 82.5588 27.381 82.2039 25.8333H89.892V25.5952V25C89.892 21.9047 88.1178 19.2856 84.806 19.2856ZM87.2899 23.8095H82.342C82.608 22.3322 83.5387 21.4285 84.806 21.4285C86.2254 21.4285 87.0533 22.4999 87.2899 23.8095ZM97.6985 25.3572V19.4047H100.537V28.6906V29.8811H97.935V28.6906C97.935 28.6906 97.1071 29.643 95.4512 29.8811C94.3867 30.0001 93.4404 29.762 92.6125 29.1668C91.0748 27.9763 91.0748 25.4762 91.0748 25.4762V20.3571V19.2856H92.6125C93.4404 19.4047 93.5587 19.8809 93.5587 20.119V20.238V20.4761V25.3572V25.4762V25.9524C93.677 26.6667 94.1501 27.262 94.8598 27.5001C95.9243 27.9763 97.2254 27.381 97.5802 26.3096C97.5802 26.1905 97.6098 26.1012 97.6393 26.012C97.6689 25.9227 97.6985 25.8334 97.6985 25.7143V25.3572ZM109.763 20.0001C108.935 19.4049 107.989 19.1668 106.924 19.2858C105.268 19.5239 104.44 20.4763 104.44 20.4763V19.2858H101.838V20.4763V29.8809H104.44V24.4048V23.9286V23.8096V23.6905V23.3334V23.2143C104.44 23.1637 104.44 23.1346 104.449 23.1087C104.462 23.0737 104.491 23.0446 104.559 22.9763C104.913 21.9048 106.214 21.3096 107.279 21.7858C107.752 21.9048 108.107 22.262 108.343 22.6191C108.417 22.6927 108.445 22.7663 108.483 22.8679C108.507 22.9308 108.535 23.0044 108.58 23.0953C108.698 23.3334 108.698 23.5715 108.698 23.8096V23.9286V28.8095V29.0476V29.1667C108.712 29.1943 108.726 29.2252 108.741 29.2582L108.741 29.2584C108.852 29.5093 109.018 29.8809 109.645 29.8809H111.182V28.9286V23.6905C111.3 23.6905 111.3 21.1906 109.763 20.0001ZM117.096 19.2856C118.634 19.2856 119.698 19.7618 120.526 20.4761C121.236 21.1903 121.591 22.2618 121.946 23.6903V29.8807H119.343V29.0474C119.225 29.1664 119.107 29.2855 118.87 29.4045C118.161 29.7617 117.451 29.9998 116.623 29.9998H116.15C114.139 29.9998 112.365 28.8093 112.365 26.6665C112.365 24.4046 114.021 23.3332 116.268 23.2141H116.386H116.741H119.225C119.107 22.0237 118.279 21.4284 116.86 21.4284H116.268C116.032 21.5475 115.795 21.5475 115.677 21.5475C115.085 21.6665 114.494 21.6665 114.021 21.3094C113.784 21.1903 113.548 20.9523 113.429 20.7142L113.075 20.1189H113.193C114.376 19.5237 115.795 19.2856 117.096 19.2856ZM116.505 28.095C118.042 28.095 119.107 27.2617 119.107 26.0712V25.1189H116.86C115.44 25.1189 114.612 25.7141 114.612 26.6665C114.612 27.6188 115.44 28.095 116.505 28.095Z" fill="#000000"/>
</svg>
