<?xml version="1.0" encoding="iso-8859-1" ?>
<!-- Generator: Adobe Illustrator 18.0.0, SVG Export Plug-In . SVG Version: 6.00 Build 0)  -->
<!DOCTYPE SVG PUBLIC "-//W3C//DTD SVG 1.1//EN" "http://www.w3.org/Graphics/SVG/1.1/DTD/svg11.dtd">
<svg version="1.1" xmlns="http://www.w3.org/2000/svg" xmlns:xlink="http://www.w3.org/1999/xlink" x="0px" y="0px" viewBox="0 0 543.337 122.749" xml:space="preserve" width="100%" height="100%">
<path style="fill:#D50032;" d="M111.953,36.032c-0.024-0.035-0.122-0.158-0.147-0.193c-2.799-3.908-8.688-7.275-16.001-7.275
			c-14.495,0-28.995,11.86-28.995,35.186c0,17.53,8.83,32.551,27.806,32.551c5.863,0,13.343-3.043,17.337-6.661l0,4.948h3.347h6.628
			h5.233c1.847,0,3.164-1.059,3.164-3.165V79.066c0.001-0.011,0.007-0.018,0.007-0.029V33.571c0-2.105-1.318-3.165-3.164-3.165
			h-5.233h-6.628h-3.354V36.032z M110.563,74.818c-1.58,1.976-6.324,5.536-11.068,5.536c-10.018,0-12.123-9.751-12.123-17.922
			c0-12.256,6.062-17.526,12.519-17.526c3.952,0,8.3,2.372,10.672,4.477V74.818z" />
<path style="fill:#D50032;" d="M17.125,0c-0.396,0-0.921,0-1.45,0.134L3.163,1.846L0,2.31v3.224v3.277v76.665v5.536v3.558h3.559
				h2.812h9.962c2.371,0,3.425-1.45,3.425-3.687v-7.375V66.553v-1.353v-9.088v-1.44V25.554V3.425C19.758,0.792,18.838,0,17.125,0z" />
<path style="fill:#D50032;" d="M64.798,89.961l-19.496-32.27l17.125-23.708c0.525-0.658,0.658-1.317,0.658-1.846
				c0-1.049-0.792-1.713-2.242-1.713h-9.903h-4.318h-3.079l-4.941,8.028c-1.145,1.847-2.29,3.693-3.435,5.54
				c-1.16,1.87-2.319,3.741-3.479,5.611c-0.919,1.481-1.837,2.963-2.756,4.444c-1.314,2.119-2.661,4.218-3.987,6.33
				c1.524,2.744,3.071,5.475,4.6,8.216c1.003,1.798,2.005,3.595,3.008,5.392c1.176,2.108,2.352,4.217,3.528,6.325
				c0.98,1.757,1.96,3.514,2.94,5.271l0,0l4.988,8.988h4.322h2.838h11.916c1.054,0,2.766-0.262,2.766-1.713
				C65.852,91.803,65.323,90.882,64.798,89.961z" />
<path style="fill:#D50032;" d="M237.789,39.779c-2.371-5.4-8.825-11.196-19.095-11.196c-8.3,0-16.991,2.9-22.921,8.825
			c-2.767-4.48-7.637-8.825-16.462-8.825c-6.716,0-13.566,2.633-18.833,7.113l-0.267-2.504c-0.263-1.975-1.579-2.767-3.817-2.767
			h-7.32h-3.484h-3.688v3.425v5.631v37.835v4.991v8.442v3.821h4.083h4.057h7.797c2.638,0,3.821-1.054,3.821-3.821V77.315V51.499
			c3.687-3.292,8.167-5.533,12.512-5.533c5.929,0,7.112,4.217,7.112,9.487v21.862v4.078v9.355v3.821h4.083h4.815h5.984
			c2.633,0,3.821-1.054,3.821-3.821V77.315V51.499c3.554-3.029,8.954-5.533,13.566-5.533c5.925,0,7.112,4.217,7.112,9.487v21.862
			v0.285v13.148v3.821h4.083h8.065h3.789c2.633,0,3.821-1.054,3.821-3.821V77.315V60.324
			C240.427,50.975,240.16,45.046,237.789,39.779z" />
<path style="fill:#D50032;" d="M309.236,68.767c0,10.8,0.262,16.2,4.475,21.204c3.558,4.217,9.488,5.929,16.863,5.929
			c6.058,0,11.854-1.183,16.858-3.425c1.45-0.659,2.108-1.316,2.108-2.766c0-0.392,0-0.792-0.133-1.188l-1.579-8.429
			c-0.262-1.183-0.792-1.841-1.846-1.841c-0.525,0-1.054,0.133-1.841,0.396c-2.638,0.787-5.138,1.579-8.429,1.579
			c-5.796,0-6.721-4.212-6.721-11.062V43.475h14.358c1.842,0,3.158-1.05,3.158-3.024v-7.642c0-1.975-1.316-2.767-3.158-2.767
			h-14.225V14.634c0-2.371-1.054-3.425-3.029-3.425h-0.792l-11.854,1.579l-4.212,0.55V68.767z" />
<path style="fill:#D50032;" d="M398.23,28.709c-1.183-0.262-2.633-0.525-3.687-0.525c-7.771,0-11.721,2.767-16.462,8.429
			l-0.267-3.949c-0.129-1.975-1.317-2.638-3.817-2.638h-8.403h-2.268h-3.817v3.821v5.116v10.954v34.662v5.905v3.687h3.683h3.917
			h8.466c2.633,0,3.687-1.317,3.687-3.687V51.1c3.296-3.292,7.771-5.138,12.121-5.138c1.183,0,2.5,0.134,3.554,0.396h0.262h0.396
			c1.188,0,1.842-0.659,2.108-2.108l1.975-12.378c0.134-0.529,0.134-0.792,0.134-1.184v-0.267
			C399.68,29.501,399.284,28.975,398.23,28.709z" />
<path style="fill:#D50032;" d="M534.908,36.347c-4.217-4.474-10.141-8.033-19.229-8.033c-6.85,0-13.962,3.292-17.387,7.112
			l-0.262-2.633c-0.263-2.108-1.579-2.767-4.083-2.767h-7.275h-2.866h-3.821v3.687v8.696v69.202v7.189v3.949h3.687h5.076h6.912
			c2.633,0,4.083-1.05,4.083-4.083V90.879c3.554,3.292,8.954,5.267,14.75,5.267c8.562,0,15.546-3.425,20.416-9.221
			c5.533-6.454,8.429-15.675,8.429-25.945C543.337,51.889,540.704,42.41,534.908,36.347z M518.971,75.863
			c-1.712,2.371-5.004,4.346-8.825,4.346c-3.821,0-8.033-1.975-10.404-4.217V49.126c2.104-2.241,6.979-4.741,10.8-4.741
			c3.554,0,6.979,1.316,9.221,4.741c1.846,2.763,3.029,7.113,3.029,13.037C522.791,68.226,521.608,72.304,518.971,75.863z" />
<path style="fill:#D50032;" d="M288.569,57.867l-13.57-5.376c-4.564-1.747-5.104-3.489-5.104-5.104
			c0-1.878,2.015-4.296,6.447-4.296c4.301,0,9.809,1.343,14.913,3.226c0.015,0.004,0.029,0.007,0.043,0.011l0.004-0.005
			c0.101,0.035,0.203,0.07,0.305,0.104c0.136,0.046,0.273,0.092,0.409,0.138c0.134,0.045,0.267,0.089,0.401,0.132
			c0.126,0.041,0.251,0.081,0.377,0.121c0.112,0.035,0.225,0.07,0.338,0.104c0.094,0.028,0.188,0.056,0.282,0.081
			c0.07,0.019,0.14,0.04,0.211,0.053c0.085,0.016,0.171,0.035,0.257,0.047c0.095,0.013,0.191,0.02,0.287,0.022
			c0.048,0.001,0.097,0,0.146-0.002c0.092-0.004,0.185-0.013,0.276-0.026c0.113-0.016,0.225-0.038,0.335-0.07
			c0.103-0.029,0.203-0.066,0.3-0.112c0.093-0.044,0.182-0.096,0.266-0.156c0.084-0.06,0.162-0.127,0.234-0.201
			c0.074-0.076,0.142-0.16,0.203-0.247c0.065-0.094,0.122-0.193,0.173-0.295c0.055-0.112,0.103-0.227,0.144-0.344
			c0.046-0.129,0.084-0.261,0.117-0.395c0.026-0.106,0.049-0.213,0.068-0.321c0,0,0.117-0.733,0.148-0.926l1.31-8.19
			c0.117-0.602,0.217-1.346,0.217-1.75c0-1.075-0.672-1.747-1.878-2.282c-7.123-3.226-14.106-4.301-21.092-4.301
			c-11.96,0-25.661,5.775-25.661,20.153c0,9.673,6.452,16.12,13.701,18.806l11.96,4.433c4.968,1.883,6.311,3.225,6.311,5.775
			c0,2.959-2.954,4.705-7.255,4.705c-4.715,0-10.832-1.406-17.236-3.966c-0.004-0.002-0.009-0.002-0.014-0.004l0-0.004
			c-0.113-0.04-0.226-0.08-0.339-0.119c-0.126-0.044-0.252-0.088-0.378-0.131c-0.134-0.046-0.268-0.092-0.402-0.137
			c-0.136-0.046-0.273-0.092-0.409-0.138c-0.134-0.045-0.267-0.089-0.401-0.132c-0.126-0.041-0.251-0.081-0.377-0.121
			c-0.112-0.035-0.225-0.07-0.338-0.104c-0.094-0.028-0.188-0.056-0.282-0.081c-0.07-0.019-0.14-0.04-0.211-0.053
			c-0.085-0.016-0.171-0.035-0.257-0.047c-0.095-0.013-0.191-0.02-0.287-0.022c-0.048-0.001-0.097,0-0.146,0.002
			c-0.092,0.004-0.185,0.013-0.276,0.026c-0.113,0.016-0.225,0.038-0.335,0.07c-0.103,0.029-0.203,0.066-0.3,0.112
			c-0.093,0.044-0.182,0.096-0.266,0.156c-0.084,0.06-0.162,0.127-0.234,0.201c-0.074,0.076-0.142,0.16-0.203,0.247
			c-0.065,0.094-0.122,0.193-0.173,0.295c-0.055,0.112-0.103,0.227-0.144,0.344c-0.046,0.129-0.084,0.261-0.117,0.395
			c-0.026,0.106-0.049,0.213-0.068,0.321c0,0-0.58,3.634-0.933,5.849l-0.001,0.002l-0.518,3.246
			c-0.132,0.54-0.209,1.046-0.209,1.582c0,0.944,0.404,1.883,1.883,2.423c7.386,3.085,15.317,4.968,22.435,4.968
			c13.298,0,27.004-5.912,27.004-21.36C300.66,66.198,295.42,60.554,288.569,57.867z" />
<path style="fill:#D50032;" d="M464.589,30.006H454.44h-1.707h-4.09v3.427v6.451V73.1c-3.689,3.164-9.092,5.14-13.44,5.14
			c-5.933,0-7.513-3.823-7.513-9.226V33.433c0-2.764-1.317-3.427-3.823-3.427h-6.696h-5.165h-4.081v3.427v7.594v31.548
			c0,14.233,6.458,23.458,20.819,23.458c7.775,0,15.025-2.506,21.086-7.25l0,0v5.403h3.818h6.99h3.687
			c3.164,0,4.085-1.055,4.085-4.348V33.433C468.412,30.67,467.095,30.006,464.589,30.006z" />
</svg>
