<svg id="Lager_1" data-name="Lager 1" xmlns="http://www.w3.org/2000/svg" viewBox="0 0 900 563"><defs><style>.cls-1{fill:#00283b;}</style></defs><title>1Tia_Logo_Pos</title><path class="cls-1" d="M115.72,554.92C39.14,554.92,1.2,511.17,1.2,438.22V51.47H92.38V170.92h90v90.86h-90v168.4c0,29.19,13.15,41.57,42.31,41.57a453.35,453.35,0,0,0,59.09-3.64V544.7A309.69,309.69,0,0,1,115.72,554.92Z"/><path class="cls-1" d="M387.82,554.92c-76.58,0-114.52-43.75-114.52-116.7V170.79h91.18V430.18c0,29.19,13.15,41.67,42.31,41.57,16-.06,21.52-2.41,26.37-3.64V544.7C432.21,545.3,414.83,554.92,387.82,554.92Z"/><circle class="cls-1" cx="319.12" cy="51.36" r="46.88"/><path class="cls-1" d="M872.58,471.5c-29.16.1-42.31-12.38-42.31-41.58V170.74l-90.87,0v52.87c-33.3-33.49-71.83-52.72-114-52.72-49.06,0-89.91,18.55-122.54,54.91s-48.94,81.82-48.94,136.37q0,83.31,48.94,139,49.32,54.55,124.78,54.55c37.2,0,89.71-26.75,123.81-56.18,16.64,35.27,50.56,55.13,102.15,55.13,27,0,44.39-9.62,45.33-10.22V467.86C894.1,469.09,888.63,471.44,872.58,471.5ZM739.87,375.71q-3.2,36.78-27,61.86c-18.33,18.65-42.17,30.34-71.92,30.34-27.85,0-51.13-12-69.46-31.32Q544.72,408,544.72,362.43q0-42.6,27.49-71.55c18.57-19.09,41.83-28.51,69.44-28.51s52.9,9.31,71.23,28.18q23.82,25.08,27,61.88Z"/></svg>