<svg width="841" height="602" viewBox="0 0 841 602" fill="none" xmlns="http://www.w3.org/2000/svg">
<g opacity="0.5">
<circle cx="1" cy="121" r="1" fill="white"/>
<circle cx="121" cy="121" r="1" fill="white"/>
<circle cx="241" cy="121" r="1" fill="white"/>
<circle cx="361" cy="121" r="1" fill="white"/>
<circle cx="481" cy="121" r="1" fill="white"/>
<circle cx="601" cy="121" r="1" fill="white"/>
<circle cx="721" cy="121" r="1" fill="white"/>
<circle cx="841" cy="121" r="1" fill="white"/>
<circle cx="1" cy="1" r="1" fill="white"/>
<circle cx="121" cy="1" r="1" fill="white"/>
<circle cx="241" cy="1" r="1" fill="white"/>
<circle cx="361" cy="1" r="1" fill="white"/>
<circle cx="481" cy="1" r="1" fill="white"/>
<circle cx="601" cy="1" r="1" fill="white"/>
<circle cx="721" cy="1" r="1" fill="white"/>
<circle cx="841" cy="1" r="1" fill="white"/>
<circle cx="1" cy="241" r="1" fill="white"/>
<circle cx="121" cy="241" r="1" fill="white"/>
<circle cx="241" cy="241" r="1" fill="white"/>
<circle cx="361" cy="241" r="1" fill="white"/>
<circle cx="481" cy="241" r="1" fill="white"/>
<circle cx="601" cy="241" r="1" fill="white"/>
<circle cx="721" cy="241" r="1" fill="white"/>
<circle cx="841" cy="241" r="1" fill="white"/>
<circle cx="1" cy="361" r="1" fill="white"/>
<circle cx="121" cy="361" r="1" fill="white"/>
<circle cx="241" cy="361" r="1" fill="white"/>
<circle cx="361" cy="361" r="1" fill="white"/>
<circle cx="481" cy="361" r="1" fill="white"/>
<circle cx="601" cy="361" r="1" fill="white"/>
<circle cx="721" cy="361" r="1" fill="white"/>
<circle cx="841" cy="361" r="1" fill="white"/>
<circle cx="1" cy="481" r="1" fill="white"/>
<circle cx="121" cy="481" r="1" fill="white"/>
<circle cx="241" cy="481" r="1" fill="white"/>
<circle cx="361" cy="481" r="1" fill="white"/>
<circle cx="481" cy="481" r="1" fill="white"/>
<circle cx="601" cy="481" r="1" fill="white"/>
<circle cx="721" cy="481" r="1" fill="white"/>
<circle cx="841" cy="481" r="1" fill="white"/>
<circle cx="1" cy="601" r="1" fill="white"/>
<circle cx="121" cy="601" r="1" fill="white"/>
<circle cx="241" cy="601" r="1" fill="white"/>
<circle cx="361" cy="601" r="1" fill="white"/>
<circle cx="481" cy="601" r="1" fill="white"/>
<circle cx="601" cy="601" r="1" fill="white"/>
<circle cx="721" cy="601" r="1" fill="white"/>
<circle cx="841" cy="601" r="1" fill="white"/>
<path fill-rule="evenodd" clip-rule="evenodd" d="M722 109H720V120H709V122H720V133H722V122H733V120H722V109Z" fill="white"/>
</g>
</svg>
