<svg xmlns="http://www.w3.org/2000/svg" width="492" height="492" fill="none" viewBox="0 0 492 492">
    <path fill="#fff" d="M0 0h492v492H0z"/>
    <path fill="url(#a)" d="M73.108 173.074c0-17.346 14.932-35.519 33.974-24.156.237.141.47.283.699.426 4.214 2.631-8.447 33.099-13.415 33.099H77.108a4 4 0 0 1-4-4v-5.369z"/>
    <path fill="url(#b)" d="M94.057 250.321c0-11.89 14.382-17.571 22.05-8.654 3.853 4.478 8.072 7.751 14.712 6.096 26.379-6.622 21.5 20.845 43.22 21.522H109.1c-8.292 0-15.043-6.885-15.043-15.427v-3.537z"/>
    <path fill="#2B2B2B" d="M336.532 204.116c-1.321-6.02 3.779-20.356 14.749-23.479 10.97-3.123 25.792-5.983 32.946-.489 7.155 5.456 29.828 55.65 26.526 65.357-4.732 13.885-16.766 28.408-32.836 22.689-16.106-5.681-37.312-45.189-41.385-64.078zM321.47 160.509a2.583 2.583 0 0 0-1.904 2.519l.2 19.378c.036 3.875 3.999 6.434 7.411 4.778l4.107-1.986a4 4 0 0 0 1.862-5.338l-8.668-17.98a2.583 2.583 0 0 0-3.008-1.371z"/>
    <path fill="url(#c)" d="M261.944 226.805l33.485 1.367c1.009.041 1.193 1.458.229 1.756-.932.287-1.59-.907-.849-1.541l37.614-32.21c5.137-4.402 12.805-3.688 17.097 1.58 4.293 5.268 3.596 13.132-1.541 17.534l-40.908 35.031-.623.526a10.246 10.246 0 0 1-8.512 2.296l-37.349-7.074"/>
    <path fill="#DE6381" d="M260.587 246.032l-9.282-1.768c-4.77-.903-7.888-5.607-7.008-10.461.807-4.439 4.66-7.525 8.952-7.337l8.695.339"/>
    <path fill="#FDC068" d="M334.222 185.792l8.218-2.258c4.256-1.166 6.788-5.644 5.65-10.008l-3.302-12.681c-1.834-6.96-8.805-11.099-15.592-9.256-6.788 1.882-10.824 9.031-9.026 15.992l3.045 11.626c1.248 4.967 6.164 7.902 11.007 6.585z"/>
    <path fill="#2B2B2B" d="M320.793 172.773c.79 0 1.431-.657 1.431-1.467 0-.811-.641-1.468-1.431-1.468s-1.431.657-1.431 1.468c0 .81.641 1.467 1.431 1.467z"/>
    <path fill="url(#d)" d="M345.026 181.983c-.026-.599.346-1.116.783-1.526 2.274-2.135 10.01-8.915 15.892-8.248 4.628.524 8.9 12.708 11.249 20.839.885 3.063-2.065 5.64-4.992 4.375-8.737-3.778-22.72-10.571-22.932-15.44z"/>
    <path stroke="#2B2B2B" stroke-linecap="round" stroke-miterlimit="10" stroke-width="3" d="M359.94 175.934l-9.209 8.767"/>
    <path fill="url(#e)" d="M370.423 200.345c-.018-.07-.028-.142-.05-.211l-.006-.021c-.01-.039-.011-.081-.021-.12-.037-.162-.096-.324-.13-.485a.024.024 0 0 0-.024-.02.022.022 0 0 1-.022-.016c-2.432-6.465-12.402-12.398-21.714-9.466l-8.622 2.408c-10.603 3.311-14.272 14.599-12.474 20.883l3.245 19.805a3.999 3.999 0 0 0 4.101 3.35l37.753-1.45c3.238-.124 5.364-4.112 4.308-7.175-2.754-7.99-4.2-19.141-6.344-27.482z"/>
    <path fill="#2B2B2B" d="M335.505 238.093c-15.893-31.66-5.244-42.071-3.525-43.476.15-.123.317-.199.503-.255 1.933-.581 4.416 2.682 3.763 4.592-2.46 7.195-3.506 20.361 6.854 41.02"/>
    <path fill="#FDC068" d="M344.421 198.397l7.166-5.165a4 4 0 0 0 1.48-4.433l-5.371-17.268a4 4 0 0 0-4.873-2.67l-5.746 1.568a4 4 0 0 0-2.863 4.67l4.336 20.927c.587 2.709 3.669 3.951 5.871 2.371z"/>
    <path stroke="#2B2B2B" stroke-linecap="round" stroke-miterlimit="10" stroke-width="2.242" d="M324.572 169.989l-1.174 2.596c-.22.527 0 1.129.513 1.355l1.321.376M325.746 178.041s1.871 1.919 3.595-.753"/>
    <path fill="#2B2B2B" d="M336.619 186.671a1.611 1.611 0 0 1 1.152-1.881c1.404-.384 2.558 1.144 1.803 2.389-.759 1.251-2.658.925-2.955-.508zM328.791 170.666c.79 0 1.431-.657 1.431-1.467 0-.811-.641-1.468-1.431-1.468s-1.431.657-1.431 1.468c0 .81.641 1.467 1.431 1.467z"/>
    <path fill="url(#f)" d="M364.415 267.918a4.001 4.001 0 0 1-4.545 3.414l-43.727-6.432c-3.237-.476-4.564-4.427-2.271-6.761l8.362-8.512c2.336-2.378 6.385-1.023 6.819 2.282l10.851 82.521a4 4 0 0 1-3.417 4.483l-16.11 2.234a3.958 3.958 0 0 1-4.323-2.699c-2.128-6.634-4.001-13.295-5.901-19.985-2.128-7.713-4.109-15.502-6.053-23.253-.918-3.876-1.872-7.751-2.752-11.664l-1.358-5.832-1.284-5.832c-1.724-7.789-3.338-15.578-4.916-23.404-1.798-8.955 3.852-17.722 12.584-19.566a17.234 17.234 0 0 1 3.889-.339l2.935.151c4.697.226 9.356.564 14.015.941 4.66.413 9.319.903 13.942 1.542 4.623.602 9.246 1.355 13.868 2.22l3.449.677c1.137.264 2.311.49 3.449.753l3.412.828 1.688.489.843.226c.487.152.793.633.724 1.139l-4.173 30.379z"/>
    <path fill="#2B2B2B" d="M316.412 343.075a4 4 0 0 1-1.319 4.231l-4.94 4.005c-3.316 2.703-4.649 7.12-3.575 11.137.464 1.735 2.387 2.448 4.115 1.962l28.634-8.059a4.002 4.002 0 0 0 2.882-4.371l-3.983-30.356a4 4 0 0 0-4.994-3.345l-18.381 4.887a4.001 4.001 0 0 0-2.811 4.991l4.372 14.918z"/>
    <path fill="url(#g)" d="M379.519 233.323a4 4 0 0 1 4.564 3.367l10.271 69.281-.367-1.768 19.214 76.386a3.999 3.999 0 0 1-2.857 4.843l-15.838 4.185c-1.822.482-3.737-.373-4.563-2.068-2.607-5.348-4.968-10.766-7.33-16.183-2.751-6.396-5.356-12.83-7.888-19.302-1.247-3.236-2.495-6.472-3.705-9.708l-1.798-4.854-1.761-4.891c-2.348-6.51-4.586-13.057-6.788-19.604l-.366-1.768a608.918 608.918 0 0 1-3.779-18.136c-1.138-6.058-2.238-12.153-3.192-18.249-.954-6.095-1.835-12.191-2.532-18.362l-.513-4.59c-.147-1.543-.331-3.086-.441-4.628l-.367-4.628-.146-2.333-.074-1.167a1.318 1.318 0 0 1 1.117-1.343l29.139-4.48z"/>
    <path fill="#2B2B2B" d="M375.875 262.364c-3.648 1.072-3.882 6.151-.349 7.555l8.156 3.241c2.798 1.111 5.774-1.15 5.455-4.143l-.585-5.466a4 4 0 0 0-5.105-3.412l-7.572 2.225z"/>
    <path fill="url(#h)" d="M348.916 232.303c-4.185-.644-9.186 7.878-7.664 11.829 2.235 5.799 4.529 12.034 10.029 16.763 8.438 7.255 25.852 4.785 33.281 3.302 1.997-.399 3.255-2.305 2.957-4.319l-3.434-23.177a4 4 0 0 0-4.575-3.366l-8.238 1.289c-2.426.379-6.793.299-9.21-.133a573.55 573.55 0 0 0-13.146-2.188z"/>
    <path fill="#2B2B2B" d="M385.827 237.43c-2.636-1.258-5.591.676-5.291 3.581.389 3.769 1.138 8.851 2.583 14.178 1.077 3.973 5.449 2.941 5.332-1.174l-.376-13.132a3.949 3.949 0 0 0-2.248-3.453z"/>
    <path fill="#DE6381" d="M416.55 265.033l3.119 9.219c1.577 4.703-.844 9.82-5.394 11.438-4.145 1.468-8.621-.413-10.603-4.251l-4.512-8.617"/>
    <path fill="url(#i)" d="M399.16 272.785l-15.96-30.629c.235.367-.268.752-.561.431l-28.129-30.833c-4.586-5.004-4.329-12.906.587-17.571 4.916-4.666 12.584-4.44 17.133.602l30.929 33.901.514.565a8.802 8.802 0 0 1 1.724 2.934l11.117 32.811"/>
    <path fill="#2B2B2B" d="M385.695 247.989c-45.598-13.802-36.715-52.837-28.707-58.153a.804.804 0 0 1 .602-.108c1.016.189 2.148 3.879 1.649 4.784-5.48 9.919-8.372 36.633 26.016 48.849M336.103 157.392c-2.39.96-2.944 4.044-1.92 6.407.637 1.47 1.138 3.222 1.138 5.099 0 2.558.257 7.45.514 11.701.22 3.763 4.072 6.096 7.411 4.516l6.09-2.935c2.642-1.28 3.926-4.403 2.899-7.225-2.458-6.885-6.934-18.437-9.356-18.963-1.709-.366-4.429.457-6.776 1.4z"/>
    <path fill="#DE6381" d="M340.861 150.16l-21.499 4.515c-1.504.301-2.495 1.843-2.165 3.386l.294 1.505c.293 1.543 1.798 2.559 3.302 2.22l21.499-4.515c1.505-.301 2.495-1.844 2.165-3.386l-.294-1.505c-.33-1.543-1.797-2.521-3.302-2.22z"/>
    <path fill="#DE6381" d="M328.131 142.483c-4.84 1.013-7.422 7.697-8.557 11.736-.412 1.468.89 2.75 2.382 2.437l2.642-.553c2.215-.465 5.747-14.087 3.533-13.62z"/>
    <path stroke="#2B2B2B" stroke-linecap="round" stroke-miterlimit="10" stroke-width="3.296" d="M319.362 154.675l21.206-4.44"/>
    <path stroke="#2B2B2B" stroke-linecap="round" stroke-miterlimit="10" stroke-width="7" d="M247.159 292.313l8.512-117.094"/>
    <path fill="url(#j)" d="M252.504 212.339c-.248 3.599-5.033 5.221-8.148 3.401-10.462-6.11-21.631-1.024-33.776 3.916-14.506 5.9-26.908 9.119-39.785-.931-.979-.764-1.486-1.978-1.418-3.218.662-12.074 1.346-24.169 2.014-36.248.184-3.313 4.182-5.048 7.124-3.515 11.184 5.825 22.251 2.593 34.927-2.369 14.857-5.837 29.923-13.036 40.734 1.545.53.714.765 1.609.706 2.496a16848.08 16848.08 0 0 1-2.378 34.923z"/>
    <path fill="#92BFFC" d="M209.376 163.154a4 4 0 0 0-2.984 3.662l-3.63 69.412a4 4 0 0 0 4.544 4.171l14.427-2.003a3.999 3.999 0 0 0 3.444-3.746l3.855-71.232c.147-2.705-2.382-4.771-5.004-4.087l-14.652 3.823zM173.711 159.179a4 4 0 0 0-2.555 3.588l-2.476 69.45c-.092 2.59 2.265 4.583 4.803 4.061l7.128-1.466a4 4 0 0 0 3.192-3.771l2.597-70.788c.105-2.871-2.76-4.914-5.44-3.877l-7.249 2.803z"/>
    <path stroke="#CEE4FD" stroke-linecap="round" stroke-miterlimit="10" stroke-width="11" d="M115.814 359.062v-63.438M115.814 308.116c.733 4.515 4.696 7.676 9.135 7.337M115.814 308.116c-.734 4.515-4.696 7.676-9.136 7.337M115.814 297.731c.733 4.515 4.696 7.676 9.135 7.337M115.814 297.731c-.734 4.515-4.696 7.676-9.136 7.337M138.597 387.583v-63.438M138.597 336.637c.734 4.515 4.697 7.676 9.136 7.337M138.597 336.637c-.733 4.515-4.696 7.676-9.135 7.337M138.597 326.252c.734 4.515 4.697 7.676 9.136 7.337M138.597 326.252c-.733 4.515-4.696 7.676-9.135 7.337"/>
    <path fill="url(#k)" d="M145.015 382.973a3.999 3.999 0 0 0 .283-5.085l-18.404-24.996c-9.98-13.546-29.645-14.035-40.248-.979l-8.548 10.46a26.83 26.83 0 0 0-5.98 16.895v61.997a4 4 0 0 0 4 4h9.621a4 4 0 0 0 2.939-1.286l56.337-61.006z"/>
    <path fill="url(#l)" d="M406.828 445.265l-70.699-109.531c-13.722-21.259-34.231-36.912-57.968-44.324a104.2 104.2 0 0 0-61.967 0c-23.774 7.412-44.283 23.065-57.968 44.324L87.49 445.265"/>
    <path fill="#C5B3FE" d="M390.718 420.34c-1.75-2.717-5.732-1.894-5.4 1.321.162 1.578.581 2.986 1.441 3.812 2.742 2.636 6.619-1.005 4.559-4.202l-.6-.931z"/>
    <path stroke="url(#m)" stroke-linecap="round" stroke-miterlimit="10" stroke-width="11" d="M306.228 445.265v-77.887"/>
    <path stroke="#81B1F9" stroke-linecap="round" stroke-miterlimit="10" stroke-width="11" d="M306.228 378.59c.733 4.516 4.696 7.676 9.135 7.338M306.228 378.59c-.734 4.516-4.696 7.676-9.136 7.338M306.228 388.938c.733 4.515 4.696 7.675 9.135 7.337M306.228 388.938c-.734 4.515-4.696 7.675-9.136 7.337M306.228 368.206c.733 4.515 4.696 7.675 9.135 7.337M306.228 368.206c-.734 4.515-4.696 7.675-9.136 7.337"/>
    <path stroke="url(#n)" stroke-linecap="round" stroke-miterlimit="10" stroke-width="11" d="M230.943 445.265v-43.421"/>
    <path stroke="#81B1F9" stroke-linecap="round" stroke-miterlimit="10" stroke-width="11" d="M230.943 413.057c.733 4.515 4.696 7.675 9.135 7.337M230.943 413.057c-.734 4.515-4.697 7.675-9.136 7.337M230.943 402.672c.733 4.515 4.696 7.675 9.135 7.337M230.943 402.672c-.734 4.515-4.697 7.675-9.136 7.337"/>
    <path fill="#2B2B2B" d="M390.991 390.639a4 4 0 0 1-.647 4.371l-4.282 4.764c-2.862 3.177-3.493 7.74-1.858 11.538.717 1.664 2.745 2.081 4.389 1.322l27.073-12.508a4.001 4.001 0 0 0 2.164-4.746l-8.514-29.353a3.999 3.999 0 0 0-5.468-2.54l-17.437 7.763a4 4 0 0 0-1.995 5.351l6.575 14.038z"/>
    <path stroke="#2B2B2B" stroke-linecap="round" stroke-miterlimit="10" stroke-width="3" d="M351.538 262.324l1.137 7.977M364.489 222.704l10.346 11.325M364.489 226.203l2.935-.715M295.038 228.159l5.576.226M331.176 267.705l-.734-5.381"/>
    <path fill="#DE6381" d="M248.736 231.251c.103-2.131 1.843-4.442 3.963-4.195 1.281.149 2.414.903 2.678 3.248.257 2.371-.147 4.478-1.577 6.171-1.841 2.213-5.33.285-5.191-2.591l.127-2.633z"/>
    <path stroke="#fff" stroke-linecap="round" stroke-miterlimit="10" stroke-width="3" d="M205.811 287.572l1.981 4.026"/>
    <path stroke="#fff" stroke-linecap="round" stroke-miterlimit="10" stroke-width="2.688" d="M214.726 288.549l4.256-.262"/>
    <path stroke="#fff" stroke-linecap="round" stroke-miterlimit="10" stroke-width="3" d="M212.378 279.068l-1.321 4.327M189.521 280.95l2.348 3.838"/>
    <path stroke="#fff" stroke-linecap="round" stroke-miterlimit="10" stroke-width="2.688" d="M198.547 281.138l4.182-.678"/>
    <path stroke="#fff" stroke-linecap="round" stroke-miterlimit="10" stroke-width="3" d="M195.391 271.882l-.953 4.44M174.662 337.615l1.982 4.026M183.578 338.593l4.256-.301M181.229 329.112l-1.32 4.289M174.662 351.236l1.982 4.026M183.614 352.214l4.219-.263M181.266 342.732l-1.32 4.327M158.373 330.993l2.348 3.838M167.398 331.143l4.182-.639M164.243 321.925l-.954 4.402M159.583 344.576l2.312 3.8M168.572 344.727l4.183-.678M165.417 335.508l-.954 4.402M161.087 359.89l1.982 4.026M170.039 360.868l4.22-.301M167.691 351.386l-1.32 4.29M161.087 373.511l2.018 4.026M170.039 374.488l4.22-.3M167.691 365.007l-1.32 4.327M144.834 353.268l2.312 3.8M153.823 353.418l4.183-.677M150.668 344.2l-.954 4.402M146.008 366.813l2.348 3.838M154.997 367.002l4.183-.678M151.842 357.783l-.954 4.402M201.298 306.197l1.981 4.026M210.25 307.175l4.219-.263M207.902 297.731l-1.321 4.289M186.219 299.537l2.312 3.838M195.208 299.688l4.182-.64M192.053 290.469l-.954 4.402M187.723 314.851l2.018 4.026M196.675 315.829l4.219-.263M194.327 306.348l-1.32 4.327M187.76 328.472l1.981 4.026M196.675 329.45l4.256-.263M194.327 320.006l-1.321 4.289M171.47 308.229l2.348 3.838M180.459 308.379l4.219-.639M177.304 299.161l-.918 4.402M172.644 321.812l2.348 3.838M181.67 321.962l4.182-.639M178.514 312.744l-.953 4.402M147.916 383.332l1.981 4.026M156.868 384.309l4.22-.263M154.52 374.828l-1.321 4.327M147.916 396.952l1.981 4.026M156.868 397.93l4.22-.263M154.52 388.486l-1.321 4.29M131.663 376.709l2.311 3.838M140.652 376.86l4.182-.64M137.497 367.641l-.954 4.403M132.837 390.292l2.312 3.838M141.826 390.443l4.182-.64M138.671 381.224l-.954 4.403M134.341 405.606l2.018 4.026M143.293 406.584l4.22-.3M140.945 397.103l-1.32 4.327M134.378 419.227l1.981 4.026M143.33 420.205l4.219-.263M140.982 410.724l-1.357 4.327M118.088 398.984l2.348 3.838M127.077 399.135l4.219-.64M123.959 389.916l-.954 4.402M119.299 412.567l2.311 3.801M128.288 412.718l4.182-.677M125.133 403.499l-.954 4.403M206.214 346.683l-4.402.376M200.748 339.384l-1.981-3.876M209.847 336.486l-2.899 3.424M194.841 353.795l-4.366.337M189.374 346.457l-1.944-3.837M198.473 343.598l-2.861 3.386M220.193 357.481l-4.403-.037M215.35 349.693l-1.614-4.026M224.669 347.661l-3.155 3.123M208.269 363.501l-4.403-.036M203.426 355.714l-1.614-3.989M212.745 353.682l-3.155 3.123M194.731 370.162l-4.403.338M189.264 362.825l-1.981-3.838M198.363 359.965l-2.898 3.387M183.357 377.236l-4.366.375M177.891 369.936l-1.981-3.875M186.99 367.039l-2.899 3.424M208.709 380.96l-4.402-.037M203.866 373.172l-1.614-4.026M213.185 371.103l-3.155 3.16M196.786 386.98l-4.403-.036M191.943 379.193l-1.615-4.026M201.262 377.161l-3.156 3.123M218.469 307.025l-1.358 3.198M213.002 299.688l-1.981-3.838M222.101 296.828l-2.899 3.386M231.896 316.77l-4.402-.075M227.053 308.944l-1.614-3.989M236.373 306.912l-3.156 3.123M218.322 323.392l-4.366.338M212.855 316.055l-1.944-3.838M221.991 313.196l-2.899 3.386M206.985 330.466l-3.119 2.032M201.518 323.167l-1.981-3.876M210.617 320.269l-2.898 3.424M232.3 334.19l-4.403-.036M227.494 326.402l-1.614-4.026M236.813 324.371l-3.155 3.123M220.413 340.21l-4.403-.036M215.57 332.423l-1.614-4.026M224.889 330.391l-3.155 3.123M182.037 393.905l-4.366.337M176.57 386.567l-1.945-3.838M185.669 383.708l-2.862 3.386M170.7 400.978l-4.403.376M165.233 393.679l-1.981-3.876M174.332 390.781l-2.898 3.424M196.015 404.702l-4.403-.036M191.209 396.915l-1.651-4.026M200.528 394.883l-3.192 3.123M184.091 410.722l-4.403-.036M179.285 402.935l-1.614-4.026M188.604 400.903l-3.192 3.123M170.553 417.384l-4.366.337M165.087 410.046l-1.982-3.837M174.186 407.187l-2.899 3.386M159.216 424.457l-4.402.338M153.75 417.12l-1.981-3.838M162.849 414.26l-2.899 3.387M184.532 428.144l-4.403-.037M179.725 420.356l-1.651-3.988M189.044 418.324l-3.192 3.123M172.608 434.202l-4.403-.075M167.802 426.414l-1.615-4.026M177.12 424.345l-3.192 3.123"/>
    <path fill="#22224B" d="M48.502 38.68c0 .192.128.32.32.32h4.064c.192 0 .32-.128.32-.32v-8.384c0-.128.064-.192.192-.192h7.104c.128 0 .192.064.192.192v8.384c0 .192.128.32.32.32h4.064c.192 0 .32-.128.32-.32V17.56c0-.192-.128-.32-.32-.32h-4.064c-.192 0-.32.128-.32.32v8.16c0 .128-.064.192-.192.192h-7.104c-.128 0-.192-.064-.192-.192v-8.16c0-.192-.128-.32-.32-.32h-4.064c-.192 0-.32.128-.32.32v21.12zM75.965 39.352c3.263 0 5.823-1.536 6.72-4.352.352-1.12.511-2.208.511-3.744s-.16-2.624-.511-3.744c-.897-2.816-3.457-4.352-6.72-4.352-3.264 0-5.825 1.536-6.72 4.352-.353 1.12-.513 2.208-.513 3.744s.16 2.624.513 3.744c.895 2.816 3.456 4.352 6.72 4.352zm0-3.776c-1.184 0-2.049-.576-2.4-1.664-.224-.704-.288-1.344-.288-2.656s.064-1.952.287-2.656c.353-1.088 1.217-1.664 2.4-1.664 1.184 0 2.049.576 2.4 1.664.224.704.288 1.344.288 2.656s-.064 1.952-.287 2.656c-.352 1.088-1.216 1.664-2.4 1.664zM102.574 39c.192 0 .32-.128.384-.32l4.96-14.848c.064-.192-.032-.32-.256-.32h-3.936c-.224 0-.352.096-.416.32l-2.432 9.216h-.064l-2.72-9.216c-.064-.224-.192-.32-.416-.32H94.99c-.224 0-.384.096-.448.32l-2.656 9.216h-.064l-2.56-9.216c-.064-.224-.192-.32-.448-.32h-3.936c-.192 0-.288.128-.224.32l4.96 14.848c.064.192.192.32.384.32h3.168c.192 0 .32-.128.384-.32l2.72-8.992h.064l2.656 8.992c.064.192.192.32.384.32h3.2zM131.343 39c.192 0 .32-.128.32-.32V17.56c0-.192-.128-.32-.32-.32h-3.84c-.192 0-.32.128-.32.32v7.392h-.032c-.736-1.056-2.016-1.792-4.064-1.792-2.592 0-4.448 1.248-5.248 3.712-.384 1.216-.544 2.368-.544 4.384 0 1.984.16 3.168.544 4.384.8 2.432 2.656 3.712 5.248 3.712 2.048 0 3.328-.736 4.064-1.792h.032v1.12c0 .192.128.32.32.32h3.84zm-6.816-3.424c-1.216 0-2.048-.576-2.4-1.664-.192-.608-.288-1.28-.288-2.656 0-1.376.096-2.048.288-2.656.352-1.12 1.184-1.664 2.4-1.664 1.184 0 2.016.544 2.368 1.664.192.608.288 1.28.288 2.656 0 1.376-.096 2.048-.288 2.656-.352 1.088-1.184 1.664-2.368 1.664zM142.152 39.352c3.264 0 5.824-1.536 6.72-4.352.352-1.12.512-2.208.512-3.744s-.16-2.624-.512-3.744c-.896-2.816-3.456-4.352-6.72-4.352s-5.824 1.536-6.72 4.352c-.352 1.12-.512 2.208-.512 3.744s.16 2.624.512 3.744c.896 2.816 3.456 4.352 6.72 4.352zm0-3.776c-1.184 0-2.048-.576-2.4-1.664-.224-.704-.288-1.344-.288-2.656s.064-1.952.288-2.656c.352-1.088 1.216-1.664 2.4-1.664s2.048.576 2.4 1.664c.224.704.288 1.344.288 2.656s-.064 1.952-.288 2.656c-.352 1.088-1.216 1.664-2.4 1.664zM159.281 39.352c2.848 0 5.12-1.024 6.592-2.592.128-.128.128-.32-.032-.448l-2.112-1.984c-.128-.16-.288-.128-.448 0-.896.832-2.016 1.376-3.552 1.376-1.6 0-2.784-.704-3.2-2.048a3.428 3.428 0 0 1-.192-.864c0-.128.064-.192.192-.192h9.376c.224 0 .352-.128.352-.32 0-2.624-.192-3.744-.512-4.768-.896-2.72-3.264-4.352-6.688-4.352-3.296 0-5.76 1.6-6.656 4.384-.32.96-.512 2.08-.512 3.712 0 1.6.224 2.72.544 3.68.896 2.784 3.328 4.416 6.848 4.416zm-2.752-9.728c-.128 0-.192-.064-.192-.192 0-.48.064-.832.16-1.152.352-1.056 1.312-1.696 2.592-1.696s2.24.64 2.592 1.696c.096.32.16.672.16 1.152 0 .128-.064.192-.192.192h-5.12zM175.612 39.352c4.416 0 6.88-2.144 6.912-5.312 0-2.592-1.504-4.352-5.152-4.704l-1.696-.192c-1.76-.16-2.144-.576-2.144-1.28 0-.768.64-1.28 1.952-1.28 1.6 0 3.136.576 4.192 1.248.16.096.32.096.448-.064l1.792-2.208c.128-.16.096-.352-.032-.48-1.44-1.088-3.648-1.92-6.272-1.92-4.032 0-6.368 1.92-6.368 4.96 0 2.784 1.792 4.416 5.056 4.736l1.728.192c1.792.16 2.208.608 2.208 1.344 0 .864-.768 1.472-2.4 1.472-1.6 0-3.36-.64-4.736-1.696-.16-.128-.32-.128-.448 0l-2.08 2.336a.31.31 0 0 0 0 .448c1.472 1.28 3.808 2.4 7.04 2.4zM197.41 21.048c.192 0 .32-.128.32-.32V17.56c0-.192-.128-.32-.32-.32h-3.84c-.192 0-.32.128-.32.32v3.168c0 .192.128.32.32.32h3.84zm0 17.952c.192 0 .32-.128.32-.32V23.832c0-.192-.128-.32-.32-.32h-3.84c-.192 0-.32.128-.32.32V38.68c0 .192.128.32.32.32h3.84zM215.222 39c.192 0 .32-.128.32-.32v-9.76c0-3.392-1.856-5.76-5.28-5.76-1.984 0-3.296.8-4 1.76h-.032v-1.088c0-.192-.128-.32-.32-.32h-3.84c-.192 0-.32.128-.32.32V38.68c0 .192.128.32.32.32h3.84c.192 0 .32-.128.32-.32v-8.896c0-1.696.896-2.816 2.432-2.816 1.6 0 2.4 1.12 2.4 2.816v8.896c0 .192.128.32.32.32h3.84zM226.382 39.192c.192 0 .32-.128.32-.32v-3.168c0-.192-.128-.32-.32-.32h-.768c-1.024 0-1.408-.384-1.408-1.536V27c0-.128.064-.192.192-.192h1.984c.192 0 .32-.128.32-.32v-2.656c0-.192-.128-.32-.32-.32h-1.984c-.128 0-.192-.064-.192-.192v-4.16c0-.192-.128-.32-.32-.32h-3.808c-.192 0-.32.128-.32.32v4.16c0 .128-.064.192-.192.192h-.96c-.192 0-.32.128-.32.32v2.656c0 .192.128.32.32.32h.96c.128 0 .192.064.192.192v7.04c0 3.552 1.344 5.152 4.928 5.152h1.696zM236.656 39.352c2.848 0 5.12-1.024 6.592-2.592.128-.128.128-.32-.032-.448l-2.112-1.984c-.128-.16-.288-.128-.448 0-.896.832-2.016 1.376-3.552 1.376-1.6 0-2.784-.704-3.2-2.048a3.428 3.428 0 0 1-.192-.864c0-.128.064-.192.192-.192h9.376c.224 0 .352-.128.352-.32 0-2.624-.192-3.744-.512-4.768-.896-2.72-3.264-4.352-6.688-4.352-3.296 0-5.76 1.6-6.656 4.384-.32.96-.512 2.08-.512 3.712 0 1.6.224 2.72.544 3.68.896 2.784 3.328 4.416 6.848 4.416zm-2.752-9.728c-.128 0-.192-.064-.192-.192 0-.48.064-.832.16-1.152.352-1.056 1.312-1.696 2.592-1.696s2.24.64 2.592 1.696c.096.32.16.672.16 1.152 0 .128-.064.192-.192.192h-5.12zM251.067 39c.192 0 .32-.128.32-.32v-8.16c0-2.08.736-3.296 2.4-3.36.768-.032 1.504.224 2.24.704.192.096.32.096.448-.064l1.792-3.264c.096-.192.064-.32-.096-.448-.672-.576-1.696-.928-2.72-.928-1.888 0-3.296.736-4.032 1.984h-.032v-1.312c0-.192-.128-.32-.32-.32h-3.84c-.192 0-.32.128-.32.32V38.68c0 .192.128.32.32.32h3.84zM272.39 39c.192 0 .32-.128.32-.32v-9.92c0-3.872-1.824-5.6-6.88-5.6-2.56 0-4.448.608-5.76 1.536-.16.096-.192.256-.096.448l1.44 2.528c.096.16.256.192.416.064.736-.544 1.888-.992 3.456-.992 2.464 0 3.168.672 3.168 2.112v.576c0 .128-.064.192-.192.192h-2.752c-3.84 0-6.432 1.568-6.432 4.992 0 3.296 2.4 4.736 5.152 4.736 2.112 0 3.456-.672 4.256-1.696h.032v1.024c0 .192.128.32.32.32h3.552zm-6.816-3.008c-1.472 0-2.24-.544-2.24-1.632 0-1.216.864-1.76 2.752-1.76h2.176c.128 0 .192.064.192.192v1.056c0 1.44-.96 2.144-2.88 2.144zM283.057 39.352c2.656 0 4.736-1.216 5.856-2.912.096-.16.096-.32-.064-.448l-2.784-1.824c-.192-.128-.352-.096-.48.064-.672.928-1.344 1.344-2.464 1.344-1.184 0-2.048-.544-2.4-1.664-.224-.64-.288-1.376-.288-2.656 0-1.28.064-2.016.288-2.656.352-1.12 1.216-1.664 2.4-1.664 1.12 0 1.792.416 2.464 1.344.128.16.288.192.48.064l2.784-1.824c.16-.128.16-.288.064-.448-1.12-1.696-3.2-2.912-5.856-2.912-3.264 0-5.76 1.504-6.688 4.384-.32.928-.48 2.08-.48 3.712 0 1.632.16 2.784.48 3.712.928 2.88 3.424 4.384 6.688 4.384zM299.007 39.192c.192 0 .32-.128.32-.32v-3.168c0-.192-.128-.32-.32-.32h-.768c-1.024 0-1.408-.384-1.408-1.536V27c0-.128.064-.192.192-.192h1.984c.192 0 .32-.128.32-.32v-2.656c0-.192-.128-.32-.32-.32h-1.984c-.128 0-.192-.064-.192-.192v-4.16c0-.192-.128-.32-.32-.32h-3.808c-.192 0-.32.128-.32.32v4.16c0 .128-.064.192-.192.192h-.96c-.192 0-.32.128-.32.32v2.656c0 .192.128.32.32.32h.96c.128 0 .192.064.192.192v7.04c0 3.552 1.344 5.152 4.928 5.152h1.696zM306.817 21.048c.192 0 .32-.128.32-.32V17.56c0-.192-.128-.32-.32-.32h-3.84c-.192 0-.32.128-.32.32v3.168c0 .192.128.32.32.32h3.84zm0 17.952c.192 0 .32-.128.32-.32V23.832c0-.192-.128-.32-.32-.32h-3.84c-.192 0-.32.128-.32.32V38.68c0 .192.128.32.32.32h3.84zM317.621 39.352c3.264 0 5.824-1.536 6.72-4.352.352-1.12.512-2.208.512-3.744s-.16-2.624-.512-3.744c-.896-2.816-3.456-4.352-6.72-4.352s-5.824 1.536-6.72 4.352c-.352 1.12-.512 2.208-.512 3.744s.16 2.624.512 3.744c.896 2.816 3.456 4.352 6.72 4.352zm0-3.776c-1.184 0-2.048-.576-2.4-1.664-.224-.704-.288-1.344-.288-2.656s.064-1.952.288-2.656c.352-1.088 1.216-1.664 2.4-1.664s2.048.576 2.4 1.664c.224.704.288 1.344.288 2.656s-.064 1.952-.288 2.656c-.352 1.088-1.216 1.664-2.4 1.664zM341.597 39c.192 0 .32-.128.32-.32v-9.76c0-3.392-1.856-5.76-5.28-5.76-1.984 0-3.296.8-4 1.76h-.032v-1.088c0-.192-.128-.32-.32-.32h-3.84c-.192 0-.32.128-.32.32V38.68c0 .192.128.32.32.32h3.84c.192 0 .32-.128.32-.32v-8.896c0-1.696.896-2.816 2.432-2.816 1.6 0 2.4 1.12 2.4 2.816v8.896c0 .192.128.32.32.32h3.84zM366.655 39c.192 0 .32-.128.32-.32V17.56c0-.192-.128-.32-.32-.32h-3.84c-.192 0-.32.128-.32.32v7.392h-.032c-.736-1.056-2.016-1.792-4.064-1.792-2.592 0-4.448 1.248-5.248 3.712-.384 1.216-.544 2.368-.544 4.384 0 1.984.16 3.168.544 4.384.8 2.432 2.656 3.712 5.248 3.712 2.048 0 3.328-.736 4.064-1.792h.032v1.12c0 .192.128.32.32.32h3.84zm-6.816-3.424c-1.216 0-2.048-.576-2.4-1.664-.192-.608-.288-1.28-.288-2.656 0-1.376.096-2.048.288-2.656.352-1.12 1.184-1.664 2.4-1.664 1.184 0 2.016.544 2.368 1.664.192.608.288 1.28.288 2.656 0 1.376-.096 2.048-.288 2.656-.352 1.088-1.184 1.664-2.368 1.664zM377.624 39.352c2.848 0 5.12-1.024 6.592-2.592.128-.128.128-.32-.032-.448l-2.112-1.984c-.128-.16-.288-.128-.448 0-.896.832-2.016 1.376-3.552 1.376-1.6 0-2.784-.704-3.2-2.048a3.428 3.428 0 0 1-.192-.864c0-.128.064-.192.192-.192h9.376c.224 0 .352-.128.352-.32 0-2.624-.192-3.744-.512-4.768-.896-2.72-3.264-4.352-6.688-4.352-3.296 0-5.76 1.6-6.656 4.384-.32.96-.512 2.08-.512 3.712 0 1.6.224 2.72.544 3.68.896 2.784 3.328 4.416 6.848 4.416zm-2.752-9.728c-.128 0-.192-.064-.192-.192 0-.48.064-.832.16-1.152.352-1.056 1.312-1.696 2.592-1.696s2.24.64 2.592 1.696c.096.32.16.672.16 1.152 0 .128-.064.192-.192.192h-5.12zM393.955 39.352c4.416 0 6.88-2.144 6.912-5.312 0-2.592-1.504-4.352-5.152-4.704l-1.696-.192c-1.76-.16-2.144-.576-2.144-1.28 0-.768.64-1.28 1.952-1.28 1.6 0 3.136.576 4.192 1.248.16.096.32.096.448-.064l1.792-2.208c.128-.16.096-.352-.032-.48-1.44-1.088-3.648-1.92-6.272-1.92-4.032 0-6.368 1.92-6.368 4.96 0 2.784 1.792 4.416 5.056 4.736l1.728.192c1.792.16 2.208.608 2.208 1.344 0 .864-.768 1.472-2.4 1.472-1.6 0-3.36-.64-4.736-1.696-.16-.128-.32-.128-.448 0l-2.08 2.336a.31.31 0 0 0 0 .448c1.472 1.28 3.808 2.4 7.04 2.4zM408.192 21.048c.192 0 .32-.128.32-.32V17.56c0-.192-.128-.32-.32-.32h-3.84c-.192 0-.32.128-.32.32v3.168c0 .192.128.32.32.32h3.84zm0 17.952c.192 0 .32-.128.32-.32V23.832c0-.192-.128-.32-.32-.32h-3.84c-.192 0-.32.128-.32.32V38.68c0 .192.128.32.32.32h3.84zM418.164 45.112c5.088 0 7.712-2.592 7.712-7.776V23.832c0-.192-.128-.32-.32-.32h-3.84c-.192 0-.32.128-.32.32v1.12h-.032c-.672-1.088-2.016-1.792-3.968-1.792-2.56 0-4.384 1.28-5.184 3.744-.352 1.12-.512 2.208-.512 3.872 0 1.664.16 2.72.512 3.872.8 2.464 2.624 3.744 5.184 3.744 1.952 0 3.296-.704 3.968-1.792h.032v1.312c0 2.272-.96 3.424-3.104 3.424-1.216 0-2.24-.48-3.2-1.344-.16-.16-.32-.16-.48 0l-2.272 2.304c-.16.16-.16.32-.032.48 1.12 1.344 3.552 2.336 5.856 2.336zm.64-10.496c-1.216 0-1.92-.576-2.304-1.664-.16-.576-.256-1.216-.256-2.176 0-.96.096-1.6.256-2.176.384-1.088 1.088-1.664 2.304-1.664 1.248 0 1.952.576 2.304 1.664.192.576.288 1.216.288 2.176 0 .96-.096 1.6-.288 2.176-.352 1.088-1.056 1.664-2.304 1.664zM443.379 39c.192 0 .32-.128.32-.32v-9.76c0-3.392-1.856-5.76-5.28-5.76-1.984 0-3.296.8-4 1.76h-.032v-1.088c0-.192-.128-.32-.32-.32h-3.84c-.192 0-.32.128-.32.32V38.68c0 .192.128.32.32.32h3.84c.192 0 .32-.128.32-.32v-8.896c0-1.696.896-2.816 2.432-2.816 1.6 0 2.4 1.12 2.4 2.816v8.896c0 .192.128.32.32.32h3.84zM110.408 76c.192 0 .32-.128.32-.32V64c0-.128.064-.192.192-.192h2.528c.192 0 .32-.128.32-.32v-2.656c0-.192-.128-.32-.32-.32h-2.528c-.128 0-.192-.064-.192-.192v-.768c0-1.312.352-1.664 1.76-1.664h.992c.192 0 .32-.128.32-.32V54.56c0-.192-.128-.32-.32-.32h-1.76c-3.68 0-5.44 1.568-5.44 5.344v.736c0 .128-.064.192-.192.192h-.96c-.192 0-.32.128-.32.32v2.656c0 .192.128.32.32.32h.96c.128 0 .192.064.192.192v11.68c0 .192.128.32.32.32h3.808zm10.304-17.952c.192 0 .32-.128.32-.32V54.56c0-.192-.128-.32-.32-.32h-3.84c-.192 0-.32.128-.32.32v3.168c0 .192.128.32.32.32h3.84zm0 17.952c.192 0 .32-.128.32-.32V60.832c0-.192-.128-.32-.32-.32h-3.84c-.192 0-.32.128-.32.32V75.68c0 .192.128.32.32.32h3.84zM132.023 76.192c.192 0 .32-.128.32-.32v-3.168c0-.192-.128-.32-.32-.32h-.768c-1.024 0-1.408-.384-1.408-1.536V64c0-.128.064-.192.192-.192h1.984c.192 0 .32-.128.32-.32v-2.656c0-.192-.128-.32-.32-.32h-1.984c-.128 0-.192-.064-.192-.192v-4.16c0-.192-.128-.32-.32-.32h-3.808c-.192 0-.32.128-.32.32v4.16c0 .128-.064.192-.192.192h-.96c-.192 0-.32.128-.32.32v2.656c0 .192.128.32.32.32h.96c.128 0 .192.064.192.192v7.04c0 3.552 1.344 5.152 4.928 5.152h1.696zM147.395 58.048c.192 0 .32-.128.32-.32V54.56c0-.192-.128-.32-.32-.32h-3.84c-.192 0-.32.128-.32.32v3.168c0 .192.128.32.32.32h3.84zm0 17.952c.192 0 .32-.128.32-.32V60.832c0-.192-.128-.32-.32-.32h-3.84c-.192 0-.32.128-.32.32V75.68c0 .192.128.32.32.32h3.84zM165.207 76c.192 0 .32-.128.32-.32v-9.76c0-3.392-1.856-5.76-5.28-5.76-1.984 0-3.296.8-4 1.76h-.032v-1.088c0-.192-.128-.32-.32-.32h-3.84c-.192 0-.32.128-.32.32V75.68c0 .192.128.32.32.32h3.84c.192 0 .32-.128.32-.32v-8.896c0-1.696.896-2.816 2.432-2.816 1.6 0 2.4 1.12 2.4 2.816v8.896c0 .192.128.32.32.32h3.84zM179.033 81.76c2.784 0 4.16-1.024 5.472-4.448l6.272-16.48c.064-.192-.032-.32-.256-.32h-3.968c-.192 0-.32.128-.384.32l-2.88 8.96h-.064l-3.104-8.96c-.064-.192-.192-.32-.384-.32h-4.096c-.192 0-.32.128-.256.32l5.76 14.4-.416 1.152c-.384 1.152-.992 1.6-2.112 1.6h-.672c-.192 0-.32.128-.32.32v3.136c0 .192.128.32.32.32h1.088zM199.23 76.352c3.264 0 5.824-1.536 6.72-4.352.352-1.12.512-2.208.512-3.744s-.16-2.624-.512-3.744c-.896-2.816-3.456-4.352-6.72-4.352s-5.824 1.536-6.72 4.352c-.352 1.12-.512 2.208-.512 3.744s.16 2.624.512 3.744c.896 2.816 3.456 4.352 6.72 4.352zm0-3.776c-1.184 0-2.048-.576-2.4-1.664-.224-.704-.288-1.344-.288-2.656s.064-1.952.288-2.656c.352-1.088 1.216-1.664 2.4-1.664s2.048.576 2.4 1.664c.224.704.288 1.344.288 2.656s-.064 1.952-.288 2.656c-.352 1.088-1.216 1.664-2.4 1.664zM222.951 76c.192 0 .32-.128.32-.32V60.832c0-.192-.128-.32-.32-.32h-3.84c-.192 0-.32.128-.32.32v8.896c0 1.696-.832 2.816-2.368 2.816-1.568 0-2.368-1.152-2.368-2.816v-8.896c0-.192-.128-.32-.32-.32h-3.84c-.192 0-.32.128-.32.32v9.76c0 3.36 1.792 5.76 5.216 5.76 1.952 0 3.168-.736 3.968-1.792h.032v1.12c0 .192.128.32.32.32h3.84zM231.457 76c.192 0 .32-.128.32-.32v-8.16c0-2.08.736-3.296 2.4-3.36.768-.032 1.504.224 2.24.704.192.096.32.096.448-.064l1.792-3.264c.096-.192.064-.32-.096-.448-.672-.576-1.696-.928-2.72-.928-1.888 0-3.296.736-4.032 1.984h-.032v-1.312c0-.192-.128-.32-.32-.32h-3.84c-.192 0-.32.128-.32.32V75.68c0 .192.128.32.32.32h3.84zM257.061 76.352c2.592 0 4.448-1.28 5.248-3.712.384-1.216.544-2.4.544-4.384 0-2.016-.16-3.168-.544-4.384-.8-2.464-2.656-3.712-5.248-3.712-2.048 0-3.36.736-4.064 1.792h-.032V54.56c0-.192-.128-.32-.32-.32h-3.84c-.192 0-.32.128-.32.32v21.12c0 .192.128.32.32.32h3.84c.192 0 .32-.128.32-.32v-1.12h.032c.704 1.056 2.016 1.792 4.064 1.792zm-1.44-3.776c-1.184 0-2.016-.576-2.368-1.664-.192-.608-.288-1.28-.288-2.656 0-1.376.096-2.048.288-2.656.352-1.12 1.184-1.664 2.368-1.664 1.216 0 2.048.544 2.4 1.664.192.608.288 1.28.288 2.656 0 1.376-.096 2.048-.288 2.656-.352 1.088-1.184 1.664-2.4 1.664zM279.326 76c.192 0 .32-.128.32-.32V60.832c0-.192-.128-.32-.32-.32h-3.84c-.192 0-.32.128-.32.32v8.896c0 1.696-.832 2.816-2.368 2.816-1.568 0-2.368-1.152-2.368-2.816v-8.896c0-.192-.128-.32-.32-.32h-3.84c-.192 0-.32.128-.32.32v9.76c0 3.36 1.792 5.76 5.216 5.76 1.952 0 3.168-.736 3.968-1.792h.032v1.12c0 .192.128.32.32.32h3.84zM289.752 76.352c4.416 0 6.88-2.144 6.912-5.312 0-2.592-1.504-4.352-5.152-4.704l-1.696-.192c-1.76-.16-2.144-.576-2.144-1.28 0-.768.64-1.28 1.952-1.28 1.6 0 3.136.576 4.192 1.248.16.096.32.096.448-.064l1.792-2.208c.128-.16.096-.352-.032-.48-1.44-1.088-3.648-1.92-6.272-1.92-4.032 0-6.368 1.92-6.368 4.96 0 2.784 1.792 4.416 5.056 4.736l1.728.192c1.792.16 2.208.608 2.208 1.344 0 .864-.768 1.472-2.4 1.472-1.6 0-3.36-.64-4.736-1.696-.16-.128-.32-.128-.448 0l-2.08 2.336a.31.31 0 0 0 0 .448c1.472 1.28 3.808 2.4 7.04 2.4zM303.989 58.048c.192 0 .32-.128.32-.32V54.56c0-.192-.128-.32-.32-.32h-3.84c-.192 0-.32.128-.32.32v3.168c0 .192.128.32.32.32h3.84zm0 17.952c.192 0 .32-.128.32-.32V60.832c0-.192-.128-.32-.32-.32h-3.84c-.192 0-.32.128-.32.32V75.68c0 .192.128.32.32.32h3.84zM321.801 76c.192 0 .32-.128.32-.32v-9.76c0-3.392-1.856-5.76-5.28-5.76-1.984 0-3.296.8-4 1.76h-.032v-1.088c0-.192-.128-.32-.32-.32h-3.84c-.192 0-.32.128-.32.32V75.68c0 .192.128.32.32.32h3.84c.192 0 .32-.128.32-.32v-8.896c0-1.696.896-2.816 2.432-2.816 1.6 0 2.4 1.12 2.4 2.816v8.896c0 .192.128.32.32.32h3.84zM332.64 76.352c2.848 0 5.12-1.024 6.592-2.592.128-.128.128-.32-.032-.448l-2.112-1.984c-.128-.16-.288-.128-.448 0-.896.832-2.016 1.376-3.552 1.376-1.6 0-2.784-.704-3.2-2.048a3.428 3.428 0 0 1-.192-.864c0-.128.064-.192.192-.192h9.376c.224 0 .352-.128.352-.32 0-2.624-.192-3.744-.512-4.768-.896-2.72-3.264-4.352-6.688-4.352-3.296 0-5.76 1.6-6.656 4.384-.32.96-.512 2.08-.512 3.712 0 1.6.224 2.72.544 3.68.896 2.784 3.328 4.416 6.848 4.416zm-2.752-9.728c-.128 0-.192-.064-.192-.192 0-.48.064-.832.16-1.152.352-1.056 1.312-1.696 2.592-1.696s2.24.64 2.592 1.696c.096.32.16.672.16 1.152 0 .128-.064.192-.192.192h-5.12zM348.971 76.352c4.416 0 6.88-2.144 6.912-5.312 0-2.592-1.504-4.352-5.152-4.704l-1.696-.192c-1.76-.16-2.144-.576-2.144-1.28 0-.768.64-1.28 1.952-1.28 1.6 0 3.136.576 4.192 1.248.16.096.32.096.448-.064l1.792-2.208c.128-.16.096-.352-.032-.48-1.44-1.088-3.648-1.92-6.272-1.92-4.032 0-6.368 1.92-6.368 4.96 0 2.784 1.792 4.416 5.056 4.736l1.728.192c1.792.16 2.208.608 2.208 1.344 0 .864-.768 1.472-2.4 1.472-1.6 0-3.36-.64-4.736-1.696-.16-.128-.32-.128-.448 0l-2.08 2.336a.31.31 0 0 0 0 .448c1.472 1.28 3.808 2.4 7.04 2.4zM365.127 76.352c4.416 0 6.88-2.144 6.912-5.312 0-2.592-1.504-4.352-5.152-4.704l-1.696-.192c-1.76-.16-2.144-.576-2.144-1.28 0-.768.64-1.28 1.952-1.28 1.6 0 3.136.576 4.192 1.248.16.096.32.096.448-.064l1.792-2.208c.128-.16.096-.352-.032-.48-1.44-1.088-3.648-1.92-6.272-1.92-4.032 0-6.368 1.92-6.368 4.96 0 2.784 1.792 4.416 5.056 4.736l1.728.192c1.792.16 2.208.608 2.208 1.344 0 .864-.768 1.472-2.4 1.472-1.6 0-3.36-.64-4.736-1.696-.16-.128-.32-.128-.448 0l-2.08 2.336a.31.31 0 0 0 0 .448c1.472 1.28 3.808 2.4 7.04 2.4zM378.628 69.632h3.712c.192 0 .32-.128.32-.32v-.768c0-.896.128-1.312.64-1.92l2.144-2.816c1.12-1.312 1.696-2.528 1.696-4.16 0-3.264-2.624-5.76-6.432-5.76-3.744 0-6.176 2.144-6.656 5.44-.032.192.032.352.256.384l3.456.512c.224.032.352-.032.416-.288.288-1.408 1.088-2.24 2.4-2.24 1.312 0 2.112.896 2.112 2.112 0 .8-.32 1.504-1.216 2.56l-2.24 2.912c-.64.8-.928 1.472-.928 2.688v1.344c0 .192.128.32.32.32zm-.384 6.048c0 .192.128.32.32.32h3.84c.192 0 .32-.128.32-.32v-3.648c0-.192-.128-.32-.32-.32h-3.84c-.192 0-.32.128-.32.32v3.648z"/>
    <defs>
        <linearGradient id="a" x1="111.87" x2="111.87" y1="145.608" y2="179.836" gradientUnits="userSpaceOnUse">
            <stop stop-color="#C0DDFC"/>
            <stop offset=".996" stop-color="#fff"/>
        </linearGradient>
        <linearGradient id="b" x1="134.048" x2="134.048" y1="237.488" y2="267.045" gradientUnits="userSpaceOnUse">
            <stop stop-color="#C0DDFC"/>
            <stop offset=".996" stop-color="#fff"/>
        </linearGradient>
        <linearGradient id="c" x1="306.461" x2="306.461" y1="283.04" y2="190.417" gradientUnits="userSpaceOnUse">
            <stop stop-color="#FFE0C2"/>
            <stop offset=".401" stop-color="#7AAEFC"/>
            <stop offset=".591" stop-color="#B8C1FC"/>
            <stop offset="1" stop-color="#D2D4D4"/>
        </linearGradient>
        <linearGradient id="d" x1="359.929" x2="359.929" y1="170.18" y2="248.992" gradientUnits="userSpaceOnUse">
            <stop stop-color="#FFE0C2"/>
            <stop offset=".401" stop-color="#7AAEFC"/>
            <stop offset=".591" stop-color="#B8C1FC"/>
            <stop offset="1" stop-color="#D2D4D4"/>
        </linearGradient>
        <linearGradient id="e" x1="353.539" x2="353.539" y1="283.04" y2="190.417" gradientUnits="userSpaceOnUse">
            <stop stop-color="#FFE0C2"/>
            <stop offset=".401" stop-color="#7AAEFC"/>
            <stop offset=".591" stop-color="#B8C1FC"/>
            <stop offset="1" stop-color="#D2D4D4"/>
        </linearGradient>
        <linearGradient id="f" x1="331.082" x2="331.082" y1="193.839" y2="364.32" gradientUnits="userSpaceOnUse">
            <stop stop-color="#B8A7D3"/>
            <stop offset=".401" stop-color="#ED4861"/>
            <stop offset=".501" stop-color="#F4837D"/>
            <stop offset=".591" stop-color="#FECEAA"/>
            <stop offset="1" stop-color="#B7D5EA"/>
        </linearGradient>
        <linearGradient id="g" x1="381.696" x2="381.696" y1="193.839" y2="364.32" gradientUnits="userSpaceOnUse">
            <stop stop-color="#B8A7D3"/>
            <stop offset=".401" stop-color="#ED4861"/>
            <stop offset=".501" stop-color="#F4837D"/>
            <stop offset=".591" stop-color="#FECEAA"/>
            <stop offset="1" stop-color="#B7D5EA"/>
        </linearGradient>
        <linearGradient id="h" x1="359.958" x2="359.958" y1="283.04" y2="190.417" gradientUnits="userSpaceOnUse">
            <stop stop-color="#FFE0C2"/>
            <stop offset=".401" stop-color="#7AAEFC"/>
            <stop offset=".591" stop-color="#B8C1FC"/>
            <stop offset="1" stop-color="#D2D4D4"/>
        </linearGradient>
        <linearGradient id="i" x1="383.873" x2="383.873" y1="270.093" y2="190.477" gradientUnits="userSpaceOnUse">
            <stop stop-color="#FFE0C2"/>
            <stop offset=".401" stop-color="#7AAEFC"/>
            <stop offset=".591" stop-color="#B8C1FC"/>
            <stop offset="1" stop-color="#D2D4D4"/>
        </linearGradient>
        <linearGradient id="j" x1="169.269" x2="254.974" y1="195.776" y2="195.776" gradientUnits="userSpaceOnUse">
            <stop stop-color="#B8A7D3"/>
            <stop offset=".401" stop-color="#ED4861"/>
            <stop offset=".501" stop-color="#F4837D"/>
            <stop offset=".591" stop-color="#FECEAA"/>
            <stop offset="1" stop-color="#B7D5EA"/>
        </linearGradient>
        <linearGradient id="k" x1="72.118" x2="147.256" y1="393.842" y2="393.842" gradientUnits="userSpaceOnUse">
            <stop stop-color="#FFD8A1"/>
            <stop offset=".996" stop-color="#fff"/>
        </linearGradient>
        <linearGradient id="l" x1="247.159" x2="247.159" y1="287.694" y2="434.176" gradientUnits="userSpaceOnUse">
            <stop stop-color="#C0DDFC"/>
            <stop offset=".996" stop-color="#fff"/>
        </linearGradient>
        <linearGradient id="m" x1="-nan" x2="-nan" y1="-nan" y2="-nan" gradientUnits="userSpaceOnUse">
            <stop offset=".01" stop-color="#81B1F9"/>
            <stop offset=".25" stop-color="#84B3F9"/>
            <stop offset=".421" stop-color="#8DB8FA"/>
            <stop offset=".57" stop-color="#9DC2FA"/>
            <stop offset=".707" stop-color="#B3D0FB"/>
            <stop offset=".836" stop-color="#CFE2FD"/>
            <stop offset=".957" stop-color="#F2F7FE"/>
            <stop offset=".996" stop-color="#fff"/>
        </linearGradient>
        <linearGradient id="n" x1="-nan" x2="-nan" y1="-nan" y2="-nan" gradientUnits="userSpaceOnUse">
            <stop offset=".01" stop-color="#81B1F9"/>
            <stop offset=".25" stop-color="#84B3F9"/>
            <stop offset=".421" stop-color="#8DB8FA"/>
            <stop offset=".57" stop-color="#9DC2FA"/>
            <stop offset=".707" stop-color="#B3D0FB"/>
            <stop offset=".836" stop-color="#CFE2FD"/>
            <stop offset=".957" stop-color="#F2F7FE"/>
            <stop offset=".996" stop-color="#fff"/>
        </linearGradient>
    </defs>
</svg>
