<svg xmlns="http://www.w3.org/2000/svg" width="396" height="435" fill="none" viewBox="0 0 396 435">
    <path fill="url(#a)" d="M24.62 155.92c0-17.355 14.94-35.539 33.992-24.169.237.141.47.283.7.426 4.216 2.632-8.452 33.117-13.422 33.117H28.622a4.002 4.002 0 0 1-4.002-4.002v-5.372z"/>
    <path fill="url(#b)" d="M45.58 233.21c0-11.896 14.39-17.581 22.063-8.659 3.854 4.48 8.076 7.756 14.72 6.099 26.394-6.626 21.511 20.857 43.243 21.534H60.631c-8.296 0-15.05-6.889-15.05-15.435v-3.539z"/>
    <path fill="#2B2B2B" d="M288.189 186.979c-1.321-6.023 3.781-20.367 14.757-23.492 10.976-3.124 25.807-5.986 32.965-.489 7.158 5.459 29.844 55.68 26.54 65.393-4.735 13.892-16.776 28.424-32.854 22.702-16.115-5.685-37.333-45.215-41.408-64.114zM273.119 143.348a2.584 2.584 0 0 0-1.905 2.521l.199 19.388c.037 3.877 4.002 6.437 7.416 4.781l4.109-1.987a4.002 4.002 0 0 0 1.863-5.341l-8.672-17.991a2.585 2.585 0 0 0-3.01-1.371z"/>
    <path fill="url(#c)" d="M213.56 209.681l33.504 1.367c1.009.042 1.193 1.459.228 1.757-.932.288-1.59-.907-.849-1.541l37.635-32.228c5.139-4.405 12.811-3.69 17.106 1.581 4.295 5.27 3.598 13.139-1.541 17.543l-40.931 35.05-.624.527a10.244 10.244 0 0 1-8.516 2.297l-37.37-7.078"/>
    <path fill="#DE6381" d="M212.202 228.918l-9.287-1.769c-4.772-.904-7.893-5.609-7.012-10.466.808-4.442 4.662-7.529 8.957-7.341l8.7.339"/>
    <path fill="#FDC068" d="M285.878 168.645l8.222-2.259c4.259-1.167 6.792-5.647 5.654-10.014l-3.304-12.687c-1.836-6.965-8.81-11.106-15.601-9.261-6.792 1.882-10.83 9.035-9.031 16l3.047 11.633c1.248 4.969 6.167 7.906 11.013 6.588z"/>
    <path fill="#2B2B2B" d="M272.441 155.619c.791 0 1.432-.657 1.432-1.468 0-.811-.641-1.468-1.432-1.468-.79 0-1.431.657-1.431 1.468 0 .811.641 1.468 1.431 1.468z"/>
    <path fill="url(#d)" d="M296.688 164.834c-.026-.599.346-1.117.783-1.527 2.276-2.136 10.016-8.92 15.901-8.253 4.63.525 8.905 12.716 11.255 20.851.886 3.065-2.066 5.643-4.994 4.377-8.742-3.779-22.733-10.576-22.945-15.448z"/>
    <path stroke="#2B2B2B" stroke-linecap="round" stroke-miterlimit="10" stroke-width="3" d="M311.61 158.781l-9.214 8.772"/>
    <path fill="url(#e)" d="M322.099 183.207c-.018-.071-.028-.143-.05-.212l-.006-.021c-.01-.039-.012-.081-.021-.121-.038-.161-.096-.323-.13-.485a.024.024 0 0 0-.024-.019.025.025 0 0 1-.023-.016c-2.432-6.469-12.409-12.406-21.725-9.471l-8.627 2.409c-10.609 3.313-14.28 14.607-12.481 20.894l3.246 19.816a4.003 4.003 0 0 0 4.104 3.352l37.774-1.451c3.239-.124 5.366-4.114 4.31-7.179-2.756-7.994-4.202-19.151-6.347-27.496z"/>
    <path fill="#2B2B2B" d="M287.162 220.975c-15.902-31.678-5.248-42.094-3.528-43.5.15-.123.318-.199.503-.255 1.935-.582 4.419 2.683 3.766 4.595-2.461 7.198-3.508 20.372 6.857 41.042"/>
    <path fill="#FDC068" d="M296.082 181.257l7.17-5.167a4.004 4.004 0 0 0 1.482-4.436l-5.375-17.277a4.003 4.003 0 0 0-4.875-2.673l-5.75 1.569a4.003 4.003 0 0 0-2.865 4.674l4.34 20.938c.587 2.711 3.67 3.953 5.873 2.372z"/>
    <path stroke="#2B2B2B" stroke-linecap="round" stroke-miterlimit="10" stroke-width="2.242" d="M276.222 152.833l-1.174 2.598c-.221.527 0 1.129.513 1.355l1.322.377M277.397 160.89s1.872 1.92 3.597-.753"/>
    <path fill="#2B2B2B" d="M288.276 169.524a1.611 1.611 0 0 1 1.152-1.881c1.405-.385 2.56 1.144 1.804 2.39-.759 1.252-2.659.925-2.956-.509zM280.444 153.511c.79 0 1.431-.658 1.431-1.468 0-.811-.641-1.469-1.431-1.469-.791 0-1.432.658-1.432 1.469 0 .81.641 1.468 1.432 1.468z"/>
    <path fill="url(#f)" d="M316.087 250.817a4.001 4.001 0 0 1-4.547 3.415l-43.751-6.436c-3.239-.476-4.567-4.428-2.273-6.764l8.367-8.517c2.338-2.379 6.389-1.023 6.823 2.283l10.856 82.567a4.002 4.002 0 0 1-3.418 4.486l-16.119 2.235a3.96 3.96 0 0 1-4.325-2.701c-2.13-6.637-4.003-13.302-5.904-19.995-2.129-7.718-4.112-15.511-6.057-23.267-.918-3.877-1.872-7.755-2.753-11.67l-1.359-5.836-1.284-5.835c-1.726-7.793-3.341-15.586-4.919-23.417-1.799-8.96 3.854-17.731 12.591-19.576a17.132 17.132 0 0 1 3.891-.339l2.937.151c4.698.225 9.36.564 14.022.941 4.662.414 9.324.903 13.95 1.543 4.625.603 9.25 1.356 13.876 2.222l3.45.677c1.138.264 2.313.49 3.451.753l3.414.828 1.688.49.845.226c.487.152.793.634.724 1.139l-4.176 30.397z"/>
    <path fill="#2B2B2B" d="M268.058 326.014a4.004 4.004 0 0 1-1.32 4.235l-4.942 4.007c-3.318 2.703-4.652 7.123-3.577 11.142.464 1.736 2.387 2.45 4.117 1.963l28.649-8.063a4.003 4.003 0 0 0 2.884-4.373l-3.986-30.373a4.001 4.001 0 0 0-4.996-3.347l-18.391 4.89a4.002 4.002 0 0 0-2.812 4.993l4.374 14.926z"/>
    <path fill="url(#g)" d="M331.2 216.203a4.002 4.002 0 0 1 4.567 3.368l10.276 69.32-.368-1.77 19.226 76.429a4.003 4.003 0 0 1-2.859 4.846l-15.847 4.187c-1.823.482-3.739-.374-4.566-2.069-2.608-5.352-4.971-10.772-7.333-16.192-2.753-6.4-5.36-12.838-7.893-19.313a1053.106 1053.106 0 0 1-3.707-9.713l-1.799-4.857-1.762-4.894c-2.349-6.513-4.589-13.064-6.791-19.614l-.367-1.77a606.429 606.429 0 0 1-3.781-18.146c-1.138-6.061-2.24-12.16-3.194-18.259-.954-6.099-1.835-12.197-2.533-18.372l-.514-4.593c-.147-1.543-.33-3.087-.44-4.63l-.367-4.631-.147-2.334-.074-1.167a1.32 1.32 0 0 1 1.118-1.345l29.155-4.481z"/>
    <path fill="#2B2B2B" d="M327.554 245.259c-3.65 1.073-3.885 6.155-.349 7.56l8.16 3.242c2.799 1.112 5.778-1.15 5.458-4.145l-.585-5.469a4.002 4.002 0 0 0-5.108-3.414l-7.576 2.226z"/>
    <path fill="url(#h)" d="M300.58 215.182c-4.187-.644-9.192 7.883-7.668 11.836 2.236 5.802 4.531 12.039 10.034 16.771 8.443 7.259 25.867 4.788 33.299 3.304 1.999-.399 3.258-2.306 2.959-4.321l-3.436-23.19a4.001 4.001 0 0 0-4.577-3.367l-8.243 1.289c-2.427.38-6.796.299-9.215-.133a567.886 567.886 0 0 0-13.153-2.189z"/>
    <path fill="#2B2B2B" d="M337.511 220.311c-2.637-1.258-5.594.677-5.294 3.584.389 3.771 1.139 8.855 2.585 14.185 1.078 3.976 5.452 2.943 5.334-1.174l-.375-13.14a3.953 3.953 0 0 0-2.25-3.455z"/>
    <path fill="#DE6381" d="M368.251 247.93l3.12 9.224c1.579 4.706-.844 9.826-5.396 11.445-4.148 1.468-8.626-.414-10.609-4.255l-4.515-8.621"/>
    <path fill="url(#i)" d="M350.851 255.686l-15.968-30.645c.234.366-.269.752-.562.431l-28.144-30.85c-4.589-5.007-4.332-12.913.587-17.582 4.919-4.668 12.591-4.442 17.143.603l30.946 33.92.514.565a8.796 8.796 0 0 1 1.725 2.936l11.123 32.829"/>
    <path fill="#2B2B2B" d="M337.379 230.876c-45.623-13.81-36.735-52.866-28.723-58.185a.8.8 0 0 1 .603-.107c1.016.188 2.149 3.881 1.649 4.786-5.482 9.925-8.376 36.653 26.031 48.875M287.76 140.229c-2.392.961-2.946 4.046-1.921 6.411.638 1.47 1.139 3.223 1.139 5.101 0 2.56.257 7.454.514 11.709.22 3.764 4.074 6.099 7.415 4.517l6.094-2.936c2.643-1.28 3.927-4.405 2.9-7.228-2.46-6.89-6.938-18.448-9.361-18.975-1.71-.365-4.432.457-6.78 1.401z"/>
    <path fill="#DE6381" d="M292.521 132.993l-21.511 4.518c-1.506.301-2.497 1.844-2.166 3.388l.293 1.506c.294 1.543 1.799 2.56 3.304 2.221l21.512-4.518c1.505-.301 2.496-1.844 2.165-3.388l-.293-1.506c-.331-1.543-1.799-2.522-3.304-2.221z"/>
    <path fill="#DE6381" d="M279.783 125.312c-4.842 1.014-7.426 7.702-8.561 11.743-.412 1.469.89 2.751 2.383 2.438l2.644-.554c2.215-.464 5.749-14.094 3.534-13.627z"/>
    <path stroke="#2B2B2B" stroke-linecap="round" stroke-miterlimit="10" stroke-width="3.296" d="M271.01 137.511l21.217-4.443"/>
    <path stroke="#2B2B2B" stroke-linecap="round" stroke-miterlimit="10" stroke-width="7" d="M198.767 275.225l8.516-117.159"/>
    <path fill="url(#j)" d="M204.115 195.207c-.248 3.601-5.036 5.223-8.153 3.403-10.467-6.114-21.643-1.025-33.794 3.918-14.515 5.903-26.923 9.124-39.807-.931-.98-.765-1.488-1.98-1.419-3.22.663-12.081 1.346-24.182 2.015-36.269.183-3.314 4.184-5.05 7.128-3.517 11.19 5.828 22.263 2.595 34.946-2.37 14.865-5.84 29.94-13.043 40.757 1.546.53.715.765 1.609.706 2.497a17642.7 17642.7 0 0 1-2.379 34.943z"/>
    <path fill="#92BFFC" d="M160.963 145.995a4.002 4.002 0 0 0-2.986 3.664l-3.632 69.45a4.002 4.002 0 0 0 4.547 4.173l14.435-2.004a4.003 4.003 0 0 0 3.446-3.748l3.857-71.271c.146-2.707-2.384-4.774-5.007-4.089l-14.66 3.825zM125.278 142.017a4.002 4.002 0 0 0-2.556 3.591l-2.478 69.488a4.003 4.003 0 0 0 4.806 4.063l7.132-1.467a4.002 4.002 0 0 0 3.194-3.773l2.598-70.827c.106-2.873-2.762-4.916-5.443-3.88l-7.253 2.805z"/>
    <path stroke="#CEE4FD" stroke-linecap="round" stroke-miterlimit="10" stroke-width="11" d="M67.349 342.011v-63.473M67.349 291.037c.734 4.517 4.699 7.68 9.14 7.341M67.349 291.037c-.734 4.517-4.699 7.68-9.14 7.341M67.349 280.646c.734 4.517 4.699 7.68 9.14 7.341M67.349 280.646c-.734 4.517-4.699 7.68-9.14 7.341M90.145 370.548v-63.474M90.145 319.573c.734 4.518 4.699 7.68 9.14 7.341M90.145 319.573c-.734 4.518-4.699 7.68-9.14 7.341M90.145 309.183c.734 4.517 4.699 7.68 9.14 7.341M90.145 309.183c-.734 4.517-4.699 7.68-9.14 7.341"/>
    <path fill="url(#k)" d="M96.567 365.935a4.002 4.002 0 0 0 .282-5.088l-18.414-25.01c-9.985-13.553-29.66-14.043-40.27-.979l-8.553 10.466a26.843 26.843 0 0 0-5.983 16.904v62.031a4.002 4.002 0 0 0 4.002 4.002h9.627a4 4 0 0 0 2.94-1.287l56.369-61.039z"/>
    <path fill="url(#l)" d="M358.524 428.261L287.786 318.67c-13.729-21.271-34.25-36.932-58-44.349a104.268 104.268 0 0 0-62.002 0c-23.787 7.417-44.307 23.078-58 44.349L39.01 428.261"/>
    <path fill="#C5B3FE" d="M342.405 403.322c-1.751-2.718-5.735-1.894-5.403 1.322.162 1.579.582 2.987 1.442 3.815 2.743 2.637 6.623-1.006 4.561-4.205l-.6-.932z"/>
    <path stroke="url(#m)" stroke-linecap="round" stroke-miterlimit="10" stroke-width="11" d="M257.868 428.261v-77.93"/>
    <path stroke="#81B1F9" stroke-linecap="round" stroke-miterlimit="10" stroke-width="11" d="M257.868 361.55c.734 4.518 4.699 7.68 9.14 7.341M257.868 361.55c-.734 4.518-4.699 7.68-9.14 7.341M257.868 371.903c.734 4.518 4.699 7.68 9.14 7.341M257.868 371.903c-.734 4.518-4.699 7.68-9.14 7.341M257.868 351.159c.734 4.518 4.699 7.68 9.14 7.342M257.868 351.159c-.734 4.518-4.699 7.68-9.14 7.342"/>
    <path stroke="url(#n)" stroke-linecap="round" stroke-miterlimit="10" stroke-width="11" d="M182.541 428.261v-43.445"/>
    <path stroke="#81B1F9" stroke-linecap="round" stroke-miterlimit="10" stroke-width="11" d="M182.541 396.035c.735 4.518 4.699 7.68 9.141 7.341M182.541 396.035c-.734 4.518-4.698 7.68-9.14 7.341M182.541 385.644c.735 4.518 4.699 7.68 9.141 7.342M182.541 385.644c-.734 4.518-4.698 7.68-9.14 7.342"/>
    <path fill="#2B2B2B" d="M342.679 373.606a4.005 4.005 0 0 1-.648 4.373l-4.285 4.766c-2.863 3.179-3.495 7.745-1.858 11.545.717 1.664 2.746 2.082 4.391 1.322l27.088-12.515a4.003 4.003 0 0 0 2.165-4.748l-8.519-29.37a4.001 4.001 0 0 0-5.471-2.541l-17.446 7.768a4.002 4.002 0 0 0-1.997 5.354l6.58 14.046z"/>
    <path stroke="#2B2B2B" stroke-linecap="round" stroke-miterlimit="10" stroke-width="3" d="M303.203 245.22l1.138 7.981M316.161 205.577l10.352 11.332M316.161 209.078l2.937-.715M246.672 211.036l5.58.225M282.83 250.603l-.734-5.383"/>
    <path fill="#DE6381" d="M200.344 214.129c.104-2.132 1.845-4.444 3.966-4.197 1.282.149 2.415.903 2.679 3.25.257 2.372-.146 4.48-1.578 6.174-1.842 2.214-5.333.285-5.194-2.592l.127-2.635z"/>
    <path stroke="#fff" stroke-linecap="round" stroke-miterlimit="10" stroke-width="3" d="M157.396 270.481l1.982 4.028"/>
    <path stroke="#fff" stroke-linecap="round" stroke-miterlimit="10" stroke-width="2.688" d="M166.316 271.459l4.258-.263"/>
    <path stroke="#fff" stroke-linecap="round" stroke-miterlimit="10" stroke-width="3" d="M163.967 261.973l-1.322 4.329M141.097 263.855l2.35 3.84"/>
    <path stroke="#fff" stroke-linecap="round" stroke-miterlimit="10" stroke-width="2.688" d="M150.128 264.043l4.184-.677"/>
    <path stroke="#fff" stroke-linecap="round" stroke-miterlimit="10" stroke-width="3" d="M146.971 254.782l-.955 4.443M126.23 320.552l1.982 4.028M135.15 321.53l4.258-.3M132.801 312.044l-1.322 4.292M126.23 334.18l1.982 4.029M135.187 335.159l4.221-.263M132.838 325.672l-1.322 4.329M109.931 313.926l2.35 3.84M118.962 314.077l4.184-.64M115.805 304.853l-.955 4.405M111.143 327.517l2.312 3.802M120.136 327.667l4.185-.677M116.979 318.444l-.954 4.405M112.648 342.839l1.982 4.028M121.604 343.817l4.222-.3M119.255 334.331l-1.321 4.292M112.648 356.468l2.019 4.028M121.604 357.446l4.222-.301M119.255 347.959l-1.321 4.33M96.386 336.213l2.312 3.803M105.379 336.364l4.185-.678M102.222 327.14l-.954 4.405M97.56 349.766l2.35 3.84M106.554 349.955l4.185-.678M103.397 340.731l-.954 4.405M152.88 289.116l1.983 4.029M161.837 290.095l4.222-.263M159.488 280.646l-1.321 4.292M137.793 282.453l2.313 3.84M146.787 282.603l4.185-.639M143.63 273.38l-.954 4.405M139.298 297.775l2.019 4.029M148.255 298.754l4.222-.263M145.906 289.267l-1.322 4.33M139.335 311.404l1.982 4.028M148.255 312.382l4.258-.263M145.906 302.933l-1.322 4.292M123.036 291.15l2.349 3.84M132.03 291.3l4.221-.64M128.873 282.077l-.918 4.404M124.211 304.74l2.349 3.84M133.241 304.891l4.185-.64M130.084 295.667l-.954 4.405M99.47 366.294l1.981 4.028M108.426 367.272l4.222-.263M106.077 357.785l-1.322 4.33M99.47 379.922l1.981 4.028M108.426 380.9l4.222-.263M106.077 371.451l-1.322 4.292M83.207 359.668l2.313 3.84M92.2 359.818l4.186-.64M89.044 350.595l-.955 4.404M84.382 373.258l2.312 3.84M93.376 373.409l4.184-.64M90.219 364.185l-.955 4.405M85.887 388.581l2.019 4.028M94.844 389.559l4.221-.301M92.494 380.072l-1.321 4.33M85.924 402.209l1.982 4.028M94.88 403.187l4.222-.263M92.531 393.701l-1.358 4.329M69.625 381.955l2.35 3.84M78.619 382.105l4.221-.64M75.498 372.882l-.954 4.405M70.836 395.545l2.313 3.803M79.83 395.696l4.185-.678M76.673 386.472l-.954 4.405M157.799 329.625l-4.405.376M152.33 322.321l-1.982-3.877M161.434 319.423l-2.9 3.426M146.42 336.74l-4.368.338M140.95 329.399l-1.945-3.84M150.054 326.538l-2.863 3.388M171.785 340.429l-4.405-.037M166.94 332.637l-1.615-4.028M176.264 330.604l-3.157 3.125M159.855 346.452l-4.405-.036M155.01 338.66l-1.616-3.99M164.334 336.627l-3.157 3.125M146.31 353.117l-4.405.338M140.84 345.776l-1.982-3.84M149.944 342.915l-2.9 3.388M134.93 360.195l-4.368.375M129.46 352.891l-1.982-3.878M138.564 349.992l-2.9 3.426M160.296 363.921l-4.405-.037M155.45 356.129l-1.615-4.028M164.774 354.058l-3.157 3.163M148.366 369.944l-4.405-.036M143.52 362.152l-1.615-4.028M152.844 360.12l-3.157 3.124M170.06 289.945l-1.358 3.2M164.591 282.604l-1.982-3.84M173.695 279.742l-2.9 3.389M183.496 299.695l-4.405-.075M178.65 291.865l-1.615-3.991M187.974 289.832l-3.157 3.125M169.914 306.321l-4.369.338M164.444 298.98l-1.946-3.84M173.584 296.119l-2.9 3.388M158.57 313.399l-3.12 2.033M153.101 306.095l-1.982-3.877M162.205 303.197l-2.9 3.426M183.9 317.125l-4.405-.036M179.091 309.333l-1.615-4.028M188.415 307.3l-3.157 3.125M172.006 323.148l-4.405-.036M167.16 315.357l-1.615-4.029M176.484 313.324l-3.156 3.124M133.608 376.873l-4.368.338M128.139 369.531l-1.946-3.84M137.243 366.67l-2.864 3.388M122.265 383.95l-4.405.376M116.796 376.647l-1.982-3.878M125.9 373.748l-2.9 3.426M147.594 387.676l-4.405-.036M142.786 379.884l-1.652-4.028M152.11 377.851l-3.194 3.125M135.664 393.699l-4.405-.036M130.855 385.908l-1.615-4.028M140.179 383.875L136.985 387M122.119 400.365l-4.369.338M116.649 393.023l-1.982-3.84M125.753 390.162l-2.9 3.388M110.776 407.442l-4.406.338M105.306 400.101l-1.982-3.84M114.41 397.24l-2.9 3.388M136.105 411.13l-4.405-.036M131.296 403.339l-1.652-3.991M140.62 401.306l-3.194 3.124M124.174 417.193l-4.405-.075M119.365 409.4l-1.615-4.028M128.689 407.329l-3.193 3.125"/>
    <path fill="#22224B" d="M0 21.452c0 .192.128.32.32.32h4.066c.193 0 .32-.128.32-.32v-8.389c0-.128.065-.192.193-.192h7.108c.128 0 .192.064.192.192v8.389c0 .192.128.32.32.32h4.066c.192 0 .32-.128.32-.32V.32c0-.192-.128-.32-.32-.32H12.52c-.192 0-.32.128-.32.32v8.165c0 .128-.064.192-.192.192H4.899c-.128 0-.192-.064-.192-.192V.32c0-.192-.128-.32-.32-.32H.32C.128 0 0 .128 0 .32v21.132zM27.478 22.124c3.265 0 5.827-1.537 6.723-4.354.353-1.12.513-2.21.513-3.746 0-1.537-.16-2.626-.513-3.746-.896-2.818-3.457-4.355-6.723-4.355s-5.828 1.537-6.724 4.355c-.352 1.12-.512 2.209-.512 3.746s.16 2.625.512 3.746c.896 2.817 3.458 4.354 6.724 4.354zm0-3.778c-1.185 0-2.05-.576-2.402-1.665-.224-.704-.288-1.345-.288-2.657 0-1.313.064-1.953.288-2.658.352-1.088 1.217-1.665 2.402-1.665 1.184 0 2.049.577 2.401 1.665.224.705.288 1.345.288 2.658s-.064 1.953-.288 2.657c-.352 1.089-1.217 1.665-2.401 1.665zM54.102 21.772c.192 0 .32-.128.384-.32L59.45 6.596c.064-.192-.032-.32-.256-.32h-3.938c-.224 0-.352.096-.416.32l-2.434 9.22h-.064l-2.721-9.22c-.064-.224-.192-.32-.417-.32h-2.69c-.223 0-.383.096-.447.32l-2.658 9.22h-.064l-2.561-9.22c-.064-.224-.192-.32-.449-.32h-3.938c-.192 0-.288.128-.224.32l4.963 14.856c.064.192.192.32.384.32h3.17c.192 0 .32-.128.384-.32l2.722-8.997h.064l2.657 8.997c.064.192.192.32.384.32h3.202zM82.887 21.772c.192 0 .32-.128.32-.32V.32c0-.192-.128-.32-.32-.32h-3.842c-.192 0-.32.128-.32.32v7.396h-.033c-.736-1.056-2.017-1.793-4.066-1.793-2.593 0-4.45 1.249-5.25 3.714-.385 1.217-.545 2.37-.545 4.387 0 1.985.16 3.17.544 4.386.8 2.433 2.658 3.714 5.251 3.714 2.05 0 3.33-.736 4.066-1.793h.032v1.12c0 .193.129.321.32.321h3.843zm-6.82-3.426c-1.217 0-2.05-.576-2.401-1.665-.192-.608-.288-1.28-.288-2.657s.096-2.05.288-2.658c.352-1.12 1.184-1.665 2.401-1.665 1.185 0 2.017.545 2.37 1.665.191.609.287 1.281.287 2.658s-.096 2.049-.288 2.657c-.352 1.089-1.184 1.665-2.369 1.665zM93.702 22.124c3.266 0 5.827-1.537 6.723-4.354.353-1.12.513-2.21.513-3.746 0-1.537-.16-2.626-.513-3.746-.896-2.818-3.457-4.355-6.723-4.355s-5.828 1.537-6.724 4.355c-.352 1.12-.512 2.209-.512 3.746s.16 2.625.512 3.746c.897 2.817 3.458 4.354 6.724 4.354zm0-3.778c-1.185 0-2.05-.576-2.402-1.665-.224-.704-.288-1.345-.288-2.657 0-1.313.064-1.953.288-2.658.353-1.088 1.217-1.665 2.402-1.665 1.184 0 2.049.577 2.401 1.665.224.705.288 1.345.288 2.658s-.064 1.953-.288 2.657c-.352 1.089-1.217 1.665-2.401 1.665zM110.84 22.124c2.849 0 5.123-1.024 6.596-2.593.128-.128.128-.32-.032-.448l-2.114-1.986c-.128-.16-.288-.128-.448 0-.896.833-2.017 1.377-3.554 1.377-1.601 0-2.785-.704-3.202-2.049a3.432 3.432 0 0 1-.192-.864c0-.129.064-.193.192-.193h9.382c.224 0 .352-.128.352-.32 0-2.625-.192-3.746-.513-4.77-.896-2.722-3.265-4.355-6.691-4.355-3.298 0-5.763 1.601-6.66 4.387-.32.96-.512 2.08-.512 3.714 0 1.6.224 2.721.544 3.682.897 2.785 3.33 4.418 6.852 4.418zm-2.754-9.733c-.128 0-.192-.064-.192-.192 0-.48.064-.833.16-1.153.353-1.056 1.313-1.697 2.594-1.697 1.28 0 2.241.64 2.593 1.697.096.32.16.673.16 1.153 0 .128-.064.192-.192.192h-5.123zM127.18 22.124c4.418 0 6.884-2.145 6.916-5.315 0-2.593-1.505-4.354-5.155-4.706l-1.697-.192c-1.761-.16-2.145-.577-2.145-1.281 0-.769.64-1.28 1.953-1.28 1.601 0 3.138.575 4.194 1.248.16.096.32.096.448-.064l1.793-2.21c.128-.16.096-.352-.032-.48-1.44-1.088-3.65-1.92-6.275-1.92-4.034 0-6.372 1.92-6.372 4.962 0 2.786 1.793 4.418 5.059 4.739l1.729.192c1.793.16 2.209.608 2.209 1.345 0 .864-.768 1.472-2.401 1.472-1.601 0-3.362-.64-4.739-1.697-.16-.128-.32-.128-.448 0l-2.081 2.338a.31.31 0 0 0 0 .448c1.473 1.28 3.81 2.401 7.044 2.401zM148.991 3.81c.192 0 .32-.128.32-.32V.32c0-.192-.128-.32-.32-.32h-3.842c-.193 0-.321.128-.321.32v3.17c0 .192.128.32.321.32h3.842zm0 17.962c.192 0 .32-.128.32-.32V6.596c0-.192-.128-.32-.32-.32h-3.842c-.193 0-.321.128-.321.32v14.856c0 .192.128.32.321.32h3.842zM166.813 21.772c.192 0 .32-.128.32-.32v-9.766c0-3.393-1.857-5.763-5.283-5.763-1.985 0-3.298.8-4.002 1.761h-.032V6.596c0-.192-.129-.32-.321-.32h-3.842c-.192 0-.32.128-.32.32v14.856c0 .192.128.32.32.32h3.842c.192 0 .321-.128.321-.32V12.55c0-1.697.896-2.818 2.433-2.818 1.601 0 2.401 1.121 2.401 2.818v8.9c0 .193.128.321.32.321h3.843zM177.978 21.964c.192 0 .32-.128.32-.32v-3.17c0-.192-.128-.32-.32-.32h-.768c-1.025 0-1.409-.384-1.409-1.537V9.765c0-.128.064-.192.192-.192h1.985c.192 0 .32-.128.32-.32V6.596c0-.192-.128-.32-.32-.32h-1.985c-.128 0-.192-.065-.192-.193V1.921c0-.192-.128-.32-.32-.32h-3.81c-.192 0-.32.128-.32.32v4.162c0 .128-.064.192-.193.192h-.96c-.192 0-.32.129-.32.32v2.658c0 .192.128.32.32.32h.96c.129 0 .193.064.193.192v7.044c0 3.554 1.344 5.155 4.93 5.155h1.697zM188.258 22.124c2.849 0 5.122-1.024 6.595-2.593.128-.128.128-.32-.032-.448l-2.113-1.986c-.128-.16-.288-.128-.448 0-.897.833-2.017 1.377-3.554 1.377-1.601 0-2.786-.704-3.202-2.049a3.432 3.432 0 0 1-.192-.864c0-.129.064-.193.192-.193h9.381c.224 0 .352-.128.352-.32 0-2.625-.192-3.746-.512-4.77-.896-2.722-3.266-4.355-6.692-4.355-3.297 0-5.763 1.601-6.659 4.387-.32.96-.512 2.08-.512 3.714 0 1.6.224 2.721.544 3.682.896 2.785 3.33 4.418 6.852 4.418zm-2.754-9.733c-.128 0-.192-.064-.192-.192 0-.48.064-.833.16-1.153.352-1.056 1.313-1.697 2.594-1.697 1.28 0 2.241.64 2.593 1.697.096.32.16.673.16 1.153 0 .128-.064.192-.192.192h-5.123zM202.677 21.772c.192 0 .32-.128.32-.32v-8.165c0-2.08.736-3.297 2.401-3.362.768-.032 1.505.225 2.241.705.192.096.32.096.449-.064l1.793-3.266c.096-.192.064-.32-.097-.448-.672-.577-1.696-.929-2.721-.929-1.889 0-3.298.737-4.034 1.985h-.032V6.596c0-.192-.128-.32-.32-.32h-3.843c-.192 0-.32.128-.32.32v14.856c0 .192.128.32.32.32h3.843zM224.012 21.772c.192 0 .32-.128.32-.32v-9.926c0-3.874-1.825-5.603-6.884-5.603-2.561 0-4.45.609-5.763 1.537-.16.096-.192.256-.096.448l1.441 2.53c.096.16.256.192.416.064.737-.545 1.889-.993 3.458-.993 2.466 0 3.17.673 3.17 2.113v.577c0 .128-.064.192-.192.192h-2.754c-3.842 0-6.435 1.569-6.435 4.995 0 3.297 2.401 4.738 5.155 4.738 2.113 0 3.457-.672 4.258-1.697h.032v1.025c0 .192.128.32.32.32h3.554zm-6.82-3.01c-1.472 0-2.241-.544-2.241-1.633 0-1.216.865-1.76 2.754-1.76h2.177c.128 0 .192.063.192.192v1.056c0 1.441-.961 2.145-2.882 2.145zM234.684 22.124c2.658 0 4.739-1.216 5.859-2.913.097-.16.097-.32-.064-.449l-2.785-1.825c-.192-.128-.352-.096-.48.064-.673.929-1.345 1.345-2.466 1.345-1.184 0-2.049-.544-2.401-1.665-.224-.64-.288-1.377-.288-2.657 0-1.281.064-2.017.288-2.658.352-1.12 1.217-1.665 2.401-1.665 1.121 0 1.793.417 2.466 1.345.128.16.288.192.48.064l2.785-1.825c.161-.128.161-.288.064-.448-1.12-1.697-3.201-2.914-5.859-2.914-3.266 0-5.763 1.505-6.691 4.387-.321.928-.481 2.08-.481 3.714 0 1.633.16 2.785.481 3.714.928 2.881 3.425 4.386 6.691 4.386zM250.643 21.964c.192 0 .32-.128.32-.32v-3.17c0-.192-.128-.32-.32-.32h-.768c-1.025 0-1.409-.384-1.409-1.537V9.765c0-.128.064-.192.192-.192h1.985c.192 0 .32-.128.32-.32V6.596c0-.192-.128-.32-.32-.32h-1.985c-.128 0-.192-.065-.192-.193V1.921c0-.192-.128-.32-.32-.32h-3.81c-.192 0-.32.128-.32.32v4.162c0 .128-.064.192-.192.192h-.961c-.192 0-.32.129-.32.32v2.658c0 .192.128.32.32.32h.961c.128 0 .192.064.192.192v7.044c0 3.554 1.344 5.155 4.93 5.155h1.697zM258.457 3.81c.192 0 .321-.128.321-.32V.32c0-.192-.129-.32-.321-.32h-3.842c-.192 0-.32.128-.32.32v3.17c0 .192.128.32.32.32h3.842zm0 17.962c.192 0 .321-.128.321-.32V6.596c0-.192-.129-.32-.321-.32h-3.842c-.192 0-.32.128-.32.32v14.856c0 .192.128.32.32.32h3.842zM269.267 22.124c3.266 0 5.828-1.537 6.724-4.354.352-1.12.512-2.21.512-3.746 0-1.537-.16-2.626-.512-3.746-.896-2.818-3.458-4.355-6.724-4.355-3.265 0-5.827 1.537-6.723 4.355-.353 1.12-.513 2.209-.513 3.746s.16 2.625.513 3.746c.896 2.817 3.458 4.354 6.723 4.354zm0-3.778c-1.184 0-2.049-.576-2.401-1.665-.224-.704-.288-1.345-.288-2.657 0-1.313.064-1.953.288-2.658.352-1.088 1.217-1.665 2.401-1.665 1.185 0 2.049.577 2.402 1.665.224.705.288 1.345.288 2.658s-.064 1.953-.288 2.657c-.353 1.089-1.217 1.665-2.402 1.665zM293.257 21.772c.192 0 .32-.128.32-.32v-9.766c0-3.393-1.857-5.763-5.282-5.763-1.986 0-3.298.8-4.003 1.761h-.032V6.596c0-.192-.128-.32-.32-.32h-3.842c-.192 0-.32.128-.32.32v14.856c0 .192.128.32.32.32h3.842c.192 0 .32-.128.32-.32V12.55c0-1.697.897-2.818 2.434-2.818 1.601 0 2.401 1.121 2.401 2.818v8.9c0 .193.128.321.32.321h3.842zM318.329 21.772c.192 0 .32-.128.32-.32V.32c0-.192-.128-.32-.32-.32h-3.842c-.192 0-.32.128-.32.32v7.396h-.032c-.737-1.056-2.017-1.793-4.066-1.793-2.594 0-4.451 1.249-5.251 3.714-.385 1.217-.545 2.37-.545 4.387 0 1.985.16 3.17.545 4.386.8 2.433 2.657 3.714 5.251 3.714 2.049 0 3.329-.736 4.066-1.793h.032v1.12c0 .193.128.321.32.321h3.842zm-6.82-3.426c-1.216 0-2.049-.576-2.401-1.665-.192-.608-.288-1.28-.288-2.657s.096-2.05.288-2.658c.352-1.12 1.185-1.665 2.401-1.665 1.185 0 2.017.545 2.37 1.665.192.609.288 1.281.288 2.658s-.096 2.049-.288 2.657c-.353 1.089-1.185 1.665-2.37 1.665zM329.304 22.124c2.85 0 5.123-1.024 6.596-2.593.128-.128.128-.32-.032-.448l-2.113-1.986c-.128-.16-.288-.128-.449 0-.896.833-2.017 1.377-3.554 1.377-1.6 0-2.785-.704-3.201-2.049a3.432 3.432 0 0 1-.192-.864c0-.129.064-.193.192-.193h9.381c.224 0 .352-.128.352-.32 0-2.625-.192-3.746-.512-4.77-.897-2.722-3.266-4.355-6.692-4.355-3.298 0-5.763 1.601-6.66 4.387-.32.96-.512 2.08-.512 3.714 0 1.6.224 2.721.544 3.682.897 2.785 3.33 4.418 6.852 4.418zm-2.753-9.733c-.128 0-.192-.064-.192-.192 0-.48.064-.833.16-1.153.352-1.056 1.312-1.697 2.593-1.697s2.241.64 2.594 1.697c.096.32.16.673.16 1.153 0 .128-.064.192-.193.192h-5.122zM345.644 22.124c4.419 0 6.884-2.145 6.916-5.315 0-2.593-1.505-4.354-5.155-4.706l-1.697-.192c-1.761-.16-2.145-.577-2.145-1.281 0-.769.64-1.28 1.953-1.28 1.601 0 3.138.575 4.194 1.248.161.096.321.096.449-.064l1.793-2.21c.128-.16.096-.352-.032-.48-1.441-1.088-3.65-1.92-6.276-1.92-4.034 0-6.371 1.92-6.371 4.962 0 2.786 1.793 4.418 5.058 4.739l1.729.192c1.793.16 2.21.608 2.21 1.345 0 .864-.769 1.472-2.402 1.472-1.601 0-3.362-.64-4.738-1.697-.16-.128-.32-.128-.449 0l-2.081 2.338a.31.31 0 0 0 0 .448c1.473 1.28 3.81 2.401 7.044 2.401zM359.888 3.81c.192 0 .32-.128.32-.32V.32c0-.192-.128-.32-.32-.32h-3.842c-.192 0-.32.128-.32.32v3.17c0 .192.128.32.32.32h3.842zm0 17.962c.192 0 .32-.128.32-.32V6.596c0-.192-.128-.32-.32-.32h-3.842c-.192 0-.32.128-.32.32v14.856c0 .192.128.32.32.32h3.842zM369.866 27.887c5.091 0 7.716-2.593 7.716-7.78V6.596c0-.192-.128-.32-.32-.32h-3.842c-.192 0-.32.128-.32.32v1.12h-.032c-.673-1.088-2.018-1.793-3.971-1.793-2.561 0-4.386 1.281-5.186 3.746-.353 1.121-.513 2.21-.513 3.874 0 1.665.16 2.722.513 3.875.8 2.465 2.625 3.746 5.186 3.746 1.953 0 3.298-.705 3.971-1.793h.032v1.312c0 2.274-.961 3.426-3.106 3.426-1.217 0-2.241-.48-3.202-1.344-.16-.16-.32-.16-.48 0l-2.273 2.305c-.16.16-.16.32-.032.48 1.12 1.345 3.554 2.337 5.859 2.337zm.64-10.501c-1.217 0-1.921-.577-2.305-1.665-.16-.577-.256-1.217-.256-2.178 0-.96.096-1.6.256-2.177.384-1.088 1.088-1.665 2.305-1.665 1.249 0 1.953.577 2.305 1.665.193.577.289 1.217.289 2.178 0 .96-.096 1.6-.289 2.177-.352 1.088-1.056 1.665-2.305 1.665zM395.095 21.772c.192 0 .32-.128.32-.32v-9.766c0-3.393-1.857-5.763-5.283-5.763-1.985 0-3.298.8-4.002 1.761h-.032V6.596c0-.192-.128-.32-.32-.32h-3.843c-.192 0-.32.128-.32.32v14.856c0 .192.128.32.32.32h3.843c.192 0 .32-.128.32-.32V12.55c0-1.697.896-2.818 2.433-2.818 1.601 0 2.401 1.121 2.401 2.818v8.9c0 .193.129.321.321.321h3.842zM61.94 58.792c.192 0 .32-.128.32-.32V46.786c0-.128.064-.192.192-.192h2.53c.192 0 .32-.128.32-.32v-2.658c0-.192-.128-.32-.32-.32h-2.53c-.128 0-.192-.064-.192-.192v-.769c0-1.312.352-1.665 1.76-1.665h.993c.193 0 .32-.128.32-.32v-3.01c0-.192-.127-.32-.32-.32h-1.76c-3.682 0-5.444 1.57-5.444 5.347v.737c0 .128-.063.192-.192.192h-.96c-.192 0-.32.128-.32.32v2.657c0 .193.128.32.32.32h.96c.129 0 .193.065.193.193v11.686c0 .192.128.32.32.32h3.81zM72.25 40.83c.192 0 .32-.127.32-.32v-3.17c0-.192-.128-.32-.32-.32h-3.843c-.192 0-.32.128-.32.32v3.17c0 .193.128.32.32.32h3.843zm0 17.962c.192 0 .32-.128.32-.32V43.616c0-.192-.128-.32-.32-.32h-3.843c-.192 0-.32.128-.32.32v14.856c0 .192.128.32.32.32h3.843zM83.567 58.984c.192 0 .32-.128.32-.32v-3.17c0-.191-.128-.32-.32-.32h-.769c-1.024 0-1.409-.384-1.409-1.536v-6.852c0-.128.065-.192.193-.192h1.985c.192 0 .32-.128.32-.32v-2.658c0-.192-.128-.32-.32-.32h-1.985c-.128 0-.192-.064-.192-.192V38.94c0-.192-.129-.32-.32-.32h-3.81c-.193 0-.32.128-.32.32v4.163c0 .128-.065.192-.193.192h-.96c-.193 0-.32.128-.32.32v2.657c0 .193.127.32.32.32h.96c.128 0 .192.065.192.193v7.044c0 3.554 1.345 5.154 4.93 5.154h1.698zM98.948 40.83c.192 0 .32-.127.32-.32v-3.17c0-.192-.128-.32-.32-.32h-3.843c-.192 0-.32.128-.32.32v3.17c0 .193.128.32.32.32h3.843zm0 17.962c.192 0 .32-.128.32-.32V43.616c0-.192-.128-.32-.32-.32h-3.843c-.192 0-.32.128-.32.32v14.856c0 .192.128.32.32.32h3.843zM116.769 58.792c.192 0 .32-.128.32-.32v-9.765c0-3.394-1.857-5.763-5.282-5.763-1.986 0-3.298.8-4.003 1.76h-.032v-1.088c0-.192-.128-.32-.32-.32h-3.842c-.192 0-.32.128-.32.32v14.856c0 .192.128.32.32.32h3.842c.192 0 .32-.128.32-.32v-8.9c0-1.698.897-2.818 2.434-2.818 1.601 0 2.401 1.12 2.401 2.817v8.901c0 .192.128.32.32.32h3.842zM130.603 64.556c2.785 0 4.162-1.025 5.475-4.45l6.275-16.49c.064-.192-.032-.32-.256-.32h-3.97c-.192 0-.32.128-.384.32l-2.882 8.965h-.064l-3.105-8.965c-.064-.192-.193-.32-.385-.32h-4.098c-.192 0-.32.128-.256.32l5.763 14.408-.416 1.153c-.384 1.152-.993 1.6-2.113 1.6h-.673c-.192 0-.32.129-.32.32v3.138c0 .193.128.32.32.32h1.089zM150.811 59.145c3.266 0 5.828-1.537 6.724-4.355.352-1.12.512-2.209.512-3.746s-.16-2.625-.512-3.746c-.896-2.818-3.458-4.354-6.724-4.354-3.265 0-5.827 1.536-6.723 4.354-.353 1.12-.513 2.21-.513 3.746 0 1.537.16 2.626.513 3.746.896 2.818 3.458 4.355 6.723 4.355zm0-3.779c-1.184 0-2.049-.576-2.401-1.664-.224-.705-.288-1.345-.288-2.658s.064-1.953.288-2.657c.352-1.089 1.217-1.665 2.401-1.665 1.185 0 2.049.576 2.402 1.665.224.704.288 1.344.288 2.657s-.064 1.953-.288 2.658c-.353 1.088-1.217 1.665-2.402 1.665zM174.545 58.792c.192 0 .32-.128.32-.32V43.616c0-.192-.128-.32-.32-.32h-3.842c-.192 0-.32.128-.32.32v8.901c0 1.697-.833 2.817-2.369 2.817-1.569 0-2.37-1.152-2.37-2.817v-8.9c0-.193-.128-.321-.32-.321h-3.842c-.192 0-.32.128-.32.32v9.765c0 3.362 1.793 5.764 5.219 5.764 1.953 0 3.169-.737 3.97-1.793h.032v1.12c0 .192.128.32.32.32h3.842zM183.056 58.792c.192 0 .321-.128.321-.32v-8.164c0-2.081.736-3.298 2.401-3.362.768-.032 1.505.224 2.241.704.192.096.32.096.448-.064l1.793-3.266c.096-.192.064-.32-.096-.448-.672-.576-1.697-.928-2.721-.928-1.889 0-3.298.736-4.034 1.985h-.032v-1.313c0-.192-.129-.32-.321-.32h-3.842c-.192 0-.32.128-.32.32v14.856c0 .192.128.32.32.32h3.842zM208.674 59.145c2.593 0 4.45-1.281 5.251-3.714.384-1.217.544-2.402.544-4.387 0-2.017-.16-3.17-.544-4.386-.801-2.466-2.658-3.714-5.251-3.714-2.049 0-3.362.736-4.066 1.793h-.032V37.34c0-.193-.128-.32-.32-.32h-3.843c-.192 0-.32.127-.32.32v21.131c0 .192.128.32.32.32h3.843c.192 0 .32-.128.32-.32v-1.12h.032c.704 1.056 2.017 1.793 4.066 1.793zm-1.441-3.779c-1.184 0-2.017-.576-2.369-1.664-.192-.609-.288-1.281-.288-2.658s.096-2.049.288-2.657c.352-1.12 1.185-1.665 2.369-1.665 1.217 0 2.049.544 2.402 1.665.192.608.288 1.28.288 2.657s-.096 2.05-.288 2.658c-.353 1.088-1.185 1.665-2.402 1.665zM230.951 58.792c.192 0 .32-.128.32-.32V43.616c0-.192-.128-.32-.32-.32h-3.842c-.192 0-.32.128-.32.32v8.901c0 1.697-.832 2.817-2.369 2.817-1.569 0-2.37-1.152-2.37-2.817v-8.9c0-.193-.128-.321-.32-.321h-3.842c-.192 0-.32.128-.32.32v9.765c0 3.362 1.793 5.764 5.219 5.764 1.953 0 3.17-.737 3.97-1.793h.032v1.12c0 .192.128.32.32.32h3.842zM241.384 59.145c4.418 0 6.883-2.146 6.915-5.315 0-2.594-1.504-4.355-5.154-4.707l-1.697-.192c-1.761-.16-2.146-.576-2.146-1.28 0-.77.641-1.281 1.953-1.281 1.601 0 3.138.576 4.195 1.248.16.096.32.096.448-.064l1.793-2.209c.128-.16.096-.352-.032-.48-1.441-1.089-3.65-1.921-6.275-1.921-4.035 0-6.372 1.92-6.372 4.962 0 2.786 1.793 4.419 5.059 4.739l1.729.192c1.793.16 2.209.608 2.209 1.345 0 .864-.768 1.473-2.401 1.473-1.601 0-3.362-.64-4.739-1.697-.16-.128-.32-.128-.448 0l-2.081 2.337a.31.31 0 0 0 0 .448c1.472 1.281 3.81 2.402 7.044 2.402zM255.628 40.83c.192 0 .32-.127.32-.32v-3.17c0-.192-.128-.32-.32-.32h-3.842c-.193 0-.321.128-.321.32v3.17c0 .193.128.32.321.32h3.842zm0 17.962c.192 0 .32-.128.32-.32V43.616c0-.192-.128-.32-.32-.32h-3.842c-.193 0-.321.128-.321.32v14.856c0 .192.128.32.321.32h3.842zM273.45 58.792c.192 0 .32-.128.32-.32v-9.765c0-3.394-1.857-5.763-5.283-5.763-1.985 0-3.298.8-4.002 1.76h-.032v-1.088c0-.192-.129-.32-.321-.32h-3.842c-.192 0-.32.128-.32.32v14.856c0 .192.128.32.32.32h3.842c.192 0 .321-.128.321-.32v-8.9c0-1.698.896-2.818 2.433-2.818 1.601 0 2.401 1.12 2.401 2.817v8.901c0 .192.128.32.32.32h3.843zM284.295 59.145c2.85 0 5.123-1.025 6.596-2.594.128-.128.128-.32-.032-.448l-2.114-1.985c-.128-.16-.288-.128-.448 0-.896.832-2.017 1.377-3.554 1.377-1.601 0-2.785-.705-3.202-2.05a3.432 3.432 0 0 1-.192-.864c0-.128.064-.192.192-.192h9.382c.224 0 .352-.128.352-.32 0-2.626-.192-3.746-.512-4.77-.897-2.722-3.266-4.355-6.692-4.355-3.298 0-5.763 1.6-6.66 4.386-.32.96-.512 2.081-.512 3.714 0 1.601.224 2.722.544 3.682.897 2.786 3.33 4.419 6.852 4.419zm-2.754-9.734c-.128 0-.192-.064-.192-.192 0-.48.064-.832.16-1.153.353-1.056 1.313-1.696 2.594-1.696s2.241.64 2.593 1.697c.096.32.16.672.16 1.152 0 .128-.064.192-.192.192h-5.123zM300.635 59.145c4.418 0 6.884-2.146 6.916-5.315 0-2.594-1.505-4.355-5.155-4.707l-1.697-.192c-1.761-.16-2.145-.576-2.145-1.28 0-.77.64-1.281 1.953-1.281 1.601 0 3.138.576 4.194 1.248.16.096.32.096.448-.064l1.793-2.209c.129-.16.097-.352-.032-.48-1.44-1.089-3.65-1.921-6.275-1.921-4.034 0-6.372 1.92-6.372 4.962 0 2.786 1.793 4.419 5.059 4.739l1.729.192c1.793.16 2.209.608 2.209 1.345 0 .864-.768 1.473-2.401 1.473-1.601 0-3.362-.64-4.738-1.697-.161-.128-.321-.128-.449 0l-2.081 2.337a.31.31 0 0 0 0 .448c1.473 1.281 3.81 2.402 7.044 2.402zM316.8 59.145c4.419 0 6.884-2.146 6.916-5.315 0-2.594-1.505-4.355-5.155-4.707l-1.697-.192c-1.761-.16-2.145-.576-2.145-1.28 0-.77.64-1.281 1.953-1.281 1.601 0 3.138.576 4.194 1.248.161.096.321.096.449-.064l1.793-2.209c.128-.16.096-.352-.032-.48-1.441-1.089-3.65-1.921-6.276-1.921-4.034 0-6.371 1.92-6.371 4.962 0 2.786 1.793 4.419 5.058 4.739l1.729.192c1.793.16 2.21.608 2.21 1.345 0 .864-.769 1.473-2.402 1.473-1.601 0-3.362-.64-4.738-1.697-.16-.128-.321-.128-.449 0l-2.081 2.337a.31.31 0 0 0 0 .448c1.473 1.281 3.81 2.402 7.044 2.402zM330.308 52.42h3.714c.192 0 .32-.127.32-.32v-.768c0-.896.128-1.312.64-1.92l2.146-2.818c1.12-1.313 1.697-2.53 1.697-4.163 0-3.265-2.626-5.763-6.436-5.763-3.746 0-6.179 2.145-6.66 5.443-.032.192.032.352.256.384l3.458.513c.225.032.353-.032.417-.288.288-1.41 1.088-2.242 2.401-2.242 1.313 0 2.113.897 2.113 2.114 0 .8-.32 1.504-1.217 2.56l-2.241 2.914c-.64.801-.928 1.473-.928 2.69v1.345c0 .192.128.32.32.32zm-.384 6.052c0 .192.128.32.32.32h3.842c.192 0 .32-.128.32-.32v-3.65c0-.192-.128-.32-.32-.32h-3.842c-.192 0-.32.128-.32.32v3.65z"/>
    <defs>
        <linearGradient id="a" x1="63.403" x2="63.403" y1="128.439" y2="162.686" gradientUnits="userSpaceOnUse">
            <stop stop-color="#C0DDFC"/>
            <stop offset=".996" stop-color="#fff"/>
        </linearGradient>
        <linearGradient id="b" x1="85.593" x2="85.593" y1="220.37" y2="249.943" gradientUnits="userSpaceOnUse">
            <stop stop-color="#C0DDFC"/>
            <stop offset=".996" stop-color="#fff"/>
        </linearGradient>
        <linearGradient id="c" x1="258.101" x2="258.101" y1="265.947" y2="173.272" gradientUnits="userSpaceOnUse">
            <stop stop-color="#FFE0C2"/>
            <stop offset=".401" stop-color="#7AAEFC"/>
            <stop offset=".591" stop-color="#B8C1FC"/>
            <stop offset="1" stop-color="#D2D4D4"/>
        </linearGradient>
        <linearGradient id="d" x1="311.599" x2="311.599" y1="153.025" y2="231.88" gradientUnits="userSpaceOnUse">
            <stop stop-color="#FFE0C2"/>
            <stop offset=".401" stop-color="#7AAEFC"/>
            <stop offset=".591" stop-color="#B8C1FC"/>
            <stop offset="1" stop-color="#D2D4D4"/>
        </linearGradient>
        <linearGradient id="e" x1="305.205" x2="305.205" y1="265.947" y2="173.272" gradientUnits="userSpaceOnUse">
            <stop stop-color="#FFE0C2"/>
            <stop offset=".401" stop-color="#7AAEFC"/>
            <stop offset=".591" stop-color="#B8C1FC"/>
            <stop offset="1" stop-color="#D2D4D4"/>
        </linearGradient>
        <linearGradient id="f" x1="282.736" x2="282.736" y1="176.697" y2="347.271" gradientUnits="userSpaceOnUse">
            <stop stop-color="#B8A7D3"/>
            <stop offset=".401" stop-color="#ED4861"/>
            <stop offset=".501" stop-color="#F4837D"/>
            <stop offset=".591" stop-color="#FECEAA"/>
            <stop offset="1" stop-color="#B7D5EA"/>
        </linearGradient>
        <linearGradient id="g" x1="333.378" x2="333.378" y1="176.697" y2="347.271" gradientUnits="userSpaceOnUse">
            <stop stop-color="#B8A7D3"/>
            <stop offset=".401" stop-color="#ED4861"/>
            <stop offset=".501" stop-color="#F4837D"/>
            <stop offset=".591" stop-color="#FECEAA"/>
            <stop offset="1" stop-color="#B7D5EA"/>
        </linearGradient>
        <linearGradient id="h" x1="311.628" x2="311.628" y1="265.947" y2="173.272" gradientUnits="userSpaceOnUse">
            <stop stop-color="#FFE0C2"/>
            <stop offset=".401" stop-color="#7AAEFC"/>
            <stop offset=".591" stop-color="#B8C1FC"/>
            <stop offset="1" stop-color="#D2D4D4"/>
        </linearGradient>
        <linearGradient id="i" x1="335.556" x2="335.556" y1="252.993" y2="173.333" gradientUnits="userSpaceOnUse">
            <stop stop-color="#FFE0C2"/>
            <stop offset=".401" stop-color="#7AAEFC"/>
            <stop offset=".591" stop-color="#B8C1FC"/>
            <stop offset="1" stop-color="#D2D4D4"/>
        </linearGradient>
        <linearGradient id="j" x1="120.834" x2="206.586" y1="178.635" y2="178.635" gradientUnits="userSpaceOnUse">
            <stop stop-color="#B8A7D3"/>
            <stop offset=".401" stop-color="#ED4861"/>
            <stop offset=".501" stop-color="#F4837D"/>
            <stop offset=".591" stop-color="#FECEAA"/>
            <stop offset="1" stop-color="#B7D5EA"/>
        </linearGradient>
        <linearGradient id="k" x1="23.629" x2="98.808" y1="376.81" y2="376.81" gradientUnits="userSpaceOnUse">
            <stop stop-color="#FFD8A1"/>
            <stop offset=".996" stop-color="#fff"/>
        </linearGradient>
        <linearGradient id="l" x1="198.767" x2="198.767" y1="270.603" y2="417.166" gradientUnits="userSpaceOnUse">
            <stop stop-color="#C0DDFC"/>
            <stop offset=".996" stop-color="#fff"/>
        </linearGradient>
        <linearGradient id="m" x1="-nan" x2="-nan" y1="-nan" y2="-nan" gradientUnits="userSpaceOnUse">
            <stop offset=".01" stop-color="#81B1F9"/>
            <stop offset=".25" stop-color="#84B3F9"/>
            <stop offset=".421" stop-color="#8DB8FA"/>
            <stop offset=".57" stop-color="#9DC2FA"/>
            <stop offset=".707" stop-color="#B3D0FB"/>
            <stop offset=".836" stop-color="#CFE2FD"/>
            <stop offset=".957" stop-color="#F2F7FE"/>
            <stop offset=".996" stop-color="#fff"/>
        </linearGradient>
        <linearGradient id="n" x1="-nan" x2="-nan" y1="-nan" y2="-nan" gradientUnits="userSpaceOnUse">
            <stop offset=".01" stop-color="#81B1F9"/>
            <stop offset=".25" stop-color="#84B3F9"/>
            <stop offset=".421" stop-color="#8DB8FA"/>
            <stop offset=".57" stop-color="#9DC2FA"/>
            <stop offset=".707" stop-color="#B3D0FB"/>
            <stop offset=".836" stop-color="#CFE2FD"/>
            <stop offset=".957" stop-color="#F2F7FE"/>
            <stop offset=".996" stop-color="#fff"/>
        </linearGradient>
    </defs>
</svg>
