<svg xmlns="http://www.w3.org/2000/svg" width="24" height="24" fill="none" viewBox="0 0 24 24">
    <path fill="#0500FA" fill-rule="evenodd" d="M7.51 13.64c.228.608.856 1.41 1.29 1.874 0 0-1.818.945-2.382 1.286H0c0-1.874 1.2-2.401 2.303-2.887.74-.325 1.436-.631 1.697-1.311v-.799c-2.354 0-3.107-.933-3.107-.933.433-.347.427-1.4.42-2.62C1.302 6.008 1.287 3.2 4 3.2c0 0 .55-.8 1.28-.8 2.026 0 2.88 1.17 3.265 2.642C7.269 5.963 6.5 7.432 6.5 9.22c0 .703.302 1.955.658 2.505-.157.035-.606.07-.758.07v.807c.19.494.611.79 1.11 1.04zm9.89-4.346c0 .588-.138 1.153-.286 1.592.055.216.086.458.086.726 0 1.976-2 3.947-2 3.947.434.19 1.824.896 2.392 1.241H24c0-2.608-1.315-3.134-2.453-3.589-.695-.277-1.324-.529-1.547-1.211v-1.2c.266-.134.898-1.053.978-1.771.208-.016.622-.526.622-.981 0-.455-.144-.646-.27-.72 0 0 .27-.6.27-1.328 0-1.457-.394-2.8-1.6-2.8 0 0-.346-.8-1.6-.8-1.778 0-2.87 1.223-3.134 2.826 1.292.693 2.134 2.188 2.134 4.068zm-3.8 6.916v-1.347s1.254-1.182 1.346-1.989c0 0 .654-.452.654-1.262 0-.562-.25-.646-.25-.646s.45-.856.45-1.672c0-1.636-.82-2.894-2.2-2.894 0 0-.586-.8-1.6-.8-2.154 0-3.9 1.298-3.9 3.62 0 .98.55 1.746.55 1.746s-.25.122-.25.646c0 1.018.654 1.262.654 1.262.092.807 1.346 1.99 1.346 1.99v1.346c-.256.769-1.011 1.052-1.849 1.367-1.366.514-2.951 1.11-2.951 4.023h12.8c0-2.925-1.587-3.517-2.953-4.028-.837-.312-1.591-.594-1.847-1.362z" clip-rule="evenodd"/>
</svg>
