<svg xmlns="http://www.w3.org/2000/svg" width="24" height="24" fill="none" viewBox="0 0 24 24">
    <path fill="#7C7CA5" fill-rule="evenodd" d="M7.475 3.475A6.4 6.4 0 0 1 18.4 8c0 2.643-1.697 4.315-3.223 5.819-1.245 1.228-2.377 2.343-2.377 3.781a.8.8 0 1 1-1.6 0c0-1.438-1.131-2.553-2.377-3.781C7.297 12.315 5.6 10.642 5.6 8a6.4 6.4 0 0 1 1.875-4.525zm3.902 6.014a1.6 1.6 0 1 0 1.174-2.976 1.6 1.6 0 0 0-1.174 2.976zm4.923 5.47l.195-.193c3.324.568 5.905 1.79 5.905 3.634 0 2.626-5.232 4-10.4 4s-10.4-1.374-10.4-4c0-1.843 2.58-3.066 5.905-3.634l.195.193c.437.43.843.835 1.171 1.219-3.69.434-5.67 1.572-5.67 2.222 0 .815 3.105 2.4 8.8 2.4 5.693 0 8.8-1.585 8.8-2.4 0-.65-1.982-1.788-5.672-2.222.327-.384.734-.788 1.171-1.22z" clip-rule="evenodd"/>
</svg>
