<svg xmlns="http://www.w3.org/2000/svg" width="40" height="40" fill="none" viewBox="0 0 40 40">
    <path fill="#00F" fill-rule="evenodd" d="M21.789 9.6h2.21a.8.8 0 0 1 .742 1.097L24 12.8h-8l-.742-2.103a.8.8 0 0 1 .743-1.097h2.21a2.4 2.4 0 0 1 3.578 0zm2.21 4.8h-8s-5.6 4.8-5.6 10.4c0 3.2 2.4 4.8 4 4.8h11.2c1.6 0 4-1.6 4-4.8 0-5.6-5.6-10.4-5.6-10.4zm-3.2 11.118V26.8h-1.6v-1.278c-1.176-.22-1.916-.944-1.96-2h1.386c.067.555.627.91 1.434.91.745 0 1.272-.36 1.272-.878 0-.436-.341-.688-1.181-.868l-.892-.19c-1.248-.26-1.861-.911-1.861-1.955 0-1.05.695-1.8 1.803-2.046V17.2h1.6v1.293c1.08.241 1.802.977 1.837 1.972h-1.348c-.067-.541-.57-.902-1.263-.902-.716 0-1.19.332-1.19.855 0 .422.326.664 1.129.835l.825.176c1.377.29 1.97.883 1.97 1.945 0 1.144-.735 1.912-1.96 2.144z" clip-rule="evenodd"/>
    <path fill="#0500FA" d="M24 0h16v2H24z"/>
    <path fill="#0500FA" d="M38 16V0h2v16zM0 38h16v2H0z"/>
    <path fill="#0500FA" d="M2 24v16H0V24z"/>
</svg>
