<svg xmlns="http://www.w3.org/2000/svg" width="24" height="24" fill="none" viewBox="0 0 24 24">
    <path fill="#0500FA" fill-rule="evenodd" d="M5.6 7.2a2.4 2.4 0 1 0 0-4.8 2.4 2.4 0 0 0 0 4.8zm1 1.6a.996.996 0 0 1 .6-.2h5.6a1 1 0 0 1 0 2H8.27a.8.8 0 0 0-.27.6v9.574a.827.827 0 1 1-1.651.054l-.35-5.256a.4.4 0 0 0-.797 0l-.35 5.257a.827.827 0 0 1-1.652-.055V10.4a1.6 1.6 0 0 1 1.6-1.6h1.8zm7.98-5H20a1 1 0 0 1 1 1v9.6a1 1 0 0 1-1 1h-3.52l1.29 5.158a1 1 0 0 1-1.94.485L14.42 15.4h-1.64l-1.41 5.643a1 1 0 0 1-1.94-.485l1.29-5.158H9.6v-2H19V5.8H9.6v-2h3.02a1 1 0 0 1 1.96 0z" clip-rule="evenodd"/>
</svg>
