<svg xmlns="http://www.w3.org/2000/svg" width="24" height="24" fill="none" viewBox="0 0 24 24">
    <path fill="#00F" d="M7.229 2A4.233 4.233 0 0 0 3 6.229a4.233 4.233 0 0 0 4.229 4.228c.733 0 1.429-.213 2.04-.55l3.726 3.932v5.994l-3.21.63a.72.72 0 0 0-.044.009l-.023.004v.002a.769.769 0 0 0 .202 1.512h3.714a.77.77 0 0 0 .251 0h3.723a.769.769 0 0 0 .201-1.514l-.02-.004a.761.761 0 0 0-.063-.013l-3.193-.626V13.84l6.709-7.082a.768.768 0 0 0 .21-.528v-.385a.769.769 0 0 0-.769-.769H11.27C10.804 3.29 9.14 2 7.229 2zm0 1.538c1.072 0 2.01.643 2.42 1.537H6.844a.769.769 0 0 0-.769.77v.384c0 .196.075.385.21.528l1.867 1.97c-.307.12-.623.193-.923.193a2.658 2.658 0 0 1-2.691-2.691 2.658 2.658 0 0 1 2.69-2.691zm1.039 3.075H19.26l-1.457 1.538h-6.437l2.83 2.988a.595.595 0 1 1-.865.818L8.268 6.613z"/>
</svg>
