<svg xmlns="http://www.w3.org/2000/svg" width="40" height="40" fill="none" viewBox="0 0 40 40">
    <path fill="#00F" fill-rule="evenodd" d="M15.094 10.4H11.2A1.6 1.6 0 0 0 9.6 12v14.4a1.6 1.6 0 0 0 1.6 1.6h1.6v-.4a1.2 1.2 0 1 1 2.4 0v.4h9.6v-.4a1.2 1.2 0 1 1 2.4 0v.4h1.6a1.6 1.6 0 0 0 1.6-1.6V13.6a1.6 1.6 0 0 0-1.6-1.6H16.96l-.494-.823a1.6 1.6 0 0 0-1.372-.777zm-.94 11.314c-.512.23-1.101.495-1.354 1.486h6.4c-.252-.991-.841-1.256-1.354-1.486-.38-.17-.718-.322-.845-.736v-.723c.15-.08.579-.633.624-1.066.117-.01.303-.127.357-.59.03-.249-.088-.389-.158-.433 0 0 .176-.362.176-.8 0-.877-.318-1.624-1-1.624 0 0-.237-.542-1-.542-1.414 0-2 .982-2 2.166 0 .4.177.8.177.8-.071.044-.188.184-.159.433.055.463.24.58.358.59.045.433.474.986.624 1.066v.723c-.127.414-.465.566-.845.736zm7.446.686h4.8a.8.8 0 0 0 0-1.6h-4.8a.8.8 0 1 0 0 1.6zm0-3.2h4.8a.8.8 0 0 0 0-1.6h-4.8a.8.8 0 1 0 0 1.6z" clip-rule="evenodd"/>
    <path fill="#0500FA" d="M24 0h16v2H24z"/>
    <path fill="#0500FA" d="M38 16V0h2v16zM0 38h16v2H0z"/>
    <path fill="#0500FA" d="M2 24v16H0V24z"/>
</svg>
