<svg xmlns="http://www.w3.org/2000/svg" width="24" height="24" fill="none" viewBox="0 0 24 24">
    <path fill="#fff" d="M19.2 3.2H4.8a1.6 1.6 0 0 0-1.6 1.6v14.4a1.6 1.6 0 0 0 1.6 1.6h14.4a1.6 1.6 0 0 0 1.6-1.6V4.8a1.6 1.6 0 0 0-1.6-1.6zM5.6 18.4a.8.8 0 1 1 0-1.6.8.8 0 0 1 0 1.6zm0-3.2a.8.8 0 1 1 0-1.6.8.8 0 0 1 0 1.6zm3.2 3.2a.8.8 0 1 1 0-1.6.8.8 0 0 1 0 1.6zm0-3.2a.8.8 0 1 1 0-1.6.8.8 0 0 1 0 1.6zm0-3.2a.8.8 0 1 1 0-1.6.8.8 0 0 1 0 1.6zm3.2 6.4a.8.8 0 1 1 0-1.6.8.8 0 0 1 0 1.6zm0-3.2a.8.8 0 1 1 0-1.6.8.8 0 0 1 0 1.6zm0-3.2a.8.8 0 1 1 0-1.6.8.8 0 0 1 0 1.6zm3.2 6.4a.8.8 0 1 1 0-1.6.8.8 0 0 1 0 1.6zm0-3.2a.8.8 0 1 1 0-1.6.8.8 0 0 1 0 1.6zm-.8-4a.8.8 0 1 1 1.6 0 .8.8 0 0 1-1.6 0zm4 4a.8.8 0 1 1 0-1.6.8.8 0 0 1 0 1.6zm0-3.2a.8.8 0 1 1 0-1.6.8.8 0 0 1 0 1.6zm.8-4H4.8V4.8h14.4V8z"/>
</svg>
