<svg xmlns="http://www.w3.org/2000/svg" width="40" height="40" fill="none" viewBox="0 0 40 40">
    <path fill="#00F" fill-rule="evenodd" d="M18 17.2l-2.8-2.8-.8-2.4-3.2-1.6L9.6 12l1.6 3.2 2.4.8 2.8 2.8 1.6-1.6zm6.638-1.038l2.56.64 2.965-2.964a4.93 4.93 0 0 1-1.21 4.99c-1.311 1.313-2.892 1.447-4.376.79l-9.28 9.28a2.4 2.4 0 0 1-3.394-3.395l9.279-9.278c-.657-1.485-.524-3.066.788-4.379a4.936 4.936 0 0 1 4.992-1.21l-2.964 2.966.64 2.56zm.624 12.814l-3.856-3.855 3.012-3.012 3.855 3.855a2.13 2.13 0 1 1-3.011 3.012zm-12.228-1.21a.8.8 0 1 0 1.132-1.132.8.8 0 0 0-1.132 1.132z" clip-rule="evenodd"/>
    <path fill="#0500FA" d="M24 0h16v2H24z"/>
    <path fill="#0500FA" d="M38 16V0h2v16zM0 38h16v2H0z"/>
    <path fill="#0500FA" d="M2 24v16H0V24z"/>
</svg>
