<svg xmlns="http://www.w3.org/2000/svg" width="24" height="24" fill="none" viewBox="0 0 24 24">
    <path fill="#00F" fill-rule="evenodd" d="M8 16c0-3.97 3.589-7.2 8-7.2 1.106 0 2.16.203 3.12.57-.558-3.93-4.245-6.97-8.72-6.97-4.86 0-8.8 3.582-8.8 8 0 2.273 1.044 4.322 2.72 5.777-.241.78-.747 1.556-1.66 2.248a.4.4 0 0 0 .22.767c1.551-.004 2.876-.665 3.929-1.495.5.203 1.024.366 1.568.482A6.522 6.522 0 0 1 8 16zm.8 0c0 3.529 3.23 6.4 7.2 6.4a7.886 7.886 0 0 0 3.292-.709c.795.36 1.714.644 2.705.702a.334.334 0 0 0 .28-.585c-.536-.48-.867-.957-1.065-1.397C22.443 19.262 23.2 17.708 23.2 16c0-3.529-3.23-6.4-7.2-6.4S8.8 12.471 8.8 16z" clip-rule="evenodd"/>
</svg>
