<svg xmlns="http://www.w3.org/2000/svg" width="24" height="24" fill="none" viewBox="0 0 24 24">
    <path fill="#00F" d="M7.066 2a.767.767 0 0 0-.544.225L2.226 6.522c-.301.301-.301.788 0 1.088l4.456 4.456 1.087-1.088-3.912-3.912 3.21-3.209.994.995-.995.994 1.088 1.088.995-.995.835.836-1.605 1.604.995.995 2.692-2.693-.994-.994L7.61 2.225A.767.767 0 0 0 7.066 2zm11.724.77c-.394 0-.788.151-1.088.451l-1.086 1.087 3.076 3.077 1.087-1.087c.6-.6.602-1.573.001-2.174l-.904-.904a1.53 1.53 0 0 0-1.086-.45zm-3.713 3.076L4.485 16.438l.977.562.384 1.154L7 18.538l.562.977L18.154 8.923l-3.077-3.077zm2.242 6.088l-2.693 2.692.995.995 1.605-1.605.835.836-.995.994 1.088 1.088.995-.995.994.995-3.209 3.209-3.912-3.912-1.088 1.087 4.456 4.457a.767.767 0 0 0 1.088 0l4.297-4.297c.3-.3.3-.787 0-1.088l-3.462-3.462-.994-.994zM3.456 18.84L2.798 20.7a.385.385 0 0 0 .356.532.386.386 0 0 0 .14-.026l1.867-.66-1.705-1.705z"/>
</svg>
