<svg xmlns="http://www.w3.org/2000/svg" width="24" height="24" fill="none" viewBox="0 0 24 24">
    <path fill="#0500FA" fill-rule="evenodd" d="M10.3 1.69a.44.44 0 0 1 .17.266c.193 1.014.73 3.934.73 5.244 0 3.2-2.4 4-2.4 4v10a1.2 1.2 0 0 1-2.4 0v-10S4 10.4 4 7.2c0-1.31.537-4.23.73-5.244a.438.438 0 0 1 .87.082v4.646a.515.515 0 1 0 1.029.058l.528-4.752a.438.438 0 0 1 .436-.39h.014a.438.438 0 0 1 .436.39l.528 4.75A.516.516 0 0 0 9.6 6.685V2.038a.44.44 0 0 1 .7-.347zm5.438 10.924l1.062 1.032V21.2a1.2 1.2 0 0 0 2.4 0V2.4a.8.8 0 0 0-1.49-.404c-.216.322-2.51 3.834-2.51 7.604v1.584c0 .526.191 1.034.538 1.43z" clip-rule="evenodd"/>
</svg>
