<svg xmlns="http://www.w3.org/2000/svg" width="24" height="24" fill="none" viewBox="0 0 24 24">
    <path fill="#0500FA" fill-rule="evenodd" d="M15.213 11.95A7.194 7.194 0 0 0 11.2 18.4c.001.818.143 1.63.418 2.4H2.4c0-3.453 2.433-4.169 4.487-4.772 1.276-.376 2.406-.708 2.713-1.628v-1.6c-.36-.178-1.39-1.404-1.498-2.362-.283-.021-.728-.281-.859-1.308-.07-.55.21-.86.38-.958 0 0-.423-.888-.423-1.771 0-2.623 1.406-4.8 4.8-4.8 1.831 0 2.4 1.2 2.4 1.2 1.638 0 2.4 1.657 2.4 3.6 0 .969-.422 1.771-.422 1.771.17.098.45.407.379.958-.132 1.027-.576 1.287-.86 1.308-.056.494-.356 1.056-.684 1.512zm-.773 2.49a5.6 5.6 0 1 1 7.92 7.92 5.6 5.6 0 0 1-7.92-7.92zm4.76 4.76h1.6a.8.8 0 0 0 0-1.6h-1.6V16a.8.8 0 0 0-1.6 0v1.6H16a.8.8 0 1 0 0 1.6h1.6v1.6a.8.8 0 1 0 1.6 0v-1.6z" clip-rule="evenodd"/>
</svg>
