<svg xmlns="http://www.w3.org/2000/svg" width="40" height="40" fill="none" viewBox="0 0 40 40">
    <path fill="#00F" d="M25.6 8.8H14.4a1.6 1.6 0 0 0-1.6 1.6v19.2a1.6 1.6 0 0 0 1.6 1.6h11.2a1.6 1.6 0 0 0 1.6-1.6V10.4a1.6 1.6 0 0 0-1.6-1.6zm-3.6.8a.4.4 0 1 1 0 .8.4.4 0 0 1 0-.8zm-3.2 0h1.6a.4.4 0 1 1 0 .8h-1.6a.4.4 0 1 1 0-.8zm6.8 20H14.4V10.4h2.4l.331.331c.3.3.707.469 1.131.469h3.475a1.6 1.6 0 0 0 1.131-.469l.332-.331h2.4v19.2z"/>
    <path fill="#0500FA" d="M24 0h16v2H24z"/>
    <path fill="#0500FA" d="M38 16V0h2v16zM0 38h16v2H0z"/>
    <path fill="#0500FA" d="M2 24v16H0V24z"/>
</svg>
