<svg xmlns="http://www.w3.org/2000/svg" width="40" height="40" fill="none" viewBox="0 0 40 40">
    <path fill="#00F" d="M27.2 11.2H12.8a1.6 1.6 0 0 0-1.6 1.6v14.4a1.6 1.6 0 0 0 1.6 1.6h14.4a1.6 1.6 0 0 0 1.6-1.6V12.8a1.6 1.6 0 0 0-1.6-1.6zm-8 15.2h-5.6v-.8h5.6v.8zm0-2.4h-5.6v-.8h5.6v.8zm0-2.4h-5.6v-.8h5.6v.8zm-2.8-2.952S13.6 16.8 13.6 15.2a1.6 1.6 0 0 1 1.6-1.6c.48 0 .906.216 1.2.552a1.588 1.588 0 0 1 2.331-.083c.3.3.469.707.469 1.131 0 1.6-2.8 3.448-2.8 3.448zm10 7.752h-5.6v-.8h5.6v.8zm0-2.4h-5.6v-.8h5.6v.8zm0-2.4h-5.6v-.8h5.6v.8zm0-2.4h-5.6v-.8h5.6v.8zm0-2.4h-5.6V16h5.6v.8zm0-2.4h-5.6v-.8h5.6v.8z"/>
    <path fill="#0500FA" d="M24 0h16v2H24z"/>
    <path fill="#0500FA" d="M38 16V0h2v16zM0 38h16v2H0z"/>
    <path fill="#0500FA" d="M2 24v16H0V24z"/>
</svg>
