<svg xmlns="http://www.w3.org/2000/svg" width="40" height="40" fill="none" viewBox="0 0 40 40">
    <path fill="#00F" d="M15.066 10a.767.767 0 0 0-.543.225l-4.297 4.297c-.301.301-.301.788 0 1.088l4.456 4.456 1.087-1.088-3.912-3.912 3.21-3.209.994.995-.995.994 1.088 1.088.995-.995.835.836-1.605 1.604.995.995 2.692-2.692-.994-.995-3.462-3.462a.767.767 0 0 0-.544-.225zm11.724.77c-.394 0-.788.151-1.088.452l-1.086 1.086 3.076 3.077 1.087-1.087c.6-.6.602-1.573.001-2.174l-.904-.904a1.53 1.53 0 0 0-1.086-.45zm-3.713 3.076L12.485 24.438l.977.562.384 1.154 1.154.384.562.977 10.592-10.592-3.077-3.077zm2.242 6.088l-2.693 2.692.995.995 1.605-1.605.835.836-.995.994 1.088 1.088.995-.995.994.995-3.209 3.209-3.912-3.912-1.088 1.087 4.456 4.457a.767.767 0 0 0 1.088 0l4.297-4.297c.3-.3.3-.787 0-1.088l-3.462-3.462-.994-.994zM11.456 26.84l-.658 1.859a.385.385 0 0 0 .496.506l1.867-.66-1.705-1.705z"/>
    <path fill="#0500FA" d="M24 0h16v2H24z"/>
    <path fill="#0500FA" d="M38 16V0h2v16zM0 38h16v2H0z"/>
    <path fill="#0500FA" d="M2 24v16H0V24z"/>
</svg>
