<svg width="464" height="391" viewBox="0 0 464 391" fill="none" xmlns="http://www.w3.org/2000/svg">
<g opacity="0.3">
<g opacity="0.3">
<path opacity="0.3" d="M458.505 1.4955V389.504H1.49461V1.4955H458.505ZM460 0H0V391H460V0Z" fill="#C4ECFE"/>
</g>
<g opacity="0.3">
<g opacity="0.3">
<path opacity="0.3" d="M111.999 0V391" stroke="#C4ECFE" stroke-width="2.9133" stroke-miterlimit="10"/>
<path opacity="0.3" d="M170.529 0V391" stroke="#C4ECFE" stroke-width="2.9133" stroke-miterlimit="10"/>
<path opacity="0.3" d="M111.999 0V391" stroke="#C4ECFE" stroke-width="2.9133" stroke-miterlimit="10"/>
<path opacity="0.3" d="M53.4683 0V391" stroke="#C4ECFE" stroke-width="2.9133" stroke-miterlimit="10"/>
<path opacity="0.3" d="M229.06 0V391" stroke="#C4ECFE" stroke-width="2.9133" stroke-miterlimit="10"/>
<path opacity="0.3" d="M287.59 0V391" stroke="#C4ECFE" stroke-width="2.9133" stroke-miterlimit="10"/>
<path opacity="0.3" d="M345.398 0V391" stroke="#C4ECFE" stroke-width="2.9133" stroke-miterlimit="10"/>
<path opacity="0.3" d="M403.205 0V391" stroke="#C4ECFE" stroke-width="2.9133" stroke-miterlimit="10"/>
</g>
</g>
</g>
<path d="M53.4678 226.158V144.243" stroke="url(#paint0_linear)" stroke-width="11" stroke-miterlimit="10" stroke-linecap="round"/>
<path d="M53.4679 161.417C52.5037 155.628 47.2967 151.576 41.4629 152.01" stroke="#CAE6C4" stroke-width="11" stroke-miterlimit="10" stroke-linecap="round"/>
<path d="M53.4678 161.417C54.432 155.628 59.639 151.576 65.4728 152.01" stroke="#CAE6C4" stroke-width="11" stroke-miterlimit="10" stroke-linecap="round"/>
<path d="M173.759 323.896V250.375" stroke="url(#paint1_linear)" stroke-width="11" stroke-miterlimit="10" stroke-linecap="round"/>
<path d="M173.759 267.549C172.795 261.76 167.588 257.708 161.754 258.142" stroke="#CAE6C4" stroke-width="11" stroke-miterlimit="10" stroke-linecap="round"/>
<path d="M173.759 267.549C174.724 261.76 179.931 257.708 185.764 258.142" stroke="#CAE6C4" stroke-width="11" stroke-miterlimit="10" stroke-linecap="round"/>
<path d="M173.759 280.864C172.795 275.075 167.588 271.023 161.754 271.457" stroke="#CAE6C4" stroke-width="11" stroke-miterlimit="10" stroke-linecap="round"/>
<path d="M173.759 280.864C174.724 275.075 179.931 271.023 185.764 271.457" stroke="#CAE6C4" stroke-width="11" stroke-miterlimit="10" stroke-linecap="round"/>
<path d="M273.994 391C232.29 388.298 218.694 331.277 194.395 308.748C170.096 286.219 117.592 302.331 106.213 240.92C98.5957 199.914 64.4609 198.081 35.967 182.981C20.4425 174.732 1.73584 185.972 1.73584 203.58V390.952L273.994 391Z" fill="url(#paint2_linear)"/>
<path d="M30.856 295.819V222.298" stroke="white" stroke-width="11" stroke-miterlimit="10" stroke-linecap="round"/>
<path d="M30.8561 239.472C29.8918 233.683 24.6848 229.631 18.8511 230.065" stroke="white" stroke-width="11" stroke-miterlimit="10" stroke-linecap="round"/>
<path d="M30.856 239.472C31.8202 233.683 37.0272 229.631 42.861 230.065" stroke="white" stroke-width="11" stroke-miterlimit="10" stroke-linecap="round"/>
<path d="M30.8561 252.787C29.8918 246.998 24.6848 242.946 18.8511 243.38" stroke="white" stroke-width="11" stroke-miterlimit="10" stroke-linecap="round"/>
<path d="M30.856 252.787C31.8202 246.998 37.0272 242.946 42.861 243.38" stroke="white" stroke-width="11" stroke-miterlimit="10" stroke-linecap="round"/>
<path d="M353.835 391H460V324.619C460 313.91 446.549 309.134 439.799 317.431C434.64 323.751 430.301 332.434 429.481 344.061C427.312 375.756 395.491 391 353.835 391Z" fill="url(#paint3_linear)"/>
<path d="M435.17 102.755C436.261 102.755 437.146 101.87 437.146 100.777C437.146 99.6848 436.261 98.7993 435.17 98.7993C434.078 98.7993 433.193 99.6848 433.193 100.777C433.193 101.87 434.078 102.755 435.17 102.755Z" fill="#BFD9FF"/>
<path d="M115.47 309.809C116.562 309.809 117.447 308.923 117.447 307.831C117.447 306.739 116.562 305.853 115.47 305.853C114.378 305.853 113.493 306.739 113.493 307.831C113.493 308.923 114.378 309.809 115.47 309.809Z" fill="#BFD9FF"/>
<path d="M362.899 22.8666C363.99 22.8666 364.875 21.9811 364.875 20.8887C364.875 19.7963 363.99 18.9108 362.899 18.9108C361.807 18.9108 360.922 19.7963 360.922 20.8887C360.922 21.9811 361.807 22.8666 362.899 22.8666Z" fill="#BFD9FF"/>
<path d="M266.955 76.8975C268.047 76.8975 268.932 76.0119 268.932 74.9195C268.932 73.8272 268.047 72.9416 266.955 72.9416C265.863 72.9416 264.978 73.8272 264.978 74.9195C264.978 76.0119 265.863 76.8975 266.955 76.8975Z" fill="#BFD9FF"/>
<path d="M34.8576 115.394C35.9493 115.394 36.8343 114.509 36.8343 113.417C36.8343 112.324 35.9493 111.439 34.8576 111.439C33.7659 111.439 32.8809 112.324 32.8809 113.417C32.8809 114.509 33.7659 115.394 34.8576 115.394Z" fill="#BFD9FF"/>
<path d="M362.899 210.383C363.91 210.383 364.731 209.562 364.731 208.549C364.731 207.537 363.91 206.716 362.899 206.716C361.887 206.716 361.066 207.537 361.066 208.549C361.066 209.562 361.887 210.383 362.899 210.383Z" fill="#BFD9FF"/>
<path d="M41.5113 215.786C42.5231 215.786 43.3434 214.965 43.3434 213.952C43.3434 212.94 42.5231 212.119 41.5113 212.119C40.4995 212.119 39.6792 212.94 39.6792 213.952C39.6792 214.965 40.4995 215.786 41.5113 215.786Z" fill="#BFD9FF"/>
<path d="M259.82 391C224.48 388.54 180.076 311.787 129.934 311.787C63.5448 311.787 68.8965 277.342 42.8615 277.342C14.2712 277.342 0.0483399 293.069 0.0483399 341.938V391H259.82Z" fill="url(#paint4_linear)"/>
<path d="M369.794 388.974H180.558V390.952H369.794V388.974Z" fill="#2B2B2B"/>
<path d="M7.32806 66.236C5.59239 44.6719 3.18174 23.4455 1.73535 1.7367C16.1992 9.93781 31.1453 17.1741 45.7056 25.134L7.32806 66.236Z" fill="url(#paint5_radial)"/>
<path d="M52.9376 84.182C50.8645 64.4993 47.9717 44.7202 45.561 24.941C60.5071 31.2125 75.9352 36.0366 90.3991 42.7905C84.1314 49.5443 77.8637 56.2982 71.7889 63.0521C62.3874 73.424 52.9376 84.182 52.9376 84.182Z" fill="url(#paint6_radial)"/>
<path d="M105.779 98.8475C100.572 79.9367 95.7507 61.1224 90.4473 42.3081C105.875 47.1323 121.786 49.5444 136.732 54.851C130.946 61.6048 126.607 69.3235 121.304 76.4633C113.541 87.5589 105.779 98.8475 105.779 98.8475Z" fill="url(#paint7_radial)"/>
<path d="M156.306 107.435C149.701 90.0675 142.951 72.218 136.684 54.3685C152.112 56.2982 168.022 58.7103 183.45 61.1224C179.111 68.8411 173.808 76.0773 169.806 84.2785C163.056 95.8083 156.306 107.435 156.306 107.435Z" fill="url(#paint8_radial)"/>
<path d="M206.448 110.956C198.445 94.4092 191.213 78.007 183.499 61.6048C198.927 60.64 214.837 62.0872 230.265 62.5696C225.926 70.2883 222.069 78.4894 218.26 86.787C212.33 98.8957 206.448 110.956 206.448 110.956Z" fill="url(#paint9_radial)"/>
<path d="M452.719 66.1388C454.889 44.1888 456.817 22.9624 458.263 1.25354C443.799 9.45465 428.853 16.2085 414.341 23.686L452.719 66.1388Z" fill="url(#paint10_radial)"/>
<path d="M407.061 83.2654C409.568 63.4862 411.497 43.2247 414.389 23.4455C399.443 29.717 384.015 34.5411 369.551 40.8126C375.819 47.5664 382.087 54.8027 388.21 61.5566C397.659 72.218 407.061 83.2654 407.061 83.2654Z" fill="url(#paint11_radial)"/>
<path d="M354.268 97.545C359.475 78.9236 363.814 59.6269 369.6 40.8126C354.172 44.1895 338.744 48.5313 323.315 52.3906C328.137 60.1093 333.922 67.3456 338.792 74.8231C346.506 86.1116 354.268 97.545 354.268 97.545Z" fill="url(#paint12_radial)"/>
<path d="M303.693 106.373C310.732 88.572 316.518 70.2401 323.268 52.3906C307.839 55.2851 291.929 57.2148 276.501 60.1093C281.322 67.828 285.661 75.5467 290.193 83.1689C296.943 94.7469 303.693 106.373 303.693 106.373Z" fill="url(#paint13_radial)"/>
<path d="M253.6 110.57C261.555 94.361 268.305 76.9939 276.501 60.5917C261.073 60.1093 245.644 61.0741 230.216 63.0038C234.073 70.7225 238.413 78.4412 241.787 86.5458C247.718 98.6063 253.6 110.57 253.6 110.57Z" fill="url(#paint14_radial)"/>
<path d="M366.37 198.225C358.126 161.658 321.87 154.566 316.277 137.778C310.684 120.99 325.148 96.3383 307.261 74.9672C305.766 73.1822 304.368 71.542 303.066 69.9983C297.57 63.5339 293.665 56.0081 289.567 48.6271C280.455 32.0802 268.498 32.4179 268.498 32.4179C268.498 32.4179 252.684 34.1064 247.091 60.6394C243.138 66.1389 239.281 71.1561 233.736 78.73C217.344 101.259 233.447 114.477 228.963 131.603C224.528 148.729 192.803 158.233 187.018 195.282C179.352 244.634 220.188 282.069 257.312 272.517C274.958 267.983 278.719 266.584 296.654 269.961C334.453 276.956 377.363 246.949 366.37 198.225Z" fill="url(#paint15_linear)"/>
<path d="M312.565 144.87C323.412 172.223 335.659 203.532 338.937 213.952C345.398 234.262 341.926 241.499 335.755 245.696C329.584 249.893 308.081 150.177 312.565 144.87Z" fill="#2B2B2B"/>
<path d="M311.601 268.852L282.962 268.417C282.962 268.417 263.291 270.106 255.288 273C247.236 275.943 255.288 213.518 255.288 213.518L284.071 210.961L311.601 268.852Z" fill="#2B2B2B"/>
<path d="M189.959 107.193L200.036 123.789L228.77 103.913C235.665 96.7731 247.043 96.6284 254.13 103.527C261.266 110.426 261.411 121.811 254.516 128.902L201.096 167.93C193.575 173.429 182.824 169.811 180.172 160.838L163.249 118.241L189.959 107.193Z" fill="url(#paint16_linear)"/>
<path d="M163.249 118.337L158.235 103.623C155.921 96.8213 159.537 89.4403 166.335 87.1247C172.313 85.0986 178.774 87.6554 181.811 92.962L189.959 107.193" fill="#EA7068"/>
<path d="M281.757 66.3325C285.671 66.3325 288.844 63.1575 288.844 59.241C288.844 55.3244 285.671 52.1494 281.757 52.1494C277.843 52.1494 274.669 55.3244 274.669 59.241C274.669 63.1575 277.843 66.3325 281.757 66.3325Z" fill="#EA7068"/>
<path d="M307.888 228.039L314.059 242.27C316.904 248.831 324.522 251.871 331.127 249.024C336.912 246.516 339.95 240.244 338.648 234.31L335.129 218.246" fill="#EA7068"/>
<path d="M335.128 218.294L302.247 111.294C298.535 102.128 285.614 96.1942 276.453 99.9088C267.293 103.623 262.857 114.092 266.57 123.306L307.888 228.087L335.128 218.294Z" fill="url(#paint17_linear)"/>
<path d="M289.181 147.282C293.569 159.97 287.156 177.24 272.885 176.662C261.893 176.179 261.121 176.613 256.445 176.42C241.788 175.793 232.29 160.404 237.111 146.559L289.181 147.282Z" fill="url(#paint18_linear)"/>
<path d="M237.16 146.559C237.16 146.559 238.413 143.423 238.51 139.226C238.606 135.029 228.529 128.371 229.06 115.587C229.494 105.746 240.39 91.5147 257.457 92.0936L271.246 93.0102C286.289 93.5409 297.908 106.952 298.294 117.421H298.342C298.342 117.71 298.294 117.999 298.294 118.289C298.294 118.385 298.294 118.482 298.294 118.578C297.04 135.994 284.939 134.884 289.181 147.331L237.16 146.559Z" fill="url(#paint19_linear)"/>
<path d="M254.468 101.356V146.993H271.342V102.803L254.468 101.356Z" fill="white"/>
<path d="M264.11 104.492H261.7V118.434H264.11V104.492Z" fill="#D8B8C7"/>
<path d="M249.31 65.03C253.224 65.03 256.397 61.855 256.397 57.9384C256.397 54.0219 253.224 50.8469 249.31 50.8469C245.395 50.8469 242.222 54.0219 242.222 57.9384C242.222 61.855 245.395 65.03 249.31 65.03Z" fill="#EA7068"/>
<path d="M256.059 103.045L243.91 95.0364C243.91 95.0364 248.972 91.8524 257.409 92.1419L256.059 103.045Z" fill="#2B2B2B"/>
<path d="M274.862 94.6504L274.573 61.3636L254.516 60.64L252.299 93.8786C251.768 100.15 256.686 105.505 262.954 105.65H263.821C269.896 105.746 274.91 100.777 274.862 94.6504Z" fill="#EA7068"/>
<path d="M257.457 79.599L274.669 89.3921L274.862 76.1738L257.457 79.599Z" fill="#2B2B2B"/>
<path d="M264.159 80.998C272.982 80.998 280.358 74.3406 281.274 65.5606L282.914 50.2197C282.914 39.7995 274.428 31.4054 264.062 31.4054C253.648 31.4054 245.259 39.896 245.259 50.268L246.947 65.6089C247.959 74.3889 255.336 80.998 264.159 80.998Z" fill="#EA7068"/>
<path d="M263.581 60.9777L265.364 60.0128C266.039 59.5304 266.184 58.6138 265.702 57.9384C264.738 56.6359 264.256 55.0439 264.4 53.4519L264.448 52.9213" stroke="#2B2B2B" stroke-width="2.5226" stroke-miterlimit="10" stroke-linecap="round"/>
<path d="M267.148 66.622C266.666 71.4461 261.362 70.0954 261.362 66.622H267.148Z" fill="white"/>
<path d="M291.448 135.077C288.169 137.923 287.976 141.831 289.182 147.331" stroke="#2B2B2B" stroke-width="2.5226" stroke-miterlimit="10" stroke-linecap="round"/>
<path d="M237.16 146.559C233.206 154.76 212.041 223.794 213.005 245.31C213.969 266.874 214.693 376.913 214.548 379.181L246.658 382.172C246.658 382.172 265.123 253.945 268.064 245.454L284.119 159.97L237.16 146.559Z" fill="url(#paint20_linear)"/>
<path d="M289.567 149.646L324.907 243.235L329.053 256.309L331.127 262.87L332.139 266.15C332.476 267.26 332.91 268.321 333.296 269.382L365.936 358.533L336.092 370.835C334.791 368.857 317.723 342.903 313.481 334.653C304.947 318.107 296.944 301.367 289.278 284.482C288.796 283.421 288.313 282.359 287.879 281.298L286.626 278.066L284.167 271.601C283.347 269.431 282.48 267.308 281.708 265.137L279.298 258.624L278.092 255.392L276.935 252.112L274.621 245.599L272.403 239.038L271.294 235.758L270.234 232.477C267.341 223.697 264.593 214.869 262.086 205.993C261.459 203.773 260.832 201.554 260.205 199.335C259.627 197.116 259 194.849 258.421 192.63L256.734 185.876L255.962 182.499L255.577 180.81L255.239 179.122L289.567 149.646Z" fill="url(#paint21_linear)"/>
<path d="M318.06 389.794L365.454 370.835C367.913 369.822 369.166 367.072 368.25 364.563L365.984 358.485L336.14 370.787L315.65 385.452C313.287 387.141 315.312 390.855 318.06 389.794Z" fill="#2B2B2B"/>
<path d="M331.127 262.821L331.657 278.259" stroke="#2B2B2B" stroke-width="2.6603" stroke-miterlimit="10" stroke-linecap="round"/>
<path d="M190.056 389.987H242.318C245.067 389.987 247.284 387.816 247.333 385.066L247.477 378.457L214.451 378.795L189.429 384.97C186.536 385.693 187.066 389.987 190.056 389.987Z" fill="#2B2B2B"/>
<path d="M272.789 56.3947C273.828 56.3947 274.669 55.5523 274.669 54.5133C274.669 53.4742 273.828 52.6318 272.789 52.6318C271.751 52.6318 270.909 53.4742 270.909 54.5133C270.909 55.5523 271.751 56.3947 272.789 56.3947Z" fill="#2B2B2B"/>
<path d="M256.445 56.4912C257.536 56.4912 258.421 55.6056 258.421 54.5133C258.421 53.4209 257.536 52.5353 256.445 52.5353C255.353 52.5353 254.468 53.4209 254.468 54.5133C254.468 55.6056 255.353 56.4912 256.445 56.4912Z" fill="#2B2B2B"/>
<path d="M281.756 38.4487C281.756 38.4487 272.789 47.277 245.259 54.5615C243.572 47.7594 246.464 37.6769 253.359 34.7824C261.796 31.2125 275.199 35.7954 281.756 38.4487Z" fill="url(#paint22_linear)"/>
<path d="M274.428 35.7472C274.428 35.7472 274.284 52.1494 284.071 72.9416C298.342 65.03 287.205 36.0849 274.428 35.7472Z" fill="url(#paint23_linear)"/>
<path d="M260.206 199.19L271.439 238.942" stroke="#2B2B2B" stroke-width="2.6603" stroke-miterlimit="10" stroke-linecap="round"/>
<path d="M233.592 130.591C236.919 135.463 237.835 140.48 237.16 146.51" stroke="#2B2B2B" stroke-width="2.5226" stroke-miterlimit="10" stroke-linecap="round"/>
<path d="M292.171 156.448H233.881L237.16 146.559H288.507L292.171 156.448Z" stroke="#2B2B2B" stroke-width="2.5226" stroke-miterlimit="10" stroke-linecap="round" stroke-linejoin="round"/>
<path d="M200.036 123.837L205.821 135.077" stroke="#2B2B2B" stroke-width="2.5226" stroke-miterlimit="10" stroke-linecap="round"/>
<path d="M131.814 165.373C131.814 165.373 132.923 173.188 130.03 176.71" stroke="#E8E993" stroke-width="6.6411" stroke-miterlimit="10"/>
<path d="M20.0565 83.5548C20.0565 83.5548 21.744 95.3258 17.4048 100.584" stroke="#E8E993" stroke-width="10" stroke-miterlimit="10"/>
<path d="M394.719 219.548C394.719 219.548 396.407 231.319 392.067 236.578" stroke="#E8E993" stroke-width="10" stroke-miterlimit="10"/>
<path d="M83.1189 150.273C83.1189 150.273 81.2868 143.037 83.601 139.419" stroke="#A4E9B8" stroke-width="6.2947" stroke-miterlimit="10"/>
<path d="M136.828 249.217C136.828 249.217 134.37 239.617 137.503 234.841" stroke="#A4E9B8" stroke-width="8.3439" stroke-miterlimit="10"/>
<path d="M379.339 66.9114C379.339 66.9114 375.048 72.411 376.495 79.0683" stroke="#E8928A" stroke-width="10" stroke-miterlimit="10"/>
<path d="M343.517 122.872C343.517 122.872 340.432 126.828 341.493 131.604" stroke="#E8928A" stroke-width="7.1851" stroke-miterlimit="10"/>
<path d="M148.062 32.7562C148.062 32.7562 151.341 26.5812 148.689 20.3098" stroke="#98C2FE" stroke-width="10" stroke-miterlimit="10"/>
<path d="M122.509 116.793C122.509 116.793 125.787 110.618 123.136 104.347" stroke="#98C2FE" stroke-width="10" stroke-miterlimit="10"/>
<path d="M249.309 37.9663L273.898 4.19704L284.456 41.1503L249.309 37.9663Z" fill="#FDE545"/>
<path d="M403.205 297.17C419.212 260.216 451.997 251.774 458.264 226.158" stroke="#F9D5FF" stroke-width="10" stroke-miterlimit="10"/>
<defs>
<linearGradient id="paint0_linear" x1="-nan" y1="-nan" x2="-nan" y2="-nan" gradientUnits="userSpaceOnUse">
<stop offset="0.2594" stop-color="#CAE6C4"/>
<stop offset="0.4772" stop-color="#CDE7C7"/>
<stop offset="0.6541" stop-color="#D6ECD1"/>
<stop offset="0.8167" stop-color="#E5F3E2"/>
<stop offset="0.9698" stop-color="#FBFDFA"/>
<stop offset="0.9958" stop-color="white"/>
</linearGradient>
<linearGradient id="paint1_linear" x1="-nan" y1="-nan" x2="-nan" y2="-nan" gradientUnits="userSpaceOnUse">
<stop offset="0.2594" stop-color="#CAE6C4"/>
<stop offset="0.4772" stop-color="#CDE7C7"/>
<stop offset="0.6541" stop-color="#D6ECD1"/>
<stop offset="0.8167" stop-color="#E5F3E2"/>
<stop offset="0.9698" stop-color="#FBFDFA"/>
<stop offset="0.9958" stop-color="white"/>
</linearGradient>
<linearGradient id="paint2_linear" x1="188.072" y1="231.464" x2="58.8868" y2="389.915" gradientUnits="userSpaceOnUse">
<stop stop-color="#FFD8A1"/>
<stop offset="0.9958" stop-color="white"/>
</linearGradient>
<linearGradient id="paint3_linear" x1="406.917" y1="318.98" x2="406.917" y2="388.665" gradientUnits="userSpaceOnUse">
<stop stop-color="#FFD8A1"/>
<stop offset="0.9958" stop-color="white"/>
</linearGradient>
<linearGradient id="paint4_linear" x1="129.934" y1="285.706" x2="129.934" y2="387.595" gradientUnits="userSpaceOnUse">
<stop stop-color="#C0DDFC"/>
<stop offset="0.1856" stop-color="#D3E7FD"/>
<stop offset="0.4877" stop-color="#EBF4FE"/>
<stop offset="0.766" stop-color="#FAFCFF"/>
<stop offset="0.9958" stop-color="white"/>
</linearGradient>
<radialGradient id="paint5_radial" cx="0" cy="0" r="1" gradientUnits="userSpaceOnUse" gradientTransform="translate(205.44 148.23) rotate(21.0128) scale(162.437 162.509)">
<stop offset="0.0041841" stop-color="white"/>
<stop offset="0.234" stop-color="#FAFCFF"/>
<stop offset="0.5123" stop-color="#EBF4FE"/>
<stop offset="0.8144" stop-color="#D3E7FD"/>
<stop offset="1" stop-color="#C0DDFC"/>
</radialGradient>
<radialGradient id="paint6_radial" cx="0" cy="0" r="1" gradientUnits="userSpaceOnUse" gradientTransform="translate(216.944 132.67) rotate(15.5906) scale(162.419 162.502)">
<stop offset="0.0041841" stop-color="white"/>
<stop offset="0.234" stop-color="#FAFCFF"/>
<stop offset="0.5123" stop-color="#EBF4FE"/>
<stop offset="0.8144" stop-color="#D3E7FD"/>
<stop offset="1" stop-color="#C0DDFC"/>
</radialGradient>
<radialGradient id="paint7_radial" cx="0" cy="0" r="1" gradientUnits="userSpaceOnUse" gradientTransform="translate(229.018 116.056) rotate(8.08139) scale(162.425 162.518)">
<stop offset="0.0041841" stop-color="white"/>
<stop offset="0.234" stop-color="#FAFCFF"/>
<stop offset="0.5123" stop-color="#EBF4FE"/>
<stop offset="0.8144" stop-color="#D3E7FD"/>
<stop offset="1" stop-color="#C0DDFC"/>
</radialGradient>
<radialGradient id="paint8_radial" cx="0" cy="0" r="1" gradientUnits="userSpaceOnUse" gradientTransform="translate(234.467 109.756) rotate(3.82432) scale(162.424 162.52)">
<stop offset="0.0041841" stop-color="white"/>
<stop offset="0.234" stop-color="#FAFCFF"/>
<stop offset="0.5123" stop-color="#EBF4FE"/>
<stop offset="0.8144" stop-color="#D3E7FD"/>
<stop offset="1" stop-color="#C0DDFC"/>
</radialGradient>
<radialGradient id="paint9_radial" cx="0" cy="0" r="1" gradientUnits="userSpaceOnUse" gradientTransform="translate(238.546 107.359) rotate(0.263939) scale(162.421 162.519)">
<stop offset="0.0041841" stop-color="white"/>
<stop offset="0.234" stop-color="#FAFCFF"/>
<stop offset="0.5123" stop-color="#EBF4FE"/>
<stop offset="0.8144" stop-color="#D3E7FD"/>
<stop offset="1" stop-color="#C0DDFC"/>
</radialGradient>
<radialGradient id="paint10_radial" cx="0" cy="0" r="1" gradientUnits="userSpaceOnUse" gradientTransform="translate(292.775 148.229) rotate(158.987) scale(162.437 162.509)">
<stop offset="0.0041841" stop-color="white"/>
<stop offset="0.234" stop-color="#FAFCFF"/>
<stop offset="0.5123" stop-color="#EBF4FE"/>
<stop offset="0.8144" stop-color="#D3E7FD"/>
<stop offset="1" stop-color="#C0DDFC"/>
</radialGradient>
<radialGradient id="paint11_radial" cx="0" cy="0" r="1" gradientUnits="userSpaceOnUse" gradientTransform="translate(281.271 132.67) rotate(164.409) scale(162.419 162.502)">
<stop offset="0.0041841" stop-color="white"/>
<stop offset="0.234" stop-color="#FAFCFF"/>
<stop offset="0.5123" stop-color="#EBF4FE"/>
<stop offset="0.8144" stop-color="#D3E7FD"/>
<stop offset="1" stop-color="#C0DDFC"/>
</radialGradient>
<radialGradient id="paint12_radial" cx="0" cy="0" r="1" gradientUnits="userSpaceOnUse" gradientTransform="translate(269.197 116.056) rotate(171.919) scale(162.425 162.518)">
<stop offset="0.0041841" stop-color="white"/>
<stop offset="0.234" stop-color="#FAFCFF"/>
<stop offset="0.5123" stop-color="#EBF4FE"/>
<stop offset="0.8144" stop-color="#D3E7FD"/>
<stop offset="1" stop-color="#C0DDFC"/>
</radialGradient>
<radialGradient id="paint13_radial" cx="0" cy="0" r="1" gradientUnits="userSpaceOnUse" gradientTransform="translate(263.749 109.755) rotate(176.176) scale(162.424 162.52)">
<stop offset="0.0041841" stop-color="white"/>
<stop offset="0.234" stop-color="#FAFCFF"/>
<stop offset="0.5123" stop-color="#EBF4FE"/>
<stop offset="0.8144" stop-color="#D3E7FD"/>
<stop offset="1" stop-color="#C0DDFC"/>
</radialGradient>
<radialGradient id="paint14_radial" cx="0" cy="0" r="1" gradientUnits="userSpaceOnUse" gradientTransform="translate(259.67 107.359) rotate(179.736) scale(162.421 162.519)">
<stop offset="0.0041841" stop-color="white"/>
<stop offset="0.234" stop-color="#FAFCFF"/>
<stop offset="0.5123" stop-color="#EBF4FE"/>
<stop offset="0.8144" stop-color="#D3E7FD"/>
<stop offset="1" stop-color="#C0DDFC"/>
</radialGradient>
<linearGradient id="paint15_linear" x1="282.782" y1="253.156" x2="250.754" y2="13.8004" gradientUnits="userSpaceOnUse">
<stop stop-color="#FFE0C2"/>
<stop offset="0.401" stop-color="#7AAEFC"/>
<stop offset="0.5908" stop-color="#B8C1FC"/>
<stop offset="1" stop-color="#D2D4D4"/>
</linearGradient>
<linearGradient id="paint16_linear" x1="173.321" y1="215.116" x2="222.091" y2="92.2724" gradientUnits="userSpaceOnUse">
<stop stop-color="#77879D"/>
<stop offset="0.0892741" stop-color="#A1978E"/>
<stop offset="0.1883" stop-color="#C9A780"/>
<stop offset="0.2791" stop-color="#E5B275"/>
<stop offset="0.3578" stop-color="#F7B96F"/>
<stop offset="0.4155" stop-color="#FDBB6D"/>
<stop offset="0.4989" stop-color="#FDBB9F"/>
<stop offset="0.599" stop-color="#D1D2D1"/>
<stop offset="1" stop-color="#FECEAA"/>
</linearGradient>
<linearGradient id="paint17_linear" x1="307.562" y1="227.868" x2="291.4" y2="96.6787" gradientUnits="userSpaceOnUse">
<stop stop-color="#77879D"/>
<stop offset="0.0892741" stop-color="#A1978E"/>
<stop offset="0.1883" stop-color="#C9A780"/>
<stop offset="0.2791" stop-color="#E5B275"/>
<stop offset="0.3578" stop-color="#F7B96F"/>
<stop offset="0.4155" stop-color="#FDBB6D"/>
<stop offset="0.4989" stop-color="#FDBB9F"/>
<stop offset="0.599" stop-color="#D1D2D1"/>
<stop offset="1" stop-color="#FECEAA"/>
</linearGradient>
<linearGradient id="paint18_linear" x1="263.195" y1="147.615" x2="263.195" y2="349.2" gradientUnits="userSpaceOnUse">
<stop stop-color="#6B9C83"/>
<stop offset="0.401" stop-color="#A6A6A4"/>
<stop offset="0.5011" stop-color="#9F9FC8"/>
<stop offset="0.5908" stop-color="#9FCCEC"/>
<stop offset="1" stop-color="#FFE7B0"/>
</linearGradient>
<linearGradient id="paint19_linear" x1="263.691" y1="229.768" x2="263.691" y2="97.5855" gradientUnits="userSpaceOnUse">
<stop stop-color="#77879D"/>
<stop offset="0.0892741" stop-color="#A1978E"/>
<stop offset="0.1883" stop-color="#C9A780"/>
<stop offset="0.2791" stop-color="#E5B275"/>
<stop offset="0.3578" stop-color="#F7B96F"/>
<stop offset="0.4155" stop-color="#FDBB6D"/>
<stop offset="0.4989" stop-color="#FDBB9F"/>
<stop offset="0.599" stop-color="#D1D2D1"/>
<stop offset="1" stop-color="#FECEAA"/>
</linearGradient>
<linearGradient id="paint20_linear" x1="247.751" y1="147.385" x2="250.841" y2="385.65" gradientUnits="userSpaceOnUse">
<stop stop-color="#6B9C83"/>
<stop offset="0.401" stop-color="#A6A6A4"/>
<stop offset="0.5011" stop-color="#9F9FC8"/>
<stop offset="0.5908" stop-color="#9FCCEC"/>
<stop offset="1" stop-color="#FFE7B0"/>
</linearGradient>
<linearGradient id="paint21_linear" x1="310.588" y1="144.523" x2="310.588" y2="380.64" gradientUnits="userSpaceOnUse">
<stop stop-color="#6B9C83"/>
<stop offset="0.401" stop-color="#A6A6A4"/>
<stop offset="0.5011" stop-color="#9F9FC8"/>
<stop offset="0.5908" stop-color="#9FCCEC"/>
<stop offset="1" stop-color="#FFE7B0"/>
</linearGradient>
<linearGradient id="paint22_linear" x1="277.797" y1="264.765" x2="261.869" y2="23.8104" gradientUnits="userSpaceOnUse">
<stop stop-color="#FFE0C2"/>
<stop offset="0.401" stop-color="#7AAEFC"/>
<stop offset="0.5908" stop-color="#B8C1FC"/>
<stop offset="1" stop-color="#D2D4D4"/>
</linearGradient>
<linearGradient id="paint23_linear" x1="178.389" y1="252.362" x2="289.072" y2="37.7805" gradientUnits="userSpaceOnUse">
<stop stop-color="#FFE0C2"/>
<stop offset="0.401" stop-color="#7AAEFC"/>
<stop offset="0.5908" stop-color="#B8C1FC"/>
<stop offset="1" stop-color="#D2D4D4"/>
</linearGradient>
</defs>
</svg>
