<svg width="540" height="540" viewBox="0 0 540 540" fill="none" xmlns="http://www.w3.org/2000/svg">
<g clip-path="url(#clip0)">
<path d="M496.628 431.179H184.526V433.231H496.628V431.179Z" fill="#2B2B2B"/>
<g opacity="0.3">
<g opacity="0.3">
<path opacity="0.3" d="M501.464 39.4157V432.254H38.4877V39.4157H501.464ZM502.978 37.9016H36.9736V433.768H502.978V37.9016Z" fill="#C4ECFE"/>
</g>
<g opacity="0.3">
<path opacity="0.3" d="M36.9736 319.282H502.978" stroke="#C4ECFE" stroke-width="2.9133" stroke-miterlimit="10"/>
<path opacity="0.3" d="M36.9736 262.576H502.978" stroke="#C4ECFE" stroke-width="2.9133" stroke-miterlimit="10"/>
<path opacity="0.3" d="M36.9736 319.282H502.978" stroke="#C4ECFE" stroke-width="2.9133" stroke-miterlimit="10"/>
<path opacity="0.3" d="M36.9736 375.939H502.978" stroke="#C4ECFE" stroke-width="2.9133" stroke-miterlimit="10"/>
<path opacity="0.3" d="M36.9736 205.919H502.978" stroke="#C4ECFE" stroke-width="2.9133" stroke-miterlimit="10"/>
<path opacity="0.3" d="M36.9736 149.213H502.978" stroke="#C4ECFE" stroke-width="2.9133" stroke-miterlimit="10"/>
<path opacity="0.3" d="M36.9736 92.556H502.978" stroke="#C4ECFE" stroke-width="2.9133" stroke-miterlimit="10"/>
</g>
</g>
<path d="M461.266 262.576H318.647L360.358 149.213H502.978L461.266 262.576Z" fill="white" stroke="#F9D5FF" stroke-width="10" stroke-miterlimit="10" stroke-linejoin="round"/>
<path d="M413.596 262.576H261.697" stroke="#F9D5FF" stroke-width="10" stroke-miterlimit="10" stroke-linecap="round" stroke-linejoin="round"/>
<path d="M461.266 262.576L487.69 431.179" stroke="#F9D5FF" stroke-width="10" stroke-miterlimit="10" stroke-linecap="round" stroke-linejoin="round"/>
<path d="M392.35 262.576L365.926 431.179" stroke="#F9D5FF" stroke-width="10" stroke-miterlimit="10" stroke-linecap="round" stroke-linejoin="round"/>
<path d="M331.004 262.576L357.427 431.179" stroke="#F9D5FF" stroke-width="10" stroke-miterlimit="10" stroke-linecap="round" stroke-linejoin="round"/>
<path d="M262.087 262.576L235.664 431.179" stroke="#F9D5FF" stroke-width="10" stroke-miterlimit="10" stroke-linecap="round" stroke-linejoin="round"/>
<path d="M56.8525 146.234C56.8525 146.234 84.7415 164.843 89.0884 200.449" stroke="#CAE6C4" stroke-width="21.8044" stroke-miterlimit="10" stroke-linecap="round"/>
<path d="M128.358 167.92C128.358 167.92 99.7851 174.416 95.3893 210.022" stroke="#CAE6C4" stroke-width="21.8044" stroke-miterlimit="10" stroke-linecap="round"/>
<path d="M82.9344 93.7771C88.1606 111.311 95.2427 146.234 95.2427 202.646" stroke="#CAE6C4" stroke-width="21.8044" stroke-miterlimit="10" stroke-linecap="round"/>
<path d="M77.6104 78.343C77.6104 78.343 81.2247 88.0626 84.2041 98.173" stroke="#F9D5FF" stroke-width="21.8044" stroke-miterlimit="10" stroke-linecap="round"/>
<path d="M146.673 82.6411C126.209 105.695 105.06 145.599 103.35 198.641" stroke="#CAE6C4" stroke-width="21.8044" stroke-miterlimit="10" stroke-linecap="round"/>
<path d="M169.483 60.2225C162.108 66.3767 154.391 73.8984 146.673 82.5923" stroke="#F9D5FF" stroke-width="21.8044" stroke-miterlimit="10" stroke-linecap="round"/>
<path d="M146.673 54.0195C146.673 54.0195 156.344 63.8368 146.673 82.6411" stroke="#F9D5FF" stroke-width="21.8044" stroke-miterlimit="10" stroke-linecap="round"/>
<path d="M175.295 82.6411C175.295 82.6411 165.478 72.9704 146.673 82.6411" stroke="#F9D5FF" stroke-width="21.8044" stroke-miterlimit="10" stroke-linecap="round"/>
<path d="M93.6308 76.1938C93.6308 76.1938 84.3996 84.7901 84.2042 98.1729" stroke="#F9D5FF" stroke-width="21.8044" stroke-miterlimit="10" stroke-linecap="round"/>
<path d="M115.414 135.928C124.988 124.645 134.121 121.52 141.35 121.715" stroke="#CAE6C4" stroke-width="21.8044" stroke-miterlimit="10" stroke-linecap="round"/>
<path d="M77.6104 117.954C77.6104 117.954 88.3557 119.273 90.4071 128.846" stroke="#CAE6C4" stroke-width="21.8044" stroke-miterlimit="10" stroke-linecap="round"/>
<path d="M122.008 210.461L133.73 198.739H57.1456L68.8678 210.461C76.1941 217.788 75.3149 229.998 66.8652 236.104C54.5081 244.993 46.4492 259.499 46.498 275.91C46.5469 302.041 67.4025 323.776 93.5331 324.752C121.422 325.827 144.378 303.506 144.378 275.861C144.378 259.45 136.319 244.944 123.913 236.055C115.512 229.998 114.682 217.788 122.008 210.461Z" fill="#F9D5FF" stroke="#F9D5FF" stroke-width="8.7427" stroke-miterlimit="10" stroke-linecap="round" stroke-linejoin="round"/>
<path d="M421.411 179.3L336.67 234.931L335.009 236.006C323.238 243.772 307.364 240.451 299.647 228.68C295.935 223.014 294.763 216.322 295.838 210.168L313.128 113.803C314.984 103.448 324.899 96.5124 335.302 98.3684C344.729 100.078 351.274 108.381 351.029 117.661L348.489 215.541L307.706 190.778L392.448 135.147C404.658 127.136 421.02 130.555 429.03 142.717C437.04 154.928 433.622 171.29 421.411 179.3Z" fill="url(#paint0_linear)"/>
<path d="M425.611 261.795L422.583 262.088L419.555 262.332L413.499 262.771L407.442 263.162L401.386 263.504C397.381 263.748 393.327 263.846 389.322 264.041L377.258 264.432C361.14 264.872 345.07 264.969 328.953 264.823C324.947 264.774 320.894 264.774 316.889 264.676L304.824 264.432C300.819 264.383 296.766 264.188 292.76 264.09C288.755 263.944 284.701 263.846 280.696 263.699L268.632 263.211C264.627 263.065 260.573 262.869 256.568 262.674L244.504 262.039L238.448 261.697L232.391 261.306L251.538 256.031L241.867 260.769L237.031 263.162L232.147 265.507C225.651 268.584 219.155 271.758 212.61 274.738L202.793 279.28L192.927 283.725C186.382 286.704 179.691 289.586 173.097 292.468C159.812 298.182 146.38 303.75 132.851 309.025C129.432 310.344 126.062 311.663 122.643 312.932C119.224 314.202 115.805 315.521 112.386 316.742C108.918 317.963 105.499 319.233 102.031 320.454L96.8053 322.212L94.2166 323.092L91.5792 323.922L65.2043 279.866L213.05 191.559C219.057 187.945 225.847 186.236 232.44 186.236L391.813 196.639L425.611 261.795Z" fill="#2B2B2B"/>
<path d="M389.859 207.482C389.859 207.482 391.715 202.891 391.812 196.688C391.959 190.485 377.111 180.716 377.892 161.912C378.527 147.455 394.548 126.453 419.75 127.332L440.02 128.699C462.145 129.481 479.289 149.213 479.875 164.598H479.973C479.973 165.038 479.924 165.478 479.924 165.868C479.924 166.015 479.924 166.113 479.924 166.259H479.875C478.019 191.852 460.192 190.289 466.492 208.605L389.859 207.482Z" fill="url(#paint1_linear)"/>
<path d="M467.86 228.093C462.145 247.581 445.93 262.185 425.953 265.848C405.928 269.463 383.07 273.565 377.258 274.445C374.522 274.835 371.836 275.226 369.101 275.568L360.944 276.594C358.209 276.936 355.523 277.229 352.788 277.522C350.052 277.815 347.317 278.157 344.631 278.401L336.425 279.182C333.69 279.427 330.955 279.72 328.22 279.915L320.014 280.55C318.647 280.648 317.279 280.794 315.912 280.843L311.809 281.087L343.215 240.548L343.41 251.733L343.508 257.35L343.556 262.967C343.605 270.44 343.703 277.912 343.654 285.385L343.605 296.619L343.459 307.853C343.41 315.326 343.166 322.847 342.97 330.32C342.531 345.315 341.896 360.309 340.919 375.353C340.431 382.874 339.893 390.396 339.258 397.967C338.965 401.728 338.575 405.488 338.233 409.298L337.598 414.964L337.305 417.797L336.963 420.63L285.923 425.66L268.486 247.972C266.532 227.947 280.648 210.071 300.282 206.945L391.91 196.688L466.59 208.605L467.86 228.093Z" fill="#2B2B2B"/>
<path d="M466.492 208.605C472.94 227.263 463.513 252.759 442.511 251.831C426.295 251.147 425.172 251.733 418.334 251.44C396.746 250.512 382.777 227.898 389.859 207.482L466.492 208.605Z" fill="#2B2B2B"/>
<path d="M408.077 110.628L426.588 111.263C436.161 111.605 444.22 104.132 444.513 94.5587L445.49 66.6698C446.027 51.3333 434.061 38.4878 418.725 37.9505C403.388 37.4132 390.543 49.3796 390.005 64.7161L389.126 90.3094C388.735 101.152 397.185 110.237 408.077 110.628Z" fill="#FDC068"/>
<path d="M389.077 75.8522C390.804 75.8522 392.203 74.4526 392.203 72.7263C392.203 70.9999 390.804 69.6003 389.077 69.6003C387.351 69.6003 385.951 70.9999 385.951 72.7263C385.951 74.4526 387.351 75.8522 389.077 75.8522Z" fill="#2B2B2B"/>
<path d="M411.789 138.956L400.995 131.044C400.995 131.044 409.738 127.185 416.331 127.332L411.789 138.956Z" fill="#2B2B2B"/>
<path d="M421.509 142.766L445.588 134.854L444.953 82.0063L415.452 80.9806L410.812 134.219C410.275 140.129 415.892 144.622 421.509 142.766Z" fill="#FDC068"/>
<path d="M388.003 78.4895C392.831 78.4895 396.746 75.9092 396.746 72.7261C396.746 69.5431 392.831 66.9628 388.003 66.9628C383.174 66.9628 379.26 69.5431 379.26 72.7261C379.26 75.9092 383.174 78.4895 388.003 78.4895Z" stroke="#2B2B2B" stroke-width="3.6684" stroke-miterlimit="10" stroke-linecap="round"/>
<path d="M407.931 78.4895C412.759 78.4895 416.673 75.9092 416.673 72.7261C416.673 69.5431 412.759 66.9628 407.931 66.9628C403.102 66.9628 399.188 69.5431 399.188 72.7261C399.188 75.9092 403.102 78.4895 407.931 78.4895Z" stroke="#2B2B2B" stroke-width="3.6684" stroke-miterlimit="10" stroke-linecap="round"/>
<path d="M397.771 72.3843L393.669 76.9266C392.838 77.8546 392.936 79.2222 393.913 80.0037L396.404 81.6155" fill="#FDC068"/>
<path d="M397.771 72.3843L393.669 76.9266C392.838 77.8546 392.936 79.2222 393.913 80.0037L396.404 81.6155" stroke="#2B2B2B" stroke-width="3.6684" stroke-miterlimit="10" stroke-linecap="round"/>
<path d="M393.033 91.4817C393.033 91.4817 395.769 96.6102 400.995 92.2143" stroke="#2B2B2B" stroke-width="3.6684" stroke-miterlimit="10" stroke-linecap="round"/>
<path d="M412.814 110.823L424.878 111.214L411.789 122.692L412.814 110.823Z" fill="#2B2B2B"/>
<path d="M407.1 76.5847C408.826 76.5847 410.226 75.1852 410.226 73.4588C410.226 71.7324 408.826 70.3329 407.1 70.3329C405.374 70.3329 403.974 71.7324 403.974 73.4588C403.974 75.1852 405.374 76.5847 407.1 76.5847Z" fill="#2B2B2B"/>
<path d="M397.039 71.1144H399.188" stroke="#2B2B2B" stroke-width="3.6684" stroke-miterlimit="10" stroke-linecap="round"/>
<path d="M416.331 70.3329H430.398" stroke="#2B2B2B" stroke-width="3.6684" stroke-miterlimit="10" stroke-linecap="round"/>
<path d="M37.3642 249.535L71.3096 324.166C73.0679 328.073 77.6591 329.832 81.6153 328.171L91.1396 324.117L69.2094 277.18L44.1045 245.432C41.2228 241.72 35.4105 245.237 37.3642 249.535Z" fill="#9F70A7"/>
<path d="M248.216 433.231L330.222 433.084C334.52 433.084 337.988 429.665 338.086 425.367L338.33 415.013L286.508 415.648L247.239 425.416C242.648 426.491 243.478 433.231 248.216 433.231Z" fill="#9F70A7"/>
<path d="M424.488 37.9016H412.375C400.409 37.9016 390.689 47.6212 390.689 59.5876L399.237 47.2793L406.563 56.657C407.979 58.5131 410.177 59.5876 412.522 59.5876C416.722 59.5876 420.092 62.9577 420.092 67.1581V79.4664H426.735V77.4639C426.735 75.9497 428.689 75.3148 429.568 76.5847L445.197 99.9313L446.223 64.9602V59.5876C446.174 47.5724 436.455 37.9016 424.488 37.9016Z" fill="#9F70A7"/>
<path d="M436.699 86.0112C442.445 86.0112 447.102 81.3534 447.102 75.6078C447.102 69.8621 442.445 65.2043 436.699 65.2043C430.953 65.2043 426.296 69.8621 426.296 75.6078C426.296 81.3534 430.953 86.0112 436.699 86.0112Z" fill="#FDC068"/>
<path d="M36.9736 326.95H213.148" stroke="#F9D5FF" stroke-width="10" stroke-miterlimit="10" stroke-linecap="round" stroke-linejoin="round"/>
<path d="M132.558 326.95L54.8987 431.18" stroke="#F9D5FF" stroke-width="10" stroke-miterlimit="10" stroke-linecap="round" stroke-linejoin="round"/>
<path d="M54.8987 326.95L132.558 431.18" stroke="#F9D5FF" stroke-width="10" stroke-miterlimit="10" stroke-linecap="round" stroke-linejoin="round"/>
<path d="M0 433.768C27.7912 433.768 54.8987 399.285 54.8987 377.16C54.8987 355.034 75.3636 324.264 106.476 316.644C136.807 309.22 155.709 275.763 155.709 253.833C155.709 210.266 182.377 191.511 213.148 172.902C243.918 154.293 241.916 143.206 241.916 86.0112H386.88C386.88 143.206 386.147 172.657 355.376 191.217C324.606 209.778 300.673 228.093 300.673 271.661C300.673 315.228 277.473 341.212 247.142 348.636C216.029 356.255 201.474 388.687 199.863 410.763C199.228 419.555 197.42 427.712 188.629 433.231L0 433.768Z" fill="url(#paint2_linear)"/>
<g opacity="0.37">
<path opacity="0.37" d="M31.552 433.768C59.3432 433.768 86.4507 399.285 86.4507 377.16C86.4507 355.034 106.916 324.264 138.028 316.644C168.359 309.22 187.261 275.763 187.261 253.833C187.261 210.266 213.929 191.462 244.7 172.902C275.47 154.342 273.468 143.206 273.468 86.0112" stroke="white" stroke-width="2.9133" stroke-miterlimit="10"/>
<path opacity="0.37" d="M72.4331 433.768C100.224 433.768 127.332 399.285 127.332 377.16C127.332 355.034 147.797 324.264 178.909 316.644C209.24 309.22 228.142 275.763 228.142 253.833C228.142 210.266 254.81 191.511 285.581 172.902C316.351 154.293 314.349 143.206 314.349 86.0112" stroke="white" stroke-width="2.9133" stroke-miterlimit="10"/>
<path opacity="0.37" d="M113.363 433.768C141.154 433.768 168.262 399.285 168.262 377.16C168.262 355.034 188.727 324.264 219.839 316.644C250.17 309.22 269.072 275.763 269.072 253.833C269.072 210.266 295.74 191.511 326.511 172.902C357.281 154.293 355.279 143.206 355.279 86.0112" stroke="white" stroke-width="2.9133" stroke-miterlimit="10"/>
<path opacity="0.37" d="M217.739 128.846H398.113" stroke="white" stroke-width="2.9133" stroke-miterlimit="10"/>
<path opacity="0.37" d="M173 182.67H400.995" stroke="white" stroke-width="2.9133" stroke-miterlimit="10"/>
<path opacity="0.37" d="M128.211 236.494H308.585" stroke="white" stroke-width="2.9133" stroke-miterlimit="10"/>
<path opacity="0.37" d="M83.4226 290.367H331.004" stroke="white" stroke-width="2.9133" stroke-miterlimit="10"/>
<path opacity="0.37" d="M38.6832 344.191H291.247" stroke="white" stroke-width="2.9133" stroke-miterlimit="10"/>
<path opacity="0.37" d="M-6.10522 398.016H261.697" stroke="white" stroke-width="2.9133" stroke-miterlimit="10"/>
</g>
<path d="M386.88 86.0112C386.88 143.206 386.147 172.657 355.376 191.217C324.606 209.778 300.673 228.093 300.673 271.661C300.673 315.228 277.473 341.212 247.142 348.636C216.029 356.255 201.474 388.687 199.863 410.763C199.228 419.555 197.421 427.712 188.629 433.231" stroke="#ECEAEA" stroke-width="10" stroke-miterlimit="10"/>
<path d="M357.428 193.611L403.193 207.335L431.668 147.797C437.969 134.609 453.745 129.041 466.932 135.293C480.12 141.594 485.688 157.37 479.436 170.557L441.339 250.414L440.411 252.368C434.647 264.432 420.19 269.56 408.126 263.797C408.028 263.748 407.833 263.65 407.735 263.602L342.58 231.073" fill="url(#paint3_linear)"/>
<path d="M342.531 231.073L330.662 225.163C321.236 220.474 317.377 208.996 322.115 199.521C326.315 191.071 335.937 187.115 344.68 189.752L357.428 193.562L342.531 231.073Z" fill="#FDC068"/>
<path d="M374.669 182.67C379.407 187.896 379.749 191.755 379.26 196.688" stroke="#2B2B2B" stroke-width="3.6684" stroke-miterlimit="10" stroke-linecap="round"/>
<path d="M412.229 188.092L406.612 199.423" stroke="#2B2B2B" stroke-width="3.6684" stroke-miterlimit="10" stroke-linecap="round"/>
<path d="M346.585 266.19L344.582 278.401" stroke="#9F70A7" stroke-width="3.6684" stroke-miterlimit="10" stroke-linecap="round"/>
</g>
<defs>
<linearGradient id="paint0_linear" x1="364.409" y1="268.568" x2="364.409" y2="92.2512" gradientUnits="userSpaceOnUse">
<stop stop-color="#F89D9A"/>
<stop offset="0.2628" stop-color="#F5943B"/>
<stop offset="0.4989" stop-color="#F05052"/>
<stop offset="0.758" stop-color="#ECE674"/>
<stop offset="1" stop-color="#E1EEC3"/>
</linearGradient>
<linearGradient id="paint1_linear" x1="428.918" y1="268.568" x2="428.918" y2="92.2512" gradientUnits="userSpaceOnUse">
<stop stop-color="#F89D9A"/>
<stop offset="0.2628" stop-color="#F5943B"/>
<stop offset="0.4989" stop-color="#F05052"/>
<stop offset="0.758" stop-color="#ECE674"/>
<stop offset="1" stop-color="#E1EEC3"/>
</linearGradient>
<linearGradient id="paint2_linear" x1="193.44" y1="431.938" x2="193.44" y2="89.4728" gradientUnits="userSpaceOnUse">
<stop stop-color="#FFE0C2"/>
<stop offset="0.401" stop-color="#7AAEFC"/>
<stop offset="0.5908" stop-color="#B8C1FC"/>
<stop offset="1" stop-color="#D2D4D4"/>
</linearGradient>
<linearGradient id="paint3_linear" x1="412.29" y1="268.568" x2="412.29" y2="92.2512" gradientUnits="userSpaceOnUse">
<stop stop-color="#F89D9A"/>
<stop offset="0.2628" stop-color="#F5943B"/>
<stop offset="0.4989" stop-color="#F05052"/>
<stop offset="0.758" stop-color="#ECE674"/>
<stop offset="1" stop-color="#E1EEC3"/>
</linearGradient>
<clipPath id="clip0">
<rect width="540" height="540" fill="white"/>
</clipPath>
</defs>
</svg>
