<svg xmlns="http://www.w3.org/2000/svg" width="540" height="540" fill="none" viewBox="0 0 540 540">
    <g clip-path="url(#a)">
        <path fill="#2B2B2B" d="M496.628 431.179H184.526v2.052h312.102v-2.052z"/>
        <g opacity=".3">
            <path fill="#C4ECFE" d="M501.464 39.416v392.838H38.488V39.416h462.976zm1.514-1.514H36.974v395.866h466.004V37.902z" opacity=".3"/>
            <g stroke="#C4ECFE" stroke-miterlimit="10" stroke-width="2.913" opacity=".3">
                <path d="M36.974 319.282h466.004M36.974 262.576h466.004M36.974 319.282h466.004M36.974 375.939h466.004M36.974 205.919h466.004M36.974 149.213h466.004M36.974 92.556h466.004" opacity=".3"/>
            </g>
        </g>
        <path fill="#fff" stroke="#F9D5FF" stroke-linejoin="round" stroke-miterlimit="10" stroke-width="10" d="M461.266 262.576H318.647l41.711-113.363h142.62l-41.712 113.363z"/>
        <path stroke="#F9D5FF" stroke-linecap="round" stroke-linejoin="round" stroke-miterlimit="10" stroke-width="10" d="M413.596 262.576H261.697M461.266 262.576l26.424 168.603M392.35 262.576l-26.424 168.603M331.004 262.576l26.423 168.603M262.087 262.576l-26.423 168.603"/>
        <path stroke="#CAE6C4" stroke-linecap="round" stroke-miterlimit="10" stroke-width="21.804" d="M56.852 146.234s27.89 18.609 32.236 54.215M128.358 167.92s-28.573 6.496-32.969 42.102M82.934 93.777c5.227 17.534 12.309 52.457 12.309 108.869"/>
        <path stroke="#F9D5FF" stroke-linecap="round" stroke-miterlimit="10" stroke-width="21.804" d="M77.61 78.343s3.615 9.72 6.594 19.83"/>
        <path stroke="#CAE6C4" stroke-linecap="round" stroke-miterlimit="10" stroke-width="21.804" d="M146.673 82.641c-20.464 23.054-41.613 62.958-43.323 116"/>
        <path stroke="#F9D5FF" stroke-linecap="round" stroke-miterlimit="10" stroke-width="21.804" d="M169.483 60.222c-7.375 6.155-15.092 13.676-22.81 22.37M146.673 54.02s9.671 9.817 0 28.621M175.295 82.641s-9.817-9.67-28.622 0M93.63 76.194s-9.23 8.596-9.426 21.979"/>
        <path stroke="#CAE6C4" stroke-linecap="round" stroke-miterlimit="10" stroke-width="21.804" d="M115.414 135.928c9.574-11.283 18.707-14.408 25.936-14.213M77.61 117.954s10.746 1.319 12.797 10.892"/>
        <path fill="#F9D5FF" stroke="#F9D5FF" stroke-linecap="round" stroke-linejoin="round" stroke-miterlimit="10" stroke-width="8.743" d="M122.008 210.461l11.722-11.722H57.146l11.722 11.722c7.326 7.327 6.447 19.537-2.003 25.643-12.357 8.889-20.416 23.395-20.367 39.806.049 26.131 20.905 47.866 47.035 48.842 27.889 1.075 50.845-21.246 50.845-48.891 0-16.411-8.059-30.917-20.465-39.806-8.401-6.057-9.231-18.267-1.905-25.594z"/>
        <path fill="url(#b)" d="M421.411 179.3l-84.741 55.631-1.661 1.075c-11.771 7.766-27.645 4.445-35.362-7.326-3.712-5.666-4.884-12.358-3.809-18.512l17.29-96.365c1.856-10.355 11.771-17.29 22.174-15.435 9.427 1.71 15.972 10.013 15.727 19.293l-2.54 97.88-40.783-24.763 84.742-55.631c12.21-8.011 28.572-4.592 36.582 7.57 8.01 12.211 4.592 28.573-7.619 36.583z"/>
        <path fill="#2B2B2B" d="M425.611 261.795l-3.028.293-3.028.244-6.056.439-6.057.391-6.056.342c-4.005.244-8.059.342-12.064.537l-12.064.391c-16.118.44-32.188.537-48.305.391-4.006-.049-8.059-.049-12.064-.147l-12.065-.244c-4.005-.049-8.058-.244-12.064-.342-4.005-.146-8.059-.244-12.064-.391l-12.064-.488a993.022 993.022 0 0 1-12.064-.537l-12.064-.635-6.056-.342-6.057-.391 19.147-5.275-9.671 4.738-4.836 2.393-4.884 2.345c-6.496 3.077-12.992 6.251-19.537 9.231l-9.817 4.542-9.866 4.445c-6.545 2.979-13.236 5.861-19.83 8.743-13.285 5.714-26.717 11.282-40.246 16.557-3.419 1.319-6.789 2.638-10.208 3.907-3.419 1.27-6.838 2.589-10.257 3.81-3.468 1.221-6.887 2.491-10.355 3.712l-5.226 1.758-2.588.88-2.638.83-26.375-44.056 147.846-88.307c6.007-3.614 12.797-5.323 19.39-5.323l159.373 10.403 33.798 65.156z"/>
        <path fill="url(#c)" d="M389.859 207.482s1.856-4.591 1.953-10.794c.147-6.203-14.701-15.972-13.92-34.776.635-14.457 16.656-35.459 41.858-34.58l20.27 1.367c22.125.782 39.269 20.514 39.855 35.899h.098c0 .44-.049.88-.049 1.27v.391h-.049c-1.856 25.593-19.683 24.03-13.383 42.346l-76.633-1.123z"/>
        <path fill="#2B2B2B" d="M467.86 228.093c-5.715 19.488-21.93 34.092-41.907 37.755-20.025 3.615-42.883 7.717-48.695 8.597-2.736.39-5.422.781-8.157 1.123l-8.157 1.026c-2.735.342-5.421.635-8.156.928-2.736.293-5.471.635-8.157.879l-8.206.781c-2.735.245-5.47.538-8.205.733l-8.206.635c-1.367.098-2.735.244-4.102.293l-4.103.244 31.406-40.539.195 11.185.098 5.617.048 5.617c.049 7.473.147 14.945.098 22.418l-.049 11.234-.146 11.234c-.049 7.473-.293 14.994-.489 22.467-.439 14.995-1.074 29.989-2.051 45.033a1198.994 1198.994 0 0 1-1.661 22.614c-.293 3.761-.683 7.521-1.025 11.331l-.635 5.666-.293 2.833-.342 2.833-51.04 5.03-17.437-177.688c-1.954-20.025 12.162-37.901 31.796-41.027l91.628-10.257 74.68 11.917 1.27 19.488z"/>
        <path fill="#2B2B2B" d="M466.492 208.605c6.448 18.658-2.979 44.154-23.981 43.226-16.216-.684-17.339-.098-24.177-.391-21.588-.928-35.557-23.542-28.475-43.958l76.633 1.123z"/>
        <path fill="#FDC068" d="M408.077 110.628l18.511.635c9.573.342 17.632-7.131 17.925-16.704l.977-27.89c.537-15.336-11.429-28.181-26.765-28.718-15.337-.538-28.182 11.429-28.72 26.765l-.879 25.593c-.391 10.843 8.059 19.928 18.951 20.319z"/>
        <path fill="#2B2B2B" d="M389.077 75.852a3.126 3.126 0 1 0 0-6.251 3.126 3.126 0 0 0 0 6.251zM411.789 138.956l-10.794-7.912s8.743-3.859 15.336-3.712l-4.542 11.624z"/>
        <path fill="#FDC068" d="M421.509 142.766l24.079-7.912-.635-52.848-29.501-1.025-4.64 53.238c-.537 5.91 5.08 10.403 10.697 8.547z"/>
        <path stroke="#2B2B2B" stroke-linecap="round" stroke-miterlimit="10" stroke-width="3.668" d="M388.003 78.49c4.828 0 8.743-2.58 8.743-5.764 0-3.183-3.915-5.763-8.743-5.763-4.829 0-8.743 2.58-8.743 5.763s3.914 5.764 8.743 5.764zM407.931 78.49c4.828 0 8.742-2.58 8.742-5.764 0-3.183-3.914-5.763-8.742-5.763-4.829 0-8.743 2.58-8.743 5.763s3.914 5.764 8.743 5.764z"/>
        <path fill="#FDC068" d="M397.771 72.384l-4.102 4.543c-.831.928-.733 2.295.244 3.077l2.491 1.611"/>
        <path stroke="#2B2B2B" stroke-linecap="round" stroke-miterlimit="10" stroke-width="3.668" d="M397.771 72.384l-4.102 4.543c-.831.928-.733 2.295.244 3.077l2.491 1.611M393.033 91.482s2.736 5.128 7.962.732"/>
        <path fill="#2B2B2B" d="M412.814 110.823l12.064.391-13.089 11.478 1.025-11.869zM407.1 76.585a3.126 3.126 0 1 0 0-6.253 3.126 3.126 0 0 0 0 6.253z"/>
        <path stroke="#2B2B2B" stroke-linecap="round" stroke-miterlimit="10" stroke-width="3.668" d="M397.039 71.114h2.149M416.331 70.333h14.067"/>
        <path fill="#9F70A7" d="M37.364 249.535l33.946 74.631c1.758 3.907 6.35 5.666 10.305 4.005l9.525-4.054-21.93-46.937-25.105-31.748c-2.882-3.712-8.694-.195-6.74 4.103zM248.216 433.231l82.006-.147c4.298 0 7.766-3.419 7.864-7.717l.244-10.354-51.822.635-39.269 9.768c-4.591 1.075-3.761 7.815.977 7.815zM424.488 37.902h-12.113c-11.966 0-21.686 9.72-21.686 21.686l8.548-12.309 7.326 9.378a7.471 7.471 0 0 0 5.959 2.93c4.2 0 7.57 3.37 7.57 7.571v12.308h6.643v-2.002c0-1.514 1.954-2.15 2.833-.88l15.629 23.347 1.026-34.97v-5.373c-.049-12.016-9.768-21.686-21.735-21.686z"/>
        <path fill="#FDC068" d="M436.699 86.011c5.746 0 10.403-4.658 10.403-10.403 0-5.746-4.657-10.404-10.403-10.404s-10.403 4.658-10.403 10.404c0 5.745 4.657 10.403 10.403 10.403z"/>
        <path stroke="#F9D5FF" stroke-linecap="round" stroke-linejoin="round" stroke-miterlimit="10" stroke-width="10" d="M36.974 326.95h176.174M132.558 326.95l-77.66 104.23M54.899 326.95l77.659 104.23"/>
        <path fill="url(#d)" d="M0 433.768c27.791 0 54.899-34.483 54.899-56.608 0-22.126 20.465-52.896 51.577-60.516 30.331-7.424 49.233-40.881 49.233-62.811 0-43.567 26.668-62.322 57.439-80.931 30.77-18.609 28.768-29.696 28.768-86.89H386.88c0 57.194-.733 86.645-31.504 105.205-30.77 18.561-54.703 36.876-54.703 80.444 0 43.567-23.2 69.551-53.531 76.975-31.113 7.619-45.668 40.051-47.279 62.127-.635 8.792-2.443 16.949-11.234 22.468L0 433.768z"/>
        <g stroke="#fff" stroke-miterlimit="10" stroke-width="2.913" opacity=".37">
            <path d="M31.552 433.768c27.791 0 54.899-34.483 54.899-56.608 0-22.126 20.465-52.896 51.577-60.516 30.331-7.424 49.233-40.881 49.233-62.811 0-43.567 26.668-62.371 57.439-80.931 30.77-18.56 28.768-29.696 28.768-86.89" opacity=".37"/>
            <path d="M72.433 433.768c27.791 0 54.899-34.483 54.899-56.608 0-22.126 20.465-52.896 51.577-60.516 30.331-7.424 49.233-40.881 49.233-62.811 0-43.567 26.668-62.322 57.439-80.931 30.77-18.609 28.768-29.696 28.768-86.89" opacity=".37"/>
            <path d="M113.363 433.768c27.791 0 54.899-34.483 54.899-56.608 0-22.126 20.465-52.896 51.577-60.516 30.331-7.424 49.233-40.881 49.233-62.811 0-43.567 26.668-62.322 57.439-80.931 30.77-18.609 28.768-29.696 28.768-86.89M217.739 128.846h180.374M173 182.67h227.995M128.211 236.494h180.374M83.423 290.367h247.581M38.683 344.191h252.564M-6.105 398.016h267.802" opacity=".37"/>
        </g>
        <path stroke="#ECEAEA" stroke-miterlimit="10" stroke-width="10" d="M386.88 86.011c0 57.195-.733 86.646-31.504 105.206-30.77 18.561-54.703 36.876-54.703 80.444 0 43.567-23.2 69.551-53.531 76.975-31.113 7.619-45.668 40.051-47.279 62.127-.635 8.792-2.442 16.949-11.234 22.468"/>
        <path fill="url(#e)" d="M357.428 193.611l45.765 13.724 28.475-59.538c6.301-13.188 22.077-18.756 35.264-12.504 13.188 6.301 18.756 22.077 12.504 35.264l-38.097 79.857-.928 1.954c-5.764 12.064-20.221 17.192-32.285 11.429l-.391-.195-65.155-32.529"/>
        <path fill="#FDC068" d="M342.531 231.073l-11.869-5.91c-9.426-4.689-13.285-16.167-8.547-25.642 4.2-8.45 13.822-12.406 22.565-9.769l12.748 3.81-14.897 37.511z"/>
        <path stroke="#2B2B2B" stroke-linecap="round" stroke-miterlimit="10" stroke-width="3.668" d="M374.669 182.67c4.738 5.226 5.08 9.085 4.591 14.018M412.229 188.092l-5.617 11.331"/>
        <path stroke="#9F70A7" stroke-linecap="round" stroke-miterlimit="10" stroke-width="3.668" d="M346.585 266.19l-2.003 12.211"/>
    </g>
    <defs>
        <linearGradient id="b" x1="364.409" x2="364.409" y1="268.568" y2="92.251" gradientUnits="userSpaceOnUse">
            <stop stop-color="#F89D9A"/>
            <stop offset=".263" stop-color="#F5943B"/>
            <stop offset=".499" stop-color="#F05052"/>
            <stop offset=".758" stop-color="#ECE674"/>
            <stop offset="1" stop-color="#E1EEC3"/>
        </linearGradient>
        <linearGradient id="c" x1="428.918" x2="428.918" y1="268.568" y2="92.251" gradientUnits="userSpaceOnUse">
            <stop stop-color="#F89D9A"/>
            <stop offset=".263" stop-color="#F5943B"/>
            <stop offset=".499" stop-color="#F05052"/>
            <stop offset=".758" stop-color="#ECE674"/>
            <stop offset="1" stop-color="#E1EEC3"/>
        </linearGradient>
        <linearGradient id="d" x1="193.44" x2="193.44" y1="431.938" y2="89.473" gradientUnits="userSpaceOnUse">
            <stop stop-color="#FFE0C2"/>
            <stop offset=".401" stop-color="#7AAEFC"/>
            <stop offset=".591" stop-color="#B8C1FC"/>
            <stop offset="1" stop-color="#D2D4D4"/>
        </linearGradient>
        <linearGradient id="e" x1="412.29" x2="412.29" y1="268.568" y2="92.251" gradientUnits="userSpaceOnUse">
            <stop stop-color="#F89D9A"/>
            <stop offset=".263" stop-color="#F5943B"/>
            <stop offset=".499" stop-color="#F05052"/>
            <stop offset=".758" stop-color="#ECE674"/>
            <stop offset="1" stop-color="#E1EEC3"/>
        </linearGradient>
        <clipPath id="a">
            <path fill="#fff" d="M0 0h540v540H0z"/>
        </clipPath>
    </defs>
</svg>
