<svg xmlns="http://www.w3.org/2000/svg" width="358" height="361" fill="none" viewBox="0 0 358 361">
    <g clip-path="url(#a)">
        <path fill="#fff" d="M353.997 0H4a4 4 0 0 0-4 4v353a4 4 0 0 0 4 4h349.997a4 4 0 0 0 4.001-4V4a4 4 0 0 0-4.001-4z"/>
        <g opacity=".3">
            <path fill="#C4ECFE" d="M328.449 26.975a4 4 0 0 1 4.001 4v260.844a4 4 0 0 1-4.001 4.001H29.516a4 4 0 0 1-4-4.001V30.975a4 4 0 0 1 4-4h298.933zm5.004 2.964a4 4 0 0 0-4-4H28.513a4 4 0 0 0-4.001 4v262.917a4 4 0 0 0 4 4h300.941a4 4 0 0 0 4-4V29.939z" opacity=".3"/>
            <g stroke="#C4ECFE" stroke-miterlimit="10" stroke-width="2.913" opacity=".3">
                <path d="M24.512 218.505h308.941M24.512 179.698h308.941M24.512 218.505h308.941M24.512 257.279h308.941M24.512 140.924h308.941M24.512 102.116h308.941M24.512 63.342h308.941" opacity=".3"/>
            </g>
        </g>
        <path fill="url(#b)" d="M25.386 55.454c0-15.41 13.18-31.555 29.985-21.46 3.847 2.305-7.58 29.783-12.065 29.783h-13.92a4 4 0 0 1-4-4v-4.323z"/>
        <path fill="url(#c)" d="M43.875 124.077c0-10.563 12.694-15.61 19.461-7.688 3.4 3.978 7.124 6.886 12.985 5.415 23.281-5.883 18.975 18.518 38.144 19.12H57.151c-7.318 0-13.276-6.117-13.276-13.705v-3.142z"/>
        <path fill="#2B2B2B" d="M257.877 83.03c-1.165-5.348 3.336-18.083 13.017-20.858 9.682-2.774 22.764-5.314 29.078-.434 6.314 4.847 26.325 49.437 23.411 58.061-4.177 12.334-14.798 25.236-28.98 20.155-14.215-5.047-32.931-40.144-36.526-56.924zM244.579 44.292a2.28 2.28 0 0 0-1.676 2.221l.177 17.23c.032 3.443 3.529 5.716 6.54 4.245l3.226-1.57a4 4 0 0 0 1.857-5.324l-7.466-15.589a2.278 2.278 0 0 0-2.658-1.213z"/>
        <path fill="url(#d)" d="M192.048 103.186l29.556 1.214c.894.037 1.059 1.292.204 1.558-.825.257-1.412-.8-.757-1.365l33.2-28.616c4.533-3.91 11.301-3.276 15.089 1.404 3.789 4.68 3.173 11.666-1.36 15.576l-36.104 31.12-.551.468a8.995 8.995 0 0 1-7.512 2.039L190.85 120.3"/>
        <path fill="#DE6381" d="M190.85 120.266l-8.192-1.571c-4.21-.802-6.962-4.98-6.185-9.292.712-3.944 4.112-6.685 7.901-6.518l7.674.301"/>
        <path fill="#FDC068" d="M255.837 66.752l7.254-2.006c3.756-1.036 5.99-5.014 4.986-8.891l-2.914-11.265c-1.619-6.184-7.771-9.86-13.762-8.223-5.99 1.672-9.552 8.023-7.965 14.206l2.687 10.329c1.101 4.412 5.44 7.02 9.714 5.85z"/>
        <path fill="#2B2B2B" d="M243.986 55.186c.698 0 1.263-.584 1.263-1.303 0-.72-.565-1.304-1.263-1.304-.697 0-1.263.584-1.263 1.304 0 .72.566 1.303 1.263 1.303z"/>
        <path fill="url(#e)" d="M265.38 63.466c-.05-.595.32-1.11.755-1.52 2.092-1.966 8.823-7.847 13.955-7.261 3.936.449 7.579 10.511 9.694 17.706.9 3.06-2.055 5.629-4.974 4.341-7.674-3.386-19.075-9.096-19.43-13.266z"/>
        <path stroke="#2B2B2B" stroke-linecap="round" stroke-miterlimit="10" stroke-width="3" d="M278.536 57.994l-8.127 7.788"/>
        <path fill="url(#f)" d="M287.788 79.68c-.016-.062-.024-.126-.043-.188a1.465 1.465 0 0 1-.006-.019c-.009-.034-.01-.07-.018-.106-.033-.144-.085-.287-.115-.431a.022.022 0 0 0-.021-.017.021.021 0 0 1-.02-.014c-2.146-5.744-10.946-11.015-19.164-8.41l-7.609 2.14c-9.358 2.941-12.596 12.969-11.01 18.55l2.8 17.2a4 4 0 0 0 4.103 3.355l32.029-1.238c3.231-.125 5.4-4.126 4.409-7.204-2.261-7.029-3.512-16.481-5.335-23.618z"/>
        <path fill="#2B2B2B" d="M256.971 113.214c-14.024-28.12-4.633-37.37-3.112-38.622a1.24 1.24 0 0 1 .446-.228c1.71-.517 3.907 2.358 3.33 4.05-2.178 6.384-3.12 18.088 6.039 36.471"/>
        <path fill="#FDC068" d="M264.839 77.95l6.068-4.402a4 4 0 0 0 1.473-4.42l-4.518-14.618a4 4 0 0 0-4.882-2.676l-4.208 1.156a4 4 0 0 0-2.859 4.664l3.745 18.19c.518 2.406 3.238 3.51 5.181 2.105z"/>
        <path stroke="#2B2B2B" stroke-linecap="round" stroke-miterlimit="10" stroke-width="2.242" d="M247.321 52.713l-1.036 2.306c-.194.468 0 1.003.454 1.203l1.165.335M248.358 59.866s1.651 1.705 3.173-.669"/>
        <path fill="#2B2B2B" d="M257.952 67.523a1.426 1.426 0 0 1 1.017-1.66c1.241-.343 2.264 1.005 1.6 2.108-.67 1.112-2.356.824-2.617-.448zM251.045 53.314c.698 0 1.263-.583 1.263-1.303s-.565-1.304-1.263-1.304c-.697 0-1.263.584-1.263 1.304 0 .72.566 1.303 1.263 1.303z"/>
        <path fill="url(#g)" d="M282.548 139.255a4 4 0 0 1-4.549 3.416l-37.243-5.514c-3.23-.478-4.557-4.415-2.277-6.751l6.093-6.243c2.333-2.391 6.396-1.037 6.829 2.276l9.395 71.923a4 4 0 0 1-3.413 4.48l-13.369 1.866c-1.911.267-3.743-.868-4.326-2.707-1.831-5.773-3.45-11.569-5.092-17.39-1.878-6.852-3.627-13.771-5.343-20.657-.809-3.443-1.651-6.886-2.428-10.362l-1.199-5.181-1.133-5.181c-1.522-6.919-2.946-13.838-4.339-20.791-1.586-7.955 3.4-15.743 11.107-17.381a15.024 15.024 0 0 1 3.432-.301l2.59.134c4.145.2 8.257.501 12.37.835 4.112.368 8.224.802 12.304 1.371 4.08.534 8.16 1.203 12.24 1.972l3.044.601c1.004.234 2.04.435 3.044.669l3.011.735 1.49.435.744.2c.43.136.7.561.639 1.008l-3.621 26.538z"/>
        <path fill="#2B2B2B" d="M240.04 206.202a3.999 3.999 0 0 1-1.311 4.217l-4.133 3.373c-2.832 2.323-4.025 6.073-3.24 9.547.397 1.759 2.338 2.48 4.073 1.989l24.533-6.951a4 4 0 0 0 2.876-4.366l-3.399-26.075a4.001 4.001 0 0 0-5.001-3.348l-15.245 4.081a4 4 0 0 0-2.807 4.982l3.654 12.551z"/>
        <path fill="url(#h)" d="M295.342 109.05a4 4 0 0 1 4.57 3.37l8.997 61.094-.324-1.571 16.854 67.441a4 4 0 0 1-2.853 4.836l-13.163 3.501c-1.828.486-3.751-.373-4.572-2.077-2.235-4.641-4.269-9.338-6.304-14.036-2.428-5.682-4.727-11.398-6.962-17.147-1.1-2.875-2.201-5.75-3.27-8.624l-1.587-4.312-1.554-4.345c-2.072-5.783-4.047-11.599-5.99-17.415l-.324-1.571a545.859 545.859 0 0 1-3.335-16.112c-1.004-5.381-1.975-10.796-2.817-16.211-.842-5.415-1.619-10.83-2.235-16.312l-.453-4.078c-.129-1.371-.291-2.741-.388-4.111l-.324-4.112-.13-2.072-.065-1.037a1.172 1.172 0 0 1 .993-1.194l25.236-3.905z"/>
        <path fill="#2B2B2B" d="M293.83 134.411c-3.638 1.077-3.874 6.141-.35 7.55l5.282 2.113c2.798 1.119 5.781-1.14 5.463-4.137l-.378-3.563a4.001 4.001 0 0 0-5.113-3.414l-4.904 1.451z"/>
        <path fill="url(#i)" d="M270.71 108.369c-4.177-.666-9.527 8.002-8.001 11.946 1.794 4.635 3.873 9.422 8.185 13.155 7.3 6.317 22.21 4.335 28.972 3.012 1.995-.39 3.25-2.291 2.954-4.302l-2.907-19.749a4 4 0 0 0-4.58-3.369l-6.249.984c-2.427.382-6.797.303-9.216-.129a502.331 502.331 0 0 0-9.158-1.548z"/>
        <path fill="#2B2B2B" d="M301.391 112.628c-2.327-1.117-4.942.589-4.679 3.157.3 2.936.845 6.772 1.835 10.868.969 4.007 5.218 3.036 5.101-1.085l-.281-9.896a3.485 3.485 0 0 0-1.976-3.044z"/>
        <path fill="#DE6381" d="M328.499 137.146l2.752 8.19c1.393 4.178-.744 8.724-4.76 10.161-3.659 1.304-7.609-.367-9.357-3.777l-3.983-7.654"/>
        <path fill="url(#j)" d="M313.151 144.032l-14.086-27.208c.207.324-.239.664-.498.379l-24.823-27.388c-4.048-4.445-3.821-11.465.518-15.61 4.339-4.144 11.106-3.944 15.122.535l27.296 30.117.454.501a7.814 7.814 0 0 1 1.521 2.608l9.812 29.147"/>
        <path fill="#2B2B2B" d="M301.267 122.005c-40.238-12.26-32.405-46.93-25.338-51.66a.71.71 0 0 1 .537-.096c.901.168 1.903 3.429 1.461 4.232-4.842 8.798-7.418 32.553 22.952 43.412M258.016 41.318c-2.395.92-2.931 4.002-2.007 6.396.461 1.196.8 2.57.8 4.03 0 2.272.226 6.618.453 10.395.194 3.342 3.594 5.415 6.541 4.01l5.375-2.606c2.332-1.137 3.465-3.911 2.558-6.418-2.169-6.117-6.12-16.379-8.257-16.847-1.384-.298-3.52.293-5.463 1.04z"/>
        <path fill="#DE6381" d="M261.698 35.097l-18.975 4.011c-1.327.268-2.201 1.638-1.91 3.009l.259 1.337c.259 1.37 1.587 2.273 2.914 1.972l18.975-4.011c1.328-.268 2.202-1.638 1.911-3.009l-.259-1.337c-.292-1.37-1.587-2.24-2.915-1.972z"/>
        <path fill="#DE6381" d="M250.462 28.278c-4.271.9-6.55 6.839-7.551 10.427-.364 1.304.793 2.44 2.118 2.161l2.282-.481c1.97-.416 5.121-12.525 3.151-12.107z"/>
        <path stroke="#2B2B2B" stroke-linecap="round" stroke-miterlimit="10" stroke-width="3.296" d="M242.723 39.108l18.716-3.944"/>
        <path stroke="#2B2B2B" stroke-linecap="round" stroke-miterlimit="10" stroke-width="7" d="M178.999 161.38l7.512-104.021"/>
        <path fill="url(#k)" d="M183.796 89.17c-.246 3.607-5.097 5.242-8.323 3.612-8.929-4.511-18.445-.169-28.757 4.053-12.739 5.215-23.638 8.072-34.941-.692-.977-.758-1.481-1.97-1.413-3.204.564-10.342 1.145-20.701 1.714-31.05.183-3.318 4.209-5.06 7.21-3.628 9.576 4.569 19.096 1.738 29.955-2.54 13.073-5.17 26.329-11.542 35.864 1.255.529.71.759 1.597.7 2.48-.657 9.892-1.331 19.801-2.009 29.714z"/>
        <path fill="#92BFFC" d="M145.981 46.555a4 4 0 0 0-2.979 3.662l-3.159 60.797a4 4 0 0 0 4.549 4.169l11.785-1.647a4 4 0 0 0 3.441-3.747l3.349-62.295c.146-2.708-2.388-4.773-5.01-4.084l-11.976 3.145zM114.457 43a3.999 3.999 0 0 0-2.546 3.586l-2.155 60.834a4 4 0 0 0 4.808 4.059l5.344-1.106a4 4 0 0 0 3.187-3.771l2.254-61.847c.105-2.875-2.768-4.917-5.448-3.874l-5.444 2.12z"/>
        <path stroke="#CEE4FD" stroke-linecap="round" stroke-miterlimit="10" stroke-width="11" d="M63.077 220.678v-56.356M63.077 175.419c.648 4.011 4.145 6.819 8.063 6.518M63.077 175.419c-.648 4.011-4.145 6.819-8.063 6.518M63.077 166.194c.648 4.011 4.145 6.819 8.063 6.518M63.077 166.194c-.648 4.011-4.145 6.819-8.063 6.518M83.185 246.015v-56.356M83.185 200.756c.648 4.011 4.145 6.819 8.063 6.518M83.185 200.756c-.647 4.011-4.145 6.819-8.063 6.518M83.185 191.531c.648 4.011 4.145 6.818 8.063 6.518M83.185 191.531c-.647 4.011-4.145 6.818-8.063 6.518"/>
        <path fill="url(#l)" d="M88.609 242.182a4 4 0 0 0 .28-5.066l-16.033-21.92c-8.808-12.033-26.163-12.468-35.521-.869l-7.545 9.292c-3.4 4.212-5.278 9.527-5.278 15.009v54.628a4 4 0 0 0 4 4.001h7.809a4 4 0 0 0 2.947-1.296l49.34-53.779z"/>
        <path fill="url(#m)" d="M319.918 297.257l-62.397-97.303c-12.11-18.886-30.211-32.791-51.161-39.376a91.398 91.398 0 0 0-54.69 0c-20.983 6.585-39.083 20.49-51.161 39.376l-62.43 97.303"/>
        <path fill="#C5B3FE" d="M305.717 275.14c-1.546-2.414-5.077-1.686-4.781 1.165.144 1.395.514 2.638 1.27 3.37 2.418 2.339 5.857-.87 4.043-3.704l-.532-.831z"/>
        <path stroke="url(#n)" stroke-linecap="round" stroke-miterlimit="10" stroke-width="11" d="M231.131 297.257v-69.192"/>
        <path stroke="#81B1F9" stroke-linecap="round" stroke-miterlimit="10" stroke-width="11" d="M231.131 238.026c.648 4.011 4.145 6.819 8.063 6.518M231.131 238.026c-.647 4.011-4.144 6.819-8.062 6.518M231.131 247.218c.648 4.011 4.145 6.819 8.063 6.518M231.131 247.218c-.647 4.011-4.144 6.819-8.062 6.518M231.131 228.8c.648 4.012 4.145 6.819 8.063 6.518M231.131 228.8c-.647 4.012-4.144 6.819-8.062 6.518"/>
        <path stroke="url(#o)" stroke-linecap="round" stroke-miterlimit="10" stroke-width="11" d="M164.687 297.257v-38.574"/>
        <path stroke="#81B1F9" stroke-linecap="round" stroke-miterlimit="10" stroke-width="11" d="M164.687 268.644c.647 4.011 4.144 6.819 8.062 6.518M164.687 268.644c-.648 4.011-4.145 6.819-8.063 6.518M164.687 259.419c.647 4.011 4.144 6.818 8.062 6.518M164.687 259.419c-.648 4.011-4.145 6.818-8.063 6.518"/>
        <path fill="#2B2B2B" d="M305.823 248.474a4.001 4.001 0 0 1-.643 4.352l-3.589 4.019c-2.441 2.728-3.044 6.607-1.777 9.91.652 1.7 2.702 2.122 4.352 1.355l23.203-10.79a4.001 4.001 0 0 0 2.157-4.735l-7.263-25.207a4 4 0 0 0-5.48-2.543l-14.468 6.484a4 4 0 0 0-1.991 5.338l5.499 11.817z"/>
        <path stroke="#2B2B2B" stroke-linecap="round" stroke-miterlimit="10" stroke-width="3" d="M271.121 134.74l1.004 7.086M282.551 99.542l9.131 10.062M282.551 102.651l2.591-.635M221.255 104.389l4.922.201M253.15 139.52l-.648-4.78"/>
        <path fill="#DE6381" d="M180.373 107.503c.101-2.099 1.857-4.525 3.898-4.026.968.236 1.775.973 1.981 2.817.227 2.106-.13 3.978-1.392 5.482-1.62 1.96-4.705.263-4.583-2.277l.096-1.996z"/>
        <path stroke="#fff" stroke-linecap="round" stroke-miterlimit="10" stroke-width="3" d="M142.506 157.169l1.749 3.576"/>
        <path stroke="#fff" stroke-linecap="round" stroke-miterlimit="10" stroke-width="2.688" d="M150.375 158.038l3.756-.234"/>
        <path stroke="#fff" stroke-linecap="round" stroke-miterlimit="10" stroke-width="3" d="M148.302 149.614l-1.165 3.844M128.129 151.286l2.073 3.409"/>
        <path stroke="#fff" stroke-linecap="round" stroke-miterlimit="10" stroke-width="2.688" d="M136.095 151.453l3.691-.602"/>
        <path stroke="#fff" stroke-linecap="round" stroke-miterlimit="10" stroke-width="3" d="M133.31 143.23l-.842 3.944M115.015 201.625l1.749 3.577M122.884 202.494l3.756-.267M120.811 194.071l-1.165 3.811M115.015 213.725l1.749 3.577M122.916 214.594l3.724-.234M120.844 206.171l-1.166 3.844M100.638 195.742l2.073 3.41M108.604 195.876l3.691-.568M105.819 187.687l-.842 3.91M101.707 207.809l2.04 3.376M109.64 207.943l3.691-.602M106.855 199.753l-.842 3.911M103.034 221.413l1.749 3.577M110.935 222.283l3.724-.268M108.863 213.859l-1.166 3.811M103.034 233.514l1.781 3.576M110.935 234.383l3.724-.268M108.863 225.959l-1.166 3.844M88.69 215.53l2.04 3.377M96.623 215.664l3.692-.601M93.838 207.475l-.841 3.911M89.726 227.564l2.073 3.409M97.66 227.731l3.691-.602M94.875 219.541l-.842 3.911M138.523 173.715l1.749 3.576M146.424 174.584l3.724-.234M144.352 166.194l-1.166 3.81M125.215 167.798l2.04 3.41M133.148 167.932l3.692-.568M130.363 159.743l-.841 3.91M126.543 181.403l1.781 3.576M134.443 182.272l3.724-.234M132.371 173.848l-1.166 3.844M126.575 193.503l1.748 3.576M134.443 194.372l3.756-.234M132.371 185.982l-1.166 3.81M112.198 175.52l2.072 3.409M120.131 175.653l3.724-.568M117.347 167.464l-.81 3.911M113.234 187.586l2.073 3.41M121.2 187.72l3.691-.568M118.415 179.531l-.842 3.91M91.41 242.238l1.748 3.576M99.31 243.107l3.724-.234M97.238 234.683l-1.165 3.844M91.41 254.338l1.748 3.577M99.31 255.207l3.724-.234M97.238 246.817l-1.165 3.811M77.065 236.355l2.04 3.409M84.999 236.488l3.69-.568M82.214 228.299l-.842 3.911M78.102 248.421l2.04 3.41M86.035 248.555l3.691-.568M83.25 240.366l-.842 3.911M79.43 262.026l1.78 3.576M87.33 262.895l3.724-.267M85.257 254.472l-1.165 3.844M79.462 274.126l1.748 3.577M87.362 274.995l3.724-.234M85.29 266.572l-1.198 3.844M65.085 256.143l2.072 3.409M73.018 256.277l3.724-.569M70.266 248.087l-.842 3.911M66.153 268.21l2.04 3.376M74.086 268.343l3.692-.601M71.302 260.154l-.842 3.911M142.862 209.681l-3.885.334M138.038 203.196l-1.749-3.443M146.068 200.622l-2.558 3.042M132.824 215.998l-3.853.301M128 209.48l-1.716-3.409M136.03 206.94l-2.526 3.008M155.199 219.273l-3.885-.032M150.925 212.355l-1.425-3.577M159.15 210.55l-2.785 2.774M144.676 224.621l-3.886-.032M140.401 217.703l-1.424-3.543M148.626 215.898l-2.785 2.774M132.727 230.539l-3.885.3M127.903 224.021l-1.749-3.41M135.933 221.48l-2.558 3.008M122.689 236.823l-3.853.334M117.865 230.338l-1.749-3.443M125.895 227.764l-2.558 3.042M145.064 240.13l-3.885-.032M140.79 233.213l-1.425-3.577M149.015 231.374l-2.785 2.808M134.541 245.479l-3.886-.032M130.266 238.561l-1.424-3.577M138.491 236.756l-2.785 2.774M153.677 174.45l-1.198 2.841M148.853 167.932l-1.749-3.41M156.883 165.391l-2.558 3.009M165.529 183.107l-3.886-.067M161.254 176.155l-1.424-3.544M169.479 174.35l-2.785 2.774M153.548 188.99l-3.853.301M148.723 182.472l-1.716-3.409M156.786 179.932l-2.558 3.008M143.542 195.274l-2.752 1.805M138.718 188.79l-1.749-3.443M146.748 186.216l-2.558 3.042M165.885 198.582l-3.886-.032M161.643 191.664l-1.425-3.576M169.868 189.859l-2.785 2.775M155.394 203.93l-3.886-.032M151.119 197.012l-1.424-3.576M159.344 195.207l-2.785 2.775M121.524 251.63l-3.854.301M116.699 245.112l-1.716-3.409M124.729 242.572l-2.525 3.008M111.518 257.914l-3.886.335M106.693 251.43l-1.748-3.443M114.724 248.856l-2.558 3.042M133.861 261.222l-3.886-.032M129.619 254.304l-1.457-3.576M137.843 252.499l-2.817 2.775M123.337 266.57l-3.886-.032M119.095 259.653l-1.425-3.577M127.32 257.848l-2.817 2.774M111.389 272.488l-3.854.301M106.564 265.97l-1.749-3.409M114.594 263.43l-2.558 3.008M101.383 278.772l-3.886.301M96.558 272.254l-1.748-3.409M104.589 269.714l-2.558 3.008M123.726 282.047l-3.886-.032M119.484 275.129l-1.457-3.543M127.708 273.324l-2.817 2.774M113.202 287.429l-3.886-.066M108.96 280.51l-1.425-3.576M117.185 278.672l-2.817 2.774"/>
    </g>
    <defs>
        <linearGradient id="b" x1="59.596" x2="59.596" y1="31.053" y2="61.461" gradientUnits="userSpaceOnUse">
            <stop stop-color="#C0DDFC"/>
            <stop offset=".996" stop-color="#fff"/>
        </linearGradient>
        <linearGradient id="c" x1="79.17" x2="79.17" y1="112.676" y2="138.933" gradientUnits="userSpaceOnUse">
            <stop stop-color="#C0DDFC"/>
            <stop offset=".996" stop-color="#fff"/>
        </linearGradient>
        <linearGradient id="d" x1="231.337" x2="231.337" y1="153.143" y2="70.86" gradientUnits="userSpaceOnUse">
            <stop stop-color="#FFE0C2"/>
            <stop offset=".401" stop-color="#7AAEFC"/>
            <stop offset=".591" stop-color="#B8C1FC"/>
            <stop offset="1" stop-color="#D2D4D4"/>
        </linearGradient>
        <linearGradient id="e" x1="278.527" x2="278.527" y1="52.883" y2="122.896" gradientUnits="userSpaceOnUse">
            <stop stop-color="#FFE0C2"/>
            <stop offset=".401" stop-color="#7AAEFC"/>
            <stop offset=".591" stop-color="#B8C1FC"/>
            <stop offset="1" stop-color="#D2D4D4"/>
        </linearGradient>
        <linearGradient id="f" x1="272.887" x2="272.887" y1="153.143" y2="70.86" gradientUnits="userSpaceOnUse">
            <stop stop-color="#FFE0C2"/>
            <stop offset=".401" stop-color="#7AAEFC"/>
            <stop offset=".591" stop-color="#B8C1FC"/>
            <stop offset="1" stop-color="#D2D4D4"/>
        </linearGradient>
        <linearGradient id="g" x1="253.067" x2="253.067" y1="73.9" y2="225.348" gradientUnits="userSpaceOnUse">
            <stop stop-color="#B8A7D3"/>
            <stop offset=".401" stop-color="#ED4861"/>
            <stop offset=".501" stop-color="#F4837D"/>
            <stop offset=".591" stop-color="#FECEAA"/>
            <stop offset="1" stop-color="#B7D5EA"/>
        </linearGradient>
        <linearGradient id="h" x1="297.738" x2="297.738" y1="73.9" y2="225.348" gradientUnits="userSpaceOnUse">
            <stop stop-color="#B8A7D3"/>
            <stop offset=".401" stop-color="#ED4861"/>
            <stop offset=".501" stop-color="#F4837D"/>
            <stop offset=".591" stop-color="#FECEAA"/>
            <stop offset="1" stop-color="#B7D5EA"/>
        </linearGradient>
        <linearGradient id="i" x1="278.552" x2="278.552" y1="153.143" y2="70.86" gradientUnits="userSpaceOnUse">
            <stop stop-color="#FFE0C2"/>
            <stop offset=".401" stop-color="#7AAEFC"/>
            <stop offset=".591" stop-color="#B8C1FC"/>
            <stop offset="1" stop-color="#D2D4D4"/>
        </linearGradient>
        <linearGradient id="j" x1="299.659" x2="299.659" y1="141.641" y2="70.914" gradientUnits="userSpaceOnUse">
            <stop stop-color="#FFE0C2"/>
            <stop offset=".401" stop-color="#7AAEFC"/>
            <stop offset=".591" stop-color="#B8C1FC"/>
            <stop offset="1" stop-color="#D2D4D4"/>
        </linearGradient>
        <linearGradient id="k" x1="110.255" x2="185.896" y1="75.621" y2="75.621" gradientUnits="userSpaceOnUse">
            <stop stop-color="#B8A7D3"/>
            <stop offset=".401" stop-color="#ED4861"/>
            <stop offset=".501" stop-color="#F4837D"/>
            <stop offset=".591" stop-color="#FECEAA"/>
            <stop offset="1" stop-color="#B7D5EA"/>
        </linearGradient>
        <linearGradient id="l" x1="24.512" x2="90.827" y1="251.575" y2="251.575" gradientUnits="userSpaceOnUse">
            <stop stop-color="#FFD8A1"/>
            <stop offset=".996" stop-color="#fff"/>
        </linearGradient>
        <linearGradient id="m" x1="178.999" x2="178.999" y1="157.277" y2="287.406" gradientUnits="userSpaceOnUse">
            <stop stop-color="#C0DDFC"/>
            <stop offset=".996" stop-color="#fff"/>
        </linearGradient>
        <linearGradient id="n" x1="-nan" x2="-nan" y1="-nan" y2="-nan" gradientUnits="userSpaceOnUse">
            <stop offset=".01" stop-color="#81B1F9"/>
            <stop offset=".25" stop-color="#84B3F9"/>
            <stop offset=".421" stop-color="#8DB8FA"/>
            <stop offset=".57" stop-color="#9DC2FA"/>
            <stop offset=".707" stop-color="#B3D0FB"/>
            <stop offset=".836" stop-color="#CFE2FD"/>
            <stop offset=".957" stop-color="#F2F7FE"/>
            <stop offset=".996" stop-color="#fff"/>
        </linearGradient>
        <linearGradient id="o" x1="-nan" x2="-nan" y1="-nan" y2="-nan" gradientUnits="userSpaceOnUse">
            <stop offset=".01" stop-color="#81B1F9"/>
            <stop offset=".25" stop-color="#84B3F9"/>
            <stop offset=".421" stop-color="#8DB8FA"/>
            <stop offset=".57" stop-color="#9DC2FA"/>
            <stop offset=".707" stop-color="#B3D0FB"/>
            <stop offset=".836" stop-color="#CFE2FD"/>
            <stop offset=".957" stop-color="#F2F7FE"/>
            <stop offset=".996" stop-color="#fff"/>
        </linearGradient>
        <clipPath id="a">
            <path fill="#fff" d="M0 0h357.976v360.978H0z"/>
        </clipPath>
    </defs>
</svg>
