<svg width="228" height="47" viewBox="0 0 228 47" fill="none" xmlns="http://www.w3.org/2000/svg">
<path d="M0 47H10.3821V0H0V47Z" fill="#FFFFFF"/>
<path d="M29.9033 22.097V0H19.5212V11.7851C19.5212 17.4672 24.1511 22.097 29.9033 22.097ZM33.6914 22.097C39.4436 22.097 44.0735 17.4672 44.0735 11.7851V0H33.6914V22.097ZM19.5212 47H29.9033V24.8328C24.1511 24.8328 19.5212 29.4627 19.5212 35.1448V47ZM33.6914 47H44.0735V35.1448C44.0735 29.4627 39.4436 24.8328 33.6914 24.8328V47Z" fill="#FFFFFF"/>
<path d="M53.1874 47H63.5695V0H53.1874V47ZM67.3575 47C73.0396 47 77.7396 42.3701 77.7396 36.6881V10.4522C77.7396 4.7 73.0396 0 67.3575 0V47Z" fill="#FFFFFF"/>
<path d="M104.388 47H114.77V0H104.388V47ZM128.239 13.3985V0H117.857V3.08656C117.857 8.76866 122.487 13.3985 128.239 13.3985ZM128.239 28.6209V18.309H117.857C117.857 23.991 122.487 28.6209 128.239 28.6209ZM117.857 47H128.239V33.5313C122.487 33.5313 117.857 38.1612 117.857 43.8433V47Z" fill="#FFFFFF"/>
<path d="M147.033 22.097V0H136.651V11.7851C136.651 17.4672 141.281 22.097 147.033 22.097ZM150.821 22.097C156.574 22.097 161.204 17.4672 161.204 11.7851V0H150.821V22.097ZM136.651 47H147.033V24.8328C141.281 24.8328 136.651 29.4627 136.651 35.1448V47ZM150.821 47H161.204V35.1448C161.204 29.4627 156.574 24.8328 150.821 24.8328V47Z" fill="#FFFFFF"/>
<path d="M170.317 47H180.7V0H170.317V47ZM184.488 28.6209C190.24 28.6209 194.87 23.991 194.87 18.309V10.3119C194.87 4.62985 190.17 0 184.488 0V28.6209Z" fill="#FFFFFF"/>
<path d="M213.648 47V0C207.966 0 203.266 4.7 203.266 10.4522V36.6881C203.266 42.3701 207.966 47 213.648 47ZM217.436 47C223.118 47 227.818 42.3701 227.818 36.6881V10.4522C227.818 4.7 223.118 0 217.436 0V47Z" fill="#FFFFFF"/>
</svg>
