<svg xmlns="http://www.w3.org/2000/svg" width="350" height="298" fill="none" viewBox="0 0 350 298">
    <g clip-path="url(#a)">
        <g opacity=".3">
            <path fill="#C4ECFE" d="M348.791 2.088v294.448H1.393V2.088H348.79zm1.136-1.135H.257V297.67h349.67V.953z" opacity=".3"/>
            <g stroke="#C4ECFE" stroke-miterlimit="10" stroke-width="2.913" opacity=".3">
                <path d="M.257 211.858h349.67M.257 169.354h349.67M.257 211.858h349.67M.257 254.325h349.67M.257 126.888h349.67M.257 84.384h349.67M.257 41.917h349.67" opacity=".3"/>
            </g>
        </g>
        <path fill="#BFD9FF" d="M331.052 78.93a1.502 1.502 0 1 0 .002-3.004 1.502 1.502 0 0 0-.002 3.004zM151.215 227.966a1.502 1.502 0 1 0 0-3.004 1.502 1.502 0 0 0 0 3.004zM276.115 18.305a1.502 1.502 0 1 0 .002-3.004 1.502 1.502 0 0 0-.002 3.004zM182.55 67.361a1.501 1.501 0 1 0 0-3.002 1.502 1.502 0 1 0 0 3.002zM12.717 70.217a1.502 1.502 0 1 0 .002-3.004 1.502 1.502 0 0 0-.002 3.004zM286.597 182.717a1.39 1.39 0 1 0 0-2.782 1.392 1.392 0 0 0 0 2.782zM20.12 186.012a1.392 1.392 0 1 0 .002-2.784 1.392 1.392 0 0 0-.002 2.784z"/>
        <path fill="#BE6361" d="M103.387 63.297v81.017c0 12.118-9.822 21.929-21.952 21.929H52.298c-12.13 0-21.952-9.811-21.952-21.929V63.297"/>
        <path fill="#2B2B2B" d="M30.346 63.298c0-12.118 9.822-21.93 21.952-21.93h29.137c12.13 0 21.952 9.812 21.952 21.93"/>
        <path fill="url(#b)" d="M86.419 96.612l-4.911-18.378c-2.016-7.505 2.455-15.23 10.005-17.243 7.513-2.013 15.246 2.453 17.262 9.995l5.277 19.769"/>
        <path fill="#FDC068" d="M114.052 90.718l8.21 30.752-1.576-3.661 22.759 45.102a10.162 10.162 0 0 1-4.508 13.656c-4.544 2.269-9.968.842-12.864-3.149l-29.539-41.002a9.53 9.53 0 0 1-1.356-2.819l-.22-.879-8.612-32.18"/>
        <path fill="#2B2B2B" d="M110.168 113.489l13.34 56.781-15.466-21.49 2.126-35.291z"/>
        <path fill="url(#c)" d="M109.435 105.618c.623-13.802-8.906-13.582-4.838-22.662 4.068-9.079.44-22.295-10.152-22.734-8.173-.366-8.722-.732-12.167-.879-10.885-.476-18.912 10.251-16.236 20.831 0 0 .733 2.38.513 5.491-.22 3.112-8.1 7.396-8.503 16.841l51.383 3.112z"/>
        <path fill="#2B2B2B" d="M107.126 94.855L104.01 89.4l.843-4.247c1.906-6.81-.403-14.095-5.827-18.634l-8.54-7.066 3.52-4.21 8.539 7.066c7.109 5.894 10.115 15.449 7.623 24.308l-3.042 8.237z"/>
        <path fill="url(#d)" d="M109.471 104.776s1.869 22.258 2.199 25.956a451.82 451.82 0 0 1 1.54 22.222c.696 14.863.842 29.727.549 44.627-.11 7.468-.366 14.9-.659 22.368-.147 3.734-.367 7.468-.513 11.202l-.33 5.602c-.11 1.867-.22 3.734-.367 5.601l-.403 5.601-.44 5.601c-.146 1.867-.33 3.734-.476 5.601l-.257 2.819-.293 2.819-.586 5.638-.294 2.819-.366 2.819c-.257 1.867-.44 3.734-.733 5.638-.293 1.867-.806 5.381-1.099 7.248L80.482 287.2l-6.304-87.093-5.607-88.998 40.9-6.333z"/>
        <path fill="url(#e)" d="M92.21 116.088l-.11 1.354-.147 1.355-.257 2.672-.66 5.309c-.22 1.794-.476 3.551-.732 5.308l-.807 5.309c-1.1 7.065-2.418 14.058-3.811 21.05-1.393 6.992-2.969 13.948-4.581 20.904-1.686 6.956-3.409 13.875-5.278 20.794l-.843 3.185-.146.329a869.18 869.18 0 0 1-10.189 20.245l-2.602 5.053-2.675 5.015c-1.76 3.331-3.629 6.663-5.424 9.994-3.702 6.627-7.477 13.253-11.435 19.769-3.995 6.517-7.99 13.033-12.387 19.403l-23.75-12.264 31.19-81.785-1.027 3.551 16.126-84.092 39.544 7.542z"/>
        <path fill="#2B2B2B" d="M41.78 167.561c9.566-3.075 38.152-1.245 41.267 3.515l3.848-17.39-43.795 1.062-1.32 12.813z"/>
        <path fill="url(#f)" d="M58.052 102.506c-.33 7.285 6.817 18.524 19.498 19.183l10.262.22c11.58.586 21.329-9.262 21.659-17.133l-51.419-2.27z"/>
        <path fill="#FDC068" d="M99.136 52.79l-9.529-.915c-4.91-.476-8.539-4.832-8.063-9.775l1.393-14.35c.77-7.871 7.77-13.619 15.65-12.887 7.879.769 13.633 7.761 12.9 15.632l-1.283 13.143c-.513 5.601-5.497 9.702-11.068 9.152z"/>
        <path fill="#2B2B2B" d="M111.45 36.28a1.612 1.612 0 1 0 .002-3.224 1.612 1.612 0 0 0-.002 3.224z"/>
        <path fill="#FDC068" d="M90.084 68.313l-11.765-5.675 3.922-26.98 15.173 1.464-1.246 27.566c-.147 3.039-3.372 4.943-6.084 3.625z"/>
        <path stroke="#2B2B2B" stroke-linecap="round" stroke-miterlimit="10" stroke-width="2.609" d="M106.979 33.9l1.796 2.6c.366.512.22 1.244-.33 1.573l-1.393.66M107.126 42.833s-1.723 2.417-4.142-.147"/>
        <path fill="#2B2B2B" d="M98.33 52.717l-7.843-.769 5.937 6.773 1.906-6.004zM102.141 35.474a1.612 1.612 0 1 0 .002-3.224 1.612 1.612 0 0 0-.002 3.224z"/>
        <path fill="#F4E1E1" d="M23.09 113.746a.47.47 0 0 1-.367-.147c-.11-.073-.147-.219-.147-.366l.33-22.844a.5.5 0 0 1 .513-.513c23.126.147 46.581.55 69.89.952.147 0 .257.073.367.147.11.11.146.22.146.366-.11 7.615-.22 15.229-.293 22.844 0 .293-.22.476-.513.476a610.546 610.546 0 0 0-69.927-.915z"/>
        <path fill="#BE6361" d="M23.419 90.425c23.272.256 46.581.55 69.853.952-.11 7.615-.22 15.229-.293 22.844-23.272-1.574-46.544-1.867-69.89-.952l.33-22.844zm0-1.025c-.55 0-.99.44-1.026.988l-.33 22.881a1 1 0 0 0 .293.696c.183.183.44.293.696.256 23.31-.952 46.581-.659 69.89.952.257 0 .514-.073.697-.256.183-.183.293-.44.293-.696l.33-22.88c0-.55-.44-1.026-.99-1.026C70 89.985 46.728 89.73 23.42 89.4z"/>
        <path fill="#F4E1E1" d="M22.466 159.471c-.146.036-.256 0-.366-.11-.11-.074-.147-.183-.147-.33l.33-22.917c0-.293.22-.513.513-.549 23.052-2.343 46.728-1.941 69.89.915.293.036.513.293.513.549-.11 7.615-.22 15.193-.293 22.808a.463.463 0 0 1-.147.329c-.11.073-.22.11-.366.073-23.09-4.063-46.765-4.283-69.927-.768z"/>
        <path fill="#BE6361" d="M22.796 136.077c23.346-2.087 46.581-1.794 69.89.915a4710.7 4710.7 0 0 0-.293 22.771c-23.31-3.844-46.508-4.064-69.89-.805.073-7.615.183-15.267.293-22.881zm0-1.025c-.55.073-.99.549-1.026 1.098-.11 7.651-.22 15.303-.293 22.954 0 .256.11.513.293.659a.92.92 0 0 0 .696.183c23.382-3.331 46.581-3.112 69.89.805.55.074.99-.292.99-.842.11-7.614.22-15.229.293-22.807 0-.256-.11-.549-.293-.769-.184-.22-.44-.366-.697-.366-23.235-2.636-46.508-2.929-69.853-.915z"/>
        <path fill="#D6C1C1" d="M22.796 136.59a.62.62 0 0 1-.366-.11c-.11-.073-.147-.22-.147-.33l.33-22.88c0-.293.22-.513.513-.513 23.125-1.098 46.618-.659 69.89.952.146 0 .256.073.366.183.11.11.147.22.147.366-.11 7.615-.22 15.23-.293 22.808 0 .293-.22.476-.513.439-23.2-2.929-46.691-3.185-69.927-.915z"/>
        <path fill="#BE6361" d="M23.126 113.232c23.309-.878 46.581-.622 69.89.952-.11 7.615-.22 15.193-.293 22.808-23.273-2.709-46.545-3.002-69.89-.915.073-7.615.183-15.23.293-22.845zm-.037-1.025c-.55.037-.99.513-1.026 1.062l-.33 22.918c0 .256.11.512.293.695.184.183.44.256.697.22 23.345-2.124 46.58-1.867 69.89.915.55.073.99-.329 1.026-.879.11-7.614.22-15.229.293-22.844 0-.256-.11-.549-.293-.732a.902.902 0 0 0-.696-.33c-23.236-1.574-46.508-1.867-69.854-1.025.037 0 .037 0 0 0z"/>
        <path fill="#D4B0D6" d="M77.33 135.455c-2.675 3.038-5.387 6.077-8.063 9.115-1.21 1.355-3.371 1.575-4.91.44a675.778 675.778 0 0 0-14.477-10.031c9.162-.147 18.288 0 27.45.476z"/>
        <path fill="#C595C8" d="M44.2 112.683c2.271 1.684 3.37 2.526 5.643 4.21-.147 5.894-.33 11.825-.476 17.719l.55.366c9.162-.183 18.287 0 27.45.476a602.325 602.325 0 0 0-5.095-8.054c5.791-4.466 11.545-8.933 17.299-13.435-15.136-.952-30.236-1.355-45.372-1.282z"/>
        <path fill="#D4B0D6" d="M44.2 112.684c-2.31-2.709-4.655-5.418-6.964-8.127-2.163-2.673-1.21-6.517 1.796-8.055 3.994-1.94 7.99-3.88 11.984-5.784 10.262.147 20.487.257 30.748.44 2.64 7.578 5.241 15.192 7.807 22.807-15.136-.952-30.236-1.354-45.372-1.281z"/>
        <path stroke="#BE6361" stroke-linecap="round" stroke-linejoin="round" stroke-width="3" d="M62.743 96.282c.184.257.294.403.477.66"/>
        <path stroke="#BE6361" stroke-dasharray="5.19 10.37" stroke-linecap="round" stroke-linejoin="round" stroke-width="3" d="M65.163 99.724c2.602 3.77 5.204 7.505 7.77 11.312"/>
        <path stroke="#BE6361" stroke-linecap="round" stroke-linejoin="round" stroke-width="3" d="M73.885 112.463c.183.293.293.403.477.696-.257.183-.404.257-.697.44"/>
        <path stroke="#BE6361" stroke-dasharray="5.42 10.85" stroke-linecap="round" stroke-linejoin="round" stroke-width="3" d="M70.697 115.612c-3.995 2.672-7.953 5.345-11.911 8.017"/>
        <path stroke="#BE6361" stroke-linecap="round" stroke-linejoin="round" stroke-width="3" d="M57.283 124.654c-.257.183-.403.293-.696.476.22.257.33.367.513.623"/>
        <path stroke="#BE6361" stroke-dasharray="4.11 8.21" stroke-linecap="round" stroke-linejoin="round" stroke-width="3" d="M58.822 127.839c1.723 2.087 2.566 3.149 4.288 5.235"/>
        <path stroke="#BE6361" stroke-linecap="round" stroke-linejoin="round" stroke-width="3" d="M63.99 134.136c.22.257.33.403.513.66a8.193 8.193 0 0 0-.66.512"/>
        <path stroke="#BE6361" stroke-dasharray="4.9 9.81" stroke-linecap="round" stroke-linejoin="round" stroke-width="3" d="M61.278 137.248c-2.566 1.977-3.849 2.965-6.414 5.016"/>
        <path stroke="#BE6361" stroke-linecap="round" stroke-linejoin="round" stroke-width="3" d="M53.581 143.289a8.409 8.409 0 0 1-.66.513c-.256-.184-.402-.294-.659-.477"/>
        <path stroke="#BE6361" stroke-dasharray="4.98 9.95" stroke-linecap="round" stroke-linejoin="round" stroke-width="3" d="M49.66 141.385c-2.64-1.941-3.958-2.892-6.56-4.796"/>
        <path stroke="#BE6361" stroke-linecap="round" stroke-linejoin="round" stroke-width="3" d="M41.78 135.638c-.256-.183-.403-.293-.66-.476-.22.256-.33.403-.512.659"/>
        <path stroke="#BE6361" stroke-dasharray="3.96 7.93" stroke-linecap="round" stroke-linejoin="round" stroke-width="3" d="M38.885 137.943c-1.686 2.124-2.529 3.185-4.215 5.382"/>
        <path stroke="#BE6361" stroke-linecap="round" stroke-linejoin="round" stroke-width="3" d="M33.864 144.387c-.22.293-.33.403-.513.696"/>
        <path fill="#F4E1E1" d="M62.707 98.626c-1.356 0-2.456-1.098-2.456-2.416 0-1.282 1.136-2.343 2.492-2.343h.037c1.356 0 2.456 1.098 2.456 2.416-.037 1.318-1.137 2.343-2.53 2.343.037 0 0 0 0 0z"/>
        <path fill="#BE6361" d="M62.743 94.379c.037 0 .037 0 0 0 1.1 0 1.98.878 1.98 1.903s-.88 1.867-1.98 1.867h-.036c-1.1 0-1.943-.878-1.943-1.903.037-1.025.917-1.867 1.98-1.867zm0-.952c-1.612 0-2.968 1.244-2.968 2.819-.037 1.574 1.283 2.855 2.932 2.892h.036c1.613 0 2.97-1.245 2.97-2.82 0-.768-.294-1.5-.844-2.05-.55-.548-1.32-.841-2.089-.878 0 .037 0 .037-.037.037z"/>
        <path fill="#F4E1E1" d="M38.372 108.108a2.394 2.394 0 0 1-2.456-2.38c.037-1.318 1.136-2.379 2.492-2.416h.037c1.356 0 2.456 1.062 2.456 2.38-.037 1.318-1.173 2.416-2.53 2.416.037 0 0 0 0 0z"/>
        <path fill="#BE6361" d="M38.408 103.824c1.1 0 1.98.842 1.98 1.904 0 1.025-.88 1.903-1.98 1.903h-.036c-1.1 0-1.943-.842-1.943-1.903 0-1.025.88-1.904 1.98-1.904zm0-.989c-1.612.037-2.968 1.355-2.968 2.929 0 .769.293 1.501.843 2.05.55.549 1.282.842 2.089.806h.036c1.613-.037 2.969-1.355 2.969-2.892.037-1.575-1.283-2.893-2.932-2.856l-.037-.037z"/>
        <path fill="#F4E1E1" d="M79.382 129.012a2.714 2.714 0 0 1-1.759-.806c-.476-.476-.696-1.098-.696-1.757 0-1.318 1.136-2.306 2.492-2.233h.037c1.356.073 2.455 1.244 2.455 2.562-.037 1.318-1.136 2.307-2.529 2.234.037 0 0 0 0 0z"/>
        <path fill="#BE6361" d="M79.419 124.691c1.1.074 1.98.989 1.98 2.05 0 1.062-.88 1.831-1.98 1.758h-.037c-1.1-.074-1.942-.989-1.942-2.05.037-1.026.88-1.794 1.979-1.758zm0-.988c-1.612-.073-2.968 1.135-2.968 2.709-.037 1.574 1.282 2.965 2.931 3.075h.037c1.613.11 2.969-1.098 2.969-2.672 0-.769-.294-1.538-.843-2.124-.55-.585-1.283-.952-2.09-.988h-.036z"/>
        <path fill="#F4E1E1" d="M52.372 146.621c-.66 0-1.283-.22-1.76-.659-.476-.439-.696-1.025-.696-1.647.037-1.282 1.137-2.38 2.492-2.417h.037c1.356 0 2.456 1.062 2.456 2.38 0 1.245-1.137 2.306-2.53 2.343.037 0 .037 0 0 0z"/>
        <path fill="#BE6361" d="M52.408 142.374c.037 0 .037 0 0 0 1.137 0 1.98.842 1.98 1.867s-.88 1.867-1.98 1.903h-.036c-1.1 0-1.98-.805-1.943-1.867a2.005 2.005 0 0 1 1.98-1.903zm0-.989c-1.612.037-2.968 1.355-3.005 2.892 0 .769.293 1.465.843 2.014.55.512 1.32.805 2.09.805h.036c1.612-.036 2.968-1.318 3.005-2.855 0-.769-.293-1.465-.843-2.014-.55-.549-1.32-.842-2.089-.842h-.037z"/>
        <path fill="url(#g)" d="M51.2 74.61l14.879-10.727c6.303-4.54 15.136-3.111 19.68 3.185 4.545 6.297 3.115 15.12-3.188 19.66l-13.56 9.774"/>
        <path fill="#FDC068" d="M69.047 96.502l-26.24 18.927 4.984-16.328 13.047 46.568c1.54 5.418-1.65 11.019-7.074 12.557-4.874 1.354-9.931-1.062-11.984-5.492l-20.487-43.821c-2.638-5.638-.77-12.191 4.068-15.706l.88-.622 24.921-17.938"/>
        <path fill="#2B2B2B" d="M127.026 296.719l-42.366-.183c-2.2 0-4.032-1.794-4.068-3.991l-.11-5.345 26.754.366 20.267 5.089c2.419.622 1.979 4.1-.477 4.064zM46.105 296.719L6.78 281.087c-2.052-.806-3.078-3.112-2.309-5.199l1.87-5.015 24.774 10.14 17.005 12.155c1.943 1.391.257 4.466-2.015 3.551z"/>
        <path fill="#5D5D5D" d="M111.56 28.592l-17.958-1.428-1.026 9.482h-5.058l-6.89 9.811 2.456-19.696c.916-6.7 7.036-11.861 13.78-11.678l1.76.037c7.292.183 13.046 6.186 12.936 13.472z"/>
        <path fill="#FDC068" d="M90.047 40.416l-3.115-.366c-1.723-.22-2.969-1.757-2.749-3.478l.44-3.587c.22-1.72 1.76-2.966 3.482-2.746 1.722.22 2.968 1.757 2.748 3.478l-.806 6.7z"/>
        <path fill="#BE6361" d="M102.068 9.116a9.403 9.403 0 0 1-5.497-.476l-.513-.22c-5.718-2.38-12.131 1.501-12.681 7.651l-.916 10.068 29.869 2.746.916-9.958c.55-6.187-5.094-11.166-11.178-9.811z"/>
        <path fill="#2B2B2B" d="M83.046 19.233l-.634 6.89 29.853 2.744.634-6.89-29.853-2.744z"/>
        <path stroke="#BE6361" stroke-linecap="round" stroke-miterlimit="10" stroke-width="3.31" d="M66.299 24.675l62.12 5.674"/>
        <path fill="#2B2B2B" d="M87.592 90.278l-5.79-.073 1.502-5.015c1.906-6.81-.403-14.095-5.828-18.635l-8.539-7.065 3.519-4.21 8.539 7.065c7.11 5.895 10.115 15.45 7.623 24.309l-1.026 3.624z"/>
        <path stroke="#2B2B2B" stroke-linecap="round" stroke-miterlimit="10" stroke-width="3.31" d="M30.346 77.136h11.47a4.541 4.541 0 0 0 4.545-4.54v-3.844"/>
        <path stroke="#2B2B2B" stroke-linecap="round" stroke-miterlimit="10" stroke-width="2.609" d="M106.576 92.292l2.895 12.081M84.66 163.644l-8.21 35.291s-1.796 5.125-2.419 6.407M36.833 190.808v10.69M48.377 101.334l2.382 8.347M118.194 118.761l3.775 1.538M100.749 9.3l-6.45 1.83"/>
        <path fill="#2B2B2B" d="M144.105 296.133H.257v1.502h143.848v-1.502z"/>
        <path fill="#fff" stroke="#F9D0B5" stroke-linejoin="round" stroke-miterlimit="10" stroke-width="5" d="M215.717 146.584h25.068V110.78h-25.068l-14.879 17.902 14.879 17.902zM228.435 87.057h24.261V50.411h-24.261l-7.99 18.305 7.99 18.341z"/>
        <path fill="#fff" stroke="#F9D0B5" stroke-linejoin="round" stroke-miterlimit="10" stroke-width="5" d="M272.304 19.843L256.545 5.235l-15.76 14.608v276.729h31.519V19.842z"/>
        <path fill="#2B2B2B" stroke="#2B2B2B" stroke-linejoin="round" stroke-miterlimit="10" stroke-width="5" d="M252.22 184.584l-11.435 13.802.074-17.06 11.361 3.258zM252.22 119.933l-11.435 13.801.074-17.096 11.361 3.295zM287.88 119.64h-29.466V82.994h29.466l12.204 16.547-12.204 20.099z"/>
        <path fill="#F9D0B5" stroke="#F9D0B5" stroke-linejoin="round" stroke-miterlimit="10" stroke-width="5" d="M256.545 296.902V5.235l15.759 14.608v276.729l-15.759.33z"/>
        <path fill="#2B2B2B" stroke="#2B2B2B" stroke-linejoin="round" stroke-miterlimit="10" stroke-width="5" d="M269.372 163.644l2.932 7.981v-11.862l-2.932 3.881zM260.393 87.057l12.644 15.303V81.566l-12.644 5.491z"/>
        <path fill="#F9D0B5" stroke="#F9D0B5" stroke-linejoin="round" stroke-miterlimit="10" stroke-width="5" d="M308.22 163.644h-33.901V127.84h33.901l14.879 17.902-14.879 17.902z"/>
        <path fill="#fff" stroke="#F9D0B5" stroke-linejoin="round" stroke-miterlimit="10" stroke-width="5" d="M303.272 163.644h-33.9V127.84h33.9l14.88 17.902-14.88 17.902z"/>
        <path fill="#F9D0B5" stroke="#F9D0B5" stroke-linejoin="round" stroke-miterlimit="10" stroke-width="5" d="M272.304 283.869h-31.519v12.667h31.519v-12.667zM272.304 256.961h-31.519v12.667h31.519v-12.667zM272.304 230.053h-31.519v12.667h31.519v-12.667z"/>
        <path fill="#2B2B2B" stroke="#2B2B2B" stroke-linejoin="round" stroke-miterlimit="10" stroke-width="5" d="M272.304 283.869h-15.759v12.667h15.759v-12.667zM272.304 256.961h-15.759v12.667h15.759v-12.667zM272.304 230.053h-15.759v12.667h15.759v-12.667z"/>
        <path fill="#F9D0B5" stroke="#F9D0B5" stroke-linejoin="round" stroke-miterlimit="10" stroke-width="5" d="M272.304 29.324h-31.519v12.667h31.519V29.324z"/>
        <path fill="#2B2B2B" stroke="#2B2B2B" stroke-linejoin="round" stroke-miterlimit="10" stroke-width="5" d="M272.304 29.324h-15.759v12.667h15.759V29.324z"/>
        <path fill="#fff" stroke="#F9D0B5" stroke-linejoin="round" stroke-miterlimit="10" stroke-width="5" d="M217.99 184.584h29.502v-36.646H217.99l-12.205 16.548 12.205 20.098z"/>
        <path fill="#F9D0B5" stroke="#F9D0B5" stroke-linejoin="round" stroke-miterlimit="10" stroke-width="5" d="M223.231 184.584h29.466v-36.646h-29.466l-12.205 16.548 12.205 20.098z"/>
        <path fill="#fff" stroke="#F9D0B5" stroke-linejoin="round" stroke-miterlimit="10" stroke-width="5" d="M209.267 119.64h38.225V82.994h-38.225l-9.565 16.547 9.565 20.099z"/>
        <path fill="#F9D0B5" stroke="#F9D0B5" stroke-linejoin="round" stroke-miterlimit="10" stroke-width="5" d="M214.508 119.64h38.188V82.994h-38.188l-9.566 16.547 9.566 20.099zM289.895 87.057h-24.261V50.411h24.261l7.99 18.305-7.99 18.341z"/>
        <path fill="#fff" stroke="#F9D0B5" stroke-linejoin="round" stroke-miterlimit="10" stroke-width="5" d="M284.654 87.057h-24.261V50.411h24.261l7.99 18.305-7.99 18.341z"/>
        <path fill="url(#h)" d="M247.419 297.671c29.172 0 28.256-44.225 53.654-50.082 10.152-2.343 15.649-9.811 20.34-17.975 7.807-13.546 28.514-8.054 28.514 7.578v60.479H247.419z"/>
        <path stroke="#F9D5FF" stroke-miterlimit="10" stroke-width="10" d="M152.607 42.284c12.425 0 36.613-40.27 54.571-40.27"/>
    </g>
    <defs>
        <linearGradient id="b" x1="97.538" x2="97.538" y1="112.71" y2="59.546" gradientUnits="userSpaceOnUse">
            <stop stop-color="#6B9C83"/>
            <stop offset=".401" stop-color="#A6A6A4"/>
            <stop offset=".501" stop-color="#9F9FC8"/>
            <stop offset=".591" stop-color="#9FCCEC"/>
            <stop offset="1" stop-color="#FFE7B0"/>
        </linearGradient>
        <linearGradient id="c" x1="83.758" x2="83.758" y1="112.71" y2="59.545" gradientUnits="userSpaceOnUse">
            <stop stop-color="#6B9C83"/>
            <stop offset=".401" stop-color="#A6A6A4"/>
            <stop offset=".501" stop-color="#9F9FC8"/>
            <stop offset=".591" stop-color="#9FCCEC"/>
            <stop offset="1" stop-color="#FFE7B0"/>
        </linearGradient>
        <linearGradient id="d" x1="91.236" x2="91.236" y1="288.097" y2="99.034" gradientUnits="userSpaceOnUse">
            <stop stop-color="#77879D"/>
            <stop offset=".089" stop-color="#A1978E"/>
            <stop offset=".188" stop-color="#C9A780"/>
            <stop offset=".279" stop-color="#E5B275"/>
            <stop offset=".358" stop-color="#F7B96F"/>
            <stop offset=".415" stop-color="#FDBB6D"/>
            <stop offset=".499" stop-color="#FDBB9F"/>
            <stop offset=".599" stop-color="#D1D2D1"/>
            <stop offset="1" stop-color="#FECEAA"/>
        </linearGradient>
        <linearGradient id="e" x1="49.293" x2="49.293" y1="288.251" y2="102.956" gradientUnits="userSpaceOnUse">
            <stop stop-color="#77879D"/>
            <stop offset=".089" stop-color="#A1978E"/>
            <stop offset=".188" stop-color="#C9A780"/>
            <stop offset=".279" stop-color="#E5B275"/>
            <stop offset=".358" stop-color="#F7B96F"/>
            <stop offset=".415" stop-color="#FDBB6D"/>
            <stop offset=".499" stop-color="#FDBB9F"/>
            <stop offset=".599" stop-color="#D1D2D1"/>
            <stop offset="1" stop-color="#FECEAA"/>
        </linearGradient>
        <linearGradient id="f" x1="83.756" x2="83.756" y1="288.251" y2="102.956" gradientUnits="userSpaceOnUse">
            <stop stop-color="#77879D"/>
            <stop offset=".089" stop-color="#A1978E"/>
            <stop offset=".188" stop-color="#C9A780"/>
            <stop offset=".279" stop-color="#E5B275"/>
            <stop offset=".358" stop-color="#F7B96F"/>
            <stop offset=".415" stop-color="#FDBB6D"/>
            <stop offset=".499" stop-color="#FDBB9F"/>
            <stop offset=".599" stop-color="#D1D2D1"/>
            <stop offset="1" stop-color="#FECEAA"/>
        </linearGradient>
        <linearGradient id="g" x1="69.808" x2="69.808" y1="112.71" y2="59.546" gradientUnits="userSpaceOnUse">
            <stop stop-color="#6B9C83"/>
            <stop offset=".401" stop-color="#A6A6A4"/>
            <stop offset=".501" stop-color="#9F9FC8"/>
            <stop offset=".591" stop-color="#9FCCEC"/>
            <stop offset="1" stop-color="#FFE7B0"/>
        </linearGradient>
        <linearGradient id="h" x1="298.673" x2="298.673" y1="235.497" y2="295.182" gradientUnits="userSpaceOnUse">
            <stop stop-color="#FFD8A1"/>
            <stop offset=".996" stop-color="#fff"/>
        </linearGradient>
        <clipPath id="a">
            <path fill="#fff" d="M0 0h350v298H0z"/>
        </clipPath>
    </defs>
</svg>
