<svg width="540" height="528" viewBox="0 0 540 528" fill="none" xmlns="http://www.w3.org/2000/svg">
<g opacity="0.3">
<g opacity="0.3">
<path opacity="0.3" d="M501.463 39.4157V432.254H38.4877V39.4157H501.463ZM502.978 37.9016H36.9736V433.768H502.978V37.9016Z" fill="#C4ECFE"/>
</g>
<g opacity="0.3">
<path opacity="0.3" d="M36.9736 319.282H502.978" stroke="#C4ECFE" stroke-width="2.9133" stroke-miterlimit="10"/>
<path opacity="0.3" d="M36.9736 262.576H502.978" stroke="#C4ECFE" stroke-width="2.9133" stroke-miterlimit="10"/>
<path opacity="0.3" d="M36.9736 319.282H502.978" stroke="#C4ECFE" stroke-width="2.9133" stroke-miterlimit="10"/>
<path opacity="0.3" d="M36.9736 375.939H502.978" stroke="#C4ECFE" stroke-width="2.9133" stroke-miterlimit="10"/>
<path opacity="0.3" d="M36.9736 205.919H502.978" stroke="#C4ECFE" stroke-width="2.9133" stroke-miterlimit="10"/>
<path opacity="0.3" d="M36.9736 149.213H502.978" stroke="#C4ECFE" stroke-width="2.9133" stroke-miterlimit="10"/>
<path opacity="0.3" d="M36.9736 92.5562H502.978" stroke="#C4ECFE" stroke-width="2.9133" stroke-miterlimit="10"/>
</g>
</g>
<path d="M173.634 433.768C134.756 433.768 135.977 374.767 102.129 366.952C88.5998 363.826 81.2735 353.862 75.0217 342.97C64.6183 324.899 37.0224 332.225 37.0224 353.081V433.768H173.634Z" fill="url(#paint0_linear)"/>
<path d="M60.4667 185.942C61.5727 185.942 62.4692 185.046 62.4692 183.94C62.4692 182.834 61.5727 181.937 60.4667 181.937C59.3607 181.937 58.4642 182.834 58.4642 183.94C58.4642 185.046 59.3607 185.942 60.4667 185.942Z" fill="#BFD9FF"/>
<path d="M470.253 290.074C471.359 290.074 472.256 289.177 472.256 288.071C472.256 286.965 471.359 286.069 470.253 286.069C469.147 286.069 468.251 286.965 468.251 288.071C468.251 289.177 469.147 290.074 470.253 290.074Z" fill="#BFD9FF"/>
<path d="M449.251 75.217C450.357 75.217 451.254 74.3204 451.254 73.2144C451.254 72.1085 450.357 71.2119 449.251 71.2119C448.145 71.2119 447.249 72.1085 447.249 73.2144C447.249 74.3204 448.145 75.217 449.251 75.217Z" fill="#BFD9FF"/>
<path d="M383.168 175.978C384.273 175.978 385.17 175.082 385.17 173.976C385.17 172.87 384.273 171.973 383.168 171.973C382.062 171.973 381.165 172.87 381.165 173.976C381.165 175.082 382.062 175.978 383.168 175.978Z" fill="#BFD9FF"/>
<path d="M206.749 87.5253C207.855 87.5253 208.752 86.6288 208.752 85.5228C208.752 84.4168 207.855 83.5203 206.749 83.5203C205.643 83.5203 204.747 84.4168 204.747 85.5228C204.747 86.6288 205.643 87.5253 206.749 87.5253Z" fill="#BFD9FF"/>
<path d="M361.726 339.112C362.751 339.112 363.582 338.281 363.582 337.256C363.582 336.231 362.751 335.4 361.726 335.4C360.701 335.4 359.87 336.231 359.87 337.256C359.87 338.281 360.701 339.112 361.726 339.112Z" fill="#BFD9FF"/>
<path d="M62.6501 287.662C63.6701 287.561 64.4151 286.653 64.3141 285.632C64.2131 284.612 63.3043 283.867 62.2843 283.968C61.2643 284.069 60.5193 284.978 60.6203 285.998C60.7213 287.018 61.63 287.763 62.6501 287.662Z" fill="#BFD9FF"/>
<path d="M422.583 202.695C422.583 202.695 420.19 190.876 424.244 185.308" stroke="#E8E993" stroke-width="10" stroke-miterlimit="10"/>
<path d="M93.8748 281.625C93.8748 281.625 92.1165 269.707 96.4635 264.334" stroke="#A4E9B8" stroke-width="10" stroke-miterlimit="10"/>
<path d="M194.294 73.2634C194.294 73.2634 190.973 79.5152 193.611 85.8647" stroke="#E8928A" stroke-width="10" stroke-miterlimit="10"/>
<path d="M122.936 172.218C122.936 172.218 124.841 165.429 120.885 159.763" stroke="#98C2FE" stroke-width="10" stroke-miterlimit="10"/>
<path d="M397.136 276.252C397.136 276.252 402.021 271.172 401.239 264.285" stroke="#98C2FE" stroke-width="10" stroke-miterlimit="10"/>
<path d="M440.801 134.951C440.801 134.951 445.686 129.872 444.904 122.985" stroke="#98C2FE" stroke-width="10" stroke-miterlimit="10"/>
<path d="M357.574 112.63C357.574 112.63 359.821 105.939 356.158 100.078" stroke="#C492D6" stroke-width="10" stroke-miterlimit="10"/>
<path d="M101.592 431.277H60.4667V433.28H101.592V431.277Z" fill="#2B2B2B"/>
<path d="M164.598 332.225L114.193 417.21L79.9548 396.892C80.7851 394.157 81.7619 391.422 82.6411 388.735L85.5228 380.676C87.4276 375.304 89.479 369.98 91.5304 364.656C95.6331 354.057 99.9801 343.605 104.425 333.153C106.671 327.976 108.918 322.75 111.214 317.621L114.682 309.904L118.198 302.236C118.931 300.624 119.712 298.963 120.445 297.352" fill="#FDC068"/>
<path d="M48.9888 395.964L103.887 422.339C106.769 423.707 110.188 422.534 111.653 419.701L115.17 412.815L80.2967 396.501L50.8936 390.347C47.4747 389.664 45.8141 394.401 48.9888 395.964Z" fill="#2B2B2B"/>
<path d="M120.445 297.303C124.45 288.706 128.553 280.208 132.704 271.709C134.902 267.216 138.419 263.797 142.571 261.746L146.576 259.743C155.514 255.25 164.501 250.903 173.537 246.653C182.621 242.453 191.706 238.35 200.888 234.443C210.071 230.535 219.351 226.775 228.679 223.307L235.713 220.718C238.057 219.888 240.402 219.057 242.795 218.276L246.36 217.104L249.926 215.932L253.54 214.857L255.347 214.32L257.155 213.831L279.475 267.997L168.75 313.665L182.768 301.503L164.501 332.274" fill="url(#paint1_linear)"/>
<path d="M210.071 270.293L227.263 237.618L279.524 269.658L210.071 283.774V270.293Z" fill="#2B2B2B"/>
<path d="M361.042 271.954H242.355V365.828H361.042V271.954Z" fill="#F9D5FF" stroke="#F9D5FF" stroke-width="10" stroke-miterlimit="10"/>
<path d="M335.009 269.219L363.533 325.827V309.025L343.117 269.219H335.009Z" fill="#2B2B2B"/>
<path d="M301.747 271.954H183.061V365.828H301.747V271.954Z" fill="white" stroke="#F9D5FF" stroke-width="11.2451" stroke-miterlimit="10"/>
<path d="M183.012 365.828H101.592V430.886H183.012V365.828Z" fill="white" stroke="#F9D5FF" stroke-width="10" stroke-miterlimit="10"/>
<path d="M361.042 337.011H242.355V430.886H361.042V337.011Z" fill="white" stroke="#F9D5FF" stroke-width="10" stroke-miterlimit="10"/>
<path d="M301.747 271.954H183.061V430.886H301.747V271.954Z" fill="white" stroke="#F9D5FF" stroke-width="10" stroke-miterlimit="10"/>
<path d="M234.687 269.219L192.439 356.255C190.192 360.847 185.503 363.777 180.374 363.777V300.038L211.78 269.219H234.687Z" fill="#2B2B2B"/>
<path d="M430.105 337.011H336.23V430.886H430.105V337.011Z" fill="#F9D5FF" stroke="#F9D5FF" stroke-width="10" stroke-miterlimit="10"/>
<path d="M383.119 337.011H301.699V430.886H383.119V337.011Z" fill="white" stroke="#F9D5FF" stroke-width="10" stroke-miterlimit="10"/>
<path d="M248.265 144.866L289.732 160.349C299.452 163.963 304.385 174.806 300.771 184.526C297.156 194.245 286.313 199.179 276.594 195.564L239.62 181.742L248.265 144.866Z" fill="#BE6361"/>
<path d="M239.62 181.791L187.994 162.547L186.822 162.107C183.745 160.984 181.302 158.933 179.642 156.393L140.812 97.2449C136.71 90.9931 138.419 82.5434 144.72 78.4406C150.434 74.6797 157.907 75.8031 162.303 80.7362L209.484 133.486L201.132 127.332L248.265 144.915L239.62 181.791Z" fill="#FDC068"/>
<path d="M238.155 231.024C241.574 206.31 258.376 209.729 254.126 192.243C249.877 174.758 260.574 152.486 279.573 155.074C294.226 157.077 295.3 156.637 301.455 157.467C320.991 160.154 331.688 181.84 323.531 199.765C323.531 199.765 321.48 203.77 320.796 209.387C320.161 215.004 332.762 225.114 330.467 242.111L238.155 231.024Z" fill="#BE6361"/>
<path d="M253.345 187.505L264.481 189.654L258.034 204.844L253.736 202.646C256.178 196.004 253.443 192.878 253.345 187.505Z" fill="#2B2B2B"/>
<path d="M316.937 227.654L296.424 199.96C290.221 191.608 291.979 179.837 300.331 173.634C308.683 167.431 320.454 169.189 326.657 177.541L346.34 204.063L316.937 227.654Z" fill="#BE6361"/>
<path d="M283.187 201.718L316.058 165.917L279.524 191.315L283.187 201.718Z" fill="#2B2B2B"/>
<path d="M270.782 217.739C262.674 217.739 256.129 211.194 256.129 203.086C256.129 194.978 262.674 188.433 270.782 188.433C278.889 188.433 285.434 194.978 285.434 203.086C285.434 211.194 278.889 217.739 270.782 217.739Z" fill="#FDE545"/>
<path d="M265.018 137.882C262.674 139.493 262.039 142.717 263.699 145.061L268.584 152.144C270.195 154.488 273.419 155.123 275.763 153.462C278.108 151.85 278.743 148.627 277.082 146.282L272.198 139.2C270.586 136.856 267.363 136.27 265.018 137.882Z" fill="#6AC69F"/>
<path d="M250.952 153.414C251.635 156.198 254.419 157.907 257.203 157.223L265.555 155.172C268.339 154.488 270.049 151.704 269.365 148.92C268.681 146.136 265.897 144.427 263.113 145.11L254.761 147.162C251.977 147.845 250.268 150.63 250.952 153.414Z" fill="#6AC69F"/>
<path d="M259.352 155.807C260.525 158.395 263.602 159.567 266.19 158.444L274.054 154.927C276.643 153.755 277.815 150.678 276.691 148.09C275.519 145.501 272.442 144.329 269.853 145.452L261.99 148.969C259.352 150.141 258.18 153.218 259.352 155.807Z" fill="#6AC69F"/>
<path d="M256.813 179.349C259.645 179.495 262.088 177.248 262.234 174.416L262.625 165.819C262.771 162.987 260.525 160.544 257.692 160.398C254.859 160.251 252.417 162.498 252.27 165.331L251.88 173.927C251.733 176.809 253.931 179.251 256.813 179.349Z" fill="#6AC69F"/>
<path d="M245.042 165.819C246.214 168.408 249.291 169.58 251.88 168.457L259.743 164.94C262.332 163.768 263.504 160.691 262.381 158.102C261.208 155.514 258.131 154.341 255.543 155.465L247.679 158.981C245.042 160.154 243.869 163.231 245.042 165.819Z" fill="#6AC69F"/>
<path d="M255.885 190.973C258.669 190.436 260.525 187.701 259.939 184.868L258.278 176.418C257.741 173.634 255.005 171.778 252.173 172.364C249.389 172.902 247.533 175.637 248.119 178.47L249.779 186.919C250.317 189.703 253.052 191.511 255.885 190.973Z" fill="#6AC69F"/>
<path d="M240.744 178.714C242.306 181.107 245.53 181.742 247.923 180.179L255.103 175.441C257.496 173.879 258.131 170.655 256.568 168.262C255.005 165.868 251.782 165.233 249.389 166.796L242.209 171.534C239.816 173.146 239.181 176.321 240.744 178.714Z" fill="#6AC69F"/>
<path d="M240.011 195.809C242.258 197.567 245.53 197.176 247.288 194.929L252.612 188.189C254.371 185.942 253.98 182.67 251.733 180.912C249.486 179.153 246.214 179.544 244.456 181.791L239.132 188.531C237.373 190.778 237.764 194.05 240.011 195.809Z" fill="#6AC69F"/>
<path d="M251.391 208.068C254.224 207.922 256.422 205.479 256.275 202.598L255.787 194.001C255.64 191.169 253.198 188.971 250.317 189.117C247.484 189.264 245.286 191.706 245.432 194.588L245.921 203.184C246.067 206.066 248.509 208.263 251.391 208.068Z" fill="#6AC69F"/>
<path d="M264.041 171.925C266.874 172.413 269.56 170.557 270.049 167.773L271.612 159.323C272.1 156.491 270.244 153.804 267.46 153.316C264.627 152.827 261.941 154.683 261.453 157.467L259.89 165.917C259.352 168.75 261.257 171.436 264.041 171.925Z" fill="#6AC69F"/>
<path d="M270.782 211.292C266.239 211.292 262.576 207.628 262.576 203.086C262.576 198.544 266.239 194.881 270.782 194.881C275.324 194.881 278.987 198.544 278.987 203.086C278.987 207.58 275.324 211.292 270.782 211.292Z" fill="#FDB145"/>
<path d="M256.129 156.588L262.723 154.879L261.013 159.616" stroke="#2B2B2B" stroke-width="2.6094" stroke-miterlimit="10" stroke-linecap="round" stroke-linejoin="round"/>
<path d="M245.872 169.141L250.854 165.917" stroke="#2B2B2B" stroke-width="2.6094" stroke-miterlimit="10" stroke-linecap="round" stroke-linejoin="round"/>
<path d="M251.88 173.976V180.033" stroke="#2B2B2B" stroke-width="2.6094" stroke-miterlimit="10" stroke-linecap="round" stroke-linejoin="round"/>
<path d="M250.854 188.336L247.972 194.001" stroke="#2B2B2B" stroke-width="2.6094" stroke-miterlimit="10" stroke-linecap="round" stroke-linejoin="round"/>
<path d="M171.388 236.103C175.246 224.528 179.251 213.001 183.403 201.523C188.043 188.58 201.67 181.498 214.711 184.721L219.692 185.991C227.263 187.896 328.904 242.16 328.904 242.16L265.897 269.219L199.96 240.792L236.69 225.114L221.255 259.939L171.388 236.103Z" fill="url(#paint2_linear)"/>
<path d="M221.207 259.939L177.493 358.551L141.105 342.433C141.74 339.356 142.424 336.377 143.108 333.348L145.306 324.361C146.771 318.354 148.334 312.395 149.946 306.485C153.169 294.617 156.588 282.846 160.154 271.123C161.961 265.262 163.768 259.401 165.673 253.589L168.506 244.846L171.387 236.152" fill="#FDC068"/>
<path d="M330.516 242.16C328.708 255.201 312.395 272.882 289.635 269.951L262.723 269.121C241.965 266.434 236.494 243.576 238.399 229.51L330.516 242.16Z" fill="url(#paint3_linear)"/>
<path d="M273.81 138.907L290.807 141.984C299.598 143.596 307.999 137.735 309.611 128.943L314.251 103.301C316.791 89.2347 307.462 75.7542 293.395 73.2144C279.329 70.6746 265.848 80.0035 263.309 94.0701L259.059 117.563C257.252 127.527 263.846 137.1 273.81 138.907Z" fill="#FDC068"/>
<path d="M261.355 104.278C262.973 104.278 264.286 102.966 264.286 101.348C264.286 99.729 262.973 98.417 261.355 98.417C259.736 98.417 258.424 99.729 258.424 101.348C258.424 102.966 259.736 104.278 261.355 104.278Z" fill="#2B2B2B"/>
<path d="M284.702 170.899L307.462 164.647L311.663 117.417L284.555 112.484L275.031 162.449C274.347 167.92 279.378 172.364 284.702 170.899Z" fill="#FDC068"/>
<path d="M269.463 102.178L265.067 105.841C264.188 106.574 264.09 107.893 264.872 108.723L266.972 110.53" stroke="#2B2B2B" stroke-width="2.6094" stroke-miterlimit="10" stroke-linecap="round"/>
<path d="M264.823 117.661C264.823 117.661 266.63 122.74 272.1 119.419" stroke="#2B2B2B" stroke-width="2.6094" stroke-miterlimit="10" stroke-linecap="round"/>
<path d="M278.206 139.689L289.244 141.691L277.131 151.802L278.206 139.689Z" fill="#2B2B2B"/>
<path d="M277.913 107.404C279.531 107.404 280.843 106.092 280.843 104.474C280.843 102.855 279.531 101.543 277.913 101.543C276.294 101.543 274.982 102.855 274.982 104.474C274.982 106.092 276.294 107.404 277.913 107.404Z" fill="#2B2B2B"/>
<path d="M107.502 334.667L167.969 363.191C171.241 364.705 175.1 363.24 176.662 359.967L180.423 352.006L142.912 334.374L109.456 328.22C105.548 327.487 103.888 333.006 107.502 334.667Z" fill="#2B2B2B"/>
<path d="M272.931 188.58L307.999 158.395L318.158 164.11L282.308 194.001C279.182 189.605 272.931 188.58 272.931 188.58Z" fill="white"/>
<path d="M276.398 154.879L272.979 188.58C272.979 188.58 268.877 188.043 264.53 189.703C266.044 172.755 269.707 152.876 269.707 152.876L276.398 154.879Z" fill="white"/>
<path d="M266.923 84.5459L287.339 88.5509C293.542 89.772 297.596 95.7307 296.473 101.934L295.935 104.864L303.017 106.72L307.609 128.406C308.048 130.458 310.979 130.36 311.272 128.26L315.912 95.2912C317.328 85.2785 310.539 75.9496 300.575 74.0936L288.267 71.8469C278.987 70.1863 269.854 75.6077 266.923 84.5459Z" fill="#5D5D5D"/>
<path d="M303.75 118.296L297.107 116.538L300.429 104.034C301.21 101.103 304.19 99.3939 307.12 100.175L308.488 100.517C311.418 101.299 313.128 104.278 312.346 107.209L310.441 114.437C309.66 117.319 306.681 119.077 303.75 118.296Z" fill="#FDC068"/>
<path d="M230.291 239.473L225.163 251.049" stroke="#2B2B2B" stroke-width="2.6094" stroke-miterlimit="10" stroke-linecap="round"/>
<path d="M346.292 204.112L365.536 230.096L366.122 230.877C367.001 232.05 367.636 233.368 368.026 234.638L391.568 312.297C393.766 319.477 389.712 327.048 382.533 329.197C375.939 331.199 369.003 327.927 366.219 321.773L332.811 247.777L335.302 252.368L316.938 227.556L346.292 204.112Z" fill="#FDC068"/>
<path d="M332.811 247.875L334.521 243.674" stroke="#2B2B2B" stroke-width="2.6094" stroke-miterlimit="10" stroke-linecap="round"/>
<path d="M205.479 128.992L206.017 135.977" stroke="#2B2B2B" stroke-width="2.6094" stroke-miterlimit="10" stroke-linecap="round"/>
<path d="M273.517 85.8646L266.19 84.3994C260.329 83.2272 257.203 76.8288 259.792 71.505L262.283 66.3766C264.237 62.3227 268.877 60.3201 273.175 61.6877C275.226 62.3227 276.985 63.6414 278.108 65.4486L279.427 67.4999C280.843 69.6978 283.09 71.1631 285.678 71.5539L286.411 71.6515L273.517 85.8646Z" fill="#5D5D5D"/>
<path d="M325.631 148.578C326.804 151.167 325.68 154.244 323.092 155.465L315.277 159.031C312.688 160.203 309.611 159.079 308.39 156.491C307.218 153.902 308.341 150.825 310.93 149.604L318.745 146.039C321.333 144.866 324.41 145.99 325.631 148.578Z" fill="#6AC69F"/>
<path d="M329.685 169.141C327.683 171.192 324.41 171.192 322.359 169.19L316.254 163.133C314.202 161.131 314.202 157.858 316.205 155.807C318.207 153.756 321.48 153.756 323.531 155.758L329.637 161.815C331.639 163.866 331.688 167.138 329.685 169.141Z" fill="#6AC69F"/>
<path d="M321.236 166.894C318.891 168.555 315.668 167.969 314.007 165.624L309.074 158.591C307.413 156.247 307.999 153.023 310.344 151.362C312.688 149.702 315.912 150.288 317.572 152.632L322.505 159.666C324.166 162.01 323.58 165.234 321.236 166.894Z" fill="#6AC69F"/>
<path d="M311.321 188.385C308.781 187.017 307.853 183.891 309.22 181.352L313.323 173.781C314.691 171.241 317.817 170.313 320.356 171.681C322.896 173.048 323.824 176.174 322.457 178.714L318.354 186.285C316.986 188.824 313.812 189.752 311.321 188.385Z" fill="#6AC69F"/>
<path d="M328.366 182.817C326.022 184.477 322.798 183.891 321.138 181.547L316.205 174.514C314.544 172.169 315.13 168.946 317.475 167.285C319.819 165.624 323.043 166.21 324.703 168.555L329.636 175.588C331.297 177.933 330.711 181.205 328.366 182.817Z" fill="#6AC69F"/>
<path d="M306.143 198.788C304.043 196.883 303.848 193.611 305.801 191.462L311.565 185.064C313.47 182.963 316.742 182.768 318.891 184.722C320.991 186.627 321.187 189.899 319.233 192.048L313.47 198.446C311.516 200.547 308.244 200.742 306.143 198.788Z" fill="#6AC69F"/>
<path d="M325.387 196.102C322.799 197.323 319.722 196.248 318.452 193.66L314.74 185.894C313.519 183.305 314.593 180.228 317.182 178.958C319.77 177.737 322.847 178.812 324.117 181.4L327.829 189.166C329.05 191.755 327.976 194.832 325.387 196.102Z" fill="#6AC69F"/>
<path d="M317.279 211.096C314.447 211.438 311.858 209.436 311.467 206.603L310.344 198.056C310.002 195.223 312.004 192.634 314.837 192.243C317.67 191.901 320.259 193.904 320.65 196.737L321.773 205.284C322.115 208.166 320.112 210.755 317.279 211.096Z" fill="#6AC69F"/>
<path d="M301.161 215.785C298.817 214.173 298.182 210.95 299.794 208.605L304.629 201.474C306.241 199.13 309.465 198.495 311.809 200.107C314.153 201.719 314.788 204.942 313.177 207.287L308.341 214.418C306.778 216.811 303.555 217.397 301.161 215.785Z" fill="#6AC69F"/>
<path d="M308.927 178.274C306.241 177.249 304.873 174.269 305.899 171.583L308.927 163.524C309.953 160.838 312.932 159.47 315.619 160.496C318.305 161.522 319.673 164.501 318.647 167.187L315.619 175.246C314.593 177.933 311.565 179.3 308.927 178.274Z" fill="#6AC69F"/>
<path d="M318.207 157.663L323.043 155.465" stroke="#2B2B2B" stroke-width="2.6094" stroke-miterlimit="10" stroke-linecap="round"/>
<path d="M315.277 171.29L310.686 178.616" stroke="#2B2B2B" stroke-width="2.6094" stroke-miterlimit="10" stroke-linecap="round"/>
<path d="M318.305 186.285L320.015 194.881" stroke="#2B2B2B" stroke-width="2.6094" stroke-miterlimit="10" stroke-linecap="round"/>
<path d="M310.49 196.199L310.832 201.719" stroke="#2B2B2B" stroke-width="2.6094" stroke-miterlimit="10" stroke-linecap="round"/>
<path d="M382.972 107.013L383.167 107.502C383.9 109.407 385.463 110.97 387.368 111.702L387.856 111.898C388.394 112.093 388.394 112.874 387.856 113.07L387.368 113.265C385.463 113.998 383.9 115.561 383.167 117.466L382.972 117.954C382.777 118.491 381.995 118.491 381.8 117.954L381.605 117.466C380.872 115.561 379.309 113.998 377.404 113.265L376.916 113.07C376.378 112.874 376.378 112.093 376.916 111.898L377.404 111.702C379.309 110.97 380.872 109.407 381.605 107.502L381.8 107.013C381.995 106.525 382.728 106.525 382.972 107.013Z" fill="#FDE545"/>
<path d="M217.934 63.0065L218.129 63.4949C218.862 65.3997 220.425 66.9627 222.33 67.6953L222.818 67.8907C223.356 68.0861 223.356 68.8675 222.818 69.0629L222.33 69.2583C220.425 69.9909 218.862 71.5539 218.129 73.4587L217.934 73.9471C217.739 74.4844 216.957 74.4844 216.762 73.9471L216.567 73.4587C215.834 71.5539 214.271 69.9909 212.366 69.2583L211.878 69.0629C211.34 68.8675 211.34 68.0861 211.878 67.8907L212.366 67.6953C214.271 66.9627 215.834 65.3997 216.567 63.4949L216.762 63.0065C217.006 62.4692 217.739 62.4692 217.934 63.0065Z" fill="#FDE545"/>
<path d="M121.031 221.109L121.226 221.597C121.959 223.502 123.522 225.065 125.427 225.798L125.915 225.993C126.453 226.189 126.453 226.97 125.915 227.165L125.427 227.361C123.522 228.093 121.959 229.656 121.226 231.561L121.031 232.05C120.836 232.587 120.054 232.587 119.859 232.05L119.664 231.561C118.931 229.656 117.368 228.093 115.463 227.361L114.975 227.165C114.437 226.97 114.437 226.189 114.975 225.993L115.463 225.798C117.368 225.065 118.931 223.502 119.664 221.597L119.859 221.109C120.054 220.572 120.836 220.572 121.031 221.109Z" fill="#FDE545"/>
<path d="M335.009 433.768C372.178 433.768 389.126 379.26 432.889 384.584C446.027 386.196 460.68 359.235 466.688 349.076C476.652 332.225 503.026 339.014 503.026 358.502V433.768H335.009Z" fill="url(#paint4_linear)"/>
<path d="M36.9736 62.6157C45.7163 88.6975 80.8828 121.764 85.2786 139.689" stroke="#F9D5FF" stroke-width="10" stroke-miterlimit="10"/>
<path d="M423.072 245.237C431.082 224.235 458.092 218.813 468.251 194.881" stroke="#F9D5FF" stroke-width="10" stroke-miterlimit="10"/>
<defs>
<linearGradient id="paint0_linear" x1="105.328" y1="350.82" x2="105.328" y2="430.448" gradientUnits="userSpaceOnUse">
<stop stop-color="#FFD8A1"/>
<stop offset="0.9958" stop-color="white"/>
</linearGradient>
<linearGradient id="paint1_linear" x1="199.96" y1="337.785" x2="199.96" y2="200.664" gradientUnits="userSpaceOnUse">
<stop stop-color="#FDBB6D"/>
<stop offset="0.4092" stop-color="#D8727E"/>
<stop offset="0.4989" stop-color="#C498A7"/>
<stop offset="0.599" stop-color="#92B7B7"/>
<stop offset="1" stop-color="#F3ECD8"/>
</linearGradient>
<linearGradient id="paint2_linear" x1="250.146" y1="337.785" x2="250.146" y2="200.664" gradientUnits="userSpaceOnUse">
<stop stop-color="#FDBB6D"/>
<stop offset="0.4092" stop-color="#D8727E"/>
<stop offset="0.4989" stop-color="#C498A7"/>
<stop offset="0.599" stop-color="#92B7B7"/>
<stop offset="1" stop-color="#F3ECD8"/>
</linearGradient>
<linearGradient id="paint3_linear" x1="284.281" y1="337.785" x2="284.281" y2="200.664" gradientUnits="userSpaceOnUse">
<stop stop-color="#FDBB6D"/>
<stop offset="0.4092" stop-color="#D8727E"/>
<stop offset="0.4989" stop-color="#C498A7"/>
<stop offset="0.599" stop-color="#92B7B7"/>
<stop offset="1" stop-color="#F3ECD8"/>
</linearGradient>
<linearGradient id="paint4_linear" x1="419.018" y1="356.38" x2="419.018" y2="430.669" gradientUnits="userSpaceOnUse">
<stop stop-color="#FFD8A1"/>
<stop offset="0.9958" stop-color="white"/>
</linearGradient>
</defs>
</svg>
