<svg xmlns="http://www.w3.org/2000/svg" width="350" height="297" fill="none" viewBox="0 0 350 297">
    <g clip-path="url(#a)">
        <g opacity=".3">
            <path fill="#C4ECFE" d="M348.79 3.522v292.026H1.392V3.522H348.79zm1.136-1.126H.256v294.277h349.67V2.396z" opacity=".3"/>
            <g stroke="#C4ECFE" stroke-miterlimit="10" stroke-width="2.913" opacity=".3">
                <path d="M.256 211.567h349.67M.256 169.414h349.67M.256 211.567h349.67M.256 253.685h349.67M.256 127.296h349.67M.256 85.143h349.67M.256 43.025h349.67" opacity=".3"/>
            </g>
        </g>
        <path fill="url(#b)" d="M26.68 296.673l-.036-2.106c0 .69.036 1.38.036 2.106z"/>
        <path stroke="#CAE6C4" stroke-linecap="round" stroke-miterlimit="10" stroke-width="11" d="M323.32 221.08v-68.078M323.32 165.928c.733-4.357 4.691-7.407 9.125-7.08M323.32 165.928c-.733-4.357-4.692-7.407-9.126-7.08M323.32 175.913c.733-4.357 4.691-7.407 9.125-7.08M323.32 175.913c-.733-4.357-4.692-7.407-9.126-7.08M297.445 230.738v-52.574M297.445 191.089c.733-4.357 4.691-7.406 9.125-7.08M297.445 191.089c-.733-4.357-4.691-7.406-9.126-7.08M297.445 201.11c.733-4.357 4.691-7.406 9.125-7.08M297.445 201.11c-.733-4.357-4.691-7.406-9.126-7.08M21.88 269.878v-42.88M21.88 239.924c.732-4.357 4.69-7.407 9.125-7.08M21.88 239.924c-.733-4.357-4.691-7.407-9.126-7.08"/>
        <path fill="url(#c)" d="M348.571 239.052v32.133c0 13.615-11.142 24.689-24.922 24.689H180.498s5.35-43.17 70.293-43.17c36.466 0 28.366-18.916 52.591-36.526 18.765-13.652 45.189-.145 45.189 22.874z"/>
        <path fill="url(#d)" d="M1.87 295.003h111.413c0-22.91-12.094-27.558-25.325-28.03-11.508-.435-14.366-21.966-33.644-18.989-11.654 1.816-12.387 11.655-22.612 13.833-9.016 1.925-29.833 9.949-29.833 33.186z"/>
        <path fill="url(#e)" d="M106.869 115.532c7.073-11.618 17.189-19.134 30.016-30.535 12.827-11.4 13.853-37.651 16.272-50.032 1.429-7.262 14.073-21.495 4.618-28.212 0 0-11.691-2.214-22.759 10.784-4.288 2.142-8.356 4.03-14.293 7.007-17.665 8.75-12.425 24.436-20.158 32.641-7.696 8.206-68.937 10.82-82.863 29.337-30.09 40.012 58.162 80.023 89.167 29.01z"/>
        <path fill="#2B2B2B" d="M277.728 294.821H43.906v1.489h233.822v-1.489z"/>
        <path fill="#565656" d="M230.121 124.21l-30.859-3.921c-2.162-.291-4.105-1.198-5.607-2.578l-.807-.763-41.23-37.324c-5.754-5.192-6.157-14.052-.916-19.752 5.241-5.7 14.183-6.1 19.937-.908l41.23 37.325-6.413-3.304 29.759 9.585-5.094 21.64z"/>
        <path fill="#FDC068" d="M235.214 102.57l10.629 3.413c5.35 1.743 8.282 7.443 6.56 12.744-1.539 4.684-6.231 7.516-10.995 6.899l-11.251-1.416 5.057-21.64z"/>
        <path fill="#565656" d="M180.498 102.171c-.843-15.359-11.435-14.088-7.88-24.617 3.555-10.53-1.942-24.726-13.853-24.109-9.163.472-9.822.145-13.707.363-12.241.654-20.011 13.398-15.869 24.835 0 0 1.063 2.578 1.173 6.064.109 3.485-8.247 9.04-7.66 19.606l57.796-2.142z"/>
        <path fill="#2B2B2B" d="M94.335 291.663l-35.073-27.812c-1.833-1.452-2.236-4.03-.916-5.809l3.225-4.285 21.99 17.791 13.706 17.247c1.576 1.996-.916 4.465-2.932 2.868z"/>
        <path fill="url(#f)" d="M122.701 104.277c.44 8.097 9.639 19.788 23.895 19.134l11.472-.871c13.01-.581 22.832-12.599 22.356-21.313l-57.723 3.05z"/>
        <path fill="url(#g)" d="M61.534 253.757l21 18.118c1.173-1.38 2.236-2.832 3.372-4.248 1.1-1.416 2.162-2.869 3.262-4.285l1.612-2.142 1.576-2.178 3.152-4.357a190.77 190.77 0 0 0 3.115-4.393 311.252 311.252 0 0 0 3.042-4.394c.99-1.488 2.016-2.941 3.005-4.429l2.969-4.466c7.843-11.909 15.283-24.036 22.466-36.308l1.356-2.288c.22-.399.476-.762.66-1.161l.586-1.199a192.684 192.684 0 0 0 2.346-4.756l2.345-4.793.916-1.924 1.356-2.868c1.54-3.195 2.969-6.427 4.472-9.658.733-1.598 1.429-3.232 2.162-4.866a273.846 273.846 0 0 0 2.125-4.865c.037-.036.037-.109.074-.145 2.785-6.463 5.387-13.035 7.843-19.643.659-1.779 1.319-3.558 1.942-5.373.55-1.562 1.1-3.123 1.613-4.72l1.649-5.084.77-2.577.366-1.271.367-1.307-7.66-3.413-11.728-5.12-20.963-9.367-13.157 40.229-7.953 19.461-1.613 3.958-2.382 5.773-1.979 4.865-.513 1.198c-.147.4-.367.799-.55 1.198l-1.1 2.397-31.92 70.401z"/>
        <path fill="url(#h)" d="M141.356 109.796l9.455 44.223 2.456 11.437 2.272 10.674c.293 1.344.587 2.687.843 4.031 1.32 6.027 2.676 12.054 3.518 18.117l14.514 88.919 27.267-.98c.11-1.888.073-4.539.146-6.427s.11-3.776.147-5.664l.073-2.832c.037-.944 0-1.888 0-2.832V259.966l-.037-2.832c-.036-1.888-.036-3.776-.073-5.664l-.146-5.664-.184-5.664c-.513-15.105-1.466-30.172-2.675-45.277-.33-3.776-.55-7.552-1.173-11.291l-.843-5.628-.403-2.832-.44-2.832-.916-5.628-.99-5.628-.513-2.795-.513-2.796-1.063-5.628a529.99 529.99 0 0 0-4.911-22.366c-1.832-7.443-5.57-17.536-8.026-24.871l-26.021 2.651-9.309 3.594-2.455.981z"/>
        <path fill="#2B2B2B" d="M223.231 295.039l-43.796-.181c-2.309 0-4.325-1.816-4.618-4.103l-.66-5.483 27.707.4 21.476 5.192c2.493.617 2.419 4.175-.109 4.175z"/>
        <path fill="#FDC068" d="M163.2 44.695h-10.739c-5.57 0-10.078-4.466-10.078-9.948V18.698c0-8.822 7.183-15.939 16.089-15.939 8.906 0 16.089 7.117 16.089 15.94v14.704c.036 6.245-5.058 11.292-11.361 11.292z"/>
        <path fill="#2B2B2B" d="M171.885 25.125a1.824 1.824 0 0 0 1.833-1.816 1.824 1.824 0 0 0-1.833-1.815 1.824 1.824 0 0 0-1.832 1.816c0 1.002.82 1.815 1.832 1.815zM159.608 61.941l8.502-4.756s-2.345-4.284-11.874-3.776l3.372 8.532z"/>
        <path fill="#FDC068" d="M154.77 62.885l-13.78-5.01 1.429-30.317h17.115l1.613 30.68c.183 3.34-3.189 5.81-6.377 4.647z"/>
        <path stroke="#2B2B2B" stroke-linecap="round" stroke-miterlimit="10" stroke-width="2.835" d="M166.827 22.947l2.272 2.687c.44.544.367 1.343-.183 1.779l-1.502.871M165.582 34.31l3.481-.18"/>
        <path fill="#2B2B2B" d="M160.45 44.695l-7 .037 7.367 6.825-.367-6.862zM161.44 25.198a1.824 1.824 0 0 0 1.832-1.816c0-1.002-.82-1.815-1.832-1.815a1.824 1.824 0 0 0-1.833 1.815c0 1.003.821 1.816 1.833 1.816z"/>
        <path fill="url(#i)" d="M85.87 114.407c13.01-11.038 7.879-16.339 25.947-24.726 18.068-8.387 21.366-41.028 30.565-54.934 5.388-8.133 24.922-19.97 20.194-32.06 0 0-9.346-7.589-26.717 3.413-5.094.799-9.859 1.38-16.896 2.432C98 11.62 93.823 32.75 82.204 39.394 70.55 46.04 46.361 31.914 23.272 48.4-26.68 84.053 28.88 162.842 85.87 114.407z"/>
        <path stroke="#2B2B2B" stroke-linecap="round" stroke-miterlimit="10" stroke-width="3" d="M85.1 41.79l-12.754-1.234M138.937 35.582l-.806 7.661"/>
        <path fill="#FDC068" d="M106.869 31.588l4.838-7.044c3.188-4.61 9.529-5.809 14.183-2.686 4.105 2.759 5.534 7.987 3.628 12.344l-2.748 6.318-19.901-8.932z"/>
        <path fill="#565656" d="M126.807 40.556L113.32 71.745l-10.482-20.587 33.681 4.938c7.733 1.053 13.12 8.06 12.094 15.721-1.063 7.661-8.136 12.999-15.869 11.982l-33.68-4.938-1.283-.181c-7.257-.98-12.351-7.589-11.362-14.778a13.498 13.498 0 0 1 2.163-5.628l18.324-26.686 19.901 8.968z"/>
        <path fill="url(#j)" d="M164.005 3.413s2.236 8.86 10.592 15.286c0 0 .623-14.778-10.592-15.286z"/>
        <path stroke="#F9D5FF" stroke-miterlimit="10" stroke-width="20" d="M244.927 55.806v95.671"/>
        <path stroke="#2B2B2B" stroke-miterlimit="10" stroke-width="20" d="M244.927 55.806v28.393"/>
        <path fill="#F48B94" stroke="#F9D5FF" stroke-linejoin="round" stroke-miterlimit="10" stroke-width="14.835" d="M259.367 5.737h-28.88L210.074 25.96v28.611l20.413 20.224h28.88l20.45-20.224v-28.61l-20.45-20.224z"/>
        <path fill="#fff" d="M255.886 33.004c0 1.053-.294 2.143-.843 3.232-.55 1.089-1.503 2.469-2.822 4.139l-2.126 2.723c-.55.69-.99 1.27-1.319 1.706a9.962 9.962 0 0 0-.807 1.09c-.183.29-.33.544-.403.762a2.27 2.27 0 0 0-.11.69v1.307c0 .29-.11.508-.366.654a1.552 1.552 0 0 1-.77.218h-4.728a.787.787 0 0 1-.623-.291.87.87 0 0 1-.256-.654v-1.27c0-.581 0-1.162.036-1.67a6.66 6.66 0 0 1 .257-1.49c.147-.471.33-.943.623-1.415.257-.472.623-1.017 1.063-1.634l2.272-2.941c.88-1.162 1.466-2.07 1.759-2.723a4.96 4.96 0 0 0 .44-2.033v-.472c0-.545-.183-.944-.55-1.271-.366-.327-.953-.472-1.796-.472-1.246 0-2.382.036-3.445.145-1.062.109-2.162.218-3.335.363h-.146c-.55 0-.807-.327-.807-.98v-4.175c0-.327.037-.618.184-.8.11-.18.33-.326.696-.435 1.026-.327 2.199-.545 3.555-.726a30.442 30.442 0 0 1 4.031-.254c1.65 0 3.116.145 4.398.4 1.283.253 2.346.689 3.262 1.306a6.212 6.212 0 0 1 2.052 2.396c.477.98.697 2.215.697 3.704v.871h-.073zm-8.027 26.36c0 .254-.11.472-.293.617a.887.887 0 0 1-.66.254h-5.607a.89.89 0 0 1-.66-.254c-.183-.181-.293-.4-.293-.617v-5.918c0-.254.11-.472.293-.654a.924.924 0 0 1 .66-.29h5.607c.257 0 .477.109.66.29.183.182.293.4.293.654v5.918z"/>
        <path fill="#FDC068" d="M249.178 107.799s-8.283 2.396-8.796 4.502c-.769 3.268-2.895 12.345-1.026 13.071 1.869.726 11.288-3.413 11.288-3.413l-1.466-14.16z"/>
        <path stroke="#2B2B2B" stroke-linecap="round" stroke-miterlimit="10" stroke-width="3" d="M151.068 155.834l8.796-23.382M130.251 83.037l6.451.871M172.398 84.198c5.534 8.206 9.602 13.943 7.623 20.95M205.896 95.236l3.848-.835"/>
        <path fill="#BFD9FF" d="M48.78 151.259c.83 0 1.503-.666 1.503-1.489 0-.822-.673-1.488-1.503-1.488-.83 0-1.503.666-1.503 1.488 0 .823.673 1.489 1.503 1.489zM308.147 272.819c.83 0 1.502-.667 1.502-1.489 0-.822-.672-1.489-1.502-1.489s-1.503.667-1.503 1.489c0 .822.673 1.489 1.503 1.489zM309.612 30.136c.83 0 1.503-.667 1.503-1.49 0-.821-.673-1.488-1.503-1.488-.829 0-1.502.667-1.502 1.489 0 .822.673 1.489 1.502 1.489zM202.084 72.434c.83 0 1.502-.666 1.502-1.488s-.672-1.489-1.502-1.489-1.503.667-1.503 1.489c0 .822.673 1.488 1.503 1.488zM127.649 39.285c.83 0 1.503-.667 1.503-1.489 0-.822-.673-1.488-1.503-1.488-.83 0-1.503.666-1.503 1.488s.673 1.489 1.503 1.489zM243.937 226.308c.769 0 1.393-.618 1.393-1.379 0-.762-.624-1.38-1.393-1.38s-1.393.618-1.393 1.38c0 .761.624 1.379 1.393 1.379zM48.779 241.303c.77 0 1.393-.617 1.393-1.379s-.624-1.38-1.393-1.38c-.77 0-1.393.618-1.393 1.38 0 .762.624 1.379 1.393 1.379z"/>
        <path stroke="#F9D5FF" stroke-miterlimit="10" stroke-width="10" d="M263.948 187.059c32.984-9.803 37.932-58.347 65.968-59.4M12.754 169.414c10.995 0 20.633 38.014 34.12 42.117"/>
    </g>
    <defs>
        <linearGradient id="b" x1="26.662" x2="26.662" y1="294.567" y2="296.563" gradientUnits="userSpaceOnUse">
            <stop stop-color="#FFE0C2"/>
            <stop offset=".401" stop-color="#7AAEFC"/>
            <stop offset=".591" stop-color="#B8C1FC"/>
            <stop offset="1" stop-color="#D2D4D4"/>
        </linearGradient>
        <linearGradient id="c" x1="264.534" x2="264.534" y1="211.238" y2="289.894" gradientUnits="userSpaceOnUse">
            <stop stop-color="#FFD8A1"/>
            <stop offset=".996" stop-color="#fff"/>
        </linearGradient>
        <linearGradient id="d" x1="57.576" x2="57.576" y1="245.631" y2="297.108" gradientUnits="userSpaceOnUse">
            <stop stop-color="#FFD8A1"/>
            <stop offset=".996" stop-color="#fff"/>
        </linearGradient>
        <linearGradient id="e" x1="167.035" x2="55.458" y1="12.928" y2="110.061" gradientUnits="userSpaceOnUse">
            <stop offset=".029" stop-color="#2A7CF9"/>
            <stop offset=".401" stop-color="#418BFB"/>
            <stop offset=".591" stop-color="#AAB5FB"/>
            <stop offset="1" stop-color="#D2D4D4"/>
        </linearGradient>
        <linearGradient id="f" x1="151.571" x2="151.571" y1="293.467" y2="101.714" gradientUnits="userSpaceOnUse">
            <stop stop-color="#77879D"/>
            <stop offset=".409" stop-color="#FDBB6D"/>
            <stop offset=".499" stop-color="#FDBB9F"/>
            <stop offset=".599" stop-color="#D1D2D1"/>
            <stop offset="1" stop-color="#FECEAA"/>
        </linearGradient>
        <linearGradient id="g" x1="112.293" x2="112.293" y1="293.637" y2="100.377" gradientUnits="userSpaceOnUse">
            <stop stop-color="#77879D"/>
            <stop offset=".409" stop-color="#FDBB6D"/>
            <stop offset=".499" stop-color="#FDBB9F"/>
            <stop offset=".599" stop-color="#D1D2D1"/>
            <stop offset="1" stop-color="#FECEAA"/>
        </linearGradient>
        <linearGradient id="h" x1="171.71" x2="171.71" y1="293.521" y2="100.129" gradientUnits="userSpaceOnUse">
            <stop stop-color="#77879D"/>
            <stop offset=".409" stop-color="#FDBB6D"/>
            <stop offset=".499" stop-color="#FDBB9F"/>
            <stop offset=".599" stop-color="#D1D2D1"/>
            <stop offset="1" stop-color="#FECEAA"/>
        </linearGradient>
        <linearGradient id="i" x1="191.267" x2="59.901" y1="8.337" y2="80.628" gradientUnits="userSpaceOnUse">
            <stop stop-color="#FFE0C2"/>
            <stop offset=".401" stop-color="#7AAEFC"/>
            <stop offset=".591" stop-color="#B8C1FC"/>
            <stop offset="1" stop-color="#D2D4D4"/>
        </linearGradient>
        <linearGradient id="j" x1="136.369" x2="185.253" y1="27.864" y2="2.443" gradientUnits="userSpaceOnUse">
            <stop stop-color="#FFE0C2"/>
            <stop offset=".401" stop-color="#7AAEFC"/>
            <stop offset=".591" stop-color="#B8C1FC"/>
            <stop offset="1" stop-color="#D2D4D4"/>
        </linearGradient>
        <clipPath id="a">
            <path fill="#fff" d="M0 0h350v297H0z"/>
        </clipPath>
    </defs>
</svg>
