<svg xmlns="http://www.w3.org/2000/svg" width="546" height="533" fill="none" viewBox="0 0 546 533">
    <path fill="#fff" d="M546 0H0v533h546V0z"/>
    <g opacity=".3">
        <path fill="#C4ECFE" d="M507.035 39.827v396.937H38.915V39.827h468.12zm1.531-1.53H37.384v399.997h471.182V38.297z" opacity=".3"/>
        <g stroke="#C4ECFE" stroke-miterlimit="10" stroke-width="2.913" opacity=".3">
            <path d="M37.384 322.613h471.182M37.384 265.315h471.182M37.384 322.613h471.182M37.384 379.861h471.182M37.384 208.067h471.182M37.384 150.77h471.182M37.384 93.522h471.182" opacity=".3"/>
        </g>
    </g>
    <path fill="#BFD9FF" d="M69.09 225.587a2.024 2.024 0 1 0 .001-4.048 2.024 2.024 0 0 0-.001 4.048zM437.353 303.514a2.024 2.024 0 1 0 .001-4.049 2.024 2.024 0 0 0-.001 4.049zM442.687 52.165a2.024 2.024 0 1 0 0-4.047 2.024 2.024 0 0 0 0 4.047zM471.281 120.123a2.024 2.024 0 1 0 0-4.048 2.024 2.024 0 0 0 0 4.048zM71.114 81.628a2.024 2.024 0 1 0 .002-4.048 2.024 2.024 0 0 0-.002 4.048zM135.265 291.867a1.876 1.876 0 1 0 .002-3.752 1.876 1.876 0 0 0-.002 3.752z"/>
    <path fill="url(#a)" d="M289.445 438.294c-71.756 0-69.484-108.772-131.858-123.182-24.939-5.775-38.52-24.183-50.027-44.17-19.21-33.313-70.126-19.84-70.126 18.605v148.747h252.011z"/>
    <path fill="#fff" stroke="#BE6361" stroke-linecap="round" stroke-miterlimit="10" stroke-width="3" d="M163.761 110.351l-21.038 27.39c-15.063-11.993-27.952-25.416-39.262-40.962l28.298-19.84c9.235 12.684 19.754 23.64 32.002 33.412zM378.684 91.35c4.988 4.491 10.025 8.982 15.013 13.473-7.655 8.242-16.05 15.102-25.631 21.024-3.408-5.774-6.864-11.548-10.272-17.322 7.803-4.886 14.667-10.463 20.89-17.175z"/>
    <path fill="#BE6361" stroke="#BE6361" stroke-linecap="round" stroke-miterlimit="10" stroke-width="3" d="M103.017 269.51c7.111 6.367 14.272 12.782 21.384 19.149-10.914 11.696-22.866 21.517-36.496 29.907a16193.87 16193.87 0 0 1-14.618-24.676c11.063-6.86 20.791-14.855 29.73-24.38z"/>
    <path fill="#fff" stroke="#BE6361" stroke-linecap="round" stroke-miterlimit="10" stroke-width="3" d="M127.265 369.547c-9.087 7.106-18.124 14.213-27.211 21.27-11.606-15.348-20.742-31.585-27.804-49.45 10.766-4.047 21.581-8.094 32.347-12.141 5.778 14.559 13.235 27.785 22.668 40.321z"/>
    <path fill="#BE6361" stroke="#BE6361" stroke-linecap="round" stroke-miterlimit="10" stroke-width="3" d="M110.968 402.76l16.593 17.915-21.383 9.476-6.272-8.834 11.062-18.557z"/>
    <path stroke="#2B2B2B" stroke-linecap="round" stroke-miterlimit="10" stroke-width="3" d="M128.648 359.133H75.312v78.47h53.336v-78.47z"/>
    <path fill="#2B2B2B" stroke="#2B2B2B" stroke-linecap="round" stroke-miterlimit="10" stroke-width="3" d="M128.648 430.496H75.312v7.057h53.336v-7.057z"/>
    <path stroke="#2B2B2B" stroke-linecap="round" stroke-miterlimit="10" stroke-width="3" d="M81.781 358.837l46.817 46.786M75.115 365.5l53.483 53.398M75.213 378.874l53.385 53.3M75.312 392.249l42.175 42.146M75.41 405.623l29.928 29.907M75.312 418.849l15.062 15.052M95.264 358.837l33.433 33.412M108.746 358.837l20.05 20.037M122.228 358.837l6.617 6.663M122.228 358.837l-46.817 46.786M128.845 365.5l-53.434 53.398M128.796 378.874l-53.385 53.3M128.697 392.249l-43.41 43.38M128.598 405.623l-29.68 29.66M128.598 418.898l-16.84 16.829M108.746 358.837l-33.434 33.412M95.263 358.837l-19.951 19.939M82.275 358.344l-7.16 7.156"/>
    <path stroke="#F9D5FF" stroke-miterlimit="10" stroke-width="20" d="M154.328 437.455V231.954M101.98 231.954v205.501"/>
    <path stroke="#2B2B2B" stroke-miterlimit="10" stroke-width="20" d="M101.98 244.193v-14.164M154.328 244.193v-14.164"/>
    <path fill="#fff" stroke="#F9D5FF" stroke-linecap="round" stroke-linejoin="round" stroke-miterlimit="10" stroke-width="10" d="M351.67 434.987h-73.435l27.408-11.054h18.619l27.408 11.054z"/>
    <path fill="#fff" stroke="#F9D5FF" stroke-linejoin="round" stroke-miterlimit="10" stroke-width="10" d="M320.607 363.229h-11.358v59.914h11.358v-59.914z"/>
    <path fill="#2B2B2B" d="M323.076 364.315h-16.297v10.364h16.297v-10.364z"/>
    <path fill="#F9D5FF" d="M324.904 299.566h-19.952v72.054h19.952v-72.054z"/>
    <path fill="#2B2B2B" d="M324.904 318.566h-19.952v8.637h19.952v-8.637z"/>
    <path fill="#F9D5FF" d="M343.571 313.384h-57.237v10.364h57.237v-10.364z"/>
    <path fill="#fff" stroke="#F9D5FF" stroke-miterlimit="10" stroke-width="10" d="M214.874 288.461l2.37-42.294c.741-12.832 11.359-22.85 24.199-22.801l35.607.148-3.902 69.932c-.247 4.738-4.148 8.39-8.889 8.39H227.22c-1.037 0-2.025-.148-2.963-.395-5.877-1.382-9.729-6.959-9.383-12.98z"/>
    <path fill="#fff" stroke="#F9D5FF" stroke-miterlimit="10" stroke-width="10" d="M374.535 290.386h-98.127c-9.532 0-16.742-8.932-16.1-19.938l5.778-98.21c.642-11.006 8.889-19.938 18.47-19.938h98.128c9.531 0 16.741 8.932 16.099 19.938l-5.778 98.21c-.642 11.006-8.938 19.938-18.47 19.938z"/>
    <path fill="#2B2B2B" d="M287.47 96.68c-2.716 11.104-18.865 30.5-14.519 46.49 2.617 9.623 3.555 22.307-4.346 38.938-5.383 11.302 22.075 9.476 34.125-2.517 12.05-11.992 7.012-51.276 7.012-51.276L287.47 96.68z"/>
    <path fill="url(#b)" d="M218.874 184.872l45.582 8.735-16.148 2.665 40.89-28.426c8.643-5.972 20.446-3.85 26.471 4.737 5.975 8.637 3.852 20.432-4.741 26.453l-40.891 28.427-1.284.888c-4.494 3.109-10.075 3.553-14.816 1.727l-41.73-16.335 6.667-28.871z"/>
    <path fill="url(#c)" d="M277 232.151c-.148-22.159 15.112-21.27 9.087-36.125-5.136-12.733-1.037-29.907 10.963-34.695a18.226 18.226 0 0 1 6.667-1.233c13.137-.099 14.026-.642 19.557-.691 3.012 0 5.827.493 8.445 1.382 12.741 4.491 20.445 19.049 16.395 32.967 0 0-1.284 3.8-1.135 8.784.148 5.034 12.543 12.338 12.692 27.539L277 232.151z"/>
    <path fill="#fff" d="M331.818 160.788c-.741 5.824-4.445 11.006-10.026 13.424l-12.642 5.577c-5.581 2.467-11.902-1.629-11.951-7.748l-.099-10.71a18.223 18.223 0 0 1 6.667-1.234c13.136-.098 14.025-.641 19.556-.691 3.013-.049 5.828.494 8.495 1.382z"/>
    <path fill="#2B2B2B" d="M324.113 196.963l-13.58 25.614 31.458 6.021 5.531-10.364-23.409-21.271z"/>
    <path stroke="#2B2B2B" stroke-linecap="round" stroke-miterlimit="10" stroke-width="3" d="M286.136 196.026s4.346 8.34-2.716 15.842"/>
    <path fill="url(#d)" d="M337.052 295.47l-67.41-.296 25.087-26.65-2.271 155.063-36.891-.543c-.592-3.257-1.037-6.465-1.58-9.722l-1.383-9.722c-.938-6.465-1.728-12.93-2.519-19.445-1.531-12.93-2.864-25.91-4.049-38.84-.543-6.465-1.136-12.93-1.63-19.395l-.741-9.722-.691-9.723a2041.09 2041.09 0 0 1-2.272-38.79c-.592-12.141 7.754-22.702 19.31-25.17l5.482-1.184a331.002 331.002 0 0 1 15.259-2.863c5.087-.789 10.223-1.48 15.31-1.974 5.136-.493 10.272-.839 15.408-.888h3.852c1.284.049 2.568.049 3.852.099 1.284.049 2.568.098 3.901.197l1.926.197.988.099.988.148 10.074 59.124z"/>
    <path fill="#2B2B2B" d="M300.112 273.508l20.495 20.53h14.421l-1.433-24.133-33.483 3.603z"/>
    <path fill="url(#e)" d="M365.103 293.989l-103.857-33.214 30.323-9.969-91.955 116.224-27.853-26.404c5.037-11.104 33.384-49.055 39.261-59.518 2.963-5.231 5.877-10.462 8.939-15.644l4.494-7.798 4.592-7.748a1750.954 1750.954 0 0 1 18.668-30.697c5.63-9.032 16.248-13.078 26.075-10.808l3.902.938c8.889 2.072 17.679 4.342 26.47 6.662 8.79 2.418 17.532 4.836 26.174 7.551 8.692 2.665 17.334 5.478 25.878 8.587l6.42 2.32c2.123.839 4.247 1.579 6.37 2.467l6.322 2.566 3.16 1.333 1.581.691 1.58.691-16.544 51.77z"/>
    <path fill="#2B2B2B" d="M229.245 329.572l11.457-53.646 7.704 29.463-19.161 24.183z"/>
    <path stroke="#2B2B2B" stroke-linecap="round" stroke-miterlimit="10" stroke-width="3" d="M261.148 247.006l5.481 5.971"/>
    <path fill="#FDC068" d="M296.606 147.908l15.309-.938c7.951-.494 13.976-7.304 13.482-15.2l-1.382-23.097c-.791-12.683-11.655-22.356-24.347-21.567-12.692.79-22.372 11.647-21.581 24.331l1.284 21.172c.543 8.982 8.247 15.842 17.235 15.299z"/>
    <path fill="#FDC068" d="M310.286 173.373l19.26-8.439-4.692-43.528-24.445 1.48.395 44.318c-.05 4.837 4.988 8.094 9.482 6.169z"/>
    <path fill="#2B2B2B" d="M281.05 120.715a2.617 2.617 0 1 0 0-5.233 2.617 2.617 0 0 0 0 5.233z"/>
    <path stroke="#2B2B2B" stroke-linecap="round" stroke-miterlimit="10" stroke-width="2.609" d="M288.211 117.162l-3.013 4.096c-.593.789-.395 1.974.445 2.517l2.173 1.135M284.902 132.312s2.667 3.998 6.617 0"/>
    <path fill="#2B2B2B" d="M295.964 119.925a2.616 2.616 0 1 0 0-5.231 2.616 2.616 0 1 0 0 5.231z"/>
    <path fill="url(#f)" d="M339.67 191.09l45.088-4.688-10.469 34.842-40.644-26.748c-8.791-5.775-11.211-17.57-5.433-26.305 5.778-8.785 17.581-11.203 26.323-5.429l40.643 26.749 1.63 1.086c8.544 5.626 10.865 17.076 5.284 25.613-3.901 5.923-10.716 8.884-17.334 8.193l-41.236-4.491-3.852-28.822z"/>
    <path stroke="#2B2B2B" stroke-linecap="round" stroke-miterlimit="10" stroke-width="3" d="M340.509 187.291l7.013 10.808"/>
    <path fill="#fff" d="M359.572 205.452c0 6.465-3.408 12.091-8.494 15.25l-7.556-.839s-5.976-7.65-5.976-13.572c0-7.304 2.124-15.2 2.124-15.2l10.963-1.135c5.334 3.109 8.939 8.883 8.939 15.496z"/>
    <path fill="#2B2B2B" d="M245.295 437.455h40.249c3.556 0 6.469-2.862 6.519-6.416l.148-8.587-37.286.346-10.469 8.143c-3.803.937-3.112 6.514.839 6.514zM144.402 335.296l39.903 37.656c2.518 2.517 6.617 2.517 9.136.049l6.173-5.971-27.853-26.404-23.359-10.561c-3.358-1.974-6.766 2.468-4 5.231zM293.939 87.748c-1.037 6.76-11.062 19.099-15.852 20.431.049 0 .889-17.224 15.852-20.431z"/>
    <path fill="#fff" d="M294.087 296.506h70.571c4.89 0 8.84 3.949 8.84 8.834a8.827 8.827 0 0 1-8.84 8.834h-70.571v-17.668z"/>
    <path fill="#F9D5FF" d="M364.658 294.039h-70.571v4.935h70.571c3.507 0 6.371 2.862 6.371 6.366 0 3.504-2.864 6.367-6.371 6.367h-70.571v4.935h70.571c6.223 0 11.31-5.083 11.31-11.302.049-6.218-5.038-11.301-11.31-11.301z"/>
    <path fill="#fff" stroke="#F9D5FF" stroke-miterlimit="10" stroke-width="10" d="M333.595 288.461l2.371-42.294c.74-12.832 11.358-22.85 24.198-22.801l35.607.148-3.013 54.436c-.74 13.423-11.852 23.886-25.285 23.886h-21.532a11.6 11.6 0 0 1-2.963-.395c-5.827-1.382-9.728-6.959-9.383-12.98z"/>
    <path fill="url(#g)" d="M244.653 329.572c0-3.554-2.667-26.897-4.247-47.477-1.037-13.868 8.692-26.255 22.421-28.525 16.346-2.665 31.211 9.969 31.162 26.502l-.05 36.964-49.286 12.536z"/>
    <path fill="url(#h)" d="M281.84 258.061l26.026 23.245-16.544.395-9.482-23.64z"/>
    <path stroke="#2B2B2B" stroke-linecap="round" stroke-miterlimit="10" stroke-width="3" d="M294.087 284.612v9.426"/>
    <path fill="#fff" stroke="#BE6361" stroke-linecap="round" stroke-miterlimit="10" stroke-width="3" d="M429.55 211.078h-56.99v15.299h56.99v-15.299z"/>
    <path fill="#BE6361" stroke="#BE6361" stroke-linecap="round" stroke-miterlimit="10" stroke-width="3" d="M463.428 211.078H429.55v15.299h33.878v-15.299z"/>
    <path fill="#fff" stroke="#BE6361" stroke-linecap="round" stroke-miterlimit="10" stroke-width="3" d="M437.353 195.779h-56.99v15.299h56.99v-15.299z"/>
    <path fill="#BE6361" stroke="#BE6361" stroke-linecap="round" stroke-miterlimit="10" stroke-width="3" d="M471.231 195.779h-33.878v15.299h33.878v-15.299z"/>
    <path fill="#fff" stroke="#BE6361" stroke-linecap="round" stroke-miterlimit="10" stroke-width="3" d="M381.203 177.568h56.15v18.853h-56.15a.865.865 0 0 1-.84-.839v-17.175c0-.444.395-.839.84-.839z"/>
    <path fill="#BE6361" stroke="#BE6361" stroke-linecap="round" stroke-miterlimit="10" stroke-width="3" d="M471.231 177.568h-33.878v18.853h33.878v-18.853z"/>
    <path fill="#fff" stroke="#BE6361" stroke-linecap="round" stroke-miterlimit="10" stroke-width="3" d="M428.414 162.565h-56.99v15.3h56.99v-15.3z"/>
    <path fill="#BE6361" stroke="#BE6361" stroke-linecap="round" stroke-miterlimit="10" stroke-width="3" d="M462.243 162.565h-33.878v15.3h33.878v-15.3z"/>
    <path fill="#fff" stroke="#BE6361" stroke-linecap="round" stroke-miterlimit="10" stroke-width="3" d="M431.97 147.167h-56.99v15.3h56.99v-15.3z"/>
    <path fill="#BE6361" stroke="#BE6361" stroke-linecap="round" stroke-miterlimit="10" stroke-width="3" d="M465.799 147.167h-33.878v15.3h33.878v-15.3z"/>
    <path fill="#fff" stroke="#BE6361" stroke-linecap="round" stroke-miterlimit="10" stroke-width="3" d="M135.71 213.052H87.708v12.881h48.002v-12.881z"/>
    <path fill="#BE6361" stroke="#BE6361" stroke-linecap="round" stroke-miterlimit="10" stroke-width="3" d="M164.205 213.052H135.66v12.881h28.545v-12.881z"/>
    <path fill="#fff" stroke="#BE6361" stroke-linecap="round" stroke-miterlimit="10" stroke-width="3" d="M142.278 200.171H94.276v12.881h48.002v-12.881z"/>
    <path fill="#BE6361" stroke="#BE6361" stroke-linecap="round" stroke-miterlimit="10" stroke-width="3" d="M170.823 200.171h-28.545v12.881h28.545v-12.881z"/>
    <path fill="#fff" stroke="#BE6361" stroke-linecap="round" stroke-miterlimit="10" stroke-width="3" d="M95.017 184.823h47.261v15.842H95.017a.675.675 0 0 1-.692-.691v-14.411c-.05-.395.296-.74.692-.74z"/>
    <path fill="#BE6361" stroke="#BE6361" stroke-linecap="round" stroke-miterlimit="10" stroke-width="3" d="M170.822 184.823h-28.544v15.842h28.544v-15.842z"/>
    <path fill="#fff" stroke="#BE6361" stroke-linecap="round" stroke-miterlimit="10" stroke-width="3" d="M134.722 172.188H86.72v12.881h48.002v-12.881z"/>
    <path fill="#BE6361" stroke="#BE6361" stroke-linecap="round" stroke-miterlimit="10" stroke-width="3" d="M163.267 172.188h-28.545v12.881h28.545v-12.881z"/>
    <path fill="#fff" stroke="#BE6361" stroke-linecap="round" stroke-miterlimit="10" stroke-width="3" d="M137.735 159.258H89.732v12.881h48.003v-12.881z"/>
    <path fill="#BE6361" stroke="#BE6361" stroke-linecap="round" stroke-miterlimit="10" stroke-width="3" d="M166.279 159.258h-28.544v12.881h28.544v-12.881z"/>
    <path fill="#2B2B2B" d="M467.972 225.242H97.042v6.712h370.93v-6.712z"/>
    <path stroke="#F9D5FF" stroke-miterlimit="10" stroke-width="20" d="M462.737 437.455V231.954"/>
    <path fill="#fff" stroke="#BE6361" stroke-linecap="round" stroke-linejoin="round" stroke-miterlimit="10" stroke-width="3" d="M421.155 354.593h-69.139v82.565h69.139v-82.565z"/>
    <path fill="#BE6361" stroke="#BE6361" stroke-linecap="round" stroke-miterlimit="10" stroke-width="3" d="M421.204 427.683l-24.89.592v-73.584l24.89-.592v73.584z"/>
    <path stroke="#BE6361" stroke-linecap="round" stroke-miterlimit="10" stroke-width="3" d="M396.364 354.593v82.516M352.016 365.944h17.235M377.992 371.126h17.236M352.016 373.643h8.642M364.313 384.401h13.679M357.843 389.879h8.593M371.177 419.935h13.68M357.843 426.696h8.593M381.943 397.479h13.285M388.61 428.275h6.618M355.72 407.695h17.235M400.166 364.858h17.236M412.512 384.401h8.593M405.994 395.802h8.593M397.648 414.95h8.346M405.994 424.031h8.593M414.587 408.485h6.518"/>
    <path fill="#fff" stroke="#BE6361" stroke-linecap="round" stroke-linejoin="round" stroke-miterlimit="10" stroke-width="3" d="M372.955 337.418s-9.383 6.466-8.593 13.276l35.211 3.899-26.618-17.175z"/>
    <path fill="#BE6361" stroke="#BE6361" stroke-linecap="round" stroke-miterlimit="10" stroke-width="3" d="M360.658 340.972c-4.889 5.182-3.259 13.621 3.704 13.621h35.162l-38.866-13.621z"/>
    <path fill="#fff" stroke="#BE6361" stroke-linecap="round" stroke-miterlimit="10" stroke-width="3" d="M444.563 424.031H395.08v13.276h49.483v-13.276z"/>
    <path fill="#BE6361" stroke="#BE6361" stroke-linecap="round" stroke-miterlimit="10" stroke-width="3" d="M473.997 424.031h-29.434v13.276h29.434v-13.276z"/>
    <path fill="#fff" stroke="#BE6361" stroke-linecap="round" stroke-miterlimit="10" stroke-width="3" d="M451.378 410.755h-49.483v13.276h49.483v-13.276z"/>
    <path fill="#BE6361" stroke="#BE6361" stroke-linecap="round" stroke-miterlimit="10" stroke-width="3" d="M480.812 410.755h-29.434v13.276h29.434v-13.276z"/>
    <path fill="#fff" stroke="#BE6361" stroke-linecap="round" stroke-miterlimit="10" stroke-width="3" d="M402.635 394.914h48.743v16.335h-48.743a.758.758 0 0 1-.74-.74v-14.905c0-.345.296-.69.74-.69z"/>
    <path fill="#BE6361" stroke="#BE6361" stroke-linecap="round" stroke-miterlimit="10" stroke-width="3" d="M480.812 394.914h-29.434v16.335h29.434v-16.335z"/>
    <path fill="#fff" stroke="#BE6361" stroke-linecap="round" stroke-miterlimit="10" stroke-width="3" d="M443.576 381.885h-49.484v13.275h49.484v-13.275z"/>
    <path fill="#BE6361" stroke="#BE6361" stroke-linecap="round" stroke-miterlimit="10" stroke-width="3" d="M473.009 381.885h-29.433v13.275h29.433v-13.275z"/>
    <path fill="#fff" stroke="#BE6361" stroke-linecap="round" stroke-miterlimit="10" stroke-width="3" d="M446.687 368.51h-49.484v13.276h49.484V368.51z"/>
    <path fill="#BE6361" stroke="#BE6361" stroke-linecap="round" stroke-miterlimit="10" stroke-width="3" d="M476.071 368.51h-29.434v13.276h29.434V368.51z"/>
    <path stroke="#F9D5FF" stroke-miterlimit="10" stroke-width="20" d="M410.389 231.954v205.501"/>
    <path stroke="#2B2B2B" stroke-miterlimit="10" stroke-width="20" d="M410.389 244.193v-14.164M462.737 244.193v-14.164"/>
    <path fill="#2B2B2B" d="M288.902 89.722c-8.05 6.465 7.013 17.865 16.692 24.972 12.001 8.834-2.815 45.255 15.951 63.91 18.767 18.655 27.557-6.909 46.916-6.366 4.642.099-9.432-5.33-14.568-28.871-3.754-17.174-21.335-18.803-23.063-26.206-.543-2.418-2.371-15.99-11.26-24.626-8.297-8.044-19.853-11.5-30.668-2.813z"/>
    <path fill="#FDC068" d="M212.207 213.792l-12.494-4.886c-7.062-2.763-10.569-10.709-7.803-17.816a13.758 13.758 0 0 1 15.408-8.488l11.605 2.221-6.716 28.969zM340.904 219.813l-7.062-.74c-7.506-.79-13.235-7.403-12.544-14.954.593-6.662 5.877-11.795 12.297-12.436l6.075-.642a10.276 10.276 0 0 1 7.062 1.925l1.58 1.135c5.087 3.751 6.914 10.512 4.445 16.286l-1.432 3.307c-1.778 4.145-5.976 6.613-10.421 6.119z"/>
    <path stroke="#2B2B2B" stroke-linecap="round" stroke-miterlimit="10" stroke-width="3" d="M254.431 192.028l-6.914 4.936M352.065 189.807l23.952-2.516"/>
    <path fill="#fff" d="M218.874 184.872l-6.667 28.92 8.05 3.159 6.519-30.549-7.902-1.53z"/>
    <path stroke="#2B2B2B" stroke-linecap="round" stroke-miterlimit="10" stroke-width="3" d="M300.112 273.508l-27.853-17.865c-2.765-1.777-6.074-2.517-9.333-2.024h-.05c-13.087 2.123-23.063 13.473-23.013 26.552"/>
    <path fill="#fff" stroke="#BE6361" stroke-linecap="round" stroke-miterlimit="10" stroke-width="3" d="M155.266 386.672h56.151v18.852h-56.151a.865.865 0 0 1-.839-.839v-17.174c0-.494.346-.839.839-.839z"/>
    <path fill="#BE6361" stroke="#BE6361" stroke-linecap="round" stroke-miterlimit="10" stroke-width="3" d="M245.295 386.672h-33.878v18.852h33.878v-18.852z"/>
    <path fill="#fff" stroke="#BE6361" stroke-linecap="round" stroke-miterlimit="10" stroke-width="3" d="M202.429 371.62h-56.99v15.299h56.99V371.62z"/>
    <path fill="#BE6361" stroke="#BE6361" stroke-linecap="round" stroke-miterlimit="10" stroke-width="3" d="M236.307 371.62h-33.878v15.299h33.878V371.62z"/>
    <path fill="#fff" stroke="#BE6361" stroke-linecap="round" stroke-miterlimit="10" stroke-width="3" d="M203.565 413.914h-56.99v21.567h56.99v-21.567z"/>
    <path fill="#BE6361" stroke="#BE6361" stroke-linecap="round" stroke-miterlimit="10" stroke-width="3" d="M237.443 413.914h-33.878v21.567h33.878v-21.567z"/>
    <path fill="#fff" stroke="#BE6361" stroke-linecap="round" stroke-miterlimit="10" stroke-width="3" d="M202.478 404.883h-56.99v9.031h56.99v-9.031z"/>
    <path fill="#BE6361" stroke="#BE6361" stroke-linecap="round" stroke-miterlimit="10" stroke-width="3" d="M236.356 404.883h-43.014v9.031h43.014v-9.031z"/>
    <path fill="#2B2B2B" d="M397.154 436.221H97.14v2.024h300.014v-2.024z"/>
    <path fill="#2B2B2B" stroke="#2B2B2B" stroke-linecap="round" stroke-miterlimit="10" stroke-width="3" d="M277.198 201.553H160.551a6.195 6.195 0 0 1-6.223-6.218v-75.558a6.194 6.194 0 0 1 6.223-6.218h116.597a6.194 6.194 0 0 1 6.223 6.218v75.558c0 3.454-2.766 6.218-6.173 6.218z"/>
    <path fill="#fff" stroke="#2B2B2B" stroke-linecap="round" stroke-miterlimit="10" stroke-width="3" d="M270.234 201.553H154.18a6.51 6.51 0 0 1-6.519-6.514v-75.015a6.51 6.51 0 0 1 6.519-6.515h116.054a6.51 6.51 0 0 1 6.519 6.515v75.015c-.049 3.602-2.963 6.514-6.519 6.514z"/>
    <path fill="#2B2B2B" stroke="#2B2B2B" stroke-linecap="round" stroke-linejoin="round" stroke-miterlimit="10" stroke-width="3" d="M224.948 157.581v43.972h-18.074l18.074-43.972z"/>
    <path fill="#fff" stroke="#2B2B2B" stroke-linecap="round" stroke-miterlimit="10" stroke-width="3" d="M240.752 225.242h-51.163c-3.457 0-6.025-3.257-5.186-6.613l15.013-61.048h25.532l-14.074 57.149c-.84 3.356 1.728 6.663 5.234 6.613l25.335-.049c.346 0 0 2.912 0 3.257a.675.675 0 0 1-.691.691z"/>
    <path stroke="#2B2B2B" stroke-linecap="round" stroke-miterlimit="10" stroke-width="3" d="M299.372 148.599l7.259-1.234"/>
    <path stroke="#F9D5FF" stroke-miterlimit="10" stroke-width="10" d="M209.046 88.39l11.606 10.264M264.012 57.89l5.778 13.473M360.164 68.747l-11.506 10.364"/>
    <path fill="url(#i)" d="M389.005 438.294c26.372 0 38.422-38.643 69.485-34.892 9.334 1.135 19.754-17.964 24.001-25.169 7.062-11.943 25.779-7.107 25.779 6.662v53.399H389.005z"/>
    <defs>
        <linearGradient id="a" x1="163.439" x2="163.439" y1="285.401" y2="432.19" gradientUnits="userSpaceOnUse">
            <stop stop-color="#FFD8A1"/>
            <stop offset=".996" stop-color="#fff"/>
        </linearGradient>
        <linearGradient id="b" x1="265.635" x2="265.635" y1="250.214" y2="115.482" gradientUnits="userSpaceOnUse">
            <stop stop-color="#EA979A"/>
            <stop offset=".409" stop-color="#F2D38B"/>
            <stop offset=".499" stop-color="#7E9DAE"/>
            <stop offset=".599" stop-color="#90979D"/>
            <stop offset="1" stop-color="#7EBDDB"/>
        </linearGradient>
        <linearGradient id="c" x1="318.335" x2="318.335" y1="250.213" y2="115.481" gradientUnits="userSpaceOnUse">
            <stop stop-color="#EA979A"/>
            <stop offset=".409" stop-color="#F2D38B"/>
            <stop offset=".499" stop-color="#7E9DAE"/>
            <stop offset=".599" stop-color="#90979D"/>
            <stop offset="1" stop-color="#7EBDDB"/>
        </linearGradient>
        <linearGradient id="d" x1="288.862" x2="288.862" y1="433.803" y2="206.831" gradientUnits="userSpaceOnUse">
            <stop stop-color="#9774AC"/>
            <stop offset=".401" stop-color="#47A6D3"/>
            <stop offset=".501" stop-color="#A7A7AE"/>
            <stop offset=".591" stop-color="#E89AC0"/>
            <stop offset="1" stop-color="#BFE7D1"/>
        </linearGradient>
        <linearGradient id="e" x1="276.704" x2="276.704" y1="433.803" y2="206.83" gradientUnits="userSpaceOnUse">
            <stop stop-color="#9774AC"/>
            <stop offset=".401" stop-color="#47A6D3"/>
            <stop offset=".501" stop-color="#A7A7AE"/>
            <stop offset=".591" stop-color="#E89AC0"/>
            <stop offset="1" stop-color="#BFE7D1"/>
        </linearGradient>
        <linearGradient id="f" x1="365.1" x2="365.1" y1="250.214" y2="115.482" gradientUnits="userSpaceOnUse">
            <stop stop-color="#EA979A"/>
            <stop offset=".409" stop-color="#F2D38B"/>
            <stop offset=".499" stop-color="#7E9DAE"/>
            <stop offset=".599" stop-color="#90979D"/>
            <stop offset="1" stop-color="#7EBDDB"/>
        </linearGradient>
        <linearGradient id="g" x1="267.159" x2="267.159" y1="433.803" y2="206.831" gradientUnits="userSpaceOnUse">
            <stop stop-color="#9774AC"/>
            <stop offset=".401" stop-color="#47A6D3"/>
            <stop offset=".501" stop-color="#A7A7AE"/>
            <stop offset=".591" stop-color="#E89AC0"/>
            <stop offset="1" stop-color="#BFE7D1"/>
        </linearGradient>
        <linearGradient id="h" x1="294.853" x2="294.853" y1="433.803" y2="206.831" gradientUnits="userSpaceOnUse">
            <stop stop-color="#9774AC"/>
            <stop offset=".401" stop-color="#47A6D3"/>
            <stop offset=".501" stop-color="#A7A7AE"/>
            <stop offset=".591" stop-color="#E89AC0"/>
            <stop offset="1" stop-color="#BFE7D1"/>
        </linearGradient>
        <linearGradient id="i" x1="448.638" x2="448.638" y1="383.383" y2="436.089" gradientUnits="userSpaceOnUse">
            <stop stop-color="#FFD8A1"/>
            <stop offset=".996" stop-color="#fff"/>
        </linearGradient>
    </defs>
</svg>
