<svg xmlns="http://www.w3.org/2000/svg" width="362" height="361" fill="none" viewBox="0 0 362 361">
    <g opacity=".3">
        <path fill="#C4ECFE" d="M332.152 26.975a4.008 4.008 0 0 1 4.008 4.008v260.828a4.008 4.008 0 0 1-4.008 4.009H29.809a4.009 4.009 0 0 1-4.009-4.009V30.983a4.008 4.008 0 0 1 4.009-4.008h302.343zm5.023 2.972a4.008 4.008 0 0 0-4.008-4.008H28.794a4.008 4.008 0 0 0-4.009 4.008v262.9a4.009 4.009 0 0 0 4.009 4.009h304.373a4.008 4.008 0 0 0 4.008-4.009v-262.9z" opacity=".3"/>
        <g stroke="#C4ECFE" stroke-miterlimit="10" stroke-width="2.913" opacity=".3">
            <path d="M100.845 25.939v270.917M140.593 25.939v270.917M100.845 25.939v270.917M61.096 25.939v270.917M180.342 25.939v270.917M220.091 25.939v270.917M259.348 25.939v270.917M298.605 25.939v270.917" opacity=".3"/>
        </g>
    </g>
    <path stroke="url(#a)" stroke-linecap="round" stroke-miterlimit="10" stroke-width="11" d="M44.824 202.561v-56.757"/>
    <path stroke="#CAE6C4" stroke-linecap="round" stroke-miterlimit="10" stroke-width="11" d="M44.824 157.704c.654-4.012 4.19-6.819 8.152-6.519M44.824 157.704c-.655-4.011-4.191-6.819-8.153-6.518"/>
    <path stroke="url(#b)" stroke-linecap="round" stroke-miterlimit="10" stroke-width="11" d="M206.077 295.92v-50.908"/>
    <path stroke="#CAE6C4" stroke-linecap="round" stroke-miterlimit="10" stroke-width="11" d="M206.077 256.912c.655-4.012 4.191-6.819 8.153-6.518M206.077 256.912c-.655-4.011-4.191-6.819-8.153-6.518M206.077 266.104c.655-4.011 4.191-6.819 8.153-6.518M206.077 266.104c-.655-4.011-4.191-6.819-8.153-6.518"/>
    <path stroke="url(#c)" stroke-linecap="round" stroke-miterlimit="10" stroke-width="11" d="M316.221 221.614v-50.908"/>
    <path stroke="#CAE6C4" stroke-linecap="round" stroke-miterlimit="10" stroke-width="11" d="M316.221 182.606c.654-4.011 4.19-6.819 8.152-6.518M316.221 182.606c-.655-4.011-4.191-6.819-8.153-6.518M316.221 191.798c.654-4.011 4.19-6.819 8.152-6.518M316.221 191.798c-.655-4.011-4.191-6.819-8.153-6.518"/>
    <path fill="url(#d)" d="M96.916 296.856H28.794a4.009 4.009 0 0 1-4.009-4.009v-41.985c0-7.421 9.135-10.73 13.72-4.981 3.503 4.379 6.45 10.396 7.006 18.451 1.473 21.961 23.116 32.524 51.405 32.524z"/>
    <path fill="#2B2B2B" d="M172.617 295.452h-94.66a.685.685 0 0 0 0 1.37h94.66a.685.685 0 1 0 0-1.37z"/>
    <path fill="#fff" d="M290.42 102.985v155.631c0 5.014-3.962 9.059-8.873 9.059H80.414c-4.911 0-8.873-4.045-8.873-9.059V102.985"/>
    <path stroke="#F9D5FF" stroke-miterlimit="10" stroke-width="10" d="M290.42 102.985v155.631c0 5.014-3.962 9.059-8.873 9.059H80.414c-4.911 0-8.873-4.045-8.873-9.059V102.985"/>
    <path fill="#F9D5FF" stroke="#F9D5FF" stroke-miterlimit="10" stroke-width="10" d="M290.42 98.977a4.007 4.007 0 0 1-4.008 4.008H75.549a4.008 4.008 0 0 1-4.008-4.008V81.192c0-5.014 3.962-9.059 8.873-9.059h201.133c4.911 0 8.873 4.045 8.873 9.059v17.785z"/>
    <path fill="#F94F74" d="M87.945 93.425c3.182 0 5.762-2.633 5.762-5.882 0-3.25-2.58-5.884-5.762-5.884-3.183 0-5.763 2.634-5.763 5.883 0 3.25 2.58 5.883 5.763 5.883z"/>
    <path fill="#F5B870" d="M107.622 93.425c3.183 0 5.763-2.633 5.763-5.882 0-3.25-2.58-5.884-5.763-5.884-3.182 0-5.762 2.634-5.762 5.883 0 3.25 2.58 5.883 5.762 5.883z"/>
    <path fill="#6FB895" d="M127.333 93.425c3.183 0 5.763-2.633 5.763-5.882 0-3.25-2.58-5.884-5.763-5.884s-5.763 2.634-5.763 5.883c0 3.25 2.58 5.883 5.763 5.883z"/>
    <path stroke="#2B2B2B" stroke-linecap="round" stroke-miterlimit="10" stroke-width="3" d="M235.676 25.939L107.622 267.674M299.719 25.939L171.665 267.674M218.715 57.96h64.043M198.121 96.701h64.01M177.69 135.442h63.846M157.161 174.182h63.781M136.632 212.923h64.435M116.103 251.664h64.239"/>
    <path stroke="#F9D5FF" stroke-miterlimit="10" stroke-width="10" d="M290.42 196.043v62.573c0 5.014-3.962 9.059-8.873 9.059H80.414c-4.911 0-8.873-4.045-8.873-9.059v-62.573"/>
    <path fill="#FDC068" d="M116.148 129.528a4.006 4.006 0 0 1 .321 5.665l-1.119 1.252c-2.882 3.209-7.793 3.442-10.936.501-2.849-2.674-3.307-7.019-1.212-10.228l1.056-1.617a4.008 4.008 0 0 1 6.022-.801l5.868 5.228z"/>
    <path fill="url(#e)" d="M109.378 123.502a4.008 4.008 0 0 1-.682-5.187l16.574-25.29a6.86 6.86 0 0 1 1.637-1.739l.557-.4 33.429-24.402c4.813-3.51 11.526-2.373 14.963 2.54 3.438 4.914 2.325 11.766-2.488 15.276l-30.954 22.595c-.219.159-.476-.144-.282-.333l-20.346 22.662a4.008 4.008 0 0 1-5.653.312l-6.755-6.034z"/>
    <path fill="#FDC068" d="M193.93 50.306l1.015 2.307c.151.36.05.76-.214 1.017-.16.156-.386.214-.604.268l-1.278.32"/>
    <path stroke="#2B2B2B" stroke-linecap="round" stroke-miterlimit="10" stroke-width="2.219" d="M193.93 50.306l1.015 2.307c.151.36.05.76-.214 1.017-.16.156-.386.214-.604.268l-1.278.32"/>
    <path fill="#FDC068" d="M182.405 62.607l-7.203-2.14c-3.733-1.102-5.894-5.08-4.813-8.89l3.143-11.098c1.735-6.084 7.989-9.593 13.948-7.822 5.959 1.772 9.397 8.156 7.661 14.24l-2.881 10.195c-1.211 4.278-5.632 6.785-9.855 5.515z"/>
    <path fill="#2B2B2B" d="M194.061 51.176c.705 0 1.277-.584 1.277-1.304 0-.72-.572-1.304-1.277-1.304s-1.277.584-1.277 1.304c0 .72.572 1.304 1.277 1.304z"/>
    <path fill="#FDC068" d="M173.139 73.504l-5.969-4.48a4.007 4.007 0 0 1-1.394-4.481l4.79-14.279a4.008 4.008 0 0 1 4.94-2.568l4.175 1.239a4.01 4.01 0 0 1 2.767 4.738l-4.103 17.892c-.524 2.373-3.274 3.41-5.206 1.939z"/>
    <path fill="#2B2B2B" d="M180.239 63.367a1.418 1.418 0 0 0-.974-1.677c-1.228-.368-2.275.952-1.637 2.064.641 1.117 2.32.869 2.611-.386z"/>
    <path fill="url(#f)" d="M178.676 104.803c2.186.56 4.48-.806 4.505-3.062.078-7.174-4.789-8.889-.973-14.533 4.453-6.585 3.569-17.515-4.551-19.454-6.253-1.504-6.614-1.872-9.266-2.473-8.325-2-16.031 5.272-15.556 13.963.002.05.006.1.01.15.028.382.124 2.202-.399 4.338-.506 1.986-5.024 3.794-7.606 8.398-1.064 1.896.281 4.066 2.387 4.606l31.449 8.067z"/>
    <path fill="url(#g)" d="M171.629 105.013c1.706.56 2.836 2.187 2.722 3.979-.322 5.03-.885 10.035-1.54 15.018a411.89 411.89 0 0 1-2.75 17.883c-1.048 5.95-2.226 11.866-3.471 17.749l-.982 4.412a212.533 212.533 0 0 1-1.015 4.413c-.655 2.941-1.244 5.916-1.866 8.858-2.554 11.832-5.304 23.598-8.382 35.364-1.539 5.883-3.11 11.733-4.846 17.616-.851 2.941-1.702 5.849-2.619 8.757-.59 1.872-1.18 3.757-1.796 5.638-.596 1.819-2.418 2.927-4.313 2.66l-13.386-1.891a4.007 4.007 0 0 1-3.411-4.508l9.253-68.082c.425-3.008.785-6.017 1.244-8.992l1.408-8.991 2.815-17.95 4.214-36.302a4.01 4.01 0 0 1 5.233-3.346l23.488 7.715z"/>
    <path fill="url(#h)" d="M146.941 96.101c-2.002-.192-3.873 1.156-3.689 3.16.511 5.586 4.56 12.557 12.468 14.521l7.891 1.671c7.66 1.883 15.418-2.634 18.269-7.853.766-1.401.119-3.055-1.166-4.004l-5.733-4.23a4.005 4.005 0 0 0-1.997-.765l-26.043-2.5z"/>
    <path fill="#2B2B2B" d="M159.911 252.499l-33.266-.133c-1.735 0-3.143-1.438-3.176-3.209l-.002-.119a4.008 4.008 0 0 1 4.064-4.1l16.384.234c.317.005.631.047.938.125l15.451 3.96c1.866.468 1.506 3.242-.393 3.242z"/>
    <path fill="url(#i)" d="M159.602 104.719a.879.879 0 0 1 .375-1.166l.753-.367 1.506-.736 3.077-1.37c1.015-.468 2.063-.869 3.078-1.304l3.111-1.236a236.178 236.178 0 0 1 12.605-4.546c4.224-1.438 8.513-2.708 12.77-3.978a527.736 527.736 0 0 1 12.965-3.476l2.587-.635c7.694-1.906 15.454 2.908 17.32 10.763a15.004 15.004 0 0 1-.262 7.821c-1.432 4.656-16.96 47.498-22.018 60.193-.734 1.841-2.724 2.71-4.614 2.115l-13.302-4.187a4.009 4.009 0 0 1-2.716-4.664l11.424-53.279c.649-3.026 4.337-4.206 6.622-2.119l8.865 8.096c2.426 2.216 1.302 6.249-1.921 6.891l-38.754 7.714a4.007 4.007 0 0 1-4.374-2.153l-9.097-18.377z"/>
    <path fill="#2B2B2B" d="M198.067 110.291c-2.923 1.439-2.966 5.9.288 6.067 1.525.079 3.304-.132 5.463-.805 5.251-1.634 18.606-7.761 23.693-10.125 1.256-.584 2.111-1.774 2.223-3.155.147-1.821.28-4.305.048-5.605-.31-1.607-20.668 8.181-31.715 13.623zM218.945 179.43l-31.793-9.894c-1.669-.501-2.619-2.306-2.161-4.011l.033-.117a4.007 4.007 0 0 1 5.091-2.747l15.607 5.025c.301.096.59.229.86.393l13.672 8.343c1.637 1.003.524 3.576-1.309 3.008z"/>
    <path fill="url(#j)" d="M225.369 97.597a4.008 4.008 0 0 1-2.161 5.374l-26.168 10.476c-3.339 1.338-6.974.569-9.528-1.671l-.622-.535-25.375-22.428c-4.485-3.945-4.976-10.864-1.08-15.443a10.546 10.546 0 0 1 15.127-1.103l21.812 19.28c.956.844.163 2.407-1.083 2.136-1.295-.283-1.3-2.127-.007-2.417l20.625-4.616a4.007 4.007 0 0 1 4.526 2.258l3.934 8.69z"/>
    <path fill="#FDC068" d="M222.13 90.465a4.008 4.008 0 0 1 2.777-5.568l2.976-.664c4.191-.936 8.317 1.772 9.233 6.017.819 3.844-1.244 7.654-4.747 9.058l-1.716.686a4.008 4.008 0 0 1-5.137-2.066l-3.386-7.463z"/>
    <path fill="#2B2B2B" d="M195.952 43.69c-.191 1.579-1.639 2.598-3.227 2.69l-1.8.105a2.585 2.585 0 0 0-2.361 1.965 2.583 2.583 0 0 1-2.038 1.927l-.601.111a3.534 3.534 0 0 0-1.747.873l-4.229 3.892a6.87 6.87 0 0 1-7.367 1.27 3.562 3.562 0 0 1-2.095-3.075l-.071-1.7a4.02 4.02 0 0 1 .166-1.318l3.375-11.255c1.376-4.58 5.534-7.654 10.216-7.554l1.637.033c3.765.067 7.236 2.24 9.004 5.65l.065.1c.962 1.914 1.335 4.12 1.073 6.286z"/>
    <path fill="#2B2B2B" d="M192.549 43.048a4.008 4.008 0 0 0 4.084 3.138l.571-.024a5.018 5.018 0 0 0 4.649-3.878l.361-1.47c.491-1.973-.262-4.078-1.834-5.315a4.957 4.957 0 0 0-4.846-.702l-1.262.506a4.006 4.006 0 0 0-2.422 4.587l.699 3.158z"/>
    <path fill="#FDC068" d="M184.86 53.047c-.785-.2-1.244-.97-1.08-1.772l.884-3.81c.196-.803.949-1.27 1.735-1.103.786.2 1.244.969 1.081 1.771l-.884 3.81c-.197.803-.95 1.304-1.736 1.104z"/>
    <path fill="#BFD9FF" d="M320.313 97.136c.742 0 1.343-.613 1.343-1.37 0-.757-.601-1.371-1.343-1.371-.741 0-1.342.614-1.342 1.37 0 .758.601 1.371 1.342 1.371zM103.202 240.6c.742 0 1.343-.613 1.343-1.37 0-.757-.601-1.371-1.343-1.371-.741 0-1.342.614-1.342 1.371s.601 1.37 1.342 1.37zM271.233 41.783c.742 0 1.343-.614 1.343-1.37 0-.758-.601-1.371-1.343-1.371-.741 0-1.342.613-1.342 1.37 0 .757.601 1.371 1.342 1.371zM206.077 79.22c.741 0 1.342-.614 1.342-1.37 0-.758-.601-1.371-1.342-1.371-.741 0-1.342.613-1.342 1.37 0 .757.601 1.371 1.342 1.371zM47.148 55.287c.742 0 1.343-.614 1.343-1.37 0-.758-.601-1.371-1.343-1.371-.741 0-1.342.613-1.342 1.37 0 .757.6 1.371 1.342 1.371zM271.233 171.71c.687 0 1.244-.569 1.244-1.271 0-.701-.557-1.27-1.244-1.27-.687 0-1.244.569-1.244 1.27 0 .702.557 1.271 1.244 1.271zM52.976 175.453c.688 0 1.245-.568 1.245-1.27 0-.702-.557-1.271-1.245-1.271-.687 0-1.244.569-1.244 1.271s.557 1.27 1.244 1.27z"/>
    <path stroke="#2B2B2B" stroke-linecap="round" stroke-miterlimit="10" stroke-width="3" d="M170.127 125.883l-4.159.367c-2.783.268-5.435-.836-7.268-2.775"/>
    <path fill="#2B2B2B" d="M169.846 96.17c-2.412-2.131-5.658-.566-4.295 2.35 1.172 2.507 3.279 5.191 7.039 7.245 3.404 1.859 5.476-2.332 2.57-4.9l-5.314-4.695z"/>
    <path stroke="#2B2B2B" stroke-linecap="round" stroke-miterlimit="10" stroke-width="3" d="M193.995 124.913l8.972-3.109M143.213 96.701c1.44-4.211 6.581-9.426 7.923-11.197M180.342 76.512l4.027 3.544M197.106 91.086l-3.405.769M133.063 174.183l5.042-3.744"/>
    <path fill="url(#k)" d="M160.762 296.856c24-1.705 54.155-54.886 88.207-54.886 45.085 0 41.451-23.866 59.132-23.866 19.415 0 29.074 10.897 29.074 44.757v29.986a4.008 4.008 0 0 1-4.008 4.009H160.762z"/>
    <path stroke="#F9D5FF" stroke-miterlimit="10" stroke-width="10" d="M298.605 152.322c9.463-12.535 33.594-12.267 38.57-33.058M61.096 31.554c14.8 23.732 32.055 10.195 39.749 29.114"/>
    <defs>
        <linearGradient id="a" x1="-nan" x2="-nan" y1="-nan" y2="-nan" gradientUnits="userSpaceOnUse">
            <stop offset=".259" stop-color="#CAE6C4"/>
            <stop offset=".477" stop-color="#CDE7C7"/>
            <stop offset=".654" stop-color="#D6ECD1"/>
            <stop offset=".817" stop-color="#E5F3E2"/>
            <stop offset=".97" stop-color="#FBFDFA"/>
            <stop offset=".996" stop-color="#fff"/>
        </linearGradient>
        <linearGradient id="b" x1="-nan" x2="-nan" y1="-nan" y2="-nan" gradientUnits="userSpaceOnUse">
            <stop offset=".259" stop-color="#CAE6C4"/>
            <stop offset=".477" stop-color="#CDE7C7"/>
            <stop offset=".654" stop-color="#D6ECD1"/>
            <stop offset=".817" stop-color="#E5F3E2"/>
            <stop offset=".97" stop-color="#FBFDFA"/>
            <stop offset=".996" stop-color="#fff"/>
        </linearGradient>
        <linearGradient id="c" x1="-nan" x2="-nan" y1="-nan" y2="-nan" gradientUnits="userSpaceOnUse">
            <stop offset=".259" stop-color="#CAE6C4"/>
            <stop offset=".477" stop-color="#CDE7C7"/>
            <stop offset=".654" stop-color="#D6ECD1"/>
            <stop offset=".817" stop-color="#E5F3E2"/>
            <stop offset=".97" stop-color="#FBFDFA"/>
            <stop offset=".996" stop-color="#fff"/>
        </linearGradient>
        <linearGradient id="d" x1="60.851" x2="60.851" y1="246.954" y2="295.238" gradientUnits="userSpaceOnUse">
            <stop stop-color="#FFD8A1"/>
            <stop offset=".996" stop-color="#fff"/>
        </linearGradient>
        <linearGradient id="e" x1="146.356" x2="138.987" y1="142.47" y2="64.469" gradientUnits="userSpaceOnUse">
            <stop stop-color="#77879D"/>
            <stop offset=".089" stop-color="#A1978E"/>
            <stop offset=".188" stop-color="#C9A780"/>
            <stop offset=".279" stop-color="#E5B275"/>
            <stop offset=".358" stop-color="#F7B96F"/>
            <stop offset=".415" stop-color="#FDBB6D"/>
            <stop offset=".499" stop-color="#FDBB9F"/>
            <stop offset=".599" stop-color="#D1D2D1"/>
            <stop offset="1" stop-color="#FECEAA"/>
        </linearGradient>
        <linearGradient id="f" x1="164.156" x2="164.156" y1="147.909" y2="62.176" gradientUnits="userSpaceOnUse">
            <stop stop-color="#77879D"/>
            <stop offset=".089" stop-color="#A1978E"/>
            <stop offset=".188" stop-color="#C9A780"/>
            <stop offset=".279" stop-color="#E5B275"/>
            <stop offset=".358" stop-color="#F7B96F"/>
            <stop offset=".415" stop-color="#FDBB6D"/>
            <stop offset=".499" stop-color="#FDBB9F"/>
            <stop offset=".599" stop-color="#D1D2D1"/>
            <stop offset="1" stop-color="#FECEAA"/>
        </linearGradient>
        <linearGradient id="g" x1="148.975" x2="148.975" y1="248.445" y2="101.749" gradientUnits="userSpaceOnUse">
            <stop stop-color="#6B9C83"/>
            <stop offset=".401" stop-color="#A6A6A4"/>
            <stop offset=".501" stop-color="#9F9FC8"/>
            <stop offset=".591" stop-color="#9FCCEC"/>
            <stop offset="1" stop-color="#FFE7B0"/>
        </linearGradient>
        <linearGradient id="h" x1="163.013" x2="163.013" y1="248.445" y2="101.749" gradientUnits="userSpaceOnUse">
            <stop stop-color="#6B9C83"/>
            <stop offset=".401" stop-color="#A6A6A4"/>
            <stop offset=".501" stop-color="#9F9FC8"/>
            <stop offset=".591" stop-color="#9FCCEC"/>
            <stop offset="1" stop-color="#FFE7B0"/>
        </linearGradient>
        <linearGradient id="i" x1="194.684" x2="194.684" y1="248.445" y2="101.749" gradientUnits="userSpaceOnUse">
            <stop stop-color="#6B9C83"/>
            <stop offset=".401" stop-color="#A6A6A4"/>
            <stop offset=".501" stop-color="#9F9FC8"/>
            <stop offset=".591" stop-color="#9FCCEC"/>
            <stop offset="1" stop-color="#FFE7B0"/>
        </linearGradient>
        <linearGradient id="j" x1="192.451" x2="192.451" y1="147.909" y2="62.176" gradientUnits="userSpaceOnUse">
            <stop stop-color="#77879D"/>
            <stop offset=".089" stop-color="#A1978E"/>
            <stop offset=".188" stop-color="#C9A780"/>
            <stop offset=".279" stop-color="#E5B275"/>
            <stop offset=".358" stop-color="#F7B96F"/>
            <stop offset=".415" stop-color="#FDBB6D"/>
            <stop offset=".499" stop-color="#FDBB9F"/>
            <stop offset=".599" stop-color="#D1D2D1"/>
            <stop offset="1" stop-color="#FECEAA"/>
        </linearGradient>
        <linearGradient id="k" x1="248.969" x2="248.969" y1="223.899" y2="294.496" gradientUnits="userSpaceOnUse">
            <stop stop-color="#FFD8A1"/>
            <stop offset=".996" stop-color="#fff"/>
        </linearGradient>
    </defs>
</svg>
