<svg xmlns="http://www.w3.org/2000/svg" width="492" height="492" fill="none" viewBox="0 0 492 492">
    <path fill="#fff" d="M0 0h492v492H0z"/>
    <g opacity=".3">
        <path fill="#C4ECFE" d="M410.208 145.62a4 4 0 0 1 4 4v291.268a4 4 0 0 1-4 4H77.211a4 4 0 0 1-4-4V149.62a4 4 0 0 1 4-4h332.997zm5.115 2.846a4 4 0 0 0-4-4H76.096a4 4 0 0 0-4 4v293.575a4 4 0 0 0 4 4h335.227a4 4 0 0 0 4-4V148.466z" opacity=".3"/>
        <g stroke="#C4ECFE" stroke-miterlimit="10" stroke-width="2.913" opacity=".3">
            <path d="M155.663 144.466v301.575M199.336 144.466v301.575M155.663 144.466v301.575M111.991 144.466v301.575M243.008 144.466v301.575M286.68 144.466v301.575M329.813 144.466v301.575M372.946 144.466v301.575" opacity=".3"/>
        </g>
    </g>
    <path stroke="url(#a)" stroke-linecap="round" stroke-miterlimit="10" stroke-width="11" d="M94.112 341.076v-63.18"/>
    <path stroke="#CAE6C4" stroke-linecap="round" stroke-miterlimit="10" stroke-width="11" d="M94.112 291.142c.72-4.465 4.605-7.59 8.958-7.255M94.112 291.143c-.72-4.466-4.605-7.591-8.957-7.256"/>
    <path stroke="url(#b)" stroke-linecap="round" stroke-miterlimit="10" stroke-width="11" d="M271.283 445v-56.669"/>
    <path stroke="#CAE6C4" stroke-linecap="round" stroke-miterlimit="10" stroke-width="11" d="M271.283 401.577c.72-4.465 4.605-7.59 8.958-7.255M271.283 401.577c-.719-4.465-4.604-7.59-8.957-7.255M271.283 411.81c.72-4.465 4.605-7.591 8.958-7.256M271.283 411.81c-.719-4.465-4.604-7.591-8.957-7.256"/>
    <path stroke="url(#c)" stroke-linecap="round" stroke-miterlimit="10" stroke-width="11" d="M392.299 362.285v-56.669"/>
    <path stroke="#CAE6C4" stroke-linecap="round" stroke-miterlimit="10" stroke-width="11" d="M392.299 318.863c.72-4.465 4.605-7.591 8.958-7.256M392.299 318.863c-.719-4.465-4.604-7.591-8.957-7.256M392.299 329.095c.72-4.465 4.605-7.591 8.958-7.256M392.299 329.095c-.719-4.465-4.604-7.591-8.957-7.256"/>
    <path fill="url(#d)" d="M151.346 446.041h-75.25a4 4 0 0 1-4-4v-47.199c0-8.26 10.037-11.943 15.073-5.544 3.85 4.875 7.087 11.572 7.698 20.54 1.62 24.446 25.398 36.203 56.479 36.203z"/>
    <path fill="#2B2B2B" d="M234.511 444.479H130.525a.763.763 0 1 0 0 1.525h103.986a.764.764 0 0 0 0-1.525z"/>
    <path fill="#fff" d="M363.952 230.232v173.243c0 5.581-4.353 10.083-9.749 10.083H133.215c-5.396 0-9.748-4.502-9.748-10.083V230.232"/>
    <path stroke="#F9D5FF" stroke-miterlimit="10" stroke-width="10" d="M363.952 230.232v173.243c0 5.581-4.353 10.083-9.749 10.083H133.215c-5.396 0-9.748-4.502-9.748-10.083V230.232"/>
    <path fill="#F9D5FF" stroke="#F9D5FF" stroke-miterlimit="10" stroke-width="10" d="M363.952 226.232a4 4 0 0 1-4 4H127.467a4 4 0 0 1-4-4v-20.26c0-5.581 4.352-10.083 9.748-10.083h220.988c5.396 0 9.749 4.502 9.749 10.083v20.26z"/>
    <path fill="#F94F74" d="M141.489 219.59c3.497 0 6.332-2.932 6.332-6.548 0-3.617-2.835-6.549-6.332-6.549-3.496 0-6.331 2.932-6.331 6.549 0 3.616 2.835 6.548 6.331 6.548z"/>
    <path fill="#F5B870" d="M163.11 219.59c3.496 0 6.331-2.932 6.331-6.548 0-3.617-2.835-6.549-6.331-6.549-3.497 0-6.332 2.932-6.332 6.549 0 3.616 2.835 6.548 6.332 6.548z"/>
    <path fill="#6FB895" d="M184.766 219.59c3.497 0 6.331-2.932 6.331-6.548 0-3.617-2.834-6.549-6.331-6.549-3.497 0-6.331 2.932-6.331 6.549 0 3.616 2.834 6.548 6.331 6.548z"/>
    <path stroke="#2B2B2B" stroke-linecap="round" stroke-miterlimit="10" stroke-width="3" d="M303.804 144.466L163.11 413.558M374.169 144.466L233.475 413.558M285.169 180.112h70.365M262.542 223.237h70.329M240.094 266.362h70.149M217.538 309.486h70.077M194.983 352.611h70.796M172.427 395.735h70.581"/>
    <path stroke="#F9D5FF" stroke-miterlimit="10" stroke-width="10" d="M363.952 333.821v69.654c0 5.581-4.353 10.083-9.749 10.083H133.215c-5.396 0-9.748-4.502-9.748-10.083v-69.654"/>
    <path fill="#FDC068" d="M172.836 260.101a4 4 0 0 1 .318 5.617l-1.554 1.76c-3.166 3.572-8.562 3.832-12.016.558-3.129-2.977-3.633-7.814-1.331-11.386l1.408-2.184a4 4 0 0 1 6.043-.802l7.132 6.437z"/>
    <path fill="url(#e)" d="M164.733 252.793a4 4 0 0 1-.675-5.138l18.442-28.511a7.572 7.572 0 0 1 1.799-1.935l.611-.446 36.73-27.163c5.288-3.907 12.662-2.641 16.44 2.828 3.777 5.47 2.554 13.098-2.734 17.004L201.34 234.58c-.241.179-.527-.156-.313-.367l-22.609 25.514a4 4 0 0 1-5.678.313l-8.007-7.247z"/>
    <path fill="#FDC068" d="M257.937 171.591l1.115 2.568c.171.412.049.87-.257 1.154-.166.154-.392.214-.611.269l-1.434.364"/>
    <path stroke="#2B2B2B" stroke-linecap="round" stroke-miterlimit="10" stroke-width="2.219" d="M257.937 171.591l1.115 2.568c.171.412.049.87-.257 1.154-.166.154-.392.214-.611.269l-1.434.364"/>
    <path fill="#FDC068" d="M245.274 185.284l-7.914-2.381c-4.101-1.228-6.475-5.656-5.288-9.898l3.453-12.353c1.907-6.772 8.778-10.679 15.325-8.707 6.547 1.972 10.325 9.079 8.418 15.851l-3.166 11.348c-1.331 4.763-6.187 7.554-10.828 6.14z"/>
    <path fill="#2B2B2B" d="M258.081 172.56c.775 0 1.403-.65 1.403-1.452 0-.802-.628-1.451-1.403-1.451s-1.403.649-1.403 1.451.628 1.452 1.403 1.452z"/>
    <path fill="#FDC068" d="M235.094 197.414l-6.828-5.191a4.002 4.002 0 0 1-1.376-4.442l5.506-16.626a4 4 0 0 1 4.948-2.574l5.328 1.601a4 4 0 0 1 2.75 4.714l-4.609 20.36c-.575 2.642-3.597 3.795-5.719 2.158z"/>
    <path fill="#2B2B2B" d="M242.899 186.111a1.565 1.565 0 0 0-1.071-1.846c-1.353-.411-2.514 1.039-1.818 2.269.705 1.244 2.571.971 2.889-.423z"/>
    <path fill="url(#f)" d="M241.559 232.354c2.189.569 4.477-.794 4.557-3.054.299-8.369-5.329-10.23-1.058-16.63 4.893-7.331 3.922-19.498-5-21.656-6.871-1.674-7.267-2.083-10.181-2.753-9.149-2.227-17.619 5.874-17.091 15.553.002.049.006.098.01.147.03.404.141 2.443-.438 4.839-.571 2.268-5.783 4.329-8.576 9.759-.988 1.92.344 4.068 2.434 4.611l35.343 9.184z"/>
    <path fill="url(#g)" d="M233.742 232.591c1.695.564 2.815 2.183 2.706 3.965-.349 5.72-.98 11.414-1.714 17.08a465.348 465.348 0 0 1-3.022 19.907c-1.151 6.623-2.446 13.209-3.813 19.758l-1.079 4.911c-.36 1.637-.72 3.274-1.115 4.912-.72 3.274-1.368 6.585-2.051 9.86-2.806 13.172-5.828 26.269-9.209 39.366-1.691 6.549-3.418 13.061-5.324 19.609-.936 3.275-1.871 6.512-2.878 9.749-.683 2.195-1.366 4.407-2.083 6.614-.593 1.824-2.42 2.938-4.319 2.666l-15.43-2.207a4 4 0 0 1-3.398-4.492l10.229-76.254c.467-3.349.863-6.697 1.367-10.009l1.546-10.009 3.094-19.981 4.691-40.945a4 4 0 0 1 5.237-3.34l26.565 8.84z"/>
    <path fill="url(#h)" d="M205.971 222.536c-2.004-.195-3.875 1.151-3.745 3.16.407 6.28 4.858 14.323 13.729 16.554l8.67 1.861c8.554 2.13 17.22-3.099 20.223-9.028.714-1.41.078-3.042-1.187-3.988l-6.629-4.956a3.998 3.998 0 0 0-2.008-.778l-29.053-2.825z"/>
    <path fill="#2B2B2B" d="M220.56 396.666l-36.549-.149c-1.907 0-3.454-1.6-3.49-3.572l-.014-.612a4 4 0 0 1 4.057-4.091l18.463.268c.32.005.638.048.947.128l17.018 4.418c2.05.521 1.655 3.61-.432 3.61z"/>
    <path fill="url(#i)" d="M220.217 232.156a.98.98 0 0 1 .415-1.292l.827-.409 1.655-.818 3.382-1.526c1.115-.521 2.266-.967 3.381-1.451l3.418-1.377a257.722 257.722 0 0 1 13.85-5.06c4.64-1.6 9.353-3.014 14.03-4.428a576.497 576.497 0 0 1 14.245-3.87l2.842-.707c8.454-2.121 16.98 3.238 19.03 11.982.684 2.976.54 5.99-.287 8.706-1.586 5.223-18.901 53.618-24.32 67.328-.732 1.852-2.739 2.733-4.636 2.128l-15.299-4.879a4 4 0 0 1-2.698-4.639l12.794-60.45c.643-3.037 4.351-4.216 6.63-2.107l10.924 10.108c2.395 2.216 1.273 6.212-1.925 6.857l-43.734 8.82a4 4 0 0 1-4.385-2.165l-10.139-20.751z"/>
    <path fill="#2B2B2B" d="M261.675 238.768c-2.891 1.445-2.978 5.868.229 6.271 1.868.235 4.09.069 6.897-.817 5.842-1.843 20.816-8.813 26.24-11.369a3.843 3.843 0 0 0 2.213-3.148c.17-2.045.34-4.994.075-6.505-.349-1.829-23.732 9.607-35.654 15.568zM285.421 315.328l-34.931-11.014c-1.834-.558-2.877-2.567-2.374-4.465l.153-.561a4 4 0 0 1 5.1-2.75l17.567 5.73c.302.099.592.233.863.4l15.061 9.311c1.799 1.116.576 3.981-1.439 3.349z"/>
    <path fill="url(#j)" d="M292.689 224.701a4.001 4.001 0 0 1-2.149 5.339l-29.185 11.838c-3.67 1.489-7.663.633-10.469-1.86l-.683-.596-27.88-24.967c-4.928-4.39-5.468-12.092-1.187-17.19 4.245-5.097 11.691-5.656 16.62-1.228l23.974 21.47c1.054.943.167 2.671-1.214 2.366-1.433-.316-1.439-2.358-.007-2.683l22.973-5.209a4 4 0 0 1 4.536 2.269l4.671 10.451z"/>
    <path fill="#FDC068" d="M288.678 215.752a3.999 3.999 0 0 1 2.768-5.536l3.796-.858c4.605-1.042 9.138 1.972 10.145 6.698.899 4.278-1.367 8.52-5.216 10.083l-2.217.897a3.998 3.998 0 0 1-5.151-2.073l-4.125-9.211z"/>
    <path fill="#2B2B2B" d="M260.122 164.514c-.225 1.576-1.666 2.599-3.255 2.692l-2.204.13a2.87 2.87 0 0 0-2.621 2.191 2.872 2.872 0 0 1-2.26 2.147l-.635.119a3.88 3.88 0 0 0-1.924.973l-4.647 4.332c-2.194 2.047-5.36 2.605-8.094 1.414-1.331-.595-2.23-1.935-2.302-3.423l-.081-1.979a3.99 3.99 0 0 1 .161-1.299l3.733-12.61c1.511-5.098 6.08-8.521 11.224-8.409l1.798.037c4.137.074 7.951 2.493 9.893 6.288l.072.112c1.098 2.216 1.498 4.782 1.142 7.285z"/>
    <path fill="#2B2B2B" d="M256.499 163.877a4 4 0 0 0 4.08 3.142l.956-.041c2.446-.111 4.532-1.86 5.108-4.316l.396-1.637a5.856 5.856 0 0 0-2.015-5.916 5.388 5.388 0 0 0-5.324-.782l-1.734.705a3.999 3.999 0 0 0-2.403 4.56l.936 4.285z"/>
    <path fill="#FDC068" d="M247.972 174.642c-.863-.223-1.367-1.079-1.187-1.972l.972-4.241c.215-.893 1.043-1.414 1.906-1.228.864.223 1.367 1.079 1.187 1.972l-.971 4.242c-.216.893-1.043 1.451-1.907 1.227z"/>
    <path fill="#BFD9FF" d="M396.796 223.721c.815 0 1.475-.683 1.475-1.526 0-.842-.66-1.525-1.475-1.525-.814 0-1.475.683-1.475 1.525 0 .843.661 1.526 1.475 1.526zM158.253 383.42c.815 0 1.475-.683 1.475-1.526 0-.842-.66-1.526-1.475-1.526-.814 0-1.474.684-1.474 1.526 0 .843.66 1.526 1.474 1.526zM342.871 162.104c.815 0 1.475-.683 1.475-1.526s-.66-1.526-1.475-1.526c-.814 0-1.475.683-1.475 1.526s.661 1.526 1.475 1.526zM271.283 203.778c.815 0 1.475-.684 1.475-1.526 0-.843-.66-1.526-1.475-1.526-.814 0-1.475.683-1.475 1.526 0 .842.661 1.526 1.475 1.526zM96.666 177.136c.815 0 1.475-.683 1.475-1.526 0-.842-.66-1.526-1.475-1.526-.814 0-1.475.684-1.475 1.526 0 .843.66 1.526 1.475 1.526zM342.871 306.734c.755 0 1.368-.634 1.368-1.415s-.613-1.414-1.368-1.414c-.755 0-1.367.633-1.367 1.414 0 .781.612 1.415 1.367 1.415zM103.069 310.901c.755 0 1.367-.633 1.367-1.414 0-.781-.612-1.415-1.367-1.415s-1.367.634-1.367 1.415.612 1.414 1.367 1.414z"/>
    <path stroke="#2B2B2B" stroke-linecap="round" stroke-miterlimit="10" stroke-width="3" d="M231.784 255.721l-4.569.409c-3.057.298-5.971-.931-7.986-3.089"/>
    <path fill="#2B2B2B" d="M230.927 222.154c-2.405-2.153-5.698-.613-4.486 2.378 1.315 3.247 3.968 6.881 9.259 9.417 3.48 1.669 5.552-2.552 2.676-5.127l-7.449-6.668z"/>
    <path stroke="#2B2B2B" stroke-linecap="round" stroke-miterlimit="10" stroke-width="3" d="M258.009 254.642l9.857-3.462M202.213 223.237c1.583-4.688 7.231-10.493 8.706-12.465M243.008 200.763l4.425 3.945M261.426 216.986l-3.741.855M191.062 309.487l5.54-4.168"/>
    <path fill="url(#k)" d="M221.495 446.041c26.369-1.897 59.501-61.096 96.914-61.096 49.536 0 45.543-26.567 64.969-26.567 21.332 0 31.945 12.13 31.945 49.822v33.841a4 4 0 0 1-4 4H221.495z"/>
    <path stroke="#F9D5FF" stroke-miterlimit="10" stroke-width="10" d="M372.945 285.152c10.397-13.953 36.91-13.656 42.378-36.799M111.991 150.718c16.26 26.418 35.218 11.348 43.672 32.408"/>
    <path fill="#22224B" d="M76.217 57c.224 0 .384-.128.416-.32l5.6-21.12c.032-.192-.032-.32-.256-.32h-4.096c-.224 0-.352.096-.384.32L74.49 49.224h-.065l-3.84-13.664c-.063-.192-.192-.32-.384-.32h-2.783c-.225 0-.353.128-.417.32L63.29 49.224h-.064L60.09 35.56c-.032-.192-.16-.32-.384-.32h-4.128c-.224 0-.288.128-.256.32l5.632 21.12c.064.192.192.32.384.32h3.2c.224 0 .352-.128.416-.32l3.808-13.536h.064l3.776 13.536c.064.192.192.32.416.32h3.2zM98.113 57c.192 0 .32-.128.32-.32v-9.76c0-3.392-1.856-5.76-5.28-5.76-1.984 0-3.296.8-4 1.76h-.032v-7.36c0-.192-.128-.32-.32-.32h-3.84c-.192 0-.32.128-.32.32v21.12c0 .192.128.32.32.32h3.84c.192 0 .32-.128.32-.32v-8.896c0-1.696.896-2.816 2.432-2.816 1.6 0 2.4 1.12 2.4 2.816v8.896c0 .192.128.32.32.32h3.84zM114.968 57c.192 0 .32-.128.32-.32v-9.92c0-3.872-1.824-5.6-6.88-5.6-2.56 0-4.448.608-5.76 1.536-.16.096-.192.256-.096.448l1.44 2.528c.096.16.256.192.416.064.736-.544 1.888-.992 3.456-.992 2.464 0 3.168.672 3.168 2.112v.576c0 .128-.064.192-.192.192h-2.752c-3.84 0-6.432 1.568-6.432 4.992 0 3.296 2.4 4.736 5.152 4.736 2.112 0 3.456-.672 4.256-1.696h.032v1.024c0 .192.128.32.32.32h3.552zm-6.816-3.008c-1.472 0-2.24-.544-2.24-1.632 0-1.216.864-1.76 2.752-1.76h2.176c.128 0 .192.064.192.192v1.056c0 1.44-.96 2.144-2.88 2.144zM126.179 57.192c.192 0 .32-.128.32-.32v-3.168c0-.192-.128-.32-.32-.32h-.768c-1.024 0-1.408-.384-1.408-1.536V45c0-.128.064-.192.192-.192h1.984c.192 0 .32-.128.32-.32v-2.656c0-.192-.128-.32-.32-.32h-1.984c-.128 0-.192-.064-.192-.192v-4.16c0-.192-.128-.32-.32-.32h-3.808c-.192 0-.32.128-.32.32v4.16c0 .128-.064.192-.192.192h-.96c-.192 0-.32.128-.32.32v2.656c0 .192.128.32.32.32h.96c.128 0 .192.064.192.192v7.04c0 3.552 1.344 5.152 4.928 5.152h1.696zM141.551 39.048c.192 0 .32-.128.32-.32V35.56c0-.192-.128-.32-.32-.32h-3.84c-.192 0-.32.128-.32.32v3.168c0 .192.128.32.32.32h3.84zm0 17.952c.192 0 .32-.128.32-.32V41.832c0-.192-.128-.32-.32-.32h-3.84c-.192 0-.32.128-.32.32V56.68c0 .192.128.32.32.32h3.84zM151.971 57.352c4.416 0 6.88-2.144 6.912-5.312 0-2.592-1.504-4.352-5.152-4.704l-1.696-.192c-1.76-.16-2.144-.576-2.144-1.28 0-.768.64-1.28 1.952-1.28 1.6 0 3.136.576 4.192 1.248.16.096.32.096.448-.064l1.792-2.208c.128-.16.096-.352-.032-.48-1.44-1.088-3.648-1.92-6.272-1.92-4.032 0-6.368 1.92-6.368 4.96 0 2.784 1.792 4.416 5.056 4.736l1.728.192c1.792.16 2.208.608 2.208 1.344 0 .864-.768 1.472-2.4 1.472-1.6 0-3.36-.64-4.736-1.696-.16-.128-.32-.128-.448 0l-2.08 2.336a.31.31 0 0 0 0 .448c1.472 1.28 3.808 2.4 7.04 2.4zM173.77 39.048c.192 0 .32-.128.32-.32V35.56c0-.192-.128-.32-.32-.32h-3.84c-.192 0-.32.128-.32.32v3.168c0 .192.128.32.32.32h3.84zm0 17.952c.192 0 .32-.128.32-.32V41.832c0-.192-.128-.32-.32-.32h-3.84c-.192 0-.32.128-.32.32V56.68c0 .192.128.32.32.32h3.84zM191.582 57c.192 0 .32-.128.32-.32v-9.76c0-3.392-1.856-5.76-5.28-5.76-1.984 0-3.296.8-4 1.76h-.032v-1.088c0-.192-.128-.32-.32-.32h-3.84c-.192 0-.32.128-.32.32V56.68c0 .192.128.32.32.32h3.84c.192 0 .32-.128.32-.32v-8.896c0-1.696.896-2.816 2.432-2.816 1.6 0 2.4 1.12 2.4 2.816v8.896c0 .192.128.32.32.32h3.84zM202.741 57.192c.192 0 .32-.128.32-.32v-3.168c0-.192-.128-.32-.32-.32h-.768c-1.024 0-1.408-.384-1.408-1.536V45c0-.128.064-.192.192-.192h1.984c.192 0 .32-.128.32-.32v-2.656c0-.192-.128-.32-.32-.32h-1.984c-.128 0-.192-.064-.192-.192v-4.16c0-.192-.128-.32-.32-.32h-3.808c-.192 0-.32.128-.32.32v4.16c0 .128-.064.192-.192.192h-.96c-.192 0-.32.128-.32.32v2.656c0 .192.128.32.32.32h.96c.128 0 .192.064.192.192v7.04c0 3.552 1.344 5.152 4.928 5.152h1.696zM213.015 57.352c2.848 0 5.12-1.024 6.592-2.592.128-.128.128-.32-.032-.448l-2.112-1.984c-.128-.16-.288-.128-.448 0-.896.832-2.016 1.376-3.552 1.376-1.6 0-2.784-.704-3.2-2.048a3.428 3.428 0 0 1-.192-.864c0-.128.064-.192.192-.192h9.376c.224 0 .352-.128.352-.32 0-2.624-.192-3.744-.512-4.768-.896-2.72-3.264-4.352-6.688-4.352-3.296 0-5.76 1.6-6.656 4.384-.32.96-.512 2.08-.512 3.712 0 1.6.224 2.72.544 3.68.896 2.784 3.328 4.416 6.848 4.416zm-2.752-9.728c-.128 0-.192-.064-.192-.192 0-.48.064-.832.16-1.152.352-1.056 1.312-1.696 2.592-1.696s2.24.64 2.592 1.696c.096.32.16.672.16 1.152 0 .128-.064.192-.192.192h-5.12zM227.426 57c.192 0 .32-.128.32-.32v-8.16c0-2.08.736-3.296 2.4-3.36.768-.032 1.504.224 2.24.704.192.096.32.096.448-.064l1.792-3.264c.096-.192.064-.32-.096-.448-.672-.576-1.696-.928-2.72-.928-1.888 0-3.296.736-4.032 1.984h-.032v-1.312c0-.192-.128-.32-.32-.32h-3.84c-.192 0-.32.128-.32.32V56.68c0 .192.128.32.32.32h3.84zM248.75 57c.192 0 .32-.128.32-.32v-9.92c0-3.872-1.824-5.6-6.88-5.6-2.56 0-4.448.608-5.76 1.536-.16.096-.192.256-.096.448l1.44 2.528c.096.16.256.192.416.064.736-.544 1.888-.992 3.456-.992 2.464 0 3.168.672 3.168 2.112v.576c0 .128-.064.192-.192.192h-2.752c-3.84 0-6.432 1.568-6.432 4.992 0 3.296 2.4 4.736 5.152 4.736 2.112 0 3.456-.672 4.256-1.696h.032v1.024c0 .192.128.32.32.32h3.552zm-6.816-3.008c-1.472 0-2.24-.544-2.24-1.632 0-1.216.864-1.76 2.752-1.76h2.176c.128 0 .192.064.192.192v1.056c0 1.44-.96 2.144-2.88 2.144zM259.416 57.352c2.656 0 4.736-1.216 5.856-2.912.096-.16.096-.32-.064-.448l-2.784-1.824c-.192-.128-.352-.096-.48.064-.672.928-1.344 1.344-2.464 1.344-1.184 0-2.048-.544-2.4-1.664-.224-.64-.288-1.376-.288-2.656 0-1.28.064-2.016.288-2.656.352-1.12 1.216-1.664 2.4-1.664 1.12 0 1.792.416 2.464 1.344.128.16.288.192.48.064l2.784-1.824c.16-.128.16-.288.064-.448-1.12-1.696-3.2-2.912-5.856-2.912-3.264 0-5.76 1.504-6.688 4.384-.32.928-.48 2.08-.48 3.712 0 1.632.16 2.784.48 3.712.928 2.88 3.424 4.384 6.688 4.384zM275.366 57.192c.192 0 .32-.128.32-.32v-3.168c0-.192-.128-.32-.32-.32h-.768c-1.024 0-1.408-.384-1.408-1.536V45c0-.128.064-.192.192-.192h1.984c.192 0 .32-.128.32-.32v-2.656c0-.192-.128-.32-.32-.32h-1.984c-.128 0-.192-.064-.192-.192v-4.16c0-.192-.128-.32-.32-.32h-3.808c-.192 0-.32.128-.32.32v4.16c0 .128-.064.192-.192.192h-.96c-.192 0-.32.128-.32.32v2.656c0 .192.128.32.32.32h.96c.128 0 .192.064.192.192v7.04c0 3.552 1.344 5.152 4.928 5.152h1.696zM283.176 39.048c.192 0 .32-.128.32-.32V35.56c0-.192-.128-.32-.32-.32h-3.84c-.192 0-.32.128-.32.32v3.168c0 .192.128.32.32.32h3.84zm0 17.952c.192 0 .32-.128.32-.32V41.832c0-.192-.128-.32-.32-.32h-3.84c-.192 0-.32.128-.32.32V56.68c0 .192.128.32.32.32h3.84zM293.98 57.352c3.264 0 5.824-1.536 6.72-4.352.352-1.12.512-2.208.512-3.744s-.16-2.624-.512-3.744c-.896-2.816-3.456-4.352-6.72-4.352s-5.824 1.536-6.72 4.352c-.352 1.12-.512 2.208-.512 3.744s.16 2.624.512 3.744c.896 2.816 3.456 4.352 6.72 4.352zm0-3.776c-1.184 0-2.048-.576-2.4-1.664-.224-.704-.288-1.344-.288-2.656s.064-1.952.288-2.656c.352-1.088 1.216-1.664 2.4-1.664s2.048.576 2.4 1.664c.224.704.288 1.344.288 2.656s-.064 1.952-.288 2.656c-.352 1.088-1.216 1.664-2.4 1.664zM317.957 57c.192 0 .32-.128.32-.32v-9.76c0-3.392-1.856-5.76-5.28-5.76-1.984 0-3.296.8-4 1.76h-.032v-1.088c0-.192-.128-.32-.32-.32h-3.84c-.192 0-.32.128-.32.32V56.68c0 .192.128.32.32.32h3.84c.192 0 .32-.128.32-.32v-8.896c0-1.696.896-2.816 2.432-2.816 1.6 0 2.4 1.12 2.4 2.816v8.896c0 .192.128.32.32.32h3.84zM343.015 57c.192 0 .32-.128.32-.32V35.56c0-.192-.128-.32-.32-.32h-3.84c-.192 0-.32.128-.32.32v7.392h-.032c-.736-1.056-2.016-1.792-4.064-1.792-2.592 0-4.448 1.248-5.248 3.712-.384 1.216-.544 2.368-.544 4.384 0 1.984.16 3.168.544 4.384.8 2.432 2.656 3.712 5.248 3.712 2.048 0 3.328-.736 4.064-1.792h.032v1.12c0 .192.128.32.32.32h3.84zm-6.816-3.424c-1.216 0-2.048-.576-2.4-1.664-.192-.608-.288-1.28-.288-2.656 0-1.376.096-2.048.288-2.656.352-1.12 1.184-1.664 2.4-1.664 1.184 0 2.016.544 2.368 1.664.192.608.288 1.28.288 2.656 0 1.376-.096 2.048-.288 2.656-.352 1.088-1.184 1.664-2.368 1.664zM353.984 57.352c2.848 0 5.12-1.024 6.592-2.592.128-.128.128-.32-.032-.448l-2.112-1.984c-.128-.16-.288-.128-.448 0-.896.832-2.016 1.376-3.552 1.376-1.6 0-2.784-.704-3.2-2.048a3.428 3.428 0 0 1-.192-.864c0-.128.064-.192.192-.192h9.376c.224 0 .352-.128.352-.32 0-2.624-.192-3.744-.512-4.768-.896-2.72-3.264-4.352-6.688-4.352-3.296 0-5.76 1.6-6.656 4.384-.32.96-.512 2.08-.512 3.712 0 1.6.224 2.72.544 3.68.896 2.784 3.328 4.416 6.848 4.416zm-2.752-9.728c-.128 0-.192-.064-.192-.192 0-.48.064-.832.16-1.152.352-1.056 1.312-1.696 2.592-1.696s2.24.64 2.592 1.696c.096.32.16.672.16 1.152 0 .128-.064.192-.192.192h-5.12zM370.315 57.352c4.416 0 6.88-2.144 6.912-5.312 0-2.592-1.504-4.352-5.152-4.704l-1.696-.192c-1.76-.16-2.144-.576-2.144-1.28 0-.768.64-1.28 1.952-1.28 1.6 0 3.136.576 4.192 1.248.16.096.32.096.448-.064l1.792-2.208c.128-.16.096-.352-.032-.48-1.44-1.088-3.648-1.92-6.272-1.92-4.032 0-6.368 1.92-6.368 4.96 0 2.784 1.792 4.416 5.056 4.736l1.728.192c1.792.16 2.208.608 2.208 1.344 0 .864-.768 1.472-2.4 1.472-1.6 0-3.36-.64-4.736-1.696-.16-.128-.32-.128-.448 0l-2.08 2.336a.31.31 0 0 0 0 .448c1.472 1.28 3.808 2.4 7.04 2.4zM384.551 39.048c.192 0 .32-.128.32-.32V35.56c0-.192-.128-.32-.32-.32h-3.84c-.192 0-.32.128-.32.32v3.168c0 .192.128.32.32.32h3.84zm0 17.952c.192 0 .32-.128.32-.32V41.832c0-.192-.128-.32-.32-.32h-3.84c-.192 0-.32.128-.32.32V56.68c0 .192.128.32.32.32h3.84zM394.523 63.112c5.088 0 7.712-2.592 7.712-7.776V41.832c0-.192-.128-.32-.32-.32h-3.84c-.192 0-.32.128-.32.32v1.12h-.032c-.672-1.088-2.016-1.792-3.968-1.792-2.56 0-4.384 1.28-5.184 3.744-.352 1.12-.512 2.208-.512 3.872 0 1.664.16 2.72.512 3.872.8 2.464 2.624 3.744 5.184 3.744 1.952 0 3.296-.704 3.968-1.792h.032v1.312c0 2.272-.96 3.424-3.104 3.424-1.216 0-2.24-.48-3.2-1.344-.16-.16-.32-.16-.48 0l-2.272 2.304c-.16.16-.16.32-.032.48 1.12 1.344 3.552 2.336 5.856 2.336zm.64-10.496c-1.216 0-1.92-.576-2.304-1.664-.16-.576-.256-1.216-.256-2.176 0-.96.096-1.6.256-2.176.384-1.088 1.088-1.664 2.304-1.664 1.248 0 1.952.576 2.304 1.664.192.576.288 1.216.288 2.176 0 .96-.096 1.6-.288 2.176-.352 1.088-1.056 1.664-2.304 1.664zM419.738 57c.192 0 .32-.128.32-.32v-9.76c0-3.392-1.856-5.76-5.28-5.76-1.984 0-3.296.8-4 1.76h-.032v-1.088c0-.192-.128-.32-.32-.32h-3.84c-.192 0-.32.128-.32.32V56.68c0 .192.128.32.32.32h3.84c.192 0 .32-.128.32-.32v-8.896c0-1.696.896-2.816 2.432-2.816 1.6 0 2.4 1.12 2.4 2.816v8.896c0 .192.128.32.32.32h3.84zM427.377 50.632h3.712c.192 0 .32-.128.32-.32v-.768c0-.896.128-1.312.64-1.92l2.144-2.816c1.12-1.312 1.696-2.528 1.696-4.16 0-3.264-2.624-5.76-6.432-5.76-3.744 0-6.176 2.144-6.656 5.44-.032.192.032.352.256.384l3.456.512c.224.032.352-.032.416-.288.288-1.408 1.088-2.24 2.4-2.24 1.312 0 2.112.896 2.112 2.112 0 .8-.32 1.504-1.216 2.56l-2.24 2.912c-.64.8-.928 1.472-.928 2.688v1.344c0 .192.128.32.32.32zm-.384 6.048c0 .192.128.32.32.32h3.84c.192 0 .32-.128.32-.32v-3.648c0-.192-.128-.32-.32-.32h-3.84c-.192 0-.32.128-.32.32v3.648z"/>
    <defs>
        <linearGradient id="a" x1="-nan" x2="-nan" y1="-nan" y2="-nan" gradientUnits="userSpaceOnUse">
            <stop offset=".259" stop-color="#CAE6C4"/>
            <stop offset=".477" stop-color="#CDE7C7"/>
            <stop offset=".654" stop-color="#D6ECD1"/>
            <stop offset=".817" stop-color="#E5F3E2"/>
            <stop offset=".97" stop-color="#FBFDFA"/>
            <stop offset=".996" stop-color="#fff"/>
        </linearGradient>
        <linearGradient id="b" x1="-nan" x2="-nan" y1="-nan" y2="-nan" gradientUnits="userSpaceOnUse">
            <stop offset=".259" stop-color="#CAE6C4"/>
            <stop offset=".477" stop-color="#CDE7C7"/>
            <stop offset=".654" stop-color="#D6ECD1"/>
            <stop offset=".817" stop-color="#E5F3E2"/>
            <stop offset=".97" stop-color="#FBFDFA"/>
            <stop offset=".996" stop-color="#fff"/>
        </linearGradient>
        <linearGradient id="c" x1="-nan" x2="-nan" y1="-nan" y2="-nan" gradientUnits="userSpaceOnUse">
            <stop offset=".259" stop-color="#CAE6C4"/>
            <stop offset=".477" stop-color="#CDE7C7"/>
            <stop offset=".654" stop-color="#D6ECD1"/>
            <stop offset=".817" stop-color="#E5F3E2"/>
            <stop offset=".97" stop-color="#FBFDFA"/>
            <stop offset=".996" stop-color="#fff"/>
        </linearGradient>
        <linearGradient id="d" x1="111.721" x2="111.721" y1="390.493" y2="444.24" gradientUnits="userSpaceOnUse">
            <stop stop-color="#FFD8A1"/>
            <stop offset=".996" stop-color="#fff"/>
        </linearGradient>
        <linearGradient id="e" x1="205.667" x2="197.358" y1="274.185" y2="187.378" gradientUnits="userSpaceOnUse">
            <stop stop-color="#77879D"/>
            <stop offset=".089" stop-color="#A1978E"/>
            <stop offset=".188" stop-color="#C9A780"/>
            <stop offset=".279" stop-color="#E5B275"/>
            <stop offset=".358" stop-color="#F7B96F"/>
            <stop offset=".415" stop-color="#FDBB6D"/>
            <stop offset=".499" stop-color="#FDBB9F"/>
            <stop offset=".599" stop-color="#D1D2D1"/>
            <stop offset="1" stop-color="#FECEAA"/>
        </linearGradient>
        <linearGradient id="f" x1="225.224" x2="225.224" y1="280.24" y2="184.805" gradientUnits="userSpaceOnUse">
            <stop stop-color="#77879D"/>
            <stop offset=".089" stop-color="#A1978E"/>
            <stop offset=".188" stop-color="#C9A780"/>
            <stop offset=".279" stop-color="#E5B275"/>
            <stop offset=".358" stop-color="#F7B96F"/>
            <stop offset=".415" stop-color="#FDBB6D"/>
            <stop offset=".499" stop-color="#FDBB9F"/>
            <stop offset=".599" stop-color="#D1D2D1"/>
            <stop offset="1" stop-color="#FECEAA"/>
        </linearGradient>
        <linearGradient id="g" x1="208.545" x2="208.545" y1="392.153" y2="228.856" gradientUnits="userSpaceOnUse">
            <stop stop-color="#6B9C83"/>
            <stop offset=".401" stop-color="#A6A6A4"/>
            <stop offset=".501" stop-color="#9F9FC8"/>
            <stop offset=".591" stop-color="#9FCCEC"/>
            <stop offset="1" stop-color="#FFE7B0"/>
        </linearGradient>
        <linearGradient id="h" x1="223.968" x2="223.968" y1="392.153" y2="228.856" gradientUnits="userSpaceOnUse">
            <stop stop-color="#6B9C83"/>
            <stop offset=".401" stop-color="#A6A6A4"/>
            <stop offset=".501" stop-color="#9F9FC8"/>
            <stop offset=".591" stop-color="#9FCCEC"/>
            <stop offset="1" stop-color="#FFE7B0"/>
        </linearGradient>
        <linearGradient id="i" x1="258.766" x2="258.766" y1="392.153" y2="228.856" gradientUnits="userSpaceOnUse">
            <stop stop-color="#6B9C83"/>
            <stop offset=".401" stop-color="#A6A6A4"/>
            <stop offset=".501" stop-color="#9F9FC8"/>
            <stop offset=".591" stop-color="#9FCCEC"/>
            <stop offset="1" stop-color="#FFE7B0"/>
        </linearGradient>
        <linearGradient id="j" x1="256.312" x2="256.312" y1="280.24" y2="184.805" gradientUnits="userSpaceOnUse">
            <stop stop-color="#77879D"/>
            <stop offset=".089" stop-color="#A1978E"/>
            <stop offset=".188" stop-color="#C9A780"/>
            <stop offset=".279" stop-color="#E5B275"/>
            <stop offset=".358" stop-color="#F7B96F"/>
            <stop offset=".415" stop-color="#FDBB6D"/>
            <stop offset=".499" stop-color="#FDBB9F"/>
            <stop offset=".599" stop-color="#D1D2D1"/>
            <stop offset="1" stop-color="#FECEAA"/>
        </linearGradient>
        <linearGradient id="k" x1="318.409" x2="318.409" y1="364.829" y2="443.415" gradientUnits="userSpaceOnUse">
            <stop stop-color="#FFD8A1"/>
            <stop offset=".996" stop-color="#fff"/>
        </linearGradient>
    </defs>
</svg>
