<svg xmlns="http://www.w3.org/2000/svg" width="381" height="418" fill="none" viewBox="0 0 381 418">
    <g opacity=".3">
        <path fill="#C4ECFE" d="M355.29 110.855a4.005 4.005 0 0 1 4.004 4.005v291.593a4.004 4.004 0 0 1-4.004 4.004H21.922a4.004 4.004 0 0 1-4.005-4.004V114.86a4.005 4.005 0 0 1 4.005-4.005H355.29zm5.12 2.85a4.004 4.004 0 0 0-4.004-4.004h-335.6a4.004 4.004 0 0 0-4.005 4.004v293.902a4.005 4.005 0 0 0 4.004 4.005h335.601a4.004 4.004 0 0 0 4.004-4.005V113.705z" opacity=".3"/>
        <g stroke="#C4ECFE" stroke-miterlimit="10" stroke-width="2.913" opacity=".3">
            <path d="M100.461 109.701v301.911M144.183 109.701v301.911M100.461 109.701v301.911M56.74 109.701v301.911M187.903 109.701v301.911M231.624 109.701v301.911M274.805 109.701v301.911M317.986 109.701v301.911" opacity=".3"/>
        </g>
    </g>
    <path stroke="url(#a)" stroke-linecap="round" stroke-miterlimit="10" stroke-width="11" d="M38.842 306.53v-63.251"/>
    <path stroke="#CAE6C4" stroke-linecap="round" stroke-miterlimit="10" stroke-width="11" d="M38.842 256.54c.72-4.47 4.61-7.599 8.967-7.264M38.842 256.54c-.72-4.47-4.61-7.599-8.968-7.263"/>
    <path stroke="url(#b)" stroke-linecap="round" stroke-miterlimit="10" stroke-width="11" d="M216.21 410.569v-56.732"/>
    <path stroke="#CAE6C4" stroke-linecap="round" stroke-miterlimit="10" stroke-width="11" d="M216.21 367.098c.721-4.47 4.61-7.599 8.968-7.264M216.21 367.098c-.72-4.47-4.61-7.599-8.967-7.264M216.21 377.342c.721-4.47 4.61-7.599 8.968-7.264M216.21 377.342c-.72-4.47-4.61-7.599-8.967-7.264"/>
    <path stroke="url(#c)" stroke-linecap="round" stroke-miterlimit="10" stroke-width="11" d="M337.361 327.762V271.03"/>
    <path stroke="#CAE6C4" stroke-linecap="round" stroke-miterlimit="10" stroke-width="11" d="M337.361 284.291c.721-4.47 4.61-7.599 8.968-7.263M337.361 284.291c-.72-4.47-4.61-7.599-8.967-7.263M337.361 294.535c.721-4.47 4.61-7.599 8.968-7.264M337.361 294.535c-.72-4.47-4.61-7.599-8.967-7.264"/>
    <path fill="url(#d)" d="M96.14 411.612H20.805a4.005 4.005 0 0 1-4.004-4.005v-47.251c0-8.27 10.048-11.957 15.09-5.55 3.853 4.879 7.095 11.584 7.707 20.562 1.62 24.473 25.426 36.244 56.542 36.244z"/>
    <path fill="#2B2B2B" d="M179.397 410.047H75.295a.764.764 0 0 0 0 1.527h104.102a.763.763 0 1 0 0-1.527z"/>
    <path fill="#fff" d="M308.982 195.562v173.436c0 5.587-4.357 10.095-9.759 10.095H77.989c-5.403 0-9.76-4.508-9.76-10.095V195.562"/>
    <path stroke="#F9D5FF" stroke-miterlimit="10" stroke-width="10" d="M308.982 195.562v173.436c0 5.587-4.357 10.095-9.759 10.095H77.989c-5.403 0-9.76-4.508-9.76-10.095V195.562"/>
    <path fill="#F9D5FF" stroke="#F9D5FF" stroke-miterlimit="10" stroke-width="10" d="M308.982 191.557a4.004 4.004 0 0 1-4.004 4.005H72.233a4.005 4.005 0 0 1-4.004-4.005v-20.282c0-5.588 4.358-10.095 9.76-10.095h221.234c5.402 0 9.759 4.507 9.759 10.095v20.282z"/>
    <path fill="#F94F74" d="M86.272 184.908c3.5 0 6.338-2.935 6.338-6.556 0-3.62-2.838-6.556-6.338-6.556s-6.339 2.936-6.339 6.556c0 3.621 2.838 6.556 6.339 6.556z"/>
    <path fill="#F5B870" d="M107.916 184.908c3.501 0 6.339-2.935 6.339-6.556 0-3.62-2.838-6.556-6.339-6.556-3.5 0-6.338 2.936-6.338 6.556 0 3.621 2.838 6.556 6.338 6.556z"/>
    <path fill="#6FB895" d="M129.597 184.908c3.5 0 6.338-2.935 6.338-6.556 0-3.62-2.838-6.556-6.338-6.556-3.501 0-6.339 2.936-6.339 6.556 0 3.621 2.838 6.556 6.339 6.556z"/>
    <path stroke="#2B2B2B" stroke-linecap="round" stroke-miterlimit="10" stroke-width="3" d="M248.767 109.701L107.916 379.093M319.21 109.701L178.36 379.093M230.112 145.386h70.443M207.459 188.559h70.407M184.986 231.732h70.228M162.405 274.904h70.156M139.825 318.077H210.7M117.244 361.25h70.659"/>
    <path stroke="#F9D5FF" stroke-miterlimit="10" stroke-width="10" d="M308.982 299.266v69.732c0 5.587-4.357 10.095-9.759 10.095H77.989c-5.403 0-9.76-4.508-9.76-10.095v-69.732"/>
    <path fill="#FDC068" d="M117.653 225.464a4.005 4.005 0 0 1 .318 5.624l-1.555 1.761c-3.17 3.576-8.572 3.837-12.029.559-3.133-2.98-3.637-7.823-1.332-11.399l1.409-2.186a4.003 4.003 0 0 1 6.049-.803l7.14 6.444z"/>
    <path fill="url(#e)" d="M109.541 218.148a4.003 4.003 0 0 1-.675-5.144l18.462-28.543a7.587 7.587 0 0 1 1.801-1.937l.612-.447 36.77-27.192c5.294-3.911 12.677-2.645 16.459 2.831 3.781 5.476 2.557 13.112-2.737 17.023l-34.043 25.176c-.242.179-.529-.156-.315-.367l-22.634 25.542a4.005 4.005 0 0 1-5.684.313l-8.016-7.255z"/>
    <path fill="#FDC068" d="M202.849 136.856l1.117 2.571c.17.412.049.87-.258 1.155-.166.154-.393.214-.612.269l-1.435.364"/>
    <path stroke="#2B2B2B" stroke-linecap="round" stroke-miterlimit="10" stroke-width="2.219" d="M202.849 136.856l1.117 2.571c.17.412.049.87-.258 1.155-.166.154-.393.214-.612.269l-1.435.364"/>
    <path fill="#FDC068" d="M190.172 150.564l-7.923-2.384c-4.105-1.23-6.482-5.662-5.294-9.909l3.457-12.367c1.909-6.779 8.788-10.691 15.342-8.716 6.555 1.974 10.336 9.089 8.428 15.868l-3.17 11.361c-1.332 4.768-6.194 7.562-10.84 6.147z"/>
    <path fill="#2B2B2B" d="M202.993 137.825c.776 0 1.405-.65 1.405-1.453s-.629-1.453-1.405-1.453-1.404.65-1.404 1.453.628 1.453 1.404 1.453z"/>
    <path fill="#FDC068" d="M179.98 162.707l-6.835-5.197a4.004 4.004 0 0 1-1.377-4.446l5.511-16.646a4.006 4.006 0 0 1 4.955-2.576l5.333 1.603a4.005 4.005 0 0 1 2.753 4.719l-4.614 20.383c-.576 2.645-3.601 3.799-5.726 2.16z"/>
    <path fill="#2B2B2B" d="M187.794 151.392a1.568 1.568 0 0 0-1.072-1.849c-1.354-.411-2.517 1.041-1.819 2.273.705 1.245 2.573.971 2.891-.424z"/>
    <path fill="url(#f)" d="M186.453 197.687c2.191.569 4.482-.795 4.562-3.058.3-8.378-5.335-10.242-1.059-16.649 4.898-7.338 3.926-19.519-5.006-21.68-6.878-1.676-7.275-2.086-10.192-2.756-9.16-2.229-17.639 5.881-17.111 15.57l.011.148c.03.404.141 2.445-.438 4.844-.572 2.271-5.79 4.334-8.586 9.769-.989 1.923.344 4.073 2.437 4.617l35.382 9.195z"/>
    <path fill="url(#g)" d="M178.628 197.924c1.696.564 2.817 2.185 2.708 3.969-.349 5.727-.98 11.426-1.716 17.099a465.032 465.032 0 0 1-3.025 19.929c-1.152 6.63-2.449 13.224-3.817 19.78l-1.081 4.917c-.36 1.639-.72 3.278-1.116 4.917-.721 3.278-1.369 6.593-2.053 9.871-2.809 13.186-5.834 26.298-9.22 39.41-1.692 6.556-3.421 13.075-5.33 19.631-.936 3.278-1.872 6.519-2.881 9.76-.684 2.197-1.367 4.412-2.085 6.621-.593 1.826-2.422 2.942-4.324 2.67l-15.447-2.21a4.006 4.006 0 0 1-3.402-4.497l10.24-76.339c.469-3.353.865-6.705 1.369-10.021l1.548-10.02 3.098-20.003 4.696-40.99a4.005 4.005 0 0 1 5.243-3.344l26.595 8.85z"/>
    <path fill="url(#h)" d="M150.826 187.857c-2.007-.195-3.88 1.152-3.75 3.164.407 6.287 4.864 14.338 13.745 16.573l8.679 1.862c8.564 2.133 17.239-3.102 20.245-9.038.715-1.411.079-3.045-1.188-3.992l-6.636-4.962a4 4 0 0 0-2.01-.778l-29.085-2.829z"/>
    <path fill="#2B2B2B" d="M165.431 362.181l-36.591-.149c-1.908 0-3.457-1.602-3.493-3.576l-.014-.613a4.005 4.005 0 0 1 4.062-4.095l18.483.268c.32.005.639.048.949.128l17.036 4.424c2.053.521 1.656 3.613-.432 3.613z"/>
    <path fill="url(#i)" d="M165.088 197.488a.98.98 0 0 1 .415-1.293l.828-.41 1.657-.819 3.385-1.527c1.116-.522 2.269-.969 3.385-1.453l3.422-1.378a256.262 256.262 0 0 1 13.865-5.066c4.646-1.602 9.364-3.018 14.045-4.433a573.476 573.476 0 0 1 14.262-3.874l2.845-.708c8.463-2.123 16.999 3.241 19.051 11.995.685 2.98.541 5.997-.288 8.716-1.588 5.229-18.922 53.678-24.347 67.403-.732 1.854-2.741 2.736-4.641 2.13l-15.315-4.884a4.003 4.003 0 0 1-2.701-4.644l12.807-60.517c.644-3.042 4.356-4.222 6.638-2.111l10.937 10.12c2.397 2.218 1.273 6.219-1.928 6.865l-43.783 8.829a4.005 4.005 0 0 1-4.39-2.167l-10.149-20.774z"/>
    <path fill="#2B2B2B" d="M206.591 204.107c-2.894 1.447-2.98 5.875.23 6.279 1.87.235 4.094.069 6.905-.818 5.848-1.845 20.839-8.823 26.269-11.382 1.247-.588 2.1-1.778 2.215-3.152.17-2.047.341-4.999.075-6.512-.349-1.831-23.758 9.617-35.694 15.585zM230.364 280.753l-34.97-11.026c-1.836-.559-2.881-2.571-2.377-4.47l.154-.563a4.004 4.004 0 0 1 5.105-2.752l17.587 5.736c.302.099.592.233.863.401l15.078 9.321c1.801 1.118.577 3.986-1.44 3.353z"/>
    <path fill="url(#j)" d="M237.64 190.025a4.006 4.006 0 0 1-2.151 5.345l-29.218 11.851c-3.674 1.49-7.671.633-10.48-1.863l-.685-.596-27.911-24.994c-4.933-4.396-5.474-12.107-1.188-17.21 4.25-5.103 11.705-5.662 16.638-1.229l24.002 21.493c1.054.945.167 2.675-1.215 2.37-1.436-.317-1.441-2.361-.008-2.686l22.998-5.216a4.005 4.005 0 0 1 4.542 2.272l4.676 10.463z"/>
    <path fill="#FDC068" d="M233.624 181.066a4.005 4.005 0 0 1 2.772-5.543l3.8-.858c4.61-1.043 9.148 1.974 10.156 6.705.9 4.283-1.369 8.53-5.222 10.094l-2.219.899a4.004 4.004 0 0 1-5.157-2.076l-4.13-9.221z"/>
    <path fill="#2B2B2B" d="M205.036 129.77c-.225 1.578-1.667 2.602-3.259 2.696l-2.206.13a2.873 2.873 0 0 0-2.624 2.193 2.873 2.873 0 0 1-2.262 2.149l-.636.12a3.868 3.868 0 0 0-1.925.974l-4.653 4.337c-2.197 2.049-5.366 2.607-8.103 1.415-1.332-.596-2.233-1.937-2.305-3.427l-.081-1.981a3.996 3.996 0 0 1 .162-1.3l3.737-12.624c1.512-5.104 6.086-8.531 11.236-8.419l1.801.037c4.141.075 7.959 2.496 9.904 6.296l.072.111c1.099 2.219 1.499 4.788 1.142 7.293z"/>
    <path fill="#2B2B2B" d="M201.41 129.133a4.005 4.005 0 0 0 4.085 3.146l.956-.041c2.449-.112 4.538-1.863 5.114-4.321l.396-1.639c.54-2.198-.288-4.545-2.017-5.923a5.394 5.394 0 0 0-5.33-.782l-1.736.705a4.004 4.004 0 0 0-2.406 4.565l.938 4.29z"/>
    <path fill="#FDC068" d="M192.873 139.91c-.864-.223-1.368-1.08-1.188-1.974l.972-4.246c.217-.894 1.045-1.416 1.909-1.23.864.224 1.369 1.081 1.189 1.975l-.973 4.246c-.216.894-1.044 1.453-1.909 1.229z"/>
    <path fill="#BFD9FF" d="M341.863 189.044c.816 0 1.477-.684 1.477-1.528 0-.843-.661-1.527-1.477-1.527-.815 0-1.476.684-1.476 1.527 0 .844.661 1.528 1.476 1.528zM103.055 348.921c.815 0 1.476-.684 1.476-1.528 0-.843-.661-1.527-1.476-1.527-.816 0-1.477.684-1.477 1.527 0 .844.661 1.528 1.477 1.528zM287.878 127.358c.816 0 1.477-.684 1.477-1.528 0-.843-.661-1.527-1.477-1.527-.815 0-1.476.684-1.476 1.527 0 .844.661 1.528 1.476 1.528zM216.21 169.078c.816 0 1.477-.684 1.477-1.528 0-.843-.661-1.527-1.477-1.527-.815 0-1.476.684-1.476 1.527 0 .844.661 1.528 1.476 1.528zM41.398 142.407c.816 0 1.477-.684 1.477-1.528 0-.843-.661-1.527-1.477-1.527-.815 0-1.476.684-1.476 1.527 0 .844.661 1.528 1.477 1.528zM287.878 272.149c.756 0 1.369-.634 1.369-1.416 0-.782-.613-1.416-1.369-1.416s-1.368.634-1.368 1.416c0 .782.612 1.416 1.368 1.416zM47.809 276.321c.756 0 1.368-.634 1.368-1.416 0-.782-.612-1.416-1.368-1.416-.756 0-1.369.634-1.369 1.416 0 .782.613 1.416 1.369 1.416z"/>
    <path stroke="#2B2B2B" stroke-linecap="round" stroke-miterlimit="10" stroke-width="3" d="M176.667 221.079l-4.574.41c-3.061.298-5.978-.932-7.995-3.093"/>
    <path fill="#2B2B2B" d="M175.809 187.475c-2.407-2.155-5.704-.614-4.491 2.38 1.316 3.252 3.972 6.889 9.269 9.428 3.485 1.67 5.558-2.555 2.679-5.132l-7.457-6.676z"/>
    <path stroke="#2B2B2B" stroke-linecap="round" stroke-miterlimit="10" stroke-width="3" d="M202.921 219.999l9.868-3.465M147.063 188.559c1.585-4.694 7.239-10.505 8.716-12.479M187.903 166.06l4.43 3.949M206.342 182.301l-3.745.856M135.899 274.905l5.546-4.173"/>
    <path fill="url(#k)" d="M166.367 411.612c26.398-1.9 59.567-61.165 97.022-61.165 49.591 0 45.593-26.596 65.041-26.596 21.356 0 31.98 12.143 31.98 49.878v33.878a4.005 4.005 0 0 1-4.004 4.005H166.367z"/>
    <path stroke="#F9D5FF" stroke-miterlimit="10" stroke-width="10" d="M317.986 250.543c10.408-13.969 36.95-13.671 42.424-36.84M56.74 115.959c16.279 26.447 35.258 11.361 43.721 32.444"/>
    <path fill="#22224B" d="M20.927 22.137c.224 0 .384-.128.416-.32L26.95.672c.032-.192-.032-.32-.256-.32h-4.101c-.224 0-.352.095-.384.32l-3.012 13.679h-.064L15.289.672c-.064-.191-.192-.32-.385-.32h-2.787c-.224 0-.352.129-.416.32l-3.716 13.68H7.92L4.78.672c-.032-.191-.16-.32-.384-.32H.264c-.224 0-.288.129-.256.32l5.638 21.144c.064.193.192.32.384.32h3.204c.224 0 .352-.127.416-.32l3.813-13.55h.064l3.78 13.55c.064.193.192.32.417.32h3.203zM42.847 22.137c.192 0 .32-.128.32-.32v-9.772c0-3.395-1.858-5.766-5.286-5.766-1.986 0-3.3.8-4.004 1.762h-.032V.673c0-.192-.128-.32-.32-.32H29.68c-.192 0-.32.128-.32.32v21.143c0 .193.128.32.32.32h3.845c.192 0 .32-.127.32-.32V12.91c0-1.697.897-2.819 2.435-2.819 1.601 0 2.402 1.122 2.402 2.82v8.905c0 .193.128.32.32.32h3.845zM59.721 22.137c.192 0 .32-.128.32-.32v-9.932c0-3.876-1.825-5.606-6.887-5.606-2.563 0-4.453.609-5.767 1.538-.16.096-.192.256-.096.448l1.442 2.531c.096.16.256.192.417.064.736-.544 1.89-.993 3.46-.993 2.466 0 3.17.673 3.17 2.114v.577c0 .128-.063.192-.191.192h-2.755c-3.845 0-6.44 1.57-6.44 4.998 0 3.3 2.403 4.741 5.158 4.741 2.114 0 3.46-.673 4.26-1.698h.033v1.025c0 .193.128.32.32.32h3.556zm-6.823-3.012c-1.474 0-2.243-.544-2.243-1.634 0-1.217.865-1.761 2.755-1.761h2.179c.128 0 .192.064.192.192v1.057c0 1.442-.961 2.146-2.883 2.146zM70.944 22.329c.192 0 .32-.128.32-.32v-3.172c0-.192-.128-.32-.32-.32h-.769c-1.025 0-1.41-.385-1.41-1.538v-6.856c0-.128.065-.192.193-.192h1.986c.192 0 .32-.128.32-.32V6.95c0-.191-.128-.32-.32-.32h-1.986c-.128 0-.192-.064-.192-.192V2.275c0-.193-.129-.32-.32-.32h-3.813c-.192 0-.32.127-.32.32v4.164c0 .128-.064.192-.193.192h-.96c-.193 0-.321.129-.321.32v2.66c0 .192.128.32.32.32h.961c.129 0 .193.064.193.192v7.048c0 3.556 1.345 5.158 4.933 5.158h1.698zM86.333 4.165c.193 0 .32-.128.32-.32V.672c0-.192-.127-.32-.32-.32H82.49c-.192 0-.32.128-.32.32v3.171c0 .193.128.32.32.32h3.844zm0 17.972c.193 0 .32-.128.32-.32V6.951c0-.192-.127-.32-.32-.32H82.49c-.192 0-.32.128-.32.32v14.864c0 .193.128.32.32.32h3.844zM96.765 22.489c4.421 0 6.888-2.146 6.92-5.318 0-2.595-1.506-4.357-5.158-4.71l-1.698-.191c-1.762-.16-2.146-.577-2.146-1.282 0-.769.64-1.281 1.954-1.281 1.602 0 3.14.576 4.197 1.25.16.095.32.095.448-.065l1.794-2.21c.128-.16.096-.353-.032-.48-1.442-1.09-3.652-1.923-6.279-1.923-4.037 0-6.375 1.922-6.375 4.966 0 2.787 1.794 4.42 5.061 4.74l1.73.193c1.794.16 2.21.609 2.21 1.345 0 .866-.768 1.474-2.402 1.474-1.602 0-3.364-.64-4.741-1.698-.16-.128-.32-.128-.449 0l-2.082 2.339a.31.31 0 0 0 0 .448c1.474 1.282 3.812 2.403 7.048 2.403zM118.588 4.165c.192 0 .32-.128.32-.32V.672c0-.192-.128-.32-.32-.32h-3.844c-.192 0-.321.128-.321.32v3.171c0 .193.129.32.321.32h3.844zm0 17.972c.192 0 .32-.128.32-.32V6.951c0-.192-.128-.32-.32-.32h-3.844c-.192 0-.321.128-.321.32v14.864c0 .193.129.32.321.32h3.844zM136.42 22.137c.192 0 .32-.128.32-.32v-9.772c0-3.395-1.858-5.766-5.286-5.766-1.986 0-3.299.8-4.004 1.762h-.032v-1.09c0-.191-.128-.32-.32-.32h-3.845c-.192 0-.32.129-.32.32v14.865c0 .193.128.32.32.32h3.845c.192 0 .32-.127.32-.32V12.91c0-1.697.897-2.819 2.435-2.819 1.601 0 2.402 1.122 2.402 2.82v8.905c0 .193.128.32.321.32h3.844zM147.592 22.329c.192 0 .32-.128.32-.32v-3.172c0-.192-.128-.32-.32-.32h-.769c-1.025 0-1.41-.385-1.41-1.538v-6.856c0-.128.064-.192.193-.192h1.986c.192 0 .32-.128.32-.32V6.95c0-.191-.128-.32-.32-.32h-1.986c-.129 0-.193-.064-.193-.192V2.275c0-.193-.128-.32-.32-.32h-3.812c-.192 0-.321.127-.321.32v4.164c0 .128-.064.192-.192.192h-.961c-.192 0-.32.129-.32.32v2.66c0 .192.128.32.32.32h.961c.128 0 .192.064.192.192v7.048c0 3.556 1.346 5.158 4.934 5.158h1.698zM157.877 22.489c2.851 0 5.126-1.025 6.599-2.595.129-.128.129-.32-.032-.448l-2.114-1.987c-.128-.16-.288-.128-.448 0-.897.833-2.019 1.378-3.556 1.378-1.602 0-2.788-.705-3.204-2.05a3.435 3.435 0 0 1-.192-.865c0-.128.064-.193.192-.193h9.386c.225 0 .353-.128.353-.32 0-2.627-.192-3.748-.513-4.773-.897-2.723-3.267-4.357-6.695-4.357-3.3 0-5.767 1.602-6.664 4.389-.32.961-.512 2.082-.512 3.716 0 1.602.224 2.723.544 3.684.897 2.787 3.332 4.421 6.856 4.421zm-2.755-9.739c-.128 0-.192-.064-.192-.192 0-.48.064-.833.16-1.153.352-1.057 1.313-1.698 2.595-1.698 1.281 0 2.242.64 2.595 1.698.096.32.16.673.16 1.153 0 .128-.064.192-.192.192h-5.126zM172.304 22.137c.192 0 .32-.128.32-.32v-8.17c0-2.082.737-3.3 2.403-3.364.769-.032 1.506.225 2.243.705.192.096.32.096.448-.064l1.794-3.267c.096-.193.064-.32-.096-.449-.673-.577-1.698-.929-2.723-.929-1.89 0-3.3.737-4.036 1.986h-.033V6.952c0-.192-.128-.32-.32-.32h-3.844c-.192 0-.321.128-.321.32v14.864c0 .193.129.32.321.32h3.844zM193.652 22.137c.192 0 .32-.128.32-.32v-9.932c0-3.876-1.826-5.606-6.888-5.606-2.563 0-4.453.609-5.766 1.538-.16.096-.192.256-.096.448l1.441 2.531c.096.16.257.192.417.064.737-.544 1.89-.993 3.46-.993 2.466 0 3.171.673 3.171 2.114v.577c0 .128-.064.192-.192.192h-2.755c-3.844 0-6.439 1.57-6.439 4.998 0 3.3 2.402 4.741 5.158 4.741 2.114 0 3.459-.673 4.26-1.698h.032v1.025c0 .193.128.32.321.32h3.556zm-6.824-3.012c-1.474 0-2.242-.544-2.242-1.634 0-1.217.865-1.761 2.755-1.761h2.178c.128 0 .192.064.192.192v1.057c0 1.442-.961 2.146-2.883 2.146zM204.33 22.489c2.659 0 4.741-1.217 5.862-2.915.096-.16.096-.32-.064-.449l-2.787-1.826c-.192-.128-.352-.096-.48.064-.673.93-1.346 1.346-2.467 1.346-1.185 0-2.05-.545-2.403-1.666-.224-.64-.288-1.378-.288-2.659s.064-2.018.288-2.659c.353-1.121 1.218-1.666 2.403-1.666 1.121 0 1.794.417 2.467 1.346.128.16.288.192.48.064l2.787-1.826c.16-.128.16-.289.064-.449-1.121-1.698-3.203-2.915-5.862-2.915-3.268 0-5.767 1.506-6.696 4.389-.32.929-.48 2.082-.48 3.716 0 1.634.16 2.787.48 3.716.929 2.883 3.428 4.389 6.696 4.389zM220.298 22.329c.192 0 .32-.128.32-.32v-3.172c0-.192-.128-.32-.32-.32h-.769c-1.025 0-1.41-.385-1.41-1.538v-6.856c0-.128.064-.192.193-.192h1.986c.192 0 .32-.128.32-.32V6.95c0-.191-.128-.32-.32-.32h-1.986c-.129 0-.193-.064-.193-.192V2.275c0-.193-.128-.32-.32-.32h-3.812c-.192 0-.321.127-.321.32v4.164c0 .128-.064.192-.192.192h-.961c-.192 0-.32.129-.32.32v2.66c0 .192.128.32.32.32h.961c.128 0 .192.064.192.192v7.048c0 3.556 1.346 5.158 4.934 5.158h1.698zM228.116 4.165c.192 0 .321-.128.321-.32V.672c0-.192-.129-.32-.321-.32h-3.844c-.192 0-.32.128-.32.32v3.171c0 .193.128.32.32.32h3.844zm0 17.972c.192 0 .321-.128.321-.32V6.951c0-.192-.129-.32-.321-.32h-3.844c-.192 0-.32.128-.32.32v14.864c0 .193.128.32.32.32h3.844zM238.932 22.489c3.268 0 5.831-1.538 6.728-4.357.352-1.121.512-2.21.512-3.748 0-1.538-.16-2.627-.512-3.748-.897-2.82-3.46-4.357-6.728-4.357-3.267 0-5.83 1.538-6.727 4.357-.353 1.121-.513 2.21-.513 3.748 0 1.538.16 2.627.513 3.748.897 2.82 3.46 4.357 6.727 4.357zm0-3.78c-1.185 0-2.05-.577-2.402-1.666-.225-.705-.289-1.345-.289-2.659 0-1.313.064-1.954.289-2.659.352-1.09 1.217-1.666 2.402-1.666 1.186 0 2.051.577 2.403 1.666.224.705.288 1.346.288 2.659 0 1.313-.064 1.954-.288 2.659-.352 1.09-1.217 1.666-2.403 1.666zM262.936 22.137c.192 0 .32-.128.32-.32v-9.772c0-3.395-1.858-5.766-5.286-5.766-1.986 0-3.299.8-4.004 1.762h-.032v-1.09c0-.191-.128-.32-.321-.32h-3.844c-.192 0-.32.129-.32.32v14.865c0 .193.128.32.32.32h3.844c.193 0 .321-.127.321-.32V12.91c0-1.697.897-2.819 2.434-2.819 1.602 0 2.403 1.122 2.403 2.82v8.905c0 .193.128.32.321.32h3.844zM288.022 22.137c.192 0 .32-.128.32-.32V.672c0-.192-.128-.32-.32-.32h-3.845c-.192 0-.32.128-.32.32v7.4h-.032c-.737-1.057-2.018-1.794-4.068-1.794-2.595 0-4.453 1.25-5.254 3.716-.385 1.218-.545 2.37-.545 4.389 0 1.986.16 3.172.545 4.389.801 2.435 2.659 3.716 5.254 3.716 2.05 0 3.331-.737 4.068-1.794h.032v1.121c0 .193.128.32.32.32h3.845zm-6.824-3.428c-1.217 0-2.05-.577-2.403-1.666-.192-.609-.288-1.281-.288-2.659 0-1.377.096-2.05.288-2.659.353-1.121 1.186-1.666 2.403-1.666 1.185 0 2.018.545 2.371 1.666.192.609.288 1.282.288 2.659 0 1.378-.096 2.05-.288 2.659-.353 1.09-1.186 1.666-2.371 1.666zM299.003 22.489c2.851 0 5.126-1.025 6.599-2.595.128-.128.128-.32-.032-.448l-2.114-1.987c-.128-.16-.288-.128-.449 0-.897.833-2.018 1.378-3.556 1.378-1.601 0-2.787-.705-3.203-2.05a3.435 3.435 0 0 1-.192-.865c0-.128.064-.193.192-.193h9.386c.225 0 .353-.128.353-.32 0-2.627-.192-3.748-.513-4.773-.897-2.723-3.267-4.357-6.695-4.357-3.3 0-5.767 1.602-6.664 4.389-.32.961-.512 2.082-.512 3.716 0 1.602.224 2.723.544 3.684.897 2.787 3.332 4.421 6.856 4.421zm-2.755-9.739c-.128 0-.192-.064-.192-.192 0-.48.064-.833.16-1.153.352-1.057 1.313-1.698 2.595-1.698 1.281 0 2.242.64 2.595 1.698.096.32.16.673.16 1.153 0 .128-.064.192-.192.192h-5.126zM315.352 22.489c4.421 0 6.888-2.146 6.92-5.318 0-2.595-1.506-4.357-5.158-4.71l-1.698-.191c-1.762-.16-2.146-.577-2.146-1.282 0-.769.641-1.281 1.954-1.281 1.602 0 3.14.576 4.197 1.25.16.095.32.095.448-.065l1.794-2.21c.128-.16.096-.353-.032-.48-1.441-1.09-3.652-1.923-6.279-1.923-4.036 0-6.375 1.922-6.375 4.966 0 2.787 1.794 4.42 5.062 4.74l1.73.193c1.794.16 2.21.609 2.21 1.345 0 .866-.769 1.474-2.403 1.474-1.601 0-3.363-.64-4.741-1.698-.16-.128-.32-.128-.448 0l-2.083 2.339a.31.31 0 0 0 0 .448c1.474 1.282 3.813 2.403 7.048 2.403zM329.604 4.165c.192 0 .321-.128.321-.32V.672c0-.192-.129-.32-.321-.32h-3.844c-.192 0-.32.128-.32.32v3.171c0 .193.128.32.32.32h3.844zm0 17.972c.192 0 .321-.128.321-.32V6.951c0-.192-.129-.32-.321-.32h-3.844c-.192 0-.32.128-.32.32v14.864c0 .193.128.32.32.32h3.844zM339.587 28.256c5.094 0 7.721-2.595 7.721-7.785V6.95c0-.191-.128-.32-.32-.32h-3.845c-.192 0-.32.129-.32.32v1.122h-.032c-.673-1.09-2.018-1.794-3.972-1.794-2.563 0-4.389 1.281-5.19 3.748-.353 1.121-.513 2.21-.513 3.877 0 1.665.16 2.723.513 3.876.801 2.466 2.627 3.748 5.19 3.748 1.954 0 3.299-.705 3.972-1.794h.032v1.313c0 2.275-.961 3.428-3.107 3.428-1.218 0-2.243-.48-3.204-1.345-.16-.16-.32-.16-.481 0l-2.274 2.306c-.16.16-.16.32-.032.48 1.121 1.346 3.556 2.34 5.862 2.34zm.641-10.508c-1.217 0-1.922-.577-2.306-1.666-.161-.577-.257-1.217-.257-2.179 0-.96.096-1.601.257-2.178.384-1.09 1.089-1.666 2.306-1.666 1.249 0 1.954.577 2.307 1.666.192.577.288 1.217.288 2.178 0 .962-.096 1.602-.288 2.179-.353 1.09-1.058 1.666-2.307 1.666zM364.831 22.137c.192 0 .32-.128.32-.32v-9.772c0-3.395-1.858-5.766-5.286-5.766-1.986 0-3.3.8-4.004 1.762h-.033v-1.09c0-.191-.128-.32-.32-.32h-3.844c-.192 0-.321.129-.321.32v14.865c0 .193.129.32.321.32h3.844c.192 0 .32-.127.32-.32V12.91c0-1.697.897-2.819 2.435-2.819 1.602 0 2.403 1.122 2.403 2.82v8.905c0 .193.128.32.32.32h3.845zM372.479 15.762h3.716c.192 0 .32-.129.32-.32v-.77c0-.897.128-1.313.641-1.922l2.146-2.819C380.423 8.618 381 7.401 381 5.766 381 2.5 378.373 0 374.561 0c-3.748 0-6.183 2.146-6.664 5.446-.032.192.032.352.257.384l3.46.513c.224.032.352-.032.416-.288.288-1.41 1.089-2.243 2.403-2.243 1.313 0 2.114.897 2.114 2.115 0 .8-.32 1.505-1.217 2.562l-2.243 2.916c-.641.8-.929 1.473-.929 2.69v1.346c0 .192.128.32.321.32zm-.385 6.054c0 .193.128.32.32.32h3.845c.192 0 .32-.127.32-.32v-3.652c0-.192-.128-.32-.32-.32h-3.845c-.192 0-.32.128-.32.32v3.652z"/>
    <defs>
        <linearGradient id="a" x1="-nan" x2="-nan" y1="-nan" y2="-nan" gradientUnits="userSpaceOnUse">
            <stop offset=".259" stop-color="#CAE6C4"/>
            <stop offset=".477" stop-color="#CDE7C7"/>
            <stop offset=".654" stop-color="#D6ECD1"/>
            <stop offset=".817" stop-color="#E5F3E2"/>
            <stop offset=".97" stop-color="#FBFDFA"/>
            <stop offset=".996" stop-color="#fff"/>
        </linearGradient>
        <linearGradient id="b" x1="-nan" x2="-nan" y1="-nan" y2="-nan" gradientUnits="userSpaceOnUse">
            <stop offset=".259" stop-color="#CAE6C4"/>
            <stop offset=".477" stop-color="#CDE7C7"/>
            <stop offset=".654" stop-color="#D6ECD1"/>
            <stop offset=".817" stop-color="#E5F3E2"/>
            <stop offset=".97" stop-color="#FBFDFA"/>
            <stop offset=".996" stop-color="#fff"/>
        </linearGradient>
        <linearGradient id="c" x1="-nan" x2="-nan" y1="-nan" y2="-nan" gradientUnits="userSpaceOnUse">
            <stop offset=".259" stop-color="#CAE6C4"/>
            <stop offset=".477" stop-color="#CDE7C7"/>
            <stop offset=".654" stop-color="#D6ECD1"/>
            <stop offset=".817" stop-color="#E5F3E2"/>
            <stop offset=".97" stop-color="#FBFDFA"/>
            <stop offset=".996" stop-color="#fff"/>
        </linearGradient>
        <linearGradient id="d" x1="56.47" x2="56.47" y1="356.001" y2="409.809" gradientUnits="userSpaceOnUse">
            <stop stop-color="#FFD8A1"/>
            <stop offset=".996" stop-color="#fff"/>
        </linearGradient>
        <linearGradient id="e" x1="150.521" x2="142.203" y1="239.563" y2="152.66" gradientUnits="userSpaceOnUse">
            <stop stop-color="#77879D"/>
            <stop offset=".089" stop-color="#A1978E"/>
            <stop offset=".188" stop-color="#C9A780"/>
            <stop offset=".279" stop-color="#E5B275"/>
            <stop offset=".358" stop-color="#F7B96F"/>
            <stop offset=".415" stop-color="#FDBB6D"/>
            <stop offset=".499" stop-color="#FDBB9F"/>
            <stop offset=".599" stop-color="#D1D2D1"/>
            <stop offset="1" stop-color="#FECEAA"/>
        </linearGradient>
        <linearGradient id="f" x1="170.1" x2="170.1" y1="245.625" y2="150.084" gradientUnits="userSpaceOnUse">
            <stop stop-color="#77879D"/>
            <stop offset=".089" stop-color="#A1978E"/>
            <stop offset=".188" stop-color="#C9A780"/>
            <stop offset=".279" stop-color="#E5B275"/>
            <stop offset=".358" stop-color="#F7B96F"/>
            <stop offset=".415" stop-color="#FDBB6D"/>
            <stop offset=".499" stop-color="#FDBB9F"/>
            <stop offset=".599" stop-color="#D1D2D1"/>
            <stop offset="1" stop-color="#FECEAA"/>
        </linearGradient>
        <linearGradient id="g" x1="153.402" x2="153.402" y1="357.663" y2="194.184" gradientUnits="userSpaceOnUse">
            <stop stop-color="#6B9C83"/>
            <stop offset=".401" stop-color="#A6A6A4"/>
            <stop offset=".501" stop-color="#9F9FC8"/>
            <stop offset=".591" stop-color="#9FCCEC"/>
            <stop offset="1" stop-color="#FFE7B0"/>
        </linearGradient>
        <linearGradient id="h" x1="168.843" x2="168.843" y1="357.663" y2="194.184" gradientUnits="userSpaceOnUse">
            <stop stop-color="#6B9C83"/>
            <stop offset=".401" stop-color="#A6A6A4"/>
            <stop offset=".501" stop-color="#9F9FC8"/>
            <stop offset=".591" stop-color="#9FCCEC"/>
            <stop offset="1" stop-color="#FFE7B0"/>
        </linearGradient>
        <linearGradient id="i" x1="203.679" x2="203.679" y1="357.663" y2="194.184" gradientUnits="userSpaceOnUse">
            <stop stop-color="#6B9C83"/>
            <stop offset=".401" stop-color="#A6A6A4"/>
            <stop offset=".501" stop-color="#9F9FC8"/>
            <stop offset=".591" stop-color="#9FCCEC"/>
            <stop offset="1" stop-color="#FFE7B0"/>
        </linearGradient>
        <linearGradient id="j" x1="201.222" x2="201.222" y1="245.625" y2="150.084" gradientUnits="userSpaceOnUse">
            <stop stop-color="#77879D"/>
            <stop offset=".089" stop-color="#A1978E"/>
            <stop offset=".188" stop-color="#C9A780"/>
            <stop offset=".279" stop-color="#E5B275"/>
            <stop offset=".358" stop-color="#F7B96F"/>
            <stop offset=".415" stop-color="#FDBB6D"/>
            <stop offset=".499" stop-color="#FDBB9F"/>
            <stop offset=".599" stop-color="#D1D2D1"/>
            <stop offset="1" stop-color="#FECEAA"/>
        </linearGradient>
        <linearGradient id="k" x1="263.389" x2="263.389" y1="330.309" y2="408.983" gradientUnits="userSpaceOnUse">
            <stop stop-color="#FFD8A1"/>
            <stop offset=".996" stop-color="#fff"/>
        </linearGradient>
    </defs>
</svg>
