<svg xmlns="http://www.w3.org/2000/svg" width="492" height="492" fill="none" viewBox="0 0 492 492">
    <path fill="#fff" d="M0 0h492v492H0z"/>
    <path fill="#22224B" d="M87.692 175.76c0 .144.096.24.24.24h1.656c.144 0 .24-.096.24-.24v-15.84c0-.144-.096-.24-.24-.24h-1.656c-.144 0-.24.096-.24.24v15.84zM102.808 176c.144 0 .24-.096.24-.24v-7.2c0-2.616-1.488-4.32-3.984-4.32-1.56 0-2.664.672-3.216 1.56h-.024v-1.056c0-.144-.096-.24-.24-.24h-1.536c-.144 0-.24.096-.24.24v11.016c0 .144.096.24.24.24h1.536c.144 0 .24-.096.24-.24v-6.84c0-1.704 1.08-2.808 2.64-2.808 1.728 0 2.568 1.08 2.568 2.928v6.72c0 .144.096.24.24.24h1.536zM111.087 176.12c.144 0 .239-.096.239-.24v-1.392c0-.144-.095-.24-.239-.24h-.504c-1.032 0-1.465-.312-1.465-1.464v-6.504c0-.096.049-.144.145-.144h1.824c.144 0 .239-.096.239-.24v-1.152c0-.144-.095-.24-.239-.24h-1.824c-.096 0-.145-.048-.145-.144v-3.24c0-.144-.095-.24-.239-.24h-1.537c-.144 0-.239.096-.239.24v3.24c0 .096-.048.144-.144.144h-.96c-.144 0-.241.096-.241.24v1.152c0 .144.097.24.241.24h.96c.096 0 .144.048.144.144v6.576c0 2.256.864 3.264 3.096 3.264h.888zM118.752 176.264c2.016 0 3.576-.816 4.488-1.968.096-.12.096-.24-.024-.336l-.984-.888c-.12-.096-.24-.072-.36.048-.624.72-1.584 1.272-2.952 1.272-1.416 0-2.448-.672-2.904-1.992-.12-.384-.192-.768-.192-1.392 0-.096.048-.144.144-.144h7.272c.168 0 .264-.096.264-.24 0-1.752-.12-2.544-.36-3.288-.648-1.968-2.304-3.096-4.512-3.096-2.184 0-3.864 1.104-4.512 3.096-.24.696-.36 1.584-.36 2.904 0 1.32.144 2.16.384 2.904.624 1.992 2.28 3.12 4.608 3.12zm-2.784-7.008c-.096 0-.144-.048-.144-.144 0-.528.048-.936.168-1.296.384-1.152 1.344-1.8 2.64-1.8s2.256.648 2.64 1.8c.12.36.168.768.168 1.296 0 .096-.048.144-.144.144h-5.328zM128.514 176c.144 0 .24-.096.24-.24v-6.288c0-1.992.72-3.36 2.472-3.36.672 0 1.248.216 1.776.552.12.096.24.072.336-.048l.888-1.176c.096-.12.071-.216-.049-.336-.576-.528-1.44-.864-2.351-.864-1.536 0-2.544.696-3.048 1.68h-.024v-1.176c0-.144-.096-.24-.24-.24h-1.536c-.145 0-.24.096-.24.24v11.016c0 .144.095.24.24.24h1.536zM144.371 176c.144 0 .24-.096.24-.24v-7.608c0-2.832-1.248-3.912-4.512-3.912-1.704 0-3.048.456-3.912 1.128-.096.096-.12.192-.048.336l.648 1.104c.072.12.216.12.336.024.672-.48 1.488-.816 2.784-.816 2.136 0 2.76.672 2.76 2.256v.84c0 .096-.048.144-.144.144h-2.616c-2.808 0-4.488 1.128-4.488 3.552 0 2.328 1.68 3.456 3.864 3.456 1.752 0 2.88-.648 3.408-1.512h.024v1.008c0 .144.096.24.24.24h1.416zm-4.608-1.464c-1.536 0-2.4-.624-2.4-1.8 0-1.296.864-1.872 2.856-1.872h2.304c.096 0 .144.048.144.144v1.272c0 1.416-1.104 2.256-2.904 2.256zM147.745 170.24c0 1.296.144 2.232.36 2.928.648 1.992 2.328 3.096 4.536 3.096 1.752 0 3.096-.744 3.936-1.944.072-.12.072-.216-.072-.336l-1.056-.864c-.12-.096-.24-.096-.336.024-.672.84-1.32 1.248-2.472 1.248-1.248 0-2.184-.6-2.568-1.8-.192-.6-.264-1.32-.264-2.352 0-1.008.072-1.728.264-2.328.384-1.2 1.32-1.8 2.568-1.8 1.152 0 1.8.408 2.472 1.248.096.12.216.12.336.024l1.056-.864c.144-.12.144-.216.072-.336-.84-1.2-2.184-1.944-3.936-1.944-2.208 0-3.888 1.104-4.536 3.096-.216.696-.36 1.632-.36 2.904zM163.985 176.12c.144 0 .24-.096.24-.24v-1.392c0-.144-.096-.24-.24-.24h-.504c-1.032 0-1.464-.312-1.464-1.464v-6.504c0-.096.048-.144.144-.144h1.824c.144 0 .24-.096.24-.24v-1.152c0-.144-.096-.24-.24-.24h-1.824c-.096 0-.144-.048-.144-.144v-3.24c0-.144-.096-.24-.24-.24h-1.536c-.144 0-.24.096-.24.24v3.24c0 .096-.048.144-.144.144h-.96c-.144 0-.24.096-.24.24v1.152c0 .144.096.24.24.24h.96c.096 0 .144.048.144.144v6.576c0 2.256.864 3.264 3.096 3.264h.888zM169.179 161.912c.144 0 .24-.096.24-.24v-1.752c0-.144-.096-.24-.24-.24h-1.632c-.144 0-.24.096-.24.24v1.752c0 .144.096.24.24.24h1.632zM169.131 176c.144 0 .24-.096.24-.24v-11.016c0-.144-.096-.24-.24-.24h-1.536c-.144 0-.24.096-.24.24v11.016c0 .144.096.24.24.24h1.536zM177.532 176.264c2.232 0 3.912-1.152 4.536-3.096.264-.792.384-1.584.384-2.928 0-1.32-.12-2.112-.384-2.904-.624-1.968-2.304-3.096-4.536-3.096-2.232 0-3.912 1.128-4.536 3.096-.264.792-.384 1.584-.384 2.904 0 1.344.12 2.136.384 2.928.624 1.944 2.304 3.096 4.536 3.096zm0-1.872c-1.272 0-2.208-.648-2.592-1.8-.192-.624-.264-1.248-.264-2.352 0-1.104.072-1.704.264-2.328.384-1.152 1.32-1.8 2.592-1.8s2.208.648 2.592 1.8c.192.624.264 1.224.264 2.328 0 1.104-.072 1.728-.264 2.352-.384 1.152-1.32 1.8-2.592 1.8zM194.683 176c.144 0 .24-.096.24-.24v-7.2c0-2.616-1.488-4.32-3.984-4.32-1.56 0-2.664.672-3.216 1.56h-.024v-1.056c0-.144-.096-.24-.24-.24h-1.536c-.144 0-.24.096-.24.24v11.016c0 .144.096.24.24.24h1.536c.144 0 .24-.096.24-.24v-6.84c0-1.704 1.08-2.808 2.64-2.808 1.728 0 2.568 1.08 2.568 2.928v6.72c0 .144.096.24.24.24h1.536zM213.239 176c.144 0 .24-.096.24-.24v-15.84c0-.144-.096-.24-.24-.24h-1.536c-.144 0-.24.096-.24.24v5.904h-.024c-.552-.912-1.536-1.584-3.264-1.584-1.992 0-3.384.936-3.96 2.76-.312.912-.408 1.824-.408 3.24 0 1.44.096 2.352.408 3.264.576 1.824 1.968 2.76 3.96 2.76 1.728 0 2.712-.696 3.264-1.608h.024v1.104c0 .144.096.24.24.24h1.536zm-4.584-1.608c-1.272 0-2.136-.624-2.52-1.752-.192-.6-.264-1.344-.264-2.4 0-1.032.072-1.776.264-2.4.384-1.128 1.248-1.728 2.52-1.728s2.16.576 2.544 1.728c.192.576.264 1.248.264 2.4s-.072 1.848-.264 2.4c-.384 1.152-1.272 1.752-2.544 1.752zM221.713 176.264c2.016 0 3.576-.816 4.488-1.968.096-.12.096-.24-.024-.336l-.984-.888c-.12-.096-.24-.072-.36.048-.624.72-1.584 1.272-2.952 1.272-1.416 0-2.448-.672-2.904-1.992-.12-.384-.192-.768-.192-1.392 0-.096.048-.144.144-.144h7.272c.168 0 .264-.096.264-.24 0-1.752-.12-2.544-.36-3.288-.648-1.968-2.304-3.096-4.512-3.096-2.184 0-3.864 1.104-4.512 3.096-.24.696-.36 1.584-.36 2.904 0 1.32.144 2.16.384 2.904.624 1.992 2.28 3.12 4.608 3.12zm-2.784-7.008c-.096 0-.144-.048-.144-.144 0-.528.048-.936.168-1.296.384-1.152 1.344-1.8 2.64-1.8s2.256.648 2.64 1.8c.12.36.168.768.168 1.296 0 .096-.048.144-.144.144h-5.328zM233.658 176.264c3 0 4.632-1.512 4.632-3.768 0-1.848-1.128-3.024-3.456-3.24l-1.2-.12c-1.704-.168-2.256-.648-2.256-1.56 0-.936.744-1.584 2.184-1.584 1.176 0 2.352.456 3.096.936.12.072.24.072.336-.048l.816-1.032c.072-.12.072-.264-.048-.336-.96-.72-2.4-1.272-4.08-1.272-2.712 0-4.272 1.32-4.272 3.504 0 1.872 1.176 3 3.432 3.24l1.224.12c1.8.192 2.232.696 2.232 1.608 0 1.032-.84 1.752-2.52 1.752a5.585 5.585 0 0 1-3.552-1.32.232.232 0 0 0-.336 0l-.984 1.056a.232.232 0 0 0 0 .336c.936.816 2.52 1.728 4.752 1.728zM243.288 161.912c.144 0 .24-.096.24-.24v-1.752c0-.144-.096-.24-.24-.24h-1.632c-.144 0-.24.096-.24.24v1.752c0 .144.096.24.24.24h1.632zM243.24 176c.144 0 .24-.096.24-.24v-11.016c0-.144-.096-.24-.24-.24h-1.536c-.144 0-.24.096-.24.24v11.016c0 .144.096.24.24.24h1.536zM251.161 180.584c3.24 0 5.016-1.824 5.016-5.088v-10.752c0-.144-.096-.24-.24-.24h-1.536c-.144 0-.24.096-.24.24v1.08h-.024c-.528-.96-1.512-1.584-3.192-1.584-1.944 0-3.288.984-3.864 2.784-.288.864-.384 1.704-.384 3.024s.096 2.16.384 3.024c.576 1.8 1.92 2.784 3.864 2.784 1.68 0 2.664-.624 3.192-1.584h.024v1.344c0 2.112-1.008 3.096-2.904 3.096-1.104 0-1.92-.432-2.712-1.152-.12-.12-.24-.12-.36 0l-.984.984c-.12.12-.12.216-.024.336.768 1.008 2.376 1.704 3.984 1.704zm.288-6.576c-1.248 0-2.04-.6-2.424-1.728-.192-.576-.288-1.296-.288-2.232 0-.936.096-1.632.288-2.232.384-1.104 1.176-1.704 2.424-1.704 1.2 0 2.04.528 2.448 1.704.192.6.264 1.248.264 2.232 0 .984-.072 1.656-.264 2.232-.408 1.176-1.248 1.728-2.448 1.728zM269.12 176c.144 0 .24-.096.24-.24v-7.2c0-2.616-1.488-4.32-3.984-4.32-1.56 0-2.664.672-3.216 1.56h-.024v-1.056c0-.144-.096-.24-.24-.24h-1.536c-.144 0-.24.096-.24.24v11.016c0 .144.096.24.24.24h1.536c.144 0 .24-.096.24-.24v-6.84c0-1.704 1.08-2.808 2.64-2.808 1.728 0 2.568 1.08 2.568 2.928v6.72c0 .144.096.24.24.24h1.536zM280.765 161.912c.144 0 .24-.096.24-.24v-1.752c0-.144-.096-.24-.24-.24h-1.632c-.144 0-.24.096-.24.24v1.752c0 .144.096.24.24.24h1.632zM280.717 176c.144 0 .24-.096.24-.24v-11.016c0-.144-.096-.24-.24-.24h-1.536c-.144 0-.24.096-.24.24v11.016c0 .144.096.24.24.24h1.536zM288.854 176.264c3 0 4.632-1.512 4.632-3.768 0-1.848-1.128-3.024-3.456-3.24l-1.2-.12c-1.704-.168-2.256-.648-2.256-1.56 0-.936.744-1.584 2.184-1.584 1.176 0 2.352.456 3.096.936.12.072.24.072.336-.048l.816-1.032c.072-.12.072-.264-.048-.336-.96-.72-2.4-1.272-4.08-1.272-2.712 0-4.272 1.32-4.272 3.504 0 1.872 1.176 3 3.432 3.24l1.224.12c1.8.192 2.232.696 2.232 1.608 0 1.032-.84 1.752-2.52 1.752a5.585 5.585 0 0 1-3.552-1.32.232.232 0 0 0-.336 0l-.984 1.056a.232.232 0 0 0 0 .336c.936.816 2.52 1.728 4.752 1.728zM310.801 176c.144 0 .24-.096.24-.24v-7.608c0-2.832-1.248-3.912-4.512-3.912-1.704 0-3.048.456-3.912 1.128-.096.096-.12.192-.048.336l.648 1.104c.072.12.216.12.336.024.672-.48 1.488-.816 2.784-.816 2.136 0 2.76.672 2.76 2.256v.84c0 .096-.048.144-.144.144h-2.616c-2.808 0-4.488 1.128-4.488 3.552 0 2.328 1.68 3.456 3.864 3.456 1.752 0 2.88-.648 3.408-1.512h.024v1.008c0 .144.096.24.24.24h1.416zm-4.608-1.464c-1.536 0-2.4-.624-2.4-1.8 0-1.296.864-1.872 2.856-1.872h2.304c.096 0 .144.048.144.144v1.272c0 1.416-1.104 2.256-2.904 2.256zM319.94 170.24c0 1.296.144 2.232.36 2.928.648 1.992 2.328 3.096 4.536 3.096 1.752 0 3.096-.744 3.936-1.944.072-.12.072-.216-.072-.336l-1.056-.864c-.12-.096-.24-.096-.336.024-.672.84-1.32 1.248-2.472 1.248-1.248 0-2.184-.6-2.568-1.8-.192-.6-.264-1.32-.264-2.352 0-1.008.072-1.728.264-2.328.384-1.2 1.32-1.8 2.568-1.8 1.152 0 1.8.408 2.472 1.248.096.12.216.12.336.024l1.056-.864c.144-.12.144-.216.072-.336-.84-1.2-2.184-1.944-3.936-1.944-2.208 0-3.888 1.104-4.536 3.096-.216.696-.36 1.632-.36 2.904zM333.732 176c.144 0 .24-.096.24-.24v-6.288c0-1.992.72-3.36 2.472-3.36.672 0 1.248.216 1.776.552.12.096.24.072.336-.048l.888-1.176c.096-.12.072-.216-.048-.336-.576-.528-1.44-.864-2.352-.864-1.536 0-2.544.696-3.048 1.68h-.024v-1.176c0-.144-.096-.24-.24-.24h-1.536c-.144 0-.24.096-.24.24v11.016c0 .144.096.24.24.24h1.536zM345.674 176.264c2.016 0 3.576-.816 4.488-1.968.096-.12.096-.24-.024-.336l-.984-.888c-.12-.096-.24-.072-.36.048-.624.72-1.584 1.272-2.952 1.272-1.416 0-2.448-.672-2.904-1.992-.12-.384-.192-.768-.192-1.392 0-.096.048-.144.144-.144h7.272c.168 0 .264-.096.264-.24 0-1.752-.12-2.544-.36-3.288-.648-1.968-2.304-3.096-4.512-3.096-2.184 0-3.864 1.104-4.512 3.096-.24.696-.36 1.584-.36 2.904 0 1.32.144 2.16.384 2.904.624 1.992 2.28 3.12 4.608 3.12zm-2.784-7.008c-.096 0-.144-.048-.144-.144 0-.528.048-.936.168-1.296.384-1.152 1.344-1.8 2.64-1.8s2.256.648 2.64 1.8c.12.36.168.768.168 1.296 0 .096-.048.144-.144.144h-5.328zM362.035 176c.144 0 .24-.096.24-.24v-7.608c0-2.832-1.248-3.912-4.512-3.912-1.704 0-3.048.456-3.912 1.128-.096.096-.12.192-.048.336l.648 1.104c.072.12.216.12.336.024.672-.48 1.488-.816 2.784-.816 2.136 0 2.76.672 2.76 2.256v.84c0 .096-.048.144-.144.144h-2.616c-2.808 0-4.488 1.128-4.488 3.552 0 2.328 1.68 3.456 3.864 3.456 1.752 0 2.88-.648 3.408-1.512h.024v1.008c0 .144.096.24.24.24h1.416zm-4.608-1.464c-1.536 0-2.4-.624-2.4-1.8 0-1.296.864-1.872 2.856-1.872h2.304c.096 0 .144.048.144.144v1.272c0 1.416-1.104 2.256-2.904 2.256zM370.329 176.12c.144 0 .24-.096.24-.24v-1.392c0-.144-.096-.24-.24-.24h-.504c-1.032 0-1.464-.312-1.464-1.464v-6.504c0-.096.048-.144.144-.144h1.824c.144 0 .24-.096.24-.24v-1.152c0-.144-.096-.24-.24-.24h-1.824c-.096 0-.144-.048-.144-.144v-3.24c0-.144-.096-.24-.24-.24h-1.536c-.144 0-.24.096-.24.24v3.24c0 .096-.048.144-.144.144h-.96c-.144 0-.24.096-.24.24v1.152c0 .144.096.24.24.24h.96c.096 0 .144.048.144.144v6.576c0 2.256.864 3.264 3.096 3.264h.888zM375.522 161.912c.144 0 .24-.096.24-.24v-1.752c0-.144-.096-.24-.24-.24h-1.632c-.144 0-.24.096-.24.24v1.752c0 .144.096.24.24.24h1.632zM375.474 176c.144 0 .24-.096.24-.24v-11.016c0-.144-.096-.24-.24-.24h-1.536c-.144 0-.24.096-.24.24v11.016c0 .144.096.24.24.24h1.536zM384.092 176c.168 0 .264-.096.312-.24l4.104-11.016c.048-.144-.024-.24-.192-.24h-1.632c-.144 0-.24.072-.288.24L383.492 173h-.048l-2.976-8.256c-.072-.168-.144-.24-.312-.24H378.5c-.168 0-.24.096-.192.24l4.128 11.016c.048.144.12.24.288.24h1.368zM395.291 176.264c2.016 0 3.576-.816 4.488-1.968.096-.12.096-.24-.024-.336l-.984-.888c-.12-.096-.24-.072-.36.048-.624.72-1.584 1.272-2.952 1.272-1.416 0-2.448-.672-2.904-1.992-.12-.384-.192-.768-.192-1.392 0-.096.048-.144.144-.144h7.272c.168 0 .264-.096.264-.24 0-1.752-.12-2.544-.36-3.288-.648-1.968-2.304-3.096-4.512-3.096-2.184 0-3.864 1.104-4.512 3.096-.24.696-.36 1.584-.36 2.904 0 1.32.144 2.16.384 2.904.624 1.992 2.28 3.12 4.608 3.12zm-2.784-7.008c-.096 0-.144-.048-.144-.144 0-.528.048-.936.168-1.296.384-1.152 1.344-1.8 2.64-1.8s2.256.648 2.64 1.8c.12.36.168.768.168 1.296 0 .096-.048.144-.144.144h-5.328zM402.989 173.696v4.68c0 .12.096.216.216.216s.216-.048.312-.168l1.488-1.968c.12-.168.144-.288.144-.528v-2.232c0-.144-.096-.24-.24-.24h-1.68c-.144 0-.24.096-.24.24zM80.268 199.24c0 1.296.144 2.232.36 2.928.648 1.992 2.328 3.096 4.536 3.096 1.752 0 3.096-.744 3.936-1.944.072-.12.072-.216-.072-.336l-1.056-.864c-.12-.096-.24-.096-.336.024-.672.84-1.32 1.248-2.472 1.248-1.248 0-2.184-.6-2.568-1.8-.192-.6-.264-1.32-.264-2.352 0-1.008.072-1.728.264-2.328.384-1.2 1.32-1.8 2.568-1.8 1.152 0 1.8.408 2.472 1.248.096.12.216.12.336.024l1.056-.864c.144-.12.144-.216.072-.336-.84-1.2-2.184-1.944-3.936-1.944-2.208 0-3.888 1.104-4.536 3.096-.216.696-.36 1.632-.36 2.904zM96.227 205.264c2.232 0 3.912-1.152 4.536-3.096.264-.792.384-1.584.384-2.928 0-1.32-.12-2.112-.384-2.904-.624-1.968-2.304-3.096-4.536-3.096-2.232 0-3.912 1.128-4.536 3.096-.264.792-.384 1.584-.384 2.904 0 1.344.12 2.136.384 2.928.624 1.944 2.304 3.096 4.536 3.096zm0-1.872c-1.272 0-2.208-.648-2.592-1.8-.192-.624-.264-1.248-.264-2.352 0-1.104.072-1.704.264-2.328.384-1.152 1.32-1.8 2.592-1.8s2.208.648 2.592 1.8c.192.624.264 1.224.264 2.328 0 1.104-.072 1.728-.264 2.352-.384 1.152-1.32 1.8-2.592 1.8zM113.378 205c.144 0 .24-.096.24-.24v-7.2c0-2.616-1.488-4.32-3.984-4.32-1.56 0-2.664.672-3.216 1.56h-.024v-1.056c0-.144-.096-.24-.24-.24h-1.536c-.144 0-.24.096-.24.24v11.016c0 .144.096.24.24.24h1.536c.144 0 .24-.096.24-.24v-6.84c0-1.704 1.08-2.808 2.64-2.808 1.728 0 2.568 1.08 2.568 2.928v6.72c0 .144.096.24.24.24h1.536zM121.393 205.264c3 0 4.632-1.512 4.632-3.768 0-1.848-1.128-3.024-3.456-3.24l-1.2-.12c-1.704-.168-2.256-.648-2.256-1.56 0-.936.744-1.584 2.184-1.584 1.176 0 2.352.456 3.096.936.12.072.24.072.336-.048l.816-1.032c.072-.12.072-.264-.048-.336-.96-.72-2.4-1.272-4.08-1.272-2.712 0-4.272 1.32-4.272 3.504 0 1.872 1.176 3 3.432 3.24l1.224.12c1.8.192 2.232.696 2.232 1.608 0 1.032-.84 1.752-2.52 1.752a5.585 5.585 0 0 1-3.552-1.32.232.232 0 0 0-.336 0l-.984 1.056a.232.232 0 0 0 0 .336c.936.816 2.52 1.728 4.752 1.728zM133.422 205.12c.144 0 .24-.096.24-.24v-1.392c0-.144-.096-.24-.24-.24h-.504c-1.032 0-1.464-.312-1.464-1.464v-6.504c0-.096.048-.144.144-.144h1.824c.144 0 .24-.096.24-.24v-1.152c0-.144-.096-.24-.24-.24h-1.824c-.096 0-.144-.048-.144-.144v-3.24c0-.144-.096-.24-.24-.24h-1.536c-.144 0-.24.096-.24.24v3.24c0 .096-.048.144-.144.144h-.96c-.144 0-.24.096-.24.24v1.152c0 .144.096.24.24.24h.96c.096 0 .144.048.144.144v6.576c0 2.256.864 3.264 3.096 3.264h.888zM138.568 205c.144 0 .24-.096.24-.24v-6.288c0-1.992.72-3.36 2.472-3.36.672 0 1.248.216 1.776.552.12.096.24.072.336-.048l.888-1.176c.096-.12.072-.216-.048-.336-.576-.528-1.44-.864-2.352-.864-1.536 0-2.544.696-3.048 1.68h-.024v-1.176c0-.144-.096-.24-.24-.24h-1.536c-.144 0-.24.096-.24.24v11.016c0 .144.096.24.24.24h1.536zM155.396 205c.144 0 .24-.096.24-.24v-11.016c0-.144-.096-.24-.24-.24h-1.536c-.144 0-.24.096-.24.24v6.816c0 1.728-1.032 2.832-2.592 2.832-1.704 0-2.544-1.08-2.544-2.952v-6.696c0-.144-.096-.24-.24-.24h-1.536c-.144 0-.24.096-.24.24v7.176c0 2.616 1.464 4.344 3.984 4.344 1.488 0 2.544-.624 3.144-1.584h.024v1.08c0 .144.096.24.24.24h1.536zM158.877 199.24c0 1.296.144 2.232.36 2.928.648 1.992 2.328 3.096 4.536 3.096 1.752 0 3.096-.744 3.936-1.944.072-.12.072-.216-.072-.336l-1.056-.864c-.12-.096-.24-.096-.336.024-.672.84-1.32 1.248-2.472 1.248-1.248 0-2.184-.6-2.568-1.8-.192-.6-.264-1.32-.264-2.352 0-1.008.072-1.728.264-2.328.384-1.2 1.32-1.8 2.568-1.8 1.152 0 1.8.408 2.472 1.248.096.12.216.12.336.024l1.056-.864c.144-.12.144-.216.072-.336-.84-1.2-2.184-1.944-3.936-1.944-2.208 0-3.888 1.104-4.536 3.096-.216.696-.36 1.632-.36 2.904zM175.118 205.12c.144 0 .24-.096.24-.24v-1.392c0-.144-.096-.24-.24-.24h-.504c-1.032 0-1.464-.312-1.464-1.464v-6.504c0-.096.048-.144.144-.144h1.824c.144 0 .24-.096.24-.24v-1.152c0-.144-.096-.24-.24-.24h-1.824c-.096 0-.144-.048-.144-.144v-3.24c0-.144-.096-.24-.24-.24h-1.536c-.144 0-.24.096-.24.24v3.24c0 .096-.048.144-.144.144h-.96c-.144 0-.24.096-.24.24v1.152c0 .144.096.24.24.24h.96c.096 0 .144.048.144.144v6.576c0 2.256.864 3.264 3.096 3.264h.888zM180.312 190.912c.144 0 .239-.096.239-.24v-1.752c0-.144-.095-.24-.239-.24h-1.632c-.144 0-.241.096-.241.24v1.752c0 .144.097.24.241.24h1.632zM180.264 205c.144 0 .239-.096.239-.24v-11.016c0-.144-.095-.24-.239-.24h-1.536c-.144 0-.24.096-.24.24v11.016c0 .144.096.24.24.24h1.536zM188.665 205.264c2.232 0 3.912-1.152 4.536-3.096.264-.792.384-1.584.384-2.928 0-1.32-.12-2.112-.384-2.904-.624-1.968-2.304-3.096-4.536-3.096-2.232 0-3.912 1.128-4.536 3.096-.264.792-.384 1.584-.384 2.904 0 1.344.12 2.136.384 2.928.624 1.944 2.304 3.096 4.536 3.096zm0-1.872c-1.272 0-2.208-.648-2.592-1.8-.192-.624-.264-1.248-.264-2.352 0-1.104.072-1.704.264-2.328.384-1.152 1.32-1.8 2.592-1.8s2.208.648 2.592 1.8c.192.624.264 1.224.264 2.328 0 1.104-.072 1.728-.264 2.352-.384 1.152-1.32 1.8-2.592 1.8zM205.816 205c.144 0 .24-.096.24-.24v-7.2c0-2.616-1.488-4.32-3.984-4.32-1.56 0-2.664.672-3.216 1.56h-.024v-1.056c0-.144-.096-.24-.24-.24h-1.536c-.144 0-.24.096-.24.24v11.016c0 .144.096.24.24.24h1.536c.144 0 .24-.096.24-.24v-6.84c0-1.704 1.08-2.808 2.64-2.808 1.728 0 2.568 1.08 2.568 2.928v6.72c0 .144.096.24.24.24h1.536zM209.27 199.552h6.384c.144 0 .24-.096.24-.24v-1.392c0-.144-.096-.24-.24-.24h-6.384c-.144 0-.24.096-.24.24v1.392c0 .144.096.24.24.24zM223.212 205.264c2.231 0 3.912-1.152 4.535-3.096.265-.792.385-1.584.385-2.928 0-1.32-.12-2.112-.385-2.904-.623-1.968-2.304-3.096-4.535-3.096-2.232 0-3.913 1.128-4.536 3.096-.265.792-.384 1.584-.384 2.904 0 1.344.119 2.136.384 2.928.623 1.944 2.304 3.096 4.536 3.096zm0-1.872c-1.273 0-2.208-.648-2.592-1.8-.192-.624-.265-1.248-.265-2.352 0-1.104.073-1.704.265-2.328.384-1.152 1.319-1.8 2.592-1.8 1.272 0 2.207.648 2.591 1.8.192.624.265 1.224.265 2.328 0 1.104-.073 1.728-.265 2.352-.384 1.152-1.319 1.8-2.591 1.8zM233.139 205c.144 0 .239-.096.239-.24v-6.288c0-1.992.72-3.36 2.472-3.36.672 0 1.248.216 1.776.552.12.096.241.072.336-.048l.888-1.176c.096-.12.073-.216-.047-.336-.576-.528-1.44-.864-2.352-.864-1.536 0-2.545.696-3.049 1.68h-.024v-1.176c0-.144-.095-.24-.239-.24h-1.536c-.144 0-.24.096-.24.24v11.016c0 .144.096.24.24.24h1.536zM243.03 190.912c.144 0 .24-.096.24-.24v-1.752c0-.144-.096-.24-.24-.24h-1.632c-.144 0-.24.096-.24.24v1.752c0 .144.096.24.24.24h1.632zM242.982 205c.144 0 .24-.096.24-.24v-11.016c0-.144-.096-.24-.24-.24h-1.536c-.144 0-.24.096-.24.24v11.016c0 .144.096.24.24.24h1.536zM251.455 205.264c2.016 0 3.576-.816 4.488-1.968.096-.12.096-.24-.024-.336l-.984-.888c-.12-.096-.24-.072-.36.048-.624.72-1.584 1.272-2.952 1.272-1.416 0-2.448-.672-2.904-1.992-.12-.384-.192-.768-.192-1.392 0-.096.048-.144.144-.144h7.272c.168 0 .264-.096.264-.24 0-1.752-.12-2.544-.36-3.288-.648-1.968-2.304-3.096-4.512-3.096-2.184 0-3.864 1.104-4.512 3.096-.24.696-.36 1.584-.36 2.904 0 1.32.144 2.16.384 2.904.624 1.992 2.28 3.12 4.608 3.12zm-2.784-7.008c-.096 0-.144-.048-.144-.144 0-.528.048-.936.168-1.296.384-1.152 1.344-1.8 2.64-1.8s2.256.648 2.64 1.8c.12.36.168.768.168 1.296 0 .096-.048.144-.144.144h-5.328zM268.441 205c.144 0 .24-.096.24-.24v-7.2c0-2.616-1.488-4.32-3.984-4.32-1.56 0-2.664.672-3.216 1.56h-.024v-1.056c0-.144-.096-.24-.24-.24h-1.536c-.144 0-.24.096-.24.24v11.016c0 .144.096.24.24.24h1.536c.144 0 .24-.096.24-.24v-6.84c0-1.704 1.08-2.808 2.64-2.808 1.728 0 2.568 1.08 2.568 2.928v6.72c0 .144.096.24.24.24h1.536zM276.719 205.12c.144 0 .24-.096.24-.24v-1.392c0-.144-.096-.24-.24-.24h-.504c-1.032 0-1.464-.312-1.464-1.464v-6.504c0-.096.048-.144.144-.144h1.824c.144 0 .24-.096.24-.24v-1.152c0-.144-.096-.24-.24-.24h-1.824c-.096 0-.144-.048-.144-.144v-3.24c0-.144-.096-.24-.24-.24h-1.536c-.144 0-.24.096-.24.24v3.24c0 .096-.048.144-.144.144h-.96c-.144 0-.24.096-.24.24v1.152c0 .144.096.24.24.24h.96c.096 0 .144.048.144.144v6.576c0 2.256.864 3.264 3.096 3.264h.888zM284.385 205.264c2.016 0 3.576-.816 4.488-1.968.096-.12.096-.24-.024-.336l-.984-.888c-.12-.096-.24-.072-.36.048-.624.72-1.584 1.272-2.952 1.272-1.416 0-2.448-.672-2.904-1.992-.12-.384-.192-.768-.192-1.392 0-.096.048-.144.144-.144h7.272c.168 0 .264-.096.264-.24 0-1.752-.12-2.544-.36-3.288-.648-1.968-2.304-3.096-4.512-3.096-2.184 0-3.864 1.104-4.512 3.096-.24.696-.36 1.584-.36 2.904 0 1.32.144 2.16.384 2.904.624 1.992 2.28 3.12 4.608 3.12zm-2.784-7.008c-.096 0-.144-.048-.144-.144 0-.528.048-.936.168-1.296.384-1.152 1.344-1.8 2.64-1.8s2.256.648 2.64 1.8c.12.36.168.768.168 1.296 0 .096-.048.144-.144.144h-5.328zM301.106 205c.144 0 .24-.096.24-.24v-15.84c0-.144-.096-.24-.24-.24h-1.536c-.144 0-.24.096-.24.24v5.904h-.024c-.552-.912-1.536-1.584-3.264-1.584-1.992 0-3.384.936-3.96 2.76-.312.912-.408 1.824-.408 3.24 0 1.44.096 2.352.408 3.264.576 1.824 1.968 2.76 3.96 2.76 1.728 0 2.712-.696 3.264-1.608h.024v1.104c0 .144.096.24.24.24h1.536zm-4.584-1.608c-1.272 0-2.136-.624-2.52-1.752-.192-.6-.264-1.344-.264-2.4 0-1.032.072-1.776.264-2.4.384-1.128 1.248-1.728 2.52-1.728s2.16.576 2.544 1.728c.192.576.264 1.248.264 2.4s-.072 1.848-.264 2.4c-.384 1.152-1.272 1.752-2.544 1.752zM319.786 205c.144 0 .24-.096.24-.24v-15.84c0-.144-.096-.24-.24-.24h-1.536c-.144 0-.24.096-.24.24v5.904h-.024c-.552-.912-1.536-1.584-3.264-1.584-1.992 0-3.384.936-3.96 2.76-.312.912-.408 1.824-.408 3.24 0 1.44.096 2.352.408 3.264.576 1.824 1.968 2.76 3.96 2.76 1.728 0 2.712-.696 3.264-1.608h.024v1.104c0 .144.096.24.24.24h1.536zm-4.584-1.608c-1.272 0-2.136-.624-2.52-1.752-.192-.6-.264-1.344-.264-2.4 0-1.032.072-1.776.264-2.4.384-1.128 1.248-1.728 2.52-1.728s2.16.576 2.544 1.728c.192.576.264 1.248.264 2.4s-.072 1.848-.264 2.4c-.384 1.152-1.272 1.752-2.544 1.752zM325.788 190.912c.144 0 .24-.096.24-.24v-1.752c0-.144-.096-.24-.24-.24h-1.632c-.144 0-.24.096-.24.24v1.752c0 .144.096.24.24.24h1.632zM325.74 205c.144 0 .24-.096.24-.24v-11.016c0-.144-.096-.24-.24-.24h-1.536c-.144 0-.24.096-.24.24v11.016c0 .144.096.24.24.24h1.536zM333.877 205.264c3 0 4.632-1.512 4.632-3.768 0-1.848-1.128-3.024-3.456-3.24l-1.2-.12c-1.704-.168-2.256-.648-2.256-1.56 0-.936.744-1.584 2.184-1.584 1.176 0 2.352.456 3.096.936.12.072.24.072.336-.048l.816-1.032c.072-.12.072-.264-.048-.336-.96-.72-2.4-1.272-4.08-1.272-2.712 0-4.272 1.32-4.272 3.504 0 1.872 1.176 3 3.432 3.24l1.224.12c1.8.192 2.232.696 2.232 1.608 0 1.032-.84 1.752-2.52 1.752a5.585 5.585 0 0 1-3.552-1.32.232.232 0 0 0-.336 0l-.984 1.056a.232.232 0 0 0 0 .336c.936.816 2.52 1.728 4.752 1.728zM340.987 199.24c0 1.296.144 2.232.36 2.928.648 1.992 2.328 3.096 4.536 3.096 1.752 0 3.096-.744 3.936-1.944.072-.12.072-.216-.072-.336l-1.056-.864c-.12-.096-.24-.096-.336.024-.672.84-1.32 1.248-2.472 1.248-1.248 0-2.184-.6-2.568-1.8-.192-.6-.264-1.32-.264-2.352 0-1.008.072-1.728.264-2.328.384-1.2 1.32-1.8 2.568-1.8 1.152 0 1.8.408 2.472 1.248.096.12.216.12.336.024l1.056-.864c.144-.12.144-.216.072-.336-.84-1.2-2.184-1.944-3.936-1.944-2.208 0-3.888 1.104-4.536 3.096-.216.696-.36 1.632-.36 2.904zM354.827 190.912c.144 0 .24-.096.24-.24v-1.752c0-.144-.096-.24-.24-.24h-1.632c-.144 0-.24.096-.24.24v1.752c0 .144.096.24.24.24h1.632zM354.779 205c.144 0 .24-.096.24-.24v-11.016c0-.144-.096-.24-.24-.24h-1.536c-.144 0-.24.096-.24.24v11.016c0 .144.096.24.24.24h1.536zM360.732 209.32c.144 0 .24-.096.24-.24v-5.424h.024c.552.912 1.536 1.608 3.264 1.608 1.992 0 3.384-.936 3.96-2.76.312-.912.408-1.824.408-3.264 0-1.416-.096-2.328-.408-3.24-.576-1.824-1.968-2.76-3.96-2.76-1.728 0-2.712.672-3.264 1.584h-.024v-1.08c0-.144-.096-.24-.24-.24h-1.536c-.144 0-.24.096-.24.24v15.336c0 .144.096.24.24.24h1.536zm3.048-5.928c-1.272 0-2.16-.6-2.544-1.752-.192-.552-.264-1.248-.264-2.4s.072-1.824.264-2.4c.384-1.152 1.272-1.728 2.544-1.728s2.136.6 2.52 1.728c.192.624.264 1.368.264 2.4 0 1.056-.072 1.8-.264 2.4-.384 1.128-1.248 1.752-2.52 1.752zM375.446 205.12c.144 0 .24-.096.24-.24v-1.392c0-.144-.096-.24-.24-.24h-.456c-.792 0-1.152-.312-1.152-1.272V188.92c0-.144-.096-.24-.24-.24h-1.536c-.144 0-.24.096-.24.24v13.176c0 2.064.792 3.024 2.808 3.024h.816zM380.351 190.912c.144 0 .24-.096.24-.24v-1.752c0-.144-.096-.24-.24-.24h-1.632c-.144 0-.24.096-.24.24v1.752c0 .144.096.24.24.24h1.632zM380.303 205c.144 0 .24-.096.24-.24v-11.016c0-.144-.096-.24-.24-.24h-1.536c-.144 0-.24.096-.24.24v11.016c0 .144.096.24.24.24h1.536zM393.48 205c.144 0 .24-.096.24-.24v-7.2c0-2.616-1.488-4.32-3.984-4.32-1.56 0-2.664.672-3.216 1.56h-.024v-1.056c0-.144-.096-.24-.24-.24h-1.536c-.144 0-.24.096-.24.24v11.016c0 .144.096.24.24.24h1.536c.144 0 .24-.096.24-.24v-6.84c0-1.704 1.08-2.808 2.64-2.808 1.728 0 2.568 1.08 2.568 2.928v6.72c0 .144.096.24.24.24h1.536zM401.83 205.264c2.016 0 3.576-.816 4.488-1.968.096-.12.096-.24-.024-.336l-.984-.888c-.12-.096-.24-.072-.36.048-.624.72-1.584 1.272-2.952 1.272-1.416 0-2.448-.672-2.904-1.992-.12-.384-.192-.768-.192-1.392 0-.096.048-.144.144-.144h7.272c.168 0 .264-.096.264-.24 0-1.752-.12-2.544-.36-3.288-.648-1.968-2.304-3.096-4.512-3.096-2.184 0-3.864 1.104-4.512 3.096-.24.696-.36 1.584-.36 2.904 0 1.32.144 2.16.384 2.904.624 1.992 2.28 3.12 4.608 3.12zm-2.784-7.008c-.096 0-.144-.048-.144-.144 0-.528.048-.936.168-1.296.384-1.152 1.344-1.8 2.64-1.8s2.256.648 2.64 1.8c.12.36.168.768.168 1.296 0 .096-.048.144-.144.144h-5.328zM409.528 204.76c0 .144.096.24.24.24h1.824c.144 0 .24-.096.24-.24v-2.064c0-.144-.096-.24-.24-.24h-1.824c-.144 0-.24.096-.24.24v2.064z"/>
    <path fill="#00F" d="M241.066 112a.767.767 0 0 0-.544.225l-4.296 4.297a.768.768 0 0 0 0 1.088l4.456 4.456 1.087-1.088-3.912-3.912 3.209-3.209.995.995-.995.994 1.088 1.088.995-.995.835.836-1.605 1.604.995.995 2.692-2.693-.994-.994-3.462-3.462a.767.767 0 0 0-.544-.225zm11.724.769a1.54 1.54 0 0 0-1.088.452l-1.086 1.087 3.077 3.077 1.086-1.087c.601-.6.602-1.573.001-2.174l-.904-.904a1.534 1.534 0 0 0-1.086-.451zm-3.713 3.077l-10.592 10.592.977.562.384 1.154 1.154.384.562.977 10.592-10.592-3.077-3.077zm2.242 6.088l-2.693 2.692.995.995 1.605-1.605.835.836-.995.994 1.088 1.088.995-.995.994.995-3.209 3.209-3.912-3.912-1.088 1.088 4.456 4.456a.767.767 0 0 0 1.088 0l4.297-4.297a.768.768 0 0 0 0-1.088l-3.462-3.462-.994-.994zm-13.863 6.906l-.658 1.859a.385.385 0 0 0 .496.506l1.867-.659-1.705-1.706z"/>
    <path fill="#0500FA" d="M250 102h16v2h-16z"/>
    <path fill="#0500FA" d="M264 118v-16h2v16zM226 140h16v2h-16z"/>
    <path fill="#0500FA" d="M228 126v16h-2v-16z"/>
    <path fill="#22224B" d="M62.52 305.76c0 .144.095.24.24.24h5.495c2.76 0 4.585-1.176 5.329-3.48.287-.888.431-1.776.431-4.68s-.144-3.792-.431-4.68c-.745-2.304-2.569-3.48-5.329-3.48H62.76c-.145 0-.24.096-.24.24v15.84zm2.136-1.896v-12.048c0-.096.047-.144.143-.144h3c1.968 0 3.192.648 3.72 2.232.216.6.337 1.392.337 3.936s-.12 3.336-.337 3.936c-.528 1.584-1.752 2.232-3.72 2.232h-3c-.096 0-.144-.048-.144-.144zM81.72 306.264c2.017 0 3.577-.816 4.489-1.968.096-.12.096-.24-.024-.336l-.984-.888c-.12-.096-.24-.072-.36.048-.624.72-1.584 1.272-2.952 1.272-1.416 0-2.448-.672-2.904-1.992-.12-.384-.192-.768-.192-1.392 0-.096.048-.144.144-.144h7.272c.168 0 .264-.096.264-.24 0-1.752-.12-2.544-.36-3.288-.648-1.968-2.304-3.096-4.512-3.096-2.184 0-3.864 1.104-4.512 3.096-.24.696-.36 1.584-.36 2.904 0 1.32.144 2.16.384 2.904.624 1.992 2.28 3.12 4.608 3.12zm-2.783-7.008c-.096 0-.144-.048-.144-.144 0-.528.048-.936.168-1.296.384-1.152 1.344-1.8 2.64-1.8s2.256.648 2.64 1.8c.12.36.168.768.168 1.296 0 .096-.048.144-.144.144h-5.328zM93.666 306.264c3 0 4.632-1.512 4.632-3.768 0-1.848-1.128-3.024-3.456-3.24l-1.2-.12c-1.704-.168-2.256-.648-2.256-1.56 0-.936.744-1.584 2.184-1.584 1.176 0 2.352.456 3.096.936.12.072.24.072.336-.048l.816-1.032c.072-.12.072-.264-.048-.336-.96-.72-2.4-1.272-4.08-1.272-2.712 0-4.272 1.32-4.272 3.504 0 1.872 1.176 3 3.432 3.24l1.224.12c1.8.192 2.232.696 2.232 1.608 0 1.032-.84 1.752-2.52 1.752a5.585 5.585 0 0 1-3.552-1.32.232.232 0 0 0-.336 0l-.984 1.056a.232.232 0 0 0 0 .336c.936.816 2.52 1.728 4.752 1.728zM103.296 291.912c.144 0 .24-.096.24-.24v-1.752c0-.144-.096-.24-.24-.24h-1.632c-.144 0-.24.096-.24.24v1.752c0 .144.096.24.24.24h1.632zM103.248 306c.144 0 .24-.096.24-.24v-11.016c0-.144-.096-.24-.24-.24h-1.536c-.144 0-.24.096-.24.24v11.016c0 .144.096.24.24.24h1.536zM111.169 310.584c3.24 0 5.016-1.824 5.016-5.088v-10.752c0-.144-.096-.24-.24-.24h-1.536c-.144 0-.24.096-.24.24v1.08h-.024c-.528-.96-1.512-1.584-3.192-1.584-1.944 0-3.288.984-3.864 2.784-.288.864-.384 1.704-.384 3.024s.096 2.16.384 3.024c.576 1.8 1.92 2.784 3.864 2.784 1.68 0 2.664-.624 3.192-1.584h.024v1.344c0 2.112-1.008 3.096-2.904 3.096-1.104 0-1.92-.432-2.712-1.152-.12-.12-.24-.12-.36 0l-.984.984c-.12.12-.12.216-.024.336.768 1.008 2.376 1.704 3.984 1.704zm.288-6.576c-1.248 0-2.04-.6-2.424-1.728-.192-.576-.288-1.296-.288-2.232 0-.936.096-1.632.288-2.232.384-1.104 1.176-1.704 2.424-1.704 1.2 0 2.04.528 2.448 1.704.192.6.264 1.248.264 2.232 0 .984-.072 1.656-.264 2.232-.408 1.176-1.248 1.728-2.448 1.728zM129.128 306c.144 0 .24-.096.24-.24v-7.2c0-2.616-1.488-4.32-3.984-4.32-1.56 0-2.664.672-3.216 1.56h-.024v-1.056c0-.144-.096-.24-.24-.24h-1.536c-.144 0-.24.096-.24.24v11.016c0 .144.096.24.24.24h1.536c.144 0 .24-.096.24-.24v-6.84c0-1.704 1.08-2.808 2.64-2.808 1.728 0 2.568 1.08 2.568 2.928v6.72c0 .144.096.24.24.24h1.536zM135.006 291.912c.144 0 .24-.096.24-.24v-1.752c0-.144-.096-.24-.24-.24h-1.632c-.144 0-.24.096-.24.24v1.752c0 .144.096.24.24.24h1.632zM134.958 306c.144 0 .24-.096.24-.24v-11.016c0-.144-.096-.24-.24-.24h-1.536c-.144 0-.24.096-.24.24v11.016c0 .144.096.24.24.24h1.536zM148.136 306c.144 0 .24-.096.24-.24v-7.2c0-2.616-1.488-4.32-3.984-4.32-1.56 0-2.664.672-3.216 1.56h-.024v-1.056c0-.144-.096-.24-.24-.24h-1.536c-.144 0-.24.096-.24.24v11.016c0 .144.096.24.24.24h1.536c.144 0 .24-.096.24-.24v-6.84c0-1.704 1.08-2.808 2.64-2.808 1.728 0 2.568 1.08 2.568 2.928v6.72c0 .144.096.24.24.24h1.536zM155.934 310.584c3.24 0 5.016-1.824 5.016-5.088v-10.752c0-.144-.096-.24-.24-.24h-1.536c-.144 0-.24.096-.24.24v1.08h-.024c-.528-.96-1.512-1.584-3.192-1.584-1.944 0-3.288.984-3.864 2.784-.288.864-.384 1.704-.384 3.024s.096 2.16.384 3.024c.576 1.8 1.92 2.784 3.864 2.784 1.68 0 2.664-.624 3.192-1.584h.024v1.344c0 2.112-1.008 3.096-2.904 3.096-1.104 0-1.92-.432-2.712-1.152-.12-.12-.24-.12-.36 0l-.984.984c-.12.12-.12.216-.024.336.768 1.008 2.376 1.704 3.984 1.704zm.288-6.576c-1.248 0-2.04-.6-2.424-1.728-.192-.576-.288-1.296-.288-2.232 0-.936.096-1.632.288-2.232.384-1.104 1.176-1.704 2.424-1.704 1.2 0 2.04.528 2.448 1.704.192.6.264 1.248.264 2.232 0 .984-.072 1.656-.264 2.232-.408 1.176-1.248 1.728-2.448 1.728zM172.483 291.912c.144 0 .24-.096.24-.24v-1.752c0-.144-.096-.24-.24-.24h-1.632c-.144 0-.24.096-.24.24v1.752c0 .144.096.24.24.24h1.632zM172.435 306c.144 0 .24-.096.24-.24v-11.016c0-.144-.096-.24-.24-.24h-1.536c-.144 0-.24.096-.24.24v11.016c0 .144.096.24.24.24h1.536zM185.612 306c.144 0 .24-.096.24-.24v-7.2c0-2.616-1.488-4.32-3.984-4.32-1.56 0-2.664.672-3.216 1.56h-.024v-1.056c0-.144-.096-.24-.24-.24h-1.536c-.144 0-.24.096-.24.24v11.016c0 .144.096.24.24.24h1.536c.144 0 .24-.096.24-.24v-6.84c0-1.704 1.08-2.808 2.64-2.808 1.728 0 2.568 1.08 2.568 2.928v6.72c0 .144.096.24.24.24h1.536zM193.891 306.12c.144 0 .24-.096.24-.24v-1.392c0-.144-.096-.24-.24-.24h-.504c-1.032 0-1.464-.312-1.464-1.464v-6.504c0-.096.048-.144.144-.144h1.824c.144 0 .24-.096.24-.24v-1.152c0-.144-.096-.24-.24-.24h-1.824c-.096 0-.144-.048-.144-.144v-3.24c0-.144-.096-.24-.24-.24h-1.536c-.144 0-.24.096-.24.24v3.24c0 .096-.048.144-.144.144h-.96c-.144 0-.24.096-.24.24v1.152c0 .144.096.24.24.24h.96c.096 0 .144.048.144.144v6.576c0 2.256.864 3.264 3.096 3.264h.888zM201.557 306.264c2.016 0 3.576-.816 4.488-1.968.096-.12.096-.24-.024-.336l-.984-.888c-.12-.096-.24-.072-.36.048-.624.72-1.584 1.272-2.952 1.272-1.416 0-2.448-.672-2.904-1.992-.12-.384-.192-.768-.192-1.392 0-.096.048-.144.144-.144h7.272c.168 0 .264-.096.264-.24 0-1.752-.12-2.544-.36-3.288-.648-1.968-2.304-3.096-4.512-3.096-2.184 0-3.864 1.104-4.512 3.096-.24.696-.36 1.584-.36 2.904 0 1.32.144 2.16.384 2.904.624 1.992 2.28 3.12 4.608 3.12zm-2.784-7.008c-.096 0-.144-.048-.144-.144 0-.528.048-.936.168-1.296.384-1.152 1.344-1.8 2.64-1.8s2.256.648 2.64 1.8c.12.36.168.768.168 1.296 0 .096-.048.144-.144.144h-5.328zM211.318 306c.144 0 .24-.096.24-.24v-6.288c0-1.992.72-3.36 2.472-3.36.672 0 1.248.216 1.776.552.12.096.24.072.336-.048l.888-1.176c.096-.12.072-.216-.048-.336-.576-.528-1.44-.864-2.352-.864-1.536 0-2.544.696-3.048 1.68h-.024v-1.176c0-.144-.096-.24-.24-.24h-1.536c-.144 0-.24.096-.24.24v11.016c0 .144.096.24.24.24h1.536zM227.176 306c.144 0 .24-.096.24-.24v-7.608c0-2.832-1.248-3.912-4.512-3.912-1.704 0-3.048.456-3.912 1.128-.096.096-.12.192-.048.336l.648 1.104c.072.12.216.12.336.024.672-.48 1.488-.816 2.784-.816 2.136 0 2.76.672 2.76 2.256v.84c0 .096-.048.144-.144.144h-2.616c-2.808 0-4.488 1.128-4.488 3.552 0 2.328 1.68 3.456 3.864 3.456 1.752 0 2.88-.648 3.408-1.512h.024v1.008c0 .144.096.24.24.24h1.416zm-4.608-1.464c-1.536 0-2.4-.624-2.4-1.8 0-1.296.864-1.872 2.856-1.872h2.304c.096 0 .144.048.144.144v1.272c0 1.416-1.104 2.256-2.904 2.256zM230.549 300.24c0 1.296.144 2.232.36 2.928.648 1.992 2.328 3.096 4.536 3.096 1.752 0 3.096-.744 3.936-1.944.072-.12.072-.216-.072-.336l-1.056-.864c-.12-.096-.24-.096-.336.024-.672.84-1.32 1.248-2.472 1.248-1.248 0-2.184-.6-2.568-1.8-.192-.6-.264-1.32-.264-2.352 0-1.008.072-1.728.264-2.328.384-1.2 1.32-1.8 2.568-1.8 1.152 0 1.8.408 2.472 1.248.096.12.216.12.336.024l1.056-.864c.144-.12.144-.216.072-.336-.84-1.2-2.184-1.944-3.936-1.944-2.208 0-3.888 1.104-4.536 3.096-.216.696-.36 1.632-.36 2.904zM246.789 306.12c.144 0 .24-.096.24-.24v-1.392c0-.144-.096-.24-.24-.24h-.504c-1.032 0-1.464-.312-1.464-1.464v-6.504c0-.096.048-.144.144-.144h1.824c.144 0 .24-.096.24-.24v-1.152c0-.144-.096-.24-.24-.24h-1.824c-.096 0-.144-.048-.144-.144v-3.24c0-.144-.096-.24-.24-.24h-1.536c-.144 0-.24.096-.24.24v3.24c0 .096-.048.144-.144.144h-.96c-.144 0-.24.096-.24.24v1.152c0 .144.096.24.24.24h.96c.096 0 .144.048.144.144v6.576c0 2.256.864 3.264 3.096 3.264h.888zM251.983 291.912c.144 0 .24-.096.24-.24v-1.752c0-.144-.096-.24-.24-.24h-1.632c-.144 0-.24.096-.24.24v1.752c0 .144.096.24.24.24h1.632zM251.935 306c.144 0 .24-.096.24-.24v-11.016c0-.144-.096-.24-.24-.24h-1.536c-.144 0-.24.096-.24.24v11.016c0 .144.096.24.24.24h1.536zM260.552 306c.168 0 .264-.096.312-.24l4.104-11.016c.048-.144-.024-.24-.192-.24h-1.632c-.144 0-.24.072-.288.24L259.952 303h-.048l-2.976-8.256c-.072-.168-.144-.24-.312-.24h-1.656c-.168 0-.24.096-.192.24l4.128 11.016c.048.144.12.24.288.24h1.368zM271.752 306.264c2.016 0 3.576-.816 4.488-1.968.096-.12.096-.24-.024-.336l-.984-.888c-.12-.096-.24-.072-.36.048-.624.72-1.584 1.272-2.952 1.272-1.416 0-2.448-.672-2.904-1.992-.12-.384-.192-.768-.192-1.392 0-.096.048-.144.144-.144h7.272c.168 0 .264-.096.264-.24 0-1.752-.12-2.544-.36-3.288-.648-1.968-2.304-3.096-4.512-3.096-2.184 0-3.864 1.104-4.512 3.096-.24.696-.36 1.584-.36 2.904 0 1.32.144 2.16.384 2.904.624 1.992 2.28 3.12 4.608 3.12zm-2.784-7.008c-.096 0-.144-.048-.144-.144 0-.528.048-.936.168-1.296.384-1.152 1.344-1.8 2.64-1.8s2.256.648 2.64 1.8c.12.36.168.768.168 1.296 0 .096-.048.144-.144.144h-5.328zM287.279 310.32c.144 0 .24-.096.24-.24v-5.424h.024c.552.912 1.536 1.608 3.264 1.608 1.992 0 3.384-.936 3.96-2.76.312-.912.408-1.824.408-3.264 0-1.416-.096-2.328-.408-3.24-.576-1.824-1.968-2.76-3.96-2.76-1.728 0-2.712.672-3.264 1.584h-.024v-1.08c0-.144-.096-.24-.24-.24h-1.536c-.144 0-.24.096-.24.24v15.336c0 .144.096.24.24.24h1.536zm3.048-5.928c-1.272 0-2.16-.6-2.544-1.752-.192-.552-.264-1.248-.264-2.4s.072-1.824.264-2.4c.384-1.152 1.272-1.728 2.544-1.728s2.136.6 2.52 1.728c.192.624.264 1.368.264 2.4 0 1.056-.072 1.8-.264 2.4-.384 1.128-1.248 1.752-2.52 1.752zM300.193 306c.144 0 .24-.096.24-.24v-6.288c0-1.992.72-3.36 2.472-3.36.672 0 1.248.216 1.776.552.12.096.24.072.336-.048l.888-1.176c.096-.12.072-.216-.048-.336-.576-.528-1.44-.864-2.352-.864-1.536 0-2.544.696-3.048 1.68h-.024v-1.176c0-.144-.096-.24-.24-.24h-1.536c-.144 0-.24.096-.24.24v11.016c0 .144.096.24.24.24h1.536zM312.063 306.264c2.232 0 3.912-1.152 4.536-3.096.264-.792.384-1.584.384-2.928 0-1.32-.12-2.112-.384-2.904-.624-1.968-2.304-3.096-4.536-3.096-2.232 0-3.912 1.128-4.536 3.096-.264.792-.384 1.584-.384 2.904 0 1.344.12 2.136.384 2.928.624 1.944 2.304 3.096 4.536 3.096zm0-1.872c-1.272 0-2.208-.648-2.592-1.8-.192-.624-.264-1.248-.264-2.352 0-1.104.072-1.704.264-2.328.384-1.152 1.32-1.8 2.592-1.8s2.208.648 2.592 1.8c.192.624.264 1.224.264 2.328 0 1.104-.072 1.728-.264 2.352-.384 1.152-1.32 1.8-2.592 1.8zM328.95 306c.144 0 .24-.096.24-.24v-15.84c0-.144-.096-.24-.24-.24h-1.536c-.144 0-.24.096-.24.24v5.904h-.024c-.552-.912-1.536-1.584-3.264-1.584-1.992 0-3.384.936-3.96 2.76-.312.912-.408 1.824-.408 3.24 0 1.44.096 2.352.408 3.264.576 1.824 1.968 2.76 3.96 2.76 1.728 0 2.712-.696 3.264-1.608h.024v1.104c0 .144.096.24.24.24h1.536zm-4.584-1.608c-1.272 0-2.136-.624-2.52-1.752-.192-.6-.264-1.344-.264-2.4 0-1.032.072-1.776.264-2.4.384-1.128 1.248-1.728 2.52-1.728s2.16.576 2.544 1.728c.192.576.264 1.248.264 2.4s-.072 1.848-.264 2.4c-.384 1.152-1.272 1.752-2.544 1.752zM341.888 306c.144 0 .24-.096.24-.24v-11.016c0-.144-.096-.24-.24-.24h-1.536c-.144 0-.24.096-.24.24v6.816c0 1.728-1.032 2.832-2.592 2.832-1.704 0-2.544-1.08-2.544-2.952v-6.696c0-.144-.096-.24-.24-.24H333.2c-.144 0-.24.096-.24.24v7.176c0 2.616 1.464 4.344 3.984 4.344 1.488 0 2.544-.624 3.144-1.584h.024v1.08c0 .144.096.24.24.24h1.536zM345.369 300.24c0 1.296.144 2.232.36 2.928.648 1.992 2.328 3.096 4.536 3.096 1.752 0 3.096-.744 3.936-1.944.072-.12.072-.216-.072-.336l-1.056-.864c-.12-.096-.24-.096-.336.024-.672.84-1.32 1.248-2.472 1.248-1.248 0-2.184-.6-2.568-1.8-.192-.6-.264-1.32-.264-2.352 0-1.008.072-1.728.264-2.328.384-1.2 1.32-1.8 2.568-1.8 1.152 0 1.8.408 2.472 1.248.096.12.216.12.336.024l1.056-.864c.144-.12.144-.216.072-.336-.84-1.2-2.184-1.944-3.936-1.944-2.208 0-3.888 1.104-4.536 3.096-.216.696-.36 1.632-.36 2.904zM361.61 306.12c.144 0 .24-.096.24-.24v-1.392c0-.144-.096-.24-.24-.24h-.504c-1.032 0-1.464-.312-1.464-1.464v-6.504c0-.096.048-.144.144-.144h1.824c.144 0 .24-.096.24-.24v-1.152c0-.144-.096-.24-.24-.24h-1.824c-.096 0-.144-.048-.144-.144v-3.24c0-.144-.096-.24-.24-.24h-1.536c-.144 0-.24.096-.24.24v3.24c0 .096-.048.144-.144.144h-.96c-.144 0-.24.096-.24.24v1.152c0 .144.096.24.24.24h.96c.096 0 .144.048.144.144v6.576c0 2.256.864 3.264 3.096 3.264h.888zM368.939 306.264c3 0 4.632-1.512 4.632-3.768 0-1.848-1.128-3.024-3.456-3.24l-1.2-.12c-1.704-.168-2.256-.648-2.256-1.56 0-.936.744-1.584 2.184-1.584 1.176 0 2.352.456 3.096.936.12.072.24.072.336-.048l.816-1.032c.072-.12.072-.264-.048-.336-.96-.72-2.4-1.272-4.08-1.272-2.712 0-4.272 1.32-4.272 3.504 0 1.872 1.176 3 3.432 3.24l1.224.12c1.8.192 2.232.696 2.232 1.608 0 1.032-.84 1.752-2.52 1.752a5.585 5.585 0 0 1-3.552-1.32.232.232 0 0 0-.336 0l-.984 1.056a.232.232 0 0 0 0 .336c.936.816 2.52 1.728 4.752 1.728zM376.457 303.696v4.68c0 .12.096.216.216.216s.216-.048.312-.168l1.488-1.968c.12-.168.144-.288.144-.528v-2.232c0-.144-.096-.24-.24-.24h-1.68c-.144 0-.24.096-.24.24zM389.302 306c.144 0 .24-.096.24-.24v-1.104h.024c.552.912 1.536 1.608 3.264 1.608 1.992 0 3.384-.936 3.96-2.76.312-.912.408-1.824.408-3.264 0-1.416-.096-2.328-.408-3.24-.576-1.824-1.968-2.76-3.96-2.76-1.728 0-2.712.672-3.264 1.584h-.024v-5.904c0-.144-.096-.24-.24-.24h-1.536c-.144 0-.24.096-.24.24v15.84c0 .144.096.24.24.24h1.536zm3.048-1.608c-1.272 0-2.16-.6-2.544-1.752-.192-.552-.264-1.248-.264-2.4s.072-1.824.264-2.4c.384-1.152 1.272-1.728 2.544-1.728s2.136.6 2.52 1.728c.192.624.264 1.368.264 2.4 0 1.056-.072 1.8-.264 2.4-.384 1.128-1.248 1.752-2.52 1.752zM404.664 306.264c2.232 0 3.912-1.152 4.536-3.096.264-.792.384-1.584.384-2.928 0-1.32-.12-2.112-.384-2.904-.624-1.968-2.304-3.096-4.536-3.096-2.232 0-3.912 1.128-4.536 3.096-.264.792-.384 1.584-.384 2.904 0 1.344.12 2.136.384 2.928.624 1.944 2.304 3.096 4.536 3.096zm0-1.872c-1.272 0-2.208-.648-2.592-1.8-.192-.624-.264-1.248-.264-2.352 0-1.104.072-1.704.264-2.328.384-1.152 1.32-1.8 2.592-1.8s2.208.648 2.592 1.8c.192.624.264 1.224.264 2.328 0 1.104-.072 1.728-.264 2.352-.384 1.152-1.32 1.8-2.592 1.8zM417.039 306.12c.144 0 .24-.096.24-.24v-1.392c0-.144-.096-.24-.24-.24h-.504c-1.032 0-1.464-.312-1.464-1.464v-6.504c0-.096.048-.144.144-.144h1.824c.144 0 .24-.096.24-.24v-1.152c0-.144-.096-.24-.24-.24h-1.824c-.096 0-.144-.048-.144-.144v-3.24c0-.144-.096-.24-.24-.24h-1.536c-.144 0-.24.096-.24.24v3.24c0 .096-.048.144-.144.144h-.96c-.144 0-.24.096-.24.24v1.152c0 .144.096.24.24.24h.96c.096 0 .144.048.144.144v6.576c0 2.256.864 3.264 3.096 3.264h.888zM429.409 306c.144 0 .24-.096.24-.24v-7.2c0-2.616-1.488-4.32-3.984-4.32-1.56 0-2.664.672-3.216 1.56h-.024v-5.88c0-.144-.096-.24-.24-.24h-1.536c-.144 0-.24.096-.24.24v15.84c0 .144.096.24.24.24h1.536c.144 0 .24-.096.24-.24v-6.84c0-1.704 1.08-2.808 2.64-2.808 1.728 0 2.568 1.08 2.568 2.928v6.72c0 .144.096.24.24.24h1.536zM150.414 335.12c.144 0 .24-.096.24-.24v-1.392c0-.144-.096-.24-.24-.24h-.504c-1.032 0-1.464-.312-1.464-1.464v-6.504c0-.096.048-.144.144-.144h1.824c.144 0 .24-.096.24-.24v-1.152c0-.144-.096-.24-.24-.24h-1.824c-.096 0-.144-.048-.144-.144v-3.24c0-.144-.096-.24-.24-.24h-1.536c-.144 0-.24.096-.24.24v3.24c0 .096-.048.144-.144.144h-.96c-.144 0-.24.096-.24.24v1.152c0 .144.096.24.24.24h.96c.096 0 .144.048.144.144v6.576c0 2.256.864 3.264 3.096 3.264h.888zM162.16 335c.144 0 .24-.096.24-.24v-7.608c0-2.832-1.248-3.912-4.512-3.912-1.704 0-3.048.456-3.912 1.128-.096.096-.12.192-.048.336l.648 1.104c.072.12.216.12.336.024.672-.48 1.488-.816 2.784-.816 2.136 0 2.76.672 2.76 2.256v.84c0 .096-.048.144-.144.144h-2.616c-2.808 0-4.488 1.128-4.488 3.552 0 2.328 1.68 3.456 3.864 3.456 1.752 0 2.88-.648 3.408-1.512h.024v1.008c0 .144.096.24.24.24h1.416zm-4.608-1.464c-1.536 0-2.4-.624-2.4-1.8 0-1.296.864-1.872 2.856-1.872h2.304c.096 0 .144.048.144.144v1.272c0 1.416-1.104 2.256-2.904 2.256zM175.229 335c.144 0 .24-.096.24-.24v-7.2c0-2.616-1.488-4.32-3.984-4.32-1.56 0-2.664.672-3.216 1.56h-.024v-1.056c0-.144-.096-.24-.24-.24h-1.536c-.144 0-.24.096-.24.24v11.016c0 .144.096.24.24.24h1.536c.144 0 .24-.096.24-.24v-6.84c0-1.704 1.08-2.808 2.64-2.808 1.728 0 2.568 1.08 2.568 2.928v6.72c0 .144.096.24.24.24h1.536zM183.028 339.584c3.24 0 5.016-1.824 5.016-5.088v-10.752c0-.144-.096-.24-.24-.24h-1.536c-.144 0-.24.096-.24.24v1.08h-.024c-.528-.96-1.512-1.584-3.192-1.584-1.944 0-3.288.984-3.864 2.784-.288.864-.384 1.704-.384 3.024s.096 2.16.384 3.024c.576 1.8 1.92 2.784 3.864 2.784 1.68 0 2.664-.624 3.192-1.584h.024v1.344c0 2.112-1.008 3.096-2.904 3.096-1.104 0-1.92-.432-2.712-1.152-.12-.12-.24-.12-.36 0l-.984.984c-.12.12-.12.216-.024.336.768 1.008 2.376 1.704 3.984 1.704zm.288-6.576c-1.248 0-2.04-.6-2.424-1.728-.192-.576-.288-1.296-.288-2.232 0-.936.096-1.632.288-2.232.384-1.104 1.176-1.704 2.424-1.704 1.2 0 2.04.528 2.448 1.704.192.6.264 1.248.264 2.232 0 .984-.072 1.656-.264 2.232-.408 1.176-1.248 1.728-2.448 1.728zM193.811 320.912c.144 0 .24-.096.24-.24v-1.752c0-.144-.096-.24-.24-.24h-1.632c-.144 0-.24.096-.24.24v1.752c0 .144.096.24.24.24h1.632zM193.763 335c.144 0 .24-.096.24-.24v-11.016c0-.144-.096-.24-.24-.24h-1.536c-.144 0-.24.096-.24.24v11.016c0 .144.096.24.24.24h1.536zM199.716 335c.144 0 .24-.096.24-.24v-1.104h.024c.552.912 1.536 1.608 3.264 1.608 1.992 0 3.384-.936 3.96-2.76.312-.912.408-1.824.408-3.264 0-1.416-.096-2.328-.408-3.24-.576-1.824-1.968-2.76-3.96-2.76-1.728 0-2.712.672-3.264 1.584h-.024v-5.904c0-.144-.096-.24-.24-.24h-1.536c-.144 0-.24.096-.24.24v15.84c0 .144.096.24.24.24h1.536zm3.048-1.608c-1.272 0-2.16-.6-2.544-1.752-.192-.552-.264-1.248-.264-2.4s.072-1.824.264-2.4c.384-1.152 1.272-1.728 2.544-1.728s2.136.6 2.52 1.728c.192.624.264 1.368.264 2.4 0 1.056-.072 1.8-.264 2.4-.384 1.128-1.248 1.752-2.52 1.752zM214.43 335.12c.144 0 .24-.096.24-.24v-1.392c0-.144-.096-.24-.24-.24h-.456c-.792 0-1.152-.312-1.152-1.272V318.92c0-.144-.096-.24-.24-.24h-1.536c-.144 0-.24.096-.24.24v13.176c0 2.064.792 3.024 2.808 3.024h.816zM221.807 335.264c2.016 0 3.576-.816 4.488-1.968.096-.12.096-.24-.024-.336l-.984-.888c-.12-.096-.24-.072-.36.048-.624.72-1.584 1.272-2.952 1.272-1.416 0-2.448-.672-2.904-1.992-.12-.384-.192-.768-.192-1.392 0-.096.048-.144.144-.144h7.272c.168 0 .264-.096.264-.24 0-1.752-.12-2.544-.36-3.288-.648-1.968-2.304-3.096-4.512-3.096-2.184 0-3.864 1.104-4.512 3.096-.24.696-.36 1.584-.36 2.904 0 1.32.144 2.16.384 2.904.624 1.992 2.28 3.12 4.608 3.12zm-2.784-7.008c-.096 0-.144-.048-.144-.144 0-.528.048-.936.168-1.296.384-1.152 1.344-1.8 2.64-1.8s2.256.648 2.64 1.8c.12.36.168.768.168 1.296 0 .096-.048.144-.144.144h-5.328zM243.933 335c.144 0 .24-.096.24-.24v-7.608c0-2.832-1.248-3.912-4.512-3.912-1.704 0-3.048.456-3.912 1.128-.096.096-.12.192-.048.336l.648 1.104c.072.12.216.12.336.024.672-.48 1.488-.816 2.784-.816 2.136 0 2.76.672 2.76 2.256v.84c0 .096-.048.144-.144.144h-2.616c-2.808 0-4.488 1.128-4.488 3.552 0 2.328 1.68 3.456 3.864 3.456 1.752 0 2.88-.648 3.408-1.512h.024v1.008c0 .144.096.24.24.24h1.416zm-4.608-1.464c-1.536 0-2.4-.624-2.4-1.8 0-1.296.864-1.872 2.856-1.872h2.304c.096 0 .144.048.144.144v1.272c0 1.416-1.104 2.256-2.904 2.256zM257.003 335c.144 0 .24-.096.24-.24v-7.2c0-2.616-1.488-4.32-3.984-4.32-1.56 0-2.664.672-3.216 1.56h-.024v-1.056c0-.144-.096-.24-.24-.24h-1.536c-.144 0-.24.096-.24.24v11.016c0 .144.096.24.24.24h1.536c.144 0 .24-.096.24-.24v-6.84c0-1.704 1.08-2.808 2.64-2.808 1.728 0 2.568 1.08 2.568 2.928v6.72c0 .144.096.24.24.24h1.536zM269.793 335c.144 0 .24-.096.24-.24v-15.84c0-.144-.096-.24-.24-.24h-1.536c-.144 0-.24.096-.24.24v5.904h-.024c-.552-.912-1.536-1.584-3.264-1.584-1.992 0-3.384.936-3.96 2.76-.312.912-.408 1.824-.408 3.24 0 1.44.096 2.352.408 3.264.576 1.824 1.968 2.76 3.96 2.76 1.728 0 2.712-.696 3.264-1.608h.024v1.104c0 .144.096.24.24.24h1.536zm-4.584-1.608c-1.272 0-2.136-.624-2.52-1.752-.192-.6-.264-1.344-.264-2.4 0-1.032.072-1.776.264-2.4.384-1.128 1.248-1.728 2.52-1.728s2.16.576 2.544 1.728c.192.576.264 1.248.264 2.4s-.072 1.848-.264 2.4c-.384 1.152-1.272 1.752-2.544 1.752zM288.473 335c.144 0 .24-.096.24-.24v-15.84c0-.144-.096-.24-.24-.24h-1.536c-.144 0-.24.096-.24.24v5.904h-.024c-.552-.912-1.536-1.584-3.264-1.584-1.992 0-3.384.936-3.96 2.76-.312.912-.408 1.824-.408 3.24 0 1.44.096 2.352.408 3.264.576 1.824 1.968 2.76 3.96 2.76 1.728 0 2.712-.696 3.264-1.608h.024v1.104c0 .144.096.24.24.24h1.536zm-4.584-1.608c-1.272 0-2.136-.624-2.52-1.752-.192-.6-.264-1.344-.264-2.4 0-1.032.072-1.776.264-2.4.384-1.128 1.248-1.728 2.52-1.728s2.16.576 2.544 1.728c.192.576.264 1.248.264 2.4s-.072 1.848-.264 2.4c-.384 1.152-1.272 1.752-2.544 1.752zM294.475 320.912c.144 0 .24-.096.24-.24v-1.752c0-.144-.096-.24-.24-.24h-1.632c-.144 0-.24.096-.24.24v1.752c0 .144.096.24.24.24h1.632zM294.427 335c.144 0 .24-.096.24-.24v-11.016c0-.144-.096-.24-.24-.24h-1.536c-.144 0-.24.096-.24.24v11.016c0 .144.096.24.24.24h1.536zM302.348 339.584c3.24 0 5.016-1.824 5.016-5.088v-10.752c0-.144-.096-.24-.24-.24h-1.536c-.144 0-.24.096-.24.24v1.08h-.024c-.528-.96-1.512-1.584-3.192-1.584-1.944 0-3.288.984-3.864 2.784-.288.864-.384 1.704-.384 3.024s.096 2.16.384 3.024c.576 1.8 1.92 2.784 3.864 2.784 1.68 0 2.664-.624 3.192-1.584h.024v1.344c0 2.112-1.008 3.096-2.904 3.096-1.104 0-1.92-.432-2.712-1.152-.12-.12-.24-.12-.36 0l-.984.984c-.12.12-.12.216-.024.336.768 1.008 2.376 1.704 3.984 1.704zm.288-6.576c-1.248 0-2.04-.6-2.424-1.728-.192-.576-.288-1.296-.288-2.232 0-.936.096-1.632.288-2.232.384-1.104 1.176-1.704 2.424-1.704 1.2 0 2.04.528 2.448 1.704.192.6.264 1.248.264 2.232 0 .984-.072 1.656-.264 2.232-.408 1.176-1.248 1.728-2.448 1.728zM313.131 320.912c.144 0 .24-.096.24-.24v-1.752c0-.144-.096-.24-.24-.24h-1.632c-.144 0-.24.096-.24.24v1.752c0 .144.096.24.24.24h1.632zM313.083 335c.144 0 .24-.096.24-.24v-11.016c0-.144-.096-.24-.24-.24h-1.536c-.144 0-.24.096-.24.24v11.016c0 .144.096.24.24.24h1.536zM321.485 335.12c.144 0 .24-.096.24-.24v-1.392c0-.144-.096-.24-.24-.24h-.504c-1.032 0-1.464-.312-1.464-1.464v-6.504c0-.096.048-.144.144-.144h1.824c.144 0 .24-.096.24-.24v-1.152c0-.144-.096-.24-.24-.24h-1.824c-.096 0-.144-.048-.144-.144v-3.24c0-.144-.096-.24-.24-.24h-1.536c-.144 0-.24.096-.24.24v3.24c0 .096-.048.144-.144.144h-.96c-.144 0-.24.096-.24.24v1.152c0 .144.096.24.24.24h.96c.096 0 .144.048.144.144v6.576c0 2.256.864 3.264 3.096 3.264h.888zM333.23 335c.144 0 .24-.096.24-.24v-7.608c0-2.832-1.248-3.912-4.512-3.912-1.704 0-3.048.456-3.912 1.128-.096.096-.12.192-.048.336l.648 1.104c.072.12.216.12.336.024.672-.48 1.488-.816 2.784-.816 2.136 0 2.76.672 2.76 2.256v.84c0 .096-.048.144-.144.144h-2.616c-2.808 0-4.488 1.128-4.488 3.552 0 2.328 1.68 3.456 3.864 3.456 1.752 0 2.88-.648 3.408-1.512h.024v1.008c0 .144.096.24.24.24h1.416zm-4.608-1.464c-1.536 0-2.4-.624-2.4-1.8 0-1.296.864-1.872 2.856-1.872h2.304c.096 0 .144.048.144.144v1.272c0 1.416-1.104 2.256-2.904 2.256zM340.876 335.12c.144 0 .24-.096.24-.24v-1.392c0-.144-.096-.24-.24-.24h-.456c-.792 0-1.152-.312-1.152-1.272V318.92c0-.144-.096-.24-.24-.24h-1.536c-.144 0-.24.096-.24.24v13.176c0 2.064.792 3.024 2.808 3.024h.816zM343.785 334.76c0 .144.096.24.24.24h1.824c.144 0 .24-.096.24-.24v-2.064c0-.144-.096-.24-.24-.24h-1.824c-.144 0-.24.096-.24.24v2.064z"/>
    <path fill="#00F" fill-rule="evenodd" d="M244 249.2l-2.8-2.8-.8-2.4-3.2-1.6-1.6 1.6 1.6 3.2 2.4.8 2.8 2.8 1.6-1.6zm6.637-1.038l2.561.64 2.965-2.964a4.936 4.936 0 0 1-1.21 4.991c-1.312 1.312-2.893 1.446-4.377.79l-9.279 9.279a2.4 2.4 0 1 1-3.394-3.395l9.278-9.278c-.657-1.485-.523-3.066.789-4.379a4.94 4.94 0 0 1 4.992-1.209l-2.965 2.965.64 2.56zm.624 12.814l-3.855-3.855 3.011-3.012 3.855 3.855a2.135 2.135 0 0 1 .637 1.51 2.13 2.13 0 0 1-3.648 1.502zm-12.227-1.21a.8.8 0 1 0 1.13-1.13.8.8 0 0 0-1.13 1.13z" clip-rule="evenodd"/>
    <path fill="#0500FA" d="M250 232h16v2h-16z"/>
    <path fill="#0500FA" d="M264 248v-16h2v16zM226 270h16v2h-16z"/>
    <path fill="#0500FA" d="M228 256v16h-2v-16z"/>
    <path fill="#22224B" d="M33.897 436c.144 0 .24-.096.24-.24v-13.944c0-.096.048-.144.144-.144h4.464c.144 0 .24-.096.24-.24v-1.512c0-.144-.096-.24-.24-.24H27.393c-.144 0-.24.096-.24.24v1.512c0 .144.096.24.24.24h4.464c.096 0 .144.048.144.144v13.944c0 .144.096.24.24.24h1.656zM50.483 436c.145 0 .24-.096.24-.24v-7.2c0-2.616-1.487-4.32-3.983-4.32-1.56 0-2.665.672-3.217 1.56H43.5v-5.88c0-.144-.096-.24-.24-.24h-1.535c-.144 0-.24.096-.24.24v15.84c0 .144.096.24.24.24h1.536c.144 0 .24-.096.24-.24v-6.84c0-1.704 1.08-2.808 2.64-2.808 1.727 0 2.568 1.08 2.568 2.928v6.72c0 .144.096.24.24.24h1.535zM58.834 436.264c2.016 0 3.576-.816 4.488-1.968.096-.12.096-.24-.024-.336l-.984-.888c-.12-.096-.24-.072-.36.048-.624.72-1.584 1.272-2.952 1.272-1.416 0-2.448-.672-2.904-1.992-.12-.384-.192-.768-.192-1.392 0-.096.048-.144.144-.144h7.272c.168 0 .264-.096.264-.24 0-1.752-.12-2.544-.36-3.288-.648-1.968-2.304-3.096-4.512-3.096-2.184 0-3.864 1.104-4.512 3.096-.24.696-.36 1.584-.36 2.904 0 1.32.144 2.16.384 2.904.624 1.992 2.28 3.12 4.608 3.12zm-2.784-7.008c-.096 0-.144-.048-.144-.144 0-.528.048-.936.168-1.296.384-1.152 1.344-1.8 2.64-1.8s2.256.648 2.64 1.8c.12.36.168.768.168 1.296 0 .096-.048.144-.144.144H56.05zM76.329 440.584c3.24 0 5.016-1.824 5.016-5.088v-10.752c0-.144-.096-.24-.24-.24h-1.536c-.144 0-.24.096-.24.24v1.08h-.024c-.528-.96-1.512-1.584-3.192-1.584-1.944 0-3.288.984-3.864 2.784-.288.864-.384 1.704-.384 3.024s.096 2.16.384 3.024c.576 1.8 1.92 2.784 3.864 2.784 1.68 0 2.664-.624 3.192-1.584h.024v1.344c0 2.112-1.008 3.096-2.904 3.096-1.104 0-1.92-.432-2.712-1.152-.12-.12-.24-.12-.36 0l-.984.984c-.12.12-.12.216-.024.336.768 1.008 2.376 1.704 3.984 1.704zm.288-6.576c-1.248 0-2.04-.6-2.424-1.728-.192-.576-.288-1.296-.288-2.232 0-.936.096-1.632.288-2.232.384-1.104 1.176-1.704 2.424-1.704 1.2 0 2.04.528 2.448 1.704.192.6.264 1.248.264 2.232 0 .984-.072 1.656-.264 2.232-.408 1.176-1.248 1.728-2.448 1.728zM89.512 436.264c2.232 0 3.912-1.152 4.536-3.096.264-.792.384-1.584.384-2.928 0-1.32-.12-2.112-.384-2.904-.624-1.968-2.304-3.096-4.536-3.096-2.232 0-3.912 1.128-4.536 3.096-.264.792-.384 1.584-.384 2.904 0 1.344.12 2.136.384 2.928.624 1.944 2.304 3.096 4.536 3.096zm0-1.872c-1.272 0-2.208-.648-2.592-1.8-.192-.624-.264-1.248-.264-2.352 0-1.104.072-1.704.264-2.328.384-1.152 1.32-1.8 2.592-1.8s2.208.648 2.592 1.8c.192.624.264 1.224.264 2.328 0 1.104-.072 1.728-.264 2.352-.384 1.152-1.32 1.8-2.592 1.8zM106.039 436c.144 0 .24-.096.24-.24v-7.608c0-2.832-1.248-3.912-4.512-3.912-1.704 0-3.048.456-3.912 1.128-.096.096-.12.192-.048.336l.648 1.104c.072.12.216.12.336.024.672-.48 1.488-.816 2.784-.816 2.136 0 2.76.672 2.76 2.256v.84c0 .096-.048.144-.144.144h-2.616c-2.808 0-4.488 1.128-4.488 3.552 0 2.328 1.68 3.456 3.864 3.456 1.752 0 2.88-.648 3.408-1.512h.024v1.008c0 .144.096.24.24.24h1.416zm-4.608-1.464c-1.536 0-2.4-.624-2.4-1.8 0-1.296.864-1.872 2.856-1.872h2.304c.096 0 .144.048.144.144v1.272c0 1.416-1.104 2.256-2.904 2.256zM113.684 436.12c.144 0 .24-.096.24-.24v-1.392c0-.144-.096-.24-.24-.24h-.456c-.792 0-1.152-.312-1.152-1.272V419.92c0-.144-.096-.24-.24-.24H110.3c-.144 0-.24.096-.24.24v13.176c0 2.064.792 3.024 2.808 3.024h.816zM124.354 421.912c.144 0 .24-.096.24-.24v-1.752c0-.144-.096-.24-.24-.24h-1.632c-.144 0-.24.096-.24.24v1.752c0 .144.096.24.24.24h1.632zM124.306 436c.144 0 .24-.096.24-.24v-11.016c0-.144-.096-.24-.24-.24h-1.536c-.144 0-.24.096-.24.24v11.016c0 .144.096.24.24.24h1.536zM132.443 436.264c3 0 4.632-1.512 4.632-3.768 0-1.848-1.128-3.024-3.456-3.24l-1.2-.12c-1.704-.168-2.256-.648-2.256-1.56 0-.936.744-1.584 2.184-1.584 1.176 0 2.352.456 3.096.936.12.072.24.072.336-.048l.816-1.032c.072-.12.072-.264-.048-.336-.96-.72-2.4-1.272-4.08-1.272-2.712 0-4.272 1.32-4.272 3.504 0 1.872 1.176 3 3.432 3.24l1.224.12c1.8.192 2.232.696 2.232 1.608 0 1.032-.84 1.752-2.52 1.752a5.585 5.585 0 0 1-3.552-1.32.232.232 0 0 0-.336 0l-.984 1.056a.232.232 0 0 0 0 .336c.936.816 2.52 1.728 4.752 1.728zM150.239 436.12c.144 0 .24-.096.24-.24v-1.392c0-.144-.096-.24-.24-.24h-.504c-1.032 0-1.464-.312-1.464-1.464v-6.504c0-.096.048-.144.144-.144h1.824c.144 0 .24-.096.24-.24v-1.152c0-.144-.096-.24-.24-.24h-1.824c-.096 0-.144-.048-.144-.144v-3.24c0-.144-.096-.24-.24-.24h-1.536c-.144 0-.24.096-.24.24v3.24c0 .096-.048.144-.144.144h-.96c-.144 0-.24.096-.24.24v1.152c0 .144.096.24.24.24h.96c.096 0 .144.048.144.144v6.576c0 2.256.864 3.264 3.096 3.264h.888zM157.832 436.264c2.232 0 3.912-1.152 4.536-3.096.264-.792.384-1.584.384-2.928 0-1.32-.12-2.112-.384-2.904-.624-1.968-2.304-3.096-4.536-3.096-2.232 0-3.912 1.128-4.536 3.096-.264.792-.384 1.584-.384 2.904 0 1.344.12 2.136.384 2.928.624 1.944 2.304 3.096 4.536 3.096zm0-1.872c-1.272 0-2.208-.648-2.592-1.8-.192-.624-.264-1.248-.264-2.352 0-1.104.072-1.704.264-2.328.384-1.152 1.32-1.8 2.592-1.8s2.208.648 2.592 1.8c.192.624.264 1.224.264 2.328 0 1.104-.072 1.728-.264 2.352-.384 1.152-1.32 1.8-2.592 1.8zM176.045 436.264c2.016 0 3.576-.816 4.488-1.968.096-.12.096-.24-.024-.336l-.984-.888c-.12-.096-.24-.072-.36.048-.624.72-1.584 1.272-2.952 1.272-1.416 0-2.448-.672-2.904-1.992-.12-.384-.192-.768-.192-1.392 0-.096.048-.144.144-.144h7.272c.168 0 .264-.096.264-.24 0-1.752-.12-2.544-.36-3.288-.648-1.968-2.304-3.096-4.512-3.096-2.184 0-3.864 1.104-4.512 3.096-.24.696-.36 1.584-.36 2.904 0 1.32.144 2.16.384 2.904.624 1.992 2.28 3.12 4.608 3.12zm-2.784-7.008c-.096 0-.144-.048-.144-.144 0-.528.048-.936.168-1.296.384-1.152 1.344-1.8 2.64-1.8s2.256.648 2.64 1.8c.12.36.168.768.168 1.296 0 .096-.048.144-.144.144h-5.328zM193.03 436c.144 0 .24-.096.24-.24v-7.2c0-2.616-1.488-4.32-3.984-4.32-1.56 0-2.664.672-3.216 1.56h-.024v-1.056c0-.144-.096-.24-.24-.24h-1.536c-.144 0-.24.096-.24.24v11.016c0 .144.096.24.24.24h1.536c.144 0 .24-.096.24-.24v-6.84c0-1.704 1.08-2.808 2.64-2.808 1.728 0 2.568 1.08 2.568 2.928v6.72c0 .144.096.24.24.24h1.536zM206.085 436c.144 0 .24-.096.24-.24v-7.2c0-2.616-1.488-4.32-3.984-4.32-1.56 0-2.664.672-3.216 1.56h-.024v-5.88c0-.144-.096-.24-.24-.24h-1.536c-.144 0-.24.096-.24.24v15.84c0 .144.096.24.24.24h1.536c.144 0 .24-.096.24-.24v-6.84c0-1.704 1.08-2.808 2.64-2.808 1.728 0 2.568 1.08 2.568 2.928v6.72c0 .144.096.24.24.24h1.536zM218.516 436c.144 0 .24-.096.24-.24v-7.608c0-2.832-1.248-3.912-4.512-3.912-1.704 0-3.048.456-3.912 1.128-.096.096-.12.192-.048.336l.648 1.104c.072.12.216.12.336.024.672-.48 1.488-.816 2.784-.816 2.136 0 2.76.672 2.76 2.256v.84c0 .096-.048.144-.144.144h-2.616c-2.808 0-4.488 1.128-4.488 3.552 0 2.328 1.68 3.456 3.864 3.456 1.752 0 2.88-.648 3.408-1.512h.024v1.008c0 .144.096.24.24.24h1.416zm-4.608-1.464c-1.536 0-2.4-.624-2.4-1.8 0-1.296.864-1.872 2.856-1.872h2.304c.096 0 .144.048.144.144v1.272c0 1.416-1.104 2.256-2.904 2.256zM231.585 436c.144 0 .24-.096.24-.24v-7.2c0-2.616-1.488-4.32-3.984-4.32-1.56 0-2.664.672-3.216 1.56h-.024v-1.056c0-.144-.096-.24-.24-.24h-1.536c-.144 0-.24.096-.24.24v11.016c0 .144.096.24.24.24h1.536c.144 0 .24-.096.24-.24v-6.84c0-1.704 1.08-2.808 2.64-2.808 1.728 0 2.568 1.08 2.568 2.928v6.72c0 .144.096.24.24.24h1.536zM234.944 430.24c0 1.296.144 2.232.36 2.928.648 1.992 2.328 3.096 4.536 3.096 1.752 0 3.096-.744 3.936-1.944.072-.12.072-.216-.072-.336l-1.056-.864c-.12-.096-.24-.096-.336.024-.672.84-1.32 1.248-2.472 1.248-1.248 0-2.184-.6-2.568-1.8-.192-.6-.264-1.32-.264-2.352 0-1.008.072-1.728.264-2.328.384-1.2 1.32-1.8 2.568-1.8 1.152 0 1.8.408 2.472 1.248.096.12.216.12.336.024l1.056-.864c.144-.12.144-.216.072-.336-.84-1.2-2.184-1.944-3.936-1.944-2.208 0-3.888 1.104-4.536 3.096-.216.696-.36 1.632-.36 2.904zM250.975 436.264c2.016 0 3.576-.816 4.488-1.968.096-.12.096-.24-.024-.336l-.984-.888c-.12-.096-.24-.072-.36.048-.624.72-1.584 1.272-2.952 1.272-1.416 0-2.448-.672-2.904-1.992-.12-.384-.192-.768-.192-1.392 0-.096.048-.144.144-.144h7.272c.168 0 .264-.096.264-.24 0-1.752-.12-2.544-.36-3.288-.648-1.968-2.304-3.096-4.512-3.096-2.184 0-3.864 1.104-4.512 3.096-.24.696-.36 1.584-.36 2.904 0 1.32.144 2.16.384 2.904.624 1.992 2.28 3.12 4.608 3.12zm-2.784-7.008c-.096 0-.144-.048-.144-.144 0-.528.048-.936.168-1.296.384-1.152 1.344-1.8 2.64-1.8s2.256.648 2.64 1.8c.12.36.168.768.168 1.296 0 .096-.048.144-.144.144h-5.328zM268.95 436.12c.144 0 .24-.096.24-.24v-1.392c0-.144-.096-.24-.24-.24h-.504c-1.032 0-1.464-.312-1.464-1.464v-6.504c0-.096.048-.144.144-.144h1.824c.144 0 .24-.096.24-.24v-1.152c0-.144-.096-.24-.24-.24h-1.824c-.096 0-.144-.048-.144-.144v-3.24c0-.144-.096-.24-.24-.24h-1.536c-.144 0-.24.096-.24.24v3.24c0 .096-.048.144-.144.144h-.96c-.144 0-.24.096-.24.24v1.152c0 .144.096.24.24.24h.96c.096 0 .144.048.144.144v6.576c0 2.256.864 3.264 3.096 3.264h.888zM281.319 436c.144 0 .24-.096.24-.24v-7.2c0-2.616-1.488-4.32-3.984-4.32-1.56 0-2.664.672-3.216 1.56h-.024v-5.88c0-.144-.096-.24-.24-.24h-1.536c-.144 0-.24.096-.24.24v15.84c0 .144.096.24.24.24h1.536c.144 0 .24-.096.24-.24v-6.84c0-1.704 1.08-2.808 2.64-2.808 1.728 0 2.568 1.08 2.568 2.928v6.72c0 .144.096.24.24.24h1.536zM289.67 436.264c2.016 0 3.576-.816 4.488-1.968.096-.12.096-.24-.024-.336l-.984-.888c-.12-.096-.24-.072-.36.048-.624.72-1.584 1.272-2.952 1.272-1.416 0-2.448-.672-2.904-1.992-.12-.384-.192-.768-.192-1.392 0-.096.048-.144.144-.144h7.272c.168 0 .264-.096.264-.24 0-1.752-.12-2.544-.36-3.288-.648-1.968-2.304-3.096-4.512-3.096-2.184 0-3.864 1.104-4.512 3.096-.24.696-.36 1.584-.36 2.904 0 1.32.144 2.16.384 2.904.624 1.992 2.28 3.12 4.608 3.12zm-2.784-7.008c-.096 0-.144-.048-.144-.144 0-.528.048-.936.168-1.296.384-1.152 1.344-1.8 2.64-1.8s2.256.648 2.64 1.8c.12.36.168.768.168 1.296 0 .096-.048.144-.144.144h-5.328zM314.677 436c.168 0 .24-.096.288-.24l3.624-11.016c.048-.144-.024-.24-.168-.24h-1.632c-.168 0-.264.048-.312.24l-2.472 8.304h-.048l-2.616-8.304c-.048-.168-.168-.24-.312-.24h-1.248c-.144 0-.24.072-.288.24l-2.592 8.304h-.048l-2.544-8.304c-.072-.192-.144-.24-.312-.24h-1.632c-.144 0-.216.096-.168.24l3.6 11.016c.048.144.144.24.288.24h1.392c.144 0 .24-.096.288-.24l2.616-8.232h.048l2.592 8.232c.048.144.144.24.288.24h1.368zM329.586 436c.144 0 .24-.096.24-.24v-7.608c0-2.832-1.248-3.912-4.512-3.912-1.704 0-3.048.456-3.912 1.128-.096.096-.12.192-.048.336l.648 1.104c.072.12.216.12.336.024.672-.48 1.488-.816 2.784-.816 2.136 0 2.76.672 2.76 2.256v.84c0 .096-.048.144-.144.144h-2.616c-2.808 0-4.488 1.128-4.488 3.552 0 2.328 1.68 3.456 3.864 3.456 1.752 0 2.88-.648 3.408-1.512h.024v1.008c0 .144.096.24.24.24h1.416zm-4.608-1.464c-1.536 0-2.4-.624-2.4-1.8 0-1.296.864-1.872 2.856-1.872h2.304c.096 0 .144.048.144.144v1.272c0 1.416-1.104 2.256-2.904 2.256zM334.282 440.32c1.728 0 2.616-.72 3.624-3.432l4.536-12.144c.048-.144-.048-.24-.192-.24h-1.632c-.144 0-.24.072-.288.24l-2.904 8.304h-.048l-3.024-8.304c-.048-.168-.144-.24-.288-.24h-1.68c-.168 0-.24.096-.192.24l4.224 10.92-.384 1.056c-.504 1.32-1.008 1.728-1.944 1.728h-.432c-.144 0-.24.096-.24.24v1.392c0 .144.096.24.24.24h.624zM352.541 440.32c.144 0 .24-.096.24-.24v-5.424h.024c.552.912 1.536 1.608 3.264 1.608 1.992 0 3.384-.936 3.96-2.76.312-.912.408-1.824.408-3.264 0-1.416-.096-2.328-.408-3.24-.576-1.824-1.968-2.76-3.96-2.76-1.728 0-2.712.672-3.264 1.584h-.024v-1.08c0-.144-.096-.24-.24-.24h-1.536c-.144 0-.24.096-.24.24v15.336c0 .144.096.24.24.24h1.536zm3.048-5.928c-1.272 0-2.16-.6-2.544-1.752-.192-.552-.264-1.248-.264-2.4s.072-1.824.264-2.4c.384-1.152 1.272-1.728 2.544-1.728s2.136.6 2.52 1.728c.192.624.264 1.368.264 2.4 0 1.056-.072 1.8-.264 2.4-.384 1.128-1.248 1.752-2.52 1.752zM367.975 436.264c2.016 0 3.576-.816 4.488-1.968.096-.12.096-.24-.024-.336l-.984-.888c-.12-.096-.24-.072-.36.048-.624.72-1.584 1.272-2.952 1.272-1.416 0-2.448-.672-2.904-1.992-.12-.384-.192-.768-.192-1.392 0-.096.048-.144.144-.144h7.272c.168 0 .264-.096.264-.24 0-1.752-.12-2.544-.36-3.288-.648-1.968-2.304-3.096-4.512-3.096-2.184 0-3.864 1.104-4.512 3.096-.24.696-.36 1.584-.36 2.904 0 1.32.144 2.16.384 2.904.624 1.992 2.28 3.12 4.608 3.12zm-2.784-7.008c-.096 0-.144-.048-.144-.144 0-.528.048-.936.168-1.296.384-1.152 1.344-1.8 2.64-1.8s2.256.648 2.64 1.8c.12.36.168.768.168 1.296 0 .096-.048.144-.144.144h-5.328zM380.184 436.264c2.232 0 3.912-1.152 4.536-3.096.264-.792.384-1.584.384-2.928 0-1.32-.12-2.112-.384-2.904-.624-1.968-2.304-3.096-4.536-3.096-2.232 0-3.912 1.128-4.536 3.096-.264.792-.384 1.584-.384 2.904 0 1.344.12 2.136.384 2.928.624 1.944 2.304 3.096 4.536 3.096zm0-1.872c-1.272 0-2.208-.648-2.592-1.8-.192-.624-.264-1.248-.264-2.352 0-1.104.072-1.704.264-2.328.384-1.152 1.32-1.8 2.592-1.8s2.208.648 2.592 1.8c.192.624.264 1.224.264 2.328 0 1.104-.072 1.728-.264 2.352-.384 1.152-1.32 1.8-2.592 1.8zM390.111 440.32c.144 0 .24-.096.24-.24v-5.424h.024c.552.912 1.536 1.608 3.264 1.608 1.992 0 3.384-.936 3.96-2.76.312-.912.408-1.824.408-3.264 0-1.416-.096-2.328-.408-3.24-.576-1.824-1.968-2.76-3.96-2.76-1.728 0-2.712.672-3.264 1.584h-.024v-1.08c0-.144-.096-.24-.24-.24h-1.536c-.144 0-.24.096-.24.24v15.336c0 .144.096.24.24.24h1.536zm3.048-5.928c-1.272 0-2.16-.6-2.544-1.752-.192-.552-.264-1.248-.264-2.4s.072-1.824.264-2.4c.384-1.152 1.272-1.728 2.544-1.728s2.136.6 2.52 1.728c.192.624.264 1.368.264 2.4 0 1.056-.072 1.8-.264 2.4-.384 1.128-1.248 1.752-2.52 1.752zM404.825 436.12c.144 0 .24-.096.24-.24v-1.392c0-.144-.096-.24-.24-.24h-.456c-.792 0-1.152-.312-1.152-1.272V419.92c0-.144-.096-.24-.24-.24h-1.536c-.144 0-.24.096-.24.24v13.176c0 2.064.792 3.024 2.808 3.024h.816zM412.201 436.264c2.016 0 3.576-.816 4.488-1.968.096-.12.096-.24-.024-.336l-.984-.888c-.12-.096-.24-.072-.36.048-.624.72-1.584 1.272-2.952 1.272-1.416 0-2.448-.672-2.904-1.992-.12-.384-.192-.768-.192-1.392 0-.096.048-.144.144-.144h7.272c.168 0 .264-.096.264-.24 0-1.752-.12-2.544-.36-3.288-.648-1.968-2.304-3.096-4.512-3.096-2.184 0-3.864 1.104-4.512 3.096-.24.696-.36 1.584-.36 2.904 0 1.32.144 2.16.384 2.904.624 1.992 2.28 3.12 4.608 3.12zm-2.784-7.008c-.096 0-.144-.048-.144-.144 0-.528.048-.936.168-1.296.384-1.152 1.344-1.8 2.64-1.8s2.256.648 2.64 1.8c.12.36.168.768.168 1.296 0 .096-.048.144-.144.144h-5.328zM429.528 436.12c.144 0 .24-.096.24-.24v-1.392c0-.144-.096-.24-.24-.24h-.456c-.792 0-1.152-.312-1.152-1.272V419.92c0-.144-.096-.24-.24-.24h-1.536c-.144 0-.24.096-.24.24v13.176c0 2.064.792 3.024 2.808 3.024h.816zM434.432 421.912c.144 0 .24-.096.24-.24v-1.752c0-.144-.096-.24-.24-.24H432.8c-.144 0-.24.096-.24.24v1.752c0 .144.096.24.24.24h1.632zM434.384 436c.144 0 .24-.096.24-.24v-11.016c0-.144-.096-.24-.24-.24h-1.536c-.144 0-.24.096-.24.24v11.016c0 .144.096.24.24.24h1.536zM443.002 436c.168 0 .264-.096.312-.24l4.104-11.016c.048-.144-.024-.24-.192-.24h-1.632c-.144 0-.24.072-.288.24L442.402 433h-.048l-2.976-8.256c-.072-.168-.144-.24-.312-.24h-1.656c-.168 0-.24.096-.192.24l4.128 11.016c.048.144.12.24.288.24h1.368zM454.201 436.264c2.016 0 3.576-.816 4.488-1.968.096-.12.096-.24-.024-.336l-.984-.888c-.12-.096-.24-.072-.36.048-.624.72-1.584 1.272-2.952 1.272-1.416 0-2.448-.672-2.904-1.992-.12-.384-.192-.768-.192-1.392 0-.096.048-.144.144-.144h7.272c.168 0 .264-.096.264-.24 0-1.752-.12-2.544-.36-3.288-.648-1.968-2.304-3.096-4.512-3.096-2.184 0-3.864 1.104-4.512 3.096-.24.696-.36 1.584-.36 2.904 0 1.32.144 2.16.384 2.904.624 1.992 2.28 3.12 4.608 3.12zm-2.784-7.008c-.096 0-.144-.048-.144-.144 0-.528.048-.936.168-1.296.384-1.152 1.344-1.8 2.64-1.8s2.256.648 2.64 1.8c.12.36.168.768.168 1.296 0 .096-.048.144-.144.144h-5.328zM461.899 435.76c0 .144.096.24.24.24h1.824c.144 0 .24-.096.24-.24v-2.064c0-.144-.096-.24-.24-.24h-1.824c-.144 0-.24.096-.24.24v2.064zM87.174 465.264c2.76 0 4.728-1.296 5.568-3.816.312-.936.432-1.92.432-4.608 0-2.688-.12-3.672-.432-4.608-.84-2.52-2.808-3.816-5.568-3.816-2.736 0-4.704 1.296-5.544 3.816-.312.936-.432 1.92-.432 4.608 0 2.688.12 3.672.432 4.608.84 2.52 2.808 3.816 5.544 3.816zm0-1.992c-1.8 0-2.952-.864-3.456-2.424-.192-.6-.36-1.656-.36-4.008 0-2.352.168-3.408.36-4.008.504-1.56 1.656-2.424 3.456-2.424 1.824 0 2.976.864 3.48 2.424.192.6.36 1.656.36 4.008 0 2.352-.168 3.408-.36 4.008-.504 1.56-1.656 2.424-3.48 2.424zM98.361 465c.144 0 .24-.096.24-.24v-6.288c0-1.992.72-3.36 2.472-3.36.672 0 1.248.216 1.776.552.12.096.24.072.336-.048l.888-1.176c.096-.12.072-.216-.048-.336-.576-.528-1.44-.864-2.352-.864-1.536 0-2.544.696-3.048 1.68h-.024v-1.176c0-.144-.096-.24-.24-.24h-1.536c-.144 0-.24.096-.24.24v11.016c0 .144.096.24.24.24h1.536zM128.418 465c.144 0 .24-.096.24-.24v-7.2c0-2.616-1.44-4.32-4.104-4.32-1.752 0-2.928.696-3.72 1.8h-.024c-.648-1.152-1.8-1.8-3.36-1.8-1.56 0-2.664.672-3.216 1.56h-.024v-1.056c0-.144-.096-.24-.24-.24h-1.536c-.144 0-.24.096-.24.24v11.016c0 .144.096.24.24.24h1.536c.144 0 .24-.096.24-.24v-6.84c0-1.704 1.08-2.808 2.64-2.808 1.728 0 2.568 1.08 2.568 2.928v6.72c0 .144.096.24.24.24h1.536c.144 0 .24-.096.24-.24v-6.84c0-1.704 1.104-2.808 2.64-2.808 1.728 0 2.568 1.08 2.568 2.928v6.72c0 .144.096.24.24.24h1.536zM140.844 465c.144 0 .24-.096.24-.24v-7.608c0-2.832-1.248-3.912-4.512-3.912-1.704 0-3.048.456-3.912 1.128-.096.096-.12.192-.048.336l.648 1.104c.072.12.216.12.336.024.672-.48 1.488-.816 2.784-.816 2.136 0 2.76.672 2.76 2.256v.84c0 .096-.048.144-.144.144h-2.616c-2.808 0-4.488 1.128-4.488 3.552 0 2.328 1.68 3.456 3.864 3.456 1.752 0 2.88-.648 3.408-1.512h.024v1.008c0 .144.096.24.24.24h1.416zm-4.608-1.464c-1.536 0-2.4-.624-2.4-1.8 0-1.296.864-1.872 2.856-1.872h2.304c.096 0 .144.048.144.144v1.272c0 1.416-1.104 2.256-2.904 2.256zM154.345 465c.144 0 .216-.144.144-.24l-4.248-6.912 3.528-4.104c.096-.12.048-.24-.096-.24h-1.776c-.168 0-.288.048-.432.216l-4.536 5.352V448.92c0-.144-.096-.24-.24-.24h-1.536c-.144 0-.24.096-.24.24v15.84c0 .144.096.24.24.24h1.536c.144 0 .24-.096.24-.24v-3.024l1.992-2.328 3.264 5.352c.096.168.216.24.384.24h1.776zM161.186 465.264c2.016 0 3.576-.816 4.488-1.968.096-.12.096-.24-.024-.336l-.984-.888c-.12-.096-.24-.072-.36.048-.624.72-1.584 1.272-2.952 1.272-1.416 0-2.448-.672-2.904-1.992-.12-.384-.192-.768-.192-1.392 0-.096.048-.144.144-.144h7.272c.168 0 .264-.096.264-.24 0-1.752-.12-2.544-.36-3.288-.648-1.968-2.304-3.096-4.512-3.096-2.184 0-3.864 1.104-4.512 3.096-.24.696-.36 1.584-.36 2.904 0 1.32.144 2.16.384 2.904.624 1.992 2.28 3.12 4.608 3.12zm-2.784-7.008c-.096 0-.144-.048-.144-.144 0-.528.048-.936.168-1.296.384-1.152 1.344-1.8 2.64-1.8s2.256.648 2.64 1.8c.12.36.168.768.168 1.296 0 .096-.048.144-.144.144h-5.328zM186.193 465c.168 0 .24-.096.288-.24l3.624-11.016c.048-.144-.024-.24-.168-.24h-1.632c-.168 0-.264.048-.312.24l-2.472 8.304h-.048l-2.616-8.304c-.048-.168-.168-.24-.312-.24h-1.248c-.144 0-.24.072-.288.24l-2.592 8.304h-.048l-2.544-8.304c-.072-.192-.144-.24-.312-.24h-1.632c-.144 0-.216.096-.168.24l3.6 11.016c.048.144.144.24.288.24h1.392c.144 0 .24-.096.288-.24l2.616-8.232h.048l2.592 8.232c.048.144.144.24.288.24h1.368zM201.102 465c.144 0 .24-.096.24-.24v-7.608c0-2.832-1.248-3.912-4.512-3.912-1.704 0-3.048.456-3.912 1.128-.096.096-.12.192-.048.336l.648 1.104c.072.12.216.12.336.024.672-.48 1.488-.816 2.784-.816 2.136 0 2.76.672 2.76 2.256v.84c0 .096-.048.144-.144.144h-2.616c-2.808 0-4.488 1.128-4.488 3.552 0 2.328 1.68 3.456 3.864 3.456 1.752 0 2.88-.648 3.408-1.512h.024v1.008c0 .144.096.24.24.24h1.416zm-4.608-1.464c-1.536 0-2.4-.624-2.4-1.8 0-1.296.864-1.872 2.856-1.872h2.304c.096 0 .144.048.144.144v1.272c0 1.416-1.104 2.256-2.904 2.256zM205.797 469.32c1.728 0 2.616-.72 3.624-3.432l4.536-12.144c.048-.144-.048-.24-.192-.24h-1.632c-.144 0-.24.072-.288.24l-2.904 8.304h-.048l-3.024-8.304c-.048-.168-.144-.24-.288-.24h-1.68c-.168 0-.24.096-.192.24l4.224 10.92-.384 1.056c-.504 1.32-1.008 1.728-1.944 1.728h-.432c-.144 0-.24.096-.24.24v1.392c0 .144.096.24.24.24h.624zM224.44 465c.144 0 .24-.096.24-.24v-9.48c0-.096.048-.144.144-.144h2.232c.144 0 .24-.096.24-.24v-1.152c0-.144-.096-.24-.24-.24h-2.232c-.096 0-.144-.048-.144-.144v-1.08c0-1.416.288-1.728 1.752-1.728h.624c.144 0 .24-.096.24-.24v-1.392c0-.144-.096-.24-.24-.24h-.888c-2.4 0-3.504.984-3.504 3.696v.984c0 .096-.048.144-.144.144h-.984c-.144 0-.24.096-.24.24v1.152c0 .144.096.24.24.24h.984c.096 0 .144.048.144.144v9.48c0 .144.096.24.24.24h1.536zM234.098 465.264c2.232 0 3.912-1.152 4.536-3.096.264-.792.384-1.584.384-2.928 0-1.32-.12-2.112-.384-2.904-.624-1.968-2.304-3.096-4.536-3.096-2.232 0-3.912 1.128-4.536 3.096-.264.792-.384 1.584-.384 2.904 0 1.344.12 2.136.384 2.928.624 1.944 2.304 3.096 4.536 3.096zm0-1.872c-1.272 0-2.208-.648-2.592-1.8-.192-.624-.264-1.248-.264-2.352 0-1.104.072-1.704.264-2.328.384-1.152 1.32-1.8 2.592-1.8s2.208.648 2.592 1.8c.192.624.264 1.224.264 2.328 0 1.104-.072 1.728-.264 2.352-.384 1.152-1.32 1.8-2.592 1.8zM244.025 465c.144 0 .24-.096.24-.24v-6.288c0-1.992.72-3.36 2.472-3.36.672 0 1.248.216 1.776.552.12.096.24.072.336-.048l.888-1.176c.096-.12.072-.216-.048-.336-.576-.528-1.44-.864-2.352-.864-1.536 0-2.544.696-3.048 1.68h-.024v-1.176c0-.144-.096-.24-.24-.24h-1.536c-.144 0-.24.096-.24.24v11.016c0 .144.096.24.24.24h1.536zM266.234 465c.144 0 .24-.096.24-.24v-7.608c0-2.832-1.248-3.912-4.512-3.912-1.704 0-3.048.456-3.912 1.128-.096.096-.12.192-.048.336l.648 1.104c.072.12.216.12.336.024.672-.48 1.488-.816 2.784-.816 2.136 0 2.76.672 2.76 2.256v.84c0 .096-.048.144-.144.144h-2.616c-2.808 0-4.488 1.128-4.488 3.552 0 2.328 1.68 3.456 3.864 3.456 1.752 0 2.88-.648 3.408-1.512h.024v1.008c0 .144.096.24.24.24h1.416zm-4.608-1.464c-1.536 0-2.4-.624-2.4-1.8 0-1.296.864-1.872 2.856-1.872h2.304c.096 0 .144.048.144.144v1.272c0 1.416-1.104 2.256-2.904 2.256zM277.845 465c.144 0 .24-.096.24-.24v-1.104h.024c.552.912 1.536 1.608 3.264 1.608 1.992 0 3.384-.936 3.96-2.76.312-.912.408-1.824.408-3.264 0-1.416-.096-2.328-.408-3.24-.576-1.824-1.968-2.76-3.96-2.76-1.728 0-2.712.672-3.264 1.584h-.024v-5.904c0-.144-.096-.24-.24-.24h-1.536c-.144 0-.24.096-.24.24v15.84c0 .144.096.24.24.24h1.536zm3.048-1.608c-1.272 0-2.16-.6-2.544-1.752-.192-.552-.264-1.248-.264-2.4s.072-1.824.264-2.4c.384-1.152 1.272-1.728 2.544-1.728s2.136.6 2.52 1.728c.192.624.264 1.368.264 2.4 0 1.056-.072 1.8-.264 2.4-.384 1.128-1.248 1.752-2.52 1.752zM293.279 465.264c2.016 0 3.576-.816 4.488-1.968.096-.12.096-.24-.024-.336l-.984-.888c-.12-.096-.24-.072-.36.048-.624.72-1.584 1.272-2.952 1.272-1.416 0-2.448-.672-2.904-1.992-.12-.384-.192-.768-.192-1.392 0-.096.048-.144.144-.144h7.272c.168 0 .264-.096.264-.24 0-1.752-.12-2.544-.36-3.288-.648-1.968-2.304-3.096-4.512-3.096-2.184 0-3.864 1.104-4.512 3.096-.24.696-.36 1.584-.36 2.904 0 1.32.144 2.16.384 2.904.624 1.992 2.28 3.12 4.608 3.12zm-2.784-7.008c-.096 0-.144-.048-.144-.144 0-.528.048-.936.168-1.296.384-1.152 1.344-1.8 2.64-1.8s2.256.648 2.64 1.8c.12.36.168.768.168 1.296 0 .096-.048.144-.144.144h-5.328zM305.489 465.12c.144 0 .24-.096.24-.24v-1.392c0-.144-.096-.24-.24-.24h-.504c-1.032 0-1.464-.312-1.464-1.464v-6.504c0-.096.048-.144.144-.144h1.824c.144 0 .24-.096.24-.24v-1.152c0-.144-.096-.24-.24-.24h-1.824c-.096 0-.144-.048-.144-.144v-3.24c0-.144-.096-.24-.24-.24h-1.536c-.144 0-.24.096-.24.24v3.24c0 .096-.048.144-.144.144h-.96c-.144 0-.24.096-.24.24v1.152c0 .144.096.24.24.24h.96c.096 0 .144.048.144.144v6.576c0 2.256.864 3.264 3.096 3.264h.888zM313.082 465.12c.144 0 .24-.096.24-.24v-1.392c0-.144-.096-.24-.24-.24h-.504c-1.032 0-1.464-.312-1.464-1.464v-6.504c0-.096.048-.144.144-.144h1.824c.144 0 .24-.096.24-.24v-1.152c0-.144-.096-.24-.24-.24h-1.824c-.096 0-.144-.048-.144-.144v-3.24c0-.144-.096-.24-.24-.24h-1.536c-.144 0-.24.096-.24.24v3.24c0 .096-.048.144-.144.144h-.96c-.144 0-.24.096-.24.24v1.152c0 .144.096.24.24.24h.96c.096 0 .144.048.144.144v6.576c0 2.256.864 3.264 3.096 3.264h.888zM320.748 465.264c2.016 0 3.576-.816 4.488-1.968.096-.12.096-.24-.024-.336l-.984-.888c-.12-.096-.24-.072-.36.048-.624.72-1.584 1.272-2.952 1.272-1.416 0-2.448-.672-2.904-1.992-.12-.384-.192-.768-.192-1.392 0-.096.048-.144.144-.144h7.272c.168 0 .264-.096.264-.24 0-1.752-.12-2.544-.36-3.288-.648-1.968-2.304-3.096-4.512-3.096-2.184 0-3.864 1.104-4.512 3.096-.24.696-.36 1.584-.36 2.904 0 1.32.144 2.16.384 2.904.624 1.992 2.28 3.12 4.608 3.12zm-2.784-7.008c-.096 0-.144-.048-.144-.144 0-.528.048-.936.168-1.296.384-1.152 1.344-1.8 2.64-1.8s2.256.648 2.64 1.8c.12.36.168.768.168 1.296 0 .096-.048.144-.144.144h-5.328zM330.509 465c.144 0 .24-.096.24-.24v-6.288c0-1.992.72-3.36 2.472-3.36.672 0 1.248.216 1.776.552.12.096.24.072.336-.048l.888-1.176c.096-.12.072-.216-.048-.336-.576-.528-1.44-.864-2.352-.864-1.536 0-2.544.696-3.048 1.68h-.024v-1.176c0-.144-.096-.24-.24-.24h-1.536c-.144 0-.24.096-.24.24v11.016c0 .144.096.24.24.24h1.536zM346.119 465c.144 0 .24-.096.24-.24v-6.288c0-1.992.72-3.36 2.472-3.36.672 0 1.248.216 1.776.552.12.096.24.072.336-.048l.888-1.176c.096-.12.072-.216-.048-.336-.576-.528-1.44-.864-2.352-.864-1.536 0-2.544.696-3.048 1.68h-.024v-1.176c0-.144-.096-.24-.24-.24h-1.536c-.144 0-.24.096-.24.24v11.016c0 .144.096.24.24.24h1.536zM358.061 465.264c2.016 0 3.576-.816 4.488-1.968.096-.12.096-.24-.024-.336l-.984-.888c-.12-.096-.24-.072-.36.048-.624.72-1.584 1.272-2.952 1.272-1.416 0-2.448-.672-2.904-1.992-.12-.384-.192-.768-.192-1.392 0-.096.048-.144.144-.144h7.272c.168 0 .264-.096.264-.24 0-1.752-.12-2.544-.36-3.288-.648-1.968-2.304-3.096-4.512-3.096-2.184 0-3.864 1.104-4.512 3.096-.24.696-.36 1.584-.36 2.904 0 1.32.144 2.16.384 2.904.624 1.992 2.28 3.12 4.608 3.12zm-2.784-7.008c-.096 0-.144-.048-.144-.144 0-.528.048-.936.168-1.296.384-1.152 1.344-1.8 2.64-1.8s2.256.648 2.64 1.8c.12.36.168.768.168 1.296 0 .096-.048.144-.144.144h-5.328zM374.422 465c.144 0 .24-.096.24-.24v-7.608c0-2.832-1.248-3.912-4.512-3.912-1.704 0-3.048.456-3.912 1.128-.096.096-.12.192-.048.336l.648 1.104c.072.12.216.12.336.024.672-.48 1.488-.816 2.784-.816 2.136 0 2.76.672 2.76 2.256v.84c0 .096-.048.144-.144.144h-2.616c-2.808 0-4.488 1.128-4.488 3.552 0 2.328 1.68 3.456 3.864 3.456 1.752 0 2.88-.648 3.408-1.512h.024v1.008c0 .144.096.24.24.24h1.416zm-4.608-1.464c-1.536 0-2.4-.624-2.4-1.8 0-1.296.864-1.872 2.856-1.872h2.304c.096 0 .144.048.144.144v1.272c0 1.416-1.104 2.256-2.904 2.256zM382.067 465.12c.144 0 .24-.096.24-.24v-1.392c0-.144-.096-.24-.24-.24h-.456c-.792 0-1.152-.312-1.152-1.272V448.92c0-.144-.096-.24-.24-.24h-1.536c-.144 0-.24.096-.24.24v13.176c0 2.064.792 3.024 2.808 3.024h.816zM386.971 450.912c.145 0 .241-.096.241-.24v-1.752c0-.144-.096-.24-.241-.24h-1.631c-.144 0-.24.096-.24.24v1.752c0 .144.096.24.24.24h1.631zM386.924 465c.144 0 .24-.096.24-.24v-11.016c0-.144-.096-.24-.24-.24h-1.536c-.145 0-.24.096-.24.24v11.016c0 .144.095.24.24.24h1.536zM395.325 465.12c.144 0 .24-.096.24-.24v-1.392c0-.144-.096-.24-.24-.24h-.504c-1.032 0-1.464-.312-1.464-1.464v-6.504c0-.096.048-.144.144-.144h1.824c.144 0 .24-.096.24-.24v-1.152c0-.144-.096-.24-.24-.24h-1.824c-.096 0-.144-.048-.144-.144v-3.24c0-.144-.096-.24-.24-.24h-1.536c-.144 0-.24.096-.24.24v3.24c0 .096-.048.144-.144.144h-.96c-.144 0-.24.096-.24.24v1.152c0 .144.096.24.24.24h.96c.096 0 .144.048.144.144v6.576c0 2.256.864 3.264 3.096 3.264h.888zM399.414 469.32c1.728 0 2.616-.72 3.624-3.432l4.536-12.144c.048-.144-.048-.24-.192-.24h-1.632c-.144 0-.24.072-.288.24l-2.904 8.304h-.048l-3.024-8.304c-.048-.168-.144-.24-.288-.24h-1.68c-.168 0-.24.096-.192.24l4.224 10.92-.384 1.056c-.504 1.32-1.008 1.728-1.944 1.728h-.432c-.144 0-.24.096-.24.24v1.392c0 .144.096.24.24.24h.624zM408.25 464.76c0 .144.096.24.24.24h1.824c.144 0 .24-.096.24-.24v-2.064c0-.144-.096-.24-.24-.24h-1.824c-.144 0-.24.096-.24.24v2.064z"/>
    <path stroke="#0500FA" stroke-linecap="round" stroke-linejoin="round" stroke-miterlimit="10" stroke-width="2" d="M239.6 373.2h12.8"/>
    <path fill="#0500FA" d="M246 386h1.6s4.8-4.8 4.8-9.6v-3.2H246V386zM250 390.8h-8v-1.6a1.6 1.6 0 0 1 1.6-1.6h4.8a1.6 1.6 0 0 1 1.6 1.6v1.6z"/>
    <path stroke="#0500FA" stroke-linecap="round" stroke-linejoin="round" stroke-miterlimit="10" stroke-width="2" d="M242 390.8h8M250.8 379.6s.8-3.2 2.8-3.2a1.999 1.999 0 0 1 2 2c0 2.8-8 5.2-8 5.2"/>
    <path fill="#0500FA" d="M246 386h-1.6s-4.8-4.8-4.8-9.6v-3.2h6.4V386z"/>
    <path stroke="#0500FA" stroke-linecap="round" stroke-linejoin="round" stroke-miterlimit="10" stroke-width="2" d="M241.2 379.6s-.8-3.2-2.8-3.2a1.999 1.999 0 0 0-2 2c0 2.8 8 5.2 8 5.2"/>
    <path fill="#0500FA" d="M250 362h16v2h-16z"/>
    <path fill="#0500FA" d="M264 378v-16h2v16zM226 400h16v2h-16z"/>
    <path fill="#0500FA" d="M228 386v16h-2v-16z"/>
    <path fill="#22224B" d="M76.217 57c.224 0 .384-.128.416-.32l5.6-21.12c.032-.192-.032-.32-.256-.32h-4.096c-.224 0-.352.096-.384.32L74.49 49.224h-.064l-3.84-13.664c-.064-.192-.192-.32-.384-.32h-2.784c-.224 0-.352.128-.416.32L63.29 49.224h-.064L60.09 35.56c-.032-.192-.16-.32-.384-.32h-4.128c-.224 0-.288.128-.256.32l5.632 21.12c.064.192.192.32.384.32h3.2c.224 0 .352-.128.416-.32l3.808-13.536h.064l3.776 13.536c.064.192.192.32.416.32h3.2zM98.113 57c.192 0 .32-.128.32-.32v-9.76c0-3.392-1.856-5.76-5.28-5.76-1.984 0-3.296.8-4 1.76h-.032v-7.36c0-.192-.128-.32-.32-.32h-3.84c-.192 0-.32.128-.32.32v21.12c0 .192.128.32.32.32h3.84c.192 0 .32-.128.32-.32v-8.896c0-1.696.896-2.816 2.432-2.816 1.6 0 2.4 1.12 2.4 2.816v8.896c0 .192.128.32.32.32h3.84zM114.968 57c.192 0 .32-.128.32-.32v-9.92c0-3.872-1.824-5.6-6.88-5.6-2.56 0-4.448.608-5.76 1.536-.16.096-.192.256-.096.448l1.44 2.528c.096.16.256.192.416.064.736-.544 1.888-.992 3.456-.992 2.464 0 3.168.672 3.168 2.112v.576c0 .128-.064.192-.192.192h-2.752c-3.84 0-6.432 1.568-6.432 4.992 0 3.296 2.4 4.736 5.152 4.736 2.112 0 3.456-.672 4.256-1.696h.032v1.024c0 .192.128.32.32.32h3.552zm-6.816-3.008c-1.472 0-2.24-.544-2.24-1.632 0-1.216.864-1.76 2.752-1.76h2.176c.128 0 .192.064.192.192v1.056c0 1.44-.96 2.144-2.88 2.144zM126.178 57.192c.192 0 .32-.128.32-.32v-3.168c0-.192-.128-.32-.32-.32h-.768c-1.024 0-1.408-.384-1.408-1.536V45c0-.128.064-.192.192-.192h1.984c.192 0 .32-.128.32-.32v-2.656c0-.192-.128-.32-.32-.32h-1.984c-.128 0-.192-.064-.192-.192v-4.16c0-.192-.128-.32-.32-.32h-3.808c-.192 0-.32.128-.32.32v4.16c0 .128-.064.192-.192.192h-.96c-.192 0-.32.128-.32.32v2.656c0 .192.128.32.32.32h.96c.128 0 .192.064.192.192v7.04c0 3.552 1.344 5.152 4.928 5.152h1.696zM141.551 39.048c.192 0 .32-.128.32-.32V35.56c0-.192-.128-.32-.32-.32h-3.84c-.192 0-.32.128-.32.32v3.168c0 .192.128.32.32.32h3.84zm0 17.952c.192 0 .32-.128.32-.32V41.832c0-.192-.128-.32-.32-.32h-3.84c-.192 0-.32.128-.32.32V56.68c0 .192.128.32.32.32h3.84zM151.971 57.352c4.416 0 6.88-2.144 6.912-5.312 0-2.592-1.504-4.352-5.152-4.704l-1.696-.192c-1.76-.16-2.144-.576-2.144-1.28 0-.768.64-1.28 1.952-1.28 1.6 0 3.136.576 4.192 1.248.16.096.32.096.448-.064l1.792-2.208c.128-.16.096-.352-.032-.48-1.44-1.088-3.648-1.92-6.272-1.92-4.032 0-6.368 1.92-6.368 4.96 0 2.784 1.792 4.416 5.056 4.736l1.728.192c1.792.16 2.208.608 2.208 1.344 0 .864-.768 1.472-2.4 1.472-1.6 0-3.36-.64-4.736-1.696-.16-.128-.32-.128-.448 0l-2.08 2.336a.31.31 0 0 0 0 .448c1.472 1.28 3.808 2.4 7.04 2.4zM173.769 39.048c.192 0 .32-.128.32-.32V35.56c0-.192-.128-.32-.32-.32h-3.84c-.192 0-.32.128-.32.32v3.168c0 .192.128.32.32.32h3.84zm0 17.952c.192 0 .32-.128.32-.32V41.832c0-.192-.128-.32-.32-.32h-3.84c-.192 0-.32.128-.32.32V56.68c0 .192.128.32.32.32h3.84zM191.581 57c.192 0 .32-.128.32-.32v-9.76c0-3.392-1.856-5.76-5.28-5.76-1.984 0-3.296.8-4 1.76h-.032v-1.088c0-.192-.128-.32-.32-.32h-3.84c-.192 0-.32.128-.32.32V56.68c0 .192.128.32.32.32h3.84c.192 0 .32-.128.32-.32v-8.896c0-1.696.896-2.816 2.432-2.816 1.6 0 2.4 1.12 2.4 2.816v8.896c0 .192.128.32.32.32h3.84zM202.741 57.192c.192 0 .32-.128.32-.32v-3.168c0-.192-.128-.32-.32-.32h-.768c-1.024 0-1.408-.384-1.408-1.536V45c0-.128.064-.192.192-.192h1.984c.192 0 .32-.128.32-.32v-2.656c0-.192-.128-.32-.32-.32h-1.984c-.128 0-.192-.064-.192-.192v-4.16c0-.192-.128-.32-.32-.32h-3.808c-.192 0-.32.128-.32.32v4.16c0 .128-.064.192-.192.192h-.96c-.192 0-.32.128-.32.32v2.656c0 .192.128.32.32.32h.96c.128 0 .192.064.192.192v7.04c0 3.552 1.344 5.152 4.928 5.152h1.696zM213.015 57.352c2.848 0 5.12-1.024 6.592-2.592.128-.128.128-.32-.032-.448l-2.112-1.984c-.128-.16-.288-.128-.448 0-.896.832-2.016 1.376-3.552 1.376-1.6 0-2.784-.704-3.2-2.048a3.428 3.428 0 0 1-.192-.864c0-.128.064-.192.192-.192h9.376c.224 0 .352-.128.352-.32 0-2.624-.192-3.744-.512-4.768-.896-2.72-3.264-4.352-6.688-4.352-3.296 0-5.76 1.6-6.656 4.384-.32.96-.512 2.08-.512 3.712 0 1.6.224 2.72.544 3.68.896 2.784 3.328 4.416 6.848 4.416zm-2.752-9.728c-.128 0-.192-.064-.192-.192 0-.48.064-.832.16-1.152.352-1.056 1.312-1.696 2.592-1.696s2.24.64 2.592 1.696c.096.32.16.672.16 1.152 0 .128-.064.192-.192.192h-5.12zM227.426 57c.192 0 .32-.128.32-.32v-8.16c0-2.08.736-3.296 2.4-3.36.768-.032 1.504.224 2.24.704.192.096.32.096.448-.064l1.792-3.264c.096-.192.064-.32-.096-.448-.672-.576-1.696-.928-2.72-.928-1.888 0-3.296.736-4.032 1.984h-.032v-1.312c0-.192-.128-.32-.32-.32h-3.84c-.192 0-.32.128-.32.32V56.68c0 .192.128.32.32.32h3.84zM248.749 57c.192 0 .32-.128.32-.32v-9.92c0-3.872-1.824-5.6-6.88-5.6-2.56 0-4.448.608-5.76 1.536-.16.096-.192.256-.096.448l1.44 2.528c.096.16.256.192.416.064.736-.544 1.888-.992 3.456-.992 2.464 0 3.168.672 3.168 2.112v.576c0 .128-.064.192-.192.192h-2.752c-3.84 0-6.432 1.568-6.432 4.992 0 3.296 2.4 4.736 5.152 4.736 2.112 0 3.456-.672 4.256-1.696h.032v1.024c0 .192.128.32.32.32h3.552zm-6.816-3.008c-1.472 0-2.24-.544-2.24-1.632 0-1.216.864-1.76 2.752-1.76h2.176c.128 0 .192.064.192.192v1.056c0 1.44-.96 2.144-2.88 2.144zM259.416 57.352c2.656 0 4.736-1.216 5.856-2.912.096-.16.096-.32-.064-.448l-2.784-1.824c-.192-.128-.352-.096-.48.064-.672.928-1.344 1.344-2.464 1.344-1.184 0-2.048-.544-2.4-1.664-.224-.64-.288-1.376-.288-2.656 0-1.28.064-2.016.288-2.656.352-1.12 1.216-1.664 2.4-1.664 1.12 0 1.792.416 2.464 1.344.128.16.288.192.48.064l2.784-1.824c.16-.128.16-.288.064-.448-1.12-1.696-3.2-2.912-5.856-2.912-3.264 0-5.76 1.504-6.688 4.384-.32.928-.48 2.08-.48 3.712 0 1.632.16 2.784.48 3.712.928 2.88 3.424 4.384 6.688 4.384zM275.366 57.192c.192 0 .32-.128.32-.32v-3.168c0-.192-.128-.32-.32-.32h-.768c-1.024 0-1.408-.384-1.408-1.536V45c0-.128.064-.192.192-.192h1.984c.192 0 .32-.128.32-.32v-2.656c0-.192-.128-.32-.32-.32h-1.984c-.128 0-.192-.064-.192-.192v-4.16c0-.192-.128-.32-.32-.32h-3.808c-.192 0-.32.128-.32.32v4.16c0 .128-.064.192-.192.192h-.96c-.192 0-.32.128-.32.32v2.656c0 .192.128.32.32.32h.96c.128 0 .192.064.192.192v7.04c0 3.552 1.344 5.152 4.928 5.152h1.696zM283.176 39.048c.192 0 .32-.128.32-.32V35.56c0-.192-.128-.32-.32-.32h-3.84c-.192 0-.32.128-.32.32v3.168c0 .192.128.32.32.32h3.84zm0 17.952c.192 0 .32-.128.32-.32V41.832c0-.192-.128-.32-.32-.32h-3.84c-.192 0-.32.128-.32.32V56.68c0 .192.128.32.32.32h3.84zM293.98 57.352c3.264 0 5.824-1.536 6.72-4.352.352-1.12.512-2.208.512-3.744s-.16-2.624-.512-3.744c-.896-2.816-3.456-4.352-6.72-4.352s-5.824 1.536-6.72 4.352c-.352 1.12-.512 2.208-.512 3.744s.16 2.624.512 3.744c.896 2.816 3.456 4.352 6.72 4.352zm0-3.776c-1.184 0-2.048-.576-2.4-1.664-.224-.704-.288-1.344-.288-2.656s.064-1.952.288-2.656c.352-1.088 1.216-1.664 2.4-1.664s2.048.576 2.4 1.664c.224.704.288 1.344.288 2.656s-.064 1.952-.288 2.656c-.352 1.088-1.216 1.664-2.4 1.664zM317.956 57c.192 0 .32-.128.32-.32v-9.76c0-3.392-1.856-5.76-5.28-5.76-1.984 0-3.296.8-4 1.76h-.032v-1.088c0-.192-.128-.32-.32-.32h-3.84c-.192 0-.32.128-.32.32V56.68c0 .192.128.32.32.32h3.84c.192 0 .32-.128.32-.32v-8.896c0-1.696.896-2.816 2.432-2.816 1.6 0 2.4 1.12 2.4 2.816v8.896c0 .192.128.32.32.32h3.84zM343.014 57c.192 0 .32-.128.32-.32V35.56c0-.192-.128-.32-.32-.32h-3.84c-.192 0-.32.128-.32.32v7.392h-.032c-.736-1.056-2.016-1.792-4.064-1.792-2.592 0-4.448 1.248-5.248 3.712-.384 1.216-.544 2.368-.544 4.384 0 1.984.16 3.168.544 4.384.8 2.432 2.656 3.712 5.248 3.712 2.048 0 3.328-.736 4.064-1.792h.032v1.12c0 .192.128.32.32.32h3.84zm-6.816-3.424c-1.216 0-2.048-.576-2.4-1.664-.192-.608-.288-1.28-.288-2.656 0-1.376.096-2.048.288-2.656.352-1.12 1.184-1.664 2.4-1.664 1.184 0 2.016.544 2.368 1.664.192.608.288 1.28.288 2.656 0 1.376-.096 2.048-.288 2.656-.352 1.088-1.184 1.664-2.368 1.664zM353.983 57.352c2.848 0 5.12-1.024 6.592-2.592.128-.128.128-.32-.032-.448l-2.112-1.984c-.128-.16-.288-.128-.448 0-.896.832-2.016 1.376-3.552 1.376-1.6 0-2.784-.704-3.2-2.048a3.428 3.428 0 0 1-.192-.864c0-.128.064-.192.192-.192h9.376c.224 0 .352-.128.352-.32 0-2.624-.192-3.744-.512-4.768-.896-2.72-3.264-4.352-6.688-4.352-3.296 0-5.76 1.6-6.656 4.384-.32.96-.512 2.08-.512 3.712 0 1.6.224 2.72.544 3.68.896 2.784 3.328 4.416 6.848 4.416zm-2.752-9.728c-.128 0-.192-.064-.192-.192 0-.48.064-.832.16-1.152.352-1.056 1.312-1.696 2.592-1.696s2.24.64 2.592 1.696c.096.32.16.672.16 1.152 0 .128-.064.192-.192.192h-5.12zM370.314 57.352c4.416 0 6.88-2.144 6.912-5.312 0-2.592-1.504-4.352-5.152-4.704l-1.696-.192c-1.76-.16-2.144-.576-2.144-1.28 0-.768.64-1.28 1.952-1.28 1.6 0 3.136.576 4.192 1.248.16.096.32.096.448-.064l1.792-2.208c.128-.16.096-.352-.032-.48-1.44-1.088-3.648-1.92-6.272-1.92-4.032 0-6.368 1.92-6.368 4.96 0 2.784 1.792 4.416 5.056 4.736l1.728.192c1.792.16 2.208.608 2.208 1.344 0 .864-.768 1.472-2.4 1.472-1.6 0-3.36-.64-4.736-1.696-.16-.128-.32-.128-.448 0l-2.08 2.336a.31.31 0 0 0 0 .448c1.472 1.28 3.808 2.4 7.04 2.4zM384.551 39.048c.192 0 .32-.128.32-.32V35.56c0-.192-.128-.32-.32-.32h-3.84c-.192 0-.32.128-.32.32v3.168c0 .192.128.32.32.32h3.84zm0 17.952c.192 0 .32-.128.32-.32V41.832c0-.192-.128-.32-.32-.32h-3.84c-.192 0-.32.128-.32.32V56.68c0 .192.128.32.32.32h3.84zM394.523 63.112c5.088 0 7.712-2.592 7.712-7.776V41.832c0-.192-.128-.32-.32-.32h-3.84c-.192 0-.32.128-.32.32v1.12h-.032c-.672-1.088-2.016-1.792-3.968-1.792-2.56 0-4.384 1.28-5.184 3.744-.352 1.12-.512 2.208-.512 3.872 0 1.664.16 2.72.512 3.872.8 2.464 2.624 3.744 5.184 3.744 1.952 0 3.296-.704 3.968-1.792h.032v1.312c0 2.272-.96 3.424-3.104 3.424-1.216 0-2.24-.48-3.2-1.344-.16-.16-.32-.16-.48 0l-2.272 2.304c-.16.16-.16.32-.032.48 1.12 1.344 3.552 2.336 5.856 2.336zm.64-10.496c-1.216 0-1.92-.576-2.304-1.664-.16-.576-.256-1.216-.256-2.176 0-.96.096-1.6.256-2.176.384-1.088 1.088-1.664 2.304-1.664 1.248 0 1.952.576 2.304 1.664.192.576.288 1.216.288 2.176 0 .96-.096 1.6-.288 2.176-.352 1.088-1.056 1.664-2.304 1.664zM419.738 57c.192 0 .32-.128.32-.32v-9.76c0-3.392-1.856-5.76-5.28-5.76-1.984 0-3.296.8-4 1.76h-.032v-1.088c0-.192-.128-.32-.32-.32h-3.84c-.192 0-.32.128-.32.32V56.68c0 .192.128.32.32.32h3.84c.192 0 .32-.128.32-.32v-8.896c0-1.696.896-2.816 2.432-2.816 1.6 0 2.4 1.12 2.4 2.816v8.896c0 .192.128.32.32.32h3.84zM427.377 50.632h3.712c.192 0 .32-.128.32-.32v-.768c0-.896.128-1.312.64-1.92l2.144-2.816c1.12-1.312 1.696-2.528 1.696-4.16 0-3.264-2.624-5.76-6.432-5.76-3.744 0-6.176 2.144-6.656 5.44-.032.192.032.352.256.384l3.456.512c.224.032.352-.032.416-.288.288-1.408 1.088-2.24 2.4-2.24 1.312 0 2.112.896 2.112 2.112 0 .8-.32 1.504-1.216 2.56l-2.24 2.912c-.64.8-.928 1.472-.928 2.688v1.344c0 .192.128.32.32.32zm-.384 6.048c0 .192.128.32.32.32h3.84c.192 0 .32-.128.32-.32v-3.648c0-.192-.128-.32-.32-.32h-3.84c-.192 0-.32.128-.32.32v3.648z"/>
</svg>
