<svg width="165" height="40" viewBox="0 0 165 40" fill="none" xmlns="http://www.w3.org/2000/svg">
<path fill-rule="evenodd" clip-rule="evenodd" d="M16.1445 27.7799C15.7234 28.6693 15.1565 29.449 14.444 30.1191C13.7316 30.7897 12.8977 31.3217 11.9418 31.7152C10.986 32.1086 9.97434 32.3051 8.90524 32.3051H5.3101C3.88456 32.3051 2.79955 31.9994 2.05464 31.3871C1.30973 30.7746 0.937378 30.0028 0.937378 29.0698V18.4891C0.937378 17.4397 1.13129 16.4631 1.52019 15.5595C1.90909 14.6559 2.44354 13.862 3.12374 13.1767C3.80394 12.4917 4.58905 11.9528 5.48015 11.5593C6.37082 11.1659 7.33437 10.969 8.37101 10.969H12.3548V0.781678L16.7761 0.738037V24.9596C16.7764 25.9509 16.5657 26.891 16.1445 27.7799ZM12.2581 13.7234C11.5127 13.7234 10.8893 13.7163 10.3871 13.7014C9.88491 13.6866 9.42356 13.7014 9.00284 13.7451C8.58169 13.7887 8.19279 13.8764 7.83678 14.0076C7.48034 14.1385 7.10778 14.3498 6.71909 14.6411C6.16809 15.0203 5.8037 15.4939 5.62569 16.0623C5.44769 16.6308 5.35869 17.2501 5.35869 17.9204V29.5071C6.20098 29.5944 7.11595 29.6163 8.104 29.5726C9.09163 29.529 9.97412 29.2452 10.7517 28.7202C11.3997 28.2832 11.8129 27.8021 11.9909 27.2775C12.1689 26.7527 12.2583 26.1263 12.2583 25.3973L12.2581 13.7234Z" fill="white"/>
<path d="M39.5628 34.8849C39.1739 35.7884 38.6399 36.5753 37.9597 37.2458C37.2794 37.9152 36.486 38.4475 35.5789 38.8414C34.6719 39.2348 33.6841 39.4317 32.6154 39.4317H28.8255V36.6772C29.538 36.6772 30.1453 36.6843 30.6475 36.6993C31.1497 36.7133 31.6031 36.6993 32.0079 36.6557C32.4127 36.612 32.7855 36.5243 33.1256 36.3932C33.4657 36.2618 33.8296 36.0649 34.2185 35.8028C34.8014 35.4238 35.1982 34.9429 35.4089 34.3601C35.6194 33.7766 35.7247 33.1504 35.7247 32.4803V31.7803C34.6556 32.1881 33.603 32.3926 32.5668 32.3926H28.7769C27.3518 32.3926 26.2827 32.0572 25.5703 31.3869C24.8578 30.7168 24.5016 29.9005 24.5016 28.9383V11.0126H28.7769V29.6817H30.5748C31.0929 29.6817 31.5545 29.6597 31.9591 29.6161C32.3637 29.5724 32.7367 29.4852 33.0768 29.354C33.4169 29.2229 33.7808 29.0262 34.1697 28.7637C34.7203 28.3556 35.109 27.8816 35.3358 27.3429C35.5626 26.8039 35.6759 26.1839 35.6759 25.4844V11.0126L40.146 11.0563V31.9553C40.146 33.0046 39.9517 33.9813 39.5628 34.8849Z" fill="white"/>
<path d="M59.0943 13.7234V32.3487L63.3209 32.3919V14.4227C63.3209 13.4901 62.9724 12.6816 62.2765 11.9962C61.5804 11.3115 60.5197 10.9688 59.0945 10.9688H55.2077C54.171 10.9688 53.2075 11.1657 52.3168 11.5591C51.4257 11.9526 50.6406 12.4915 49.9604 13.1764C49.2802 13.8618 48.7458 14.6557 48.3569 15.5593C47.968 16.4629 47.774 17.4395 47.774 18.4888V32.3049L52.1949 32.3485V17.9204C52.1949 17.2501 52.2839 16.6308 52.4619 16.0624C52.6399 15.4939 53.0043 15.0203 53.5553 14.6411C53.944 14.3498 54.3166 14.1385 54.673 14.0076C55.029 13.8764 55.4179 13.7887 55.8391 13.7451C56.2598 13.7014 56.7211 13.6866 57.2233 13.7014C57.7255 13.7163 58.349 13.7234 59.0943 13.7234Z" fill="white"/>
<path fill-rule="evenodd" clip-rule="evenodd" d="M82.5608 32.3051V30.906C82.2697 31.0227 81.9776 31.1609 81.6863 31.3213C81.3948 31.4817 81.0061 31.635 80.52 31.7807C80.0342 31.9265 79.4109 32.0503 78.6497 32.1524C77.8884 32.2546 76.9085 32.3053 75.7102 32.3053C74.2847 32.3053 73.1997 31.9996 72.4548 31.3871C71.7099 30.7748 71.3375 30.0031 71.3375 29.07V18.4893C71.3375 17.44 71.5314 16.4633 71.9203 15.5597C72.3095 14.6562 72.8437 13.8622 73.5239 13.1769C74.2041 12.4919 74.9892 11.953 75.8803 11.5596C76.7712 11.1662 77.7345 10.9692 78.7711 10.9692H82.6582C84.0833 10.9692 85.144 11.3119 85.8402 11.9966C86.5363 12.682 86.8848 13.4905 86.8848 14.4231V32.3053L82.5608 32.3051ZM82.6582 13.7234C81.9129 13.7234 81.2892 13.7163 80.787 13.7014C80.2848 13.6866 79.8237 13.7014 79.403 13.7451C78.9818 13.7887 78.5927 13.8764 78.2367 14.0076C77.8805 14.1385 77.5077 14.3498 77.1192 14.6411C76.5682 15.0203 76.2036 15.494 76.0258 16.0624C75.8478 16.6308 75.7588 17.2501 75.7588 17.9204V29.5071C76.6011 29.5944 77.5161 29.6163 78.5041 29.5727C79.492 29.529 80.3743 29.2452 81.1518 28.7203C81.7998 28.2832 82.213 27.8021 82.391 27.2775C82.569 26.7527 82.6584 26.1263 82.6584 25.3973L82.6582 13.7234Z" fill="white"/>
<path d="M115.356 30.1628C116.036 29.4927 116.579 28.7054 116.983 27.8018C117.388 26.8983 117.591 25.9362 117.591 24.9159V11.0126H113.072V25.4407C113.072 26.1403 113.007 26.7891 112.878 27.3865C112.748 27.9842 112.424 28.4868 111.906 28.8948C111.453 29.274 110.942 29.4927 110.376 29.5507C109.809 29.609 109.12 29.638 108.311 29.638V11.0126H103.841V25.4407C103.841 26.1403 103.777 26.7889 103.647 27.3865C103.517 27.9842 103.193 28.4868 102.675 28.8948C102.222 29.274 101.711 29.4927 101.145 29.5507C100.578 29.609 99.8896 29.638 99.0796 29.638V11.0126H94.8038V28.8944C94.8038 29.8566 95.1678 30.6729 95.8968 31.343C96.6258 32.0135 97.6867 32.3487 99.0796 32.3487H100.877C101.59 32.3487 102.286 32.2466 102.966 32.0426C103.647 31.8386 104.278 31.5619 104.861 31.2121C105.217 31.5619 105.695 31.8386 106.294 32.0426C106.894 32.2466 107.566 32.3487 108.311 32.3487H110.06C111.097 32.3487 112.068 32.1522 112.975 31.7588C113.882 31.3654 114.676 30.8333 115.356 30.1628Z" fill="white"/>
<path fill-rule="evenodd" clip-rule="evenodd" d="M136.49 32.3051V30.906C136.199 31.0227 135.907 31.1609 135.616 31.3213C135.325 31.4817 134.936 31.635 134.45 31.7807C133.964 31.9265 133.341 32.0503 132.579 32.1524C131.818 32.2546 130.838 32.3053 129.64 32.3053C128.215 32.3053 127.13 31.9996 126.385 31.3871C125.639 30.7748 125.267 30.0031 125.267 29.07V18.4893C125.267 17.44 125.461 16.4633 125.85 15.5597C126.239 14.6562 126.774 13.8622 127.454 13.1769C128.134 12.4919 128.919 11.953 129.81 11.5596C130.701 11.1662 131.664 10.9692 132.701 10.9692H136.588C138.013 10.9692 139.074 11.3119 139.77 11.9966C140.466 12.682 140.814 13.4905 140.814 14.4231V32.3053L136.49 32.3051ZM136.588 13.7234C135.842 13.7234 135.219 13.7163 134.717 13.7014C134.215 13.6866 133.753 13.7014 133.333 13.7451C132.911 13.7887 132.523 13.8764 132.167 14.0076C131.81 14.1385 131.438 14.3498 131.049 14.6411C130.498 15.0203 130.134 15.494 129.956 16.0624C129.778 16.6308 129.689 17.2501 129.689 17.9204V29.5071C130.531 29.5944 131.446 29.6163 132.434 29.5727C133.421 29.529 134.304 29.2452 135.082 28.7203C135.729 28.2832 136.143 27.8021 136.321 27.2775C136.499 26.7527 136.588 26.1263 136.588 25.3973L136.588 13.7234Z" fill="white"/>
<path d="M162.289 37.2458C162.97 36.5753 163.503 35.7884 163.892 34.8849C164.281 33.9813 164.476 33.0046 164.475 31.9553V11.0563L160.005 11.0126V25.4844C160.005 26.1839 159.892 26.8041 159.665 27.3429C159.438 27.8816 159.05 28.3556 158.499 28.7637C158.11 29.0262 157.746 29.2229 157.406 29.354C157.066 29.4852 156.693 29.5724 156.288 29.6161C155.884 29.6597 155.422 29.6817 154.904 29.6817H153.107V11.0126H148.831V28.9383C148.831 29.9005 149.188 30.7168 149.9 31.3869C150.612 32.0572 151.682 32.3926 153.107 32.3926H156.897C157.933 32.3926 158.985 32.1881 160.054 31.7803V32.4803C160.054 33.1504 159.949 33.7766 159.739 34.3601C159.528 34.9429 159.131 35.4238 158.548 35.8028C158.159 36.0649 157.795 36.2618 157.455 36.3932C157.115 36.5243 156.742 36.612 156.338 36.6557C155.933 36.6993 155.479 36.7133 154.977 36.6993C154.475 36.6843 153.868 36.6772 153.155 36.6772V39.4317H156.945C158.014 39.4317 159.002 39.2348 159.909 38.8414C160.816 38.4475 161.609 37.9152 162.289 37.2458Z" fill="white"/>
</svg>
