<svg width="71" height="40" viewBox="0 0 71 40" fill="none" xmlns="http://www.w3.org/2000/svg">
<g clip-path="url(#clip0)">
<path fill-rule="evenodd" clip-rule="evenodd" d="M55.7993 22.0936C56.0683 22.0059 56.2729 21.8421 56.3899 21.6199C56.5186 21.3743 56.5186 21.2398 56.3782 21.0117C56.08 20.5205 55.2086 20.5146 54.9396 21.0059C54.8577 21.1462 54.8344 21.6316 54.8987 21.8655C54.963 22.117 55.4075 22.2281 55.7993 22.0936ZM55.3145 21.3567C55.3672 21.4093 55.449 21.4561 55.49 21.4678C55.5484 21.4854 55.5368 21.5204 55.4549 21.5965C55.3438 21.6959 55.3379 21.6959 55.2736 21.5146C55.1859 21.269 55.1917 21.2514 55.3145 21.3567Z" fill="white"/>
<path fill-rule="evenodd" clip-rule="evenodd" d="M49.4779 6.1696C49.5188 6.12282 49.6066 6.08188 49.6767 6.08188C49.7645 6.08188 49.8346 6.00586 49.9165 5.83042C50.1563 5.3041 50.8112 4.81872 51.6417 4.53802C52.437 4.27486 53.0861 4.19299 54.3727 4.18714L54.4907 4.18664C55.2606 4.18339 55.5115 4.18233 55.5565 4.08551C55.5783 4.03871 55.552 3.96948 55.5129 3.8669L55.5013 3.83627C55.4487 3.69007 55.4545 3.68422 55.6066 3.72516C56.1972 3.8889 56.7879 3.50293 56.7879 2.95907C56.7879 2.34504 56.0276 1.66083 55.2732 1.5965C54.8814 1.56141 54.5656 1.67252 54.4194 1.89475C54.32 2.04095 54.3259 2.05264 54.4838 2.25147C54.9692 2.84796 55.0335 2.93568 55.0335 3.00001C55.0276 3.04095 54.9458 2.96492 54.8405 2.83627C54.4604 2.36258 54.0627 1.97077 53.8405 1.85966C53.4662 1.66668 52.9165 1.731 52.2323 2.0351C51.9341 2.17545 51.6066 2.3041 51.513 2.32165C51.3025 2.36258 50.1212 3.42106 49.7352 3.91229C49.2031 4.57896 49.0218 5.27486 49.1855 5.95907C49.2557 6.26317 49.3493 6.3275 49.4779 6.1696ZM49.6768 5.07601C49.9458 4.06431 50.975 3.03507 52.1096 2.6608C52.8289 2.42103 53.5365 2.44442 54.016 2.72512C54.2675 2.87132 54.6769 3.27483 54.7938 3.49706C54.864 3.63156 54.8231 3.6491 54.2149 3.71343C53.3318 3.807 52.0335 4.04677 51.4721 4.2222C50.9107 4.39764 50.285 4.74852 49.9926 5.05262C49.6651 5.3918 49.5949 5.39765 49.6768 5.07601ZM55.0334 2.12864C55.0334 2.20466 55.4311 2.89472 55.5773 3.07601C55.7586 3.29239 55.7761 3.29823 55.9925 3.21636C56.1211 3.16958 56.1328 3.14619 56.086 2.9766C56.01 2.71928 55.7878 2.50291 55.3785 2.28069C55.1913 2.18127 55.0334 2.1111 55.0334 2.12864Z" fill="white"/>
<path fill-rule="evenodd" clip-rule="evenodd" d="M16.7063 33.0526C16.6596 33.1345 16.6771 33.1871 16.8175 33.3333C16.911 33.4269 17.0163 33.5087 17.0455 33.5087C17.1391 33.5087 17.49 33.2865 17.49 33.228C17.49 33.1988 17.6946 33.2222 17.9461 33.2865C18.5484 33.4327 19.952 33.4912 20.5718 33.3918C21.1332 33.3041 21.8175 33.0877 22.1508 32.8947C22.3262 32.7894 22.4315 32.6725 22.5134 32.4795C22.6654 32.1345 22.7999 31.9766 23.1566 31.69C23.3613 31.5263 23.4549 31.4795 23.4549 31.5438C23.4549 31.5906 23.4841 31.7602 23.5192 31.9239L23.5777 32.2163L23.911 32.2865C24.3906 32.3859 25.5835 32.3216 26.7297 32.1403C27.2619 32.0526 27.7356 31.9649 27.7824 31.9356C27.8291 31.9122 27.9344 31.9122 28.0163 31.9356C28.3028 32.0175 28.4373 31.9883 28.6011 31.8128C28.6946 31.7134 28.7824 31.5555 28.8058 31.4561C28.8291 31.3625 28.911 31.1637 28.9929 31.0175C29.2911 30.4853 29.2794 29.9239 28.9753 29.4503L28.8233 29.228L28.3496 29.269C27.8058 29.3158 27.7999 29.2807 28.3262 28.9707C28.6069 28.807 28.6303 28.7777 28.6479 28.5438C28.6713 28.2397 28.5134 27.6725 28.3555 27.5087C28.2268 27.3684 28.2385 27.3567 28.5718 27.2514C28.7005 27.2105 28.9169 27.1111 29.0572 27.0234L29.3087 26.8713L29.2502 26.0526L29.3613 26.4912C29.4198 26.731 29.5952 27.6783 29.7414 28.5965C30.0221 30.3859 30.221 31.3976 30.3028 31.4853C30.3321 31.5204 30.7239 31.5087 31.2911 31.462C32.037 31.4017 32.192 31.3892 32.2678 31.3052C32.2877 31.2832 32.3021 31.2562 32.3204 31.2222C32.3672 31.1286 32.5835 30.9122 32.8116 30.731C33.2619 30.3684 33.3379 30.269 33.3379 30C33.3379 29.7251 33.4432 29.8011 33.7648 30.2865C33.9812 30.6082 34.1099 30.7368 34.2911 30.8245C34.566 30.9473 35.0748 30.9707 35.5017 30.8772C35.7005 30.8362 37.5543 30.2456 37.6537 30.1929C37.6654 30.1929 37.6362 30.1228 37.5894 30.0467C37.5426 29.9766 37.4841 29.8304 37.4607 29.731C37.4256 29.5497 37.4373 29.5438 37.7005 29.4503C37.8525 29.3976 38.028 29.3567 38.0865 29.3567C38.18 29.3567 38.1917 29.2982 38.1917 28.7602C38.1917 27.421 38.0338 26.3684 37.4139 23.6549C37.2385 22.883 37.0572 22.0585 37.0163 21.8304C36.9753 21.5672 36.9169 21.4035 36.8701 21.4035C36.4607 21.4035 34.5777 21.9357 34.4666 22.0877C34.4256 22.1403 34.3379 22.3509 34.2677 22.5555C34.1976 22.7778 34.0923 22.9649 34.0163 23.0117L33.8876 23.0994L33.9929 23.7836C34.0455 24.1579 34.0865 24.4737 34.0748 24.4854C34.028 24.5321 33.7005 24.2047 33.2736 23.6783C32.6654 22.924 32.3555 22.731 31.8467 22.7719C31.4315 22.807 30.4607 23.1111 29.7824 23.421L29.3028 23.6433L29.3145 23.8713C29.3262 24.0585 29.3028 24.1228 29.2034 24.193C29.0806 24.2748 29.0748 24.269 29.0397 23.9941C29.0221 23.8421 28.9929 23.6257 28.9753 23.5204L28.9461 23.3333L26.7297 23.345C25.0923 23.3567 24.5017 23.345 24.4841 23.2924C24.4666 23.2456 24.6596 23.2164 25.1391 23.1871C26.5368 23.1052 26.9987 22.9766 27.3028 22.5731C27.4139 22.4327 27.642 22.2281 27.8175 22.1169C28.3321 21.7953 28.4315 21.4854 28.5309 19.8538C28.566 19.2398 28.5835 19.152 28.6771 19.1345C28.759 19.1169 28.7824 19.1403 28.7531 19.2222C28.7063 19.3801 28.6888 22.2164 28.7414 22.2631C28.7999 22.3275 29.5777 22.3041 30.2327 22.2222L30.2728 22.2173C30.8417 22.1471 31.0328 22.1236 31.1336 22.0157C31.1845 21.9612 31.2124 21.8851 31.2544 21.7706L31.2561 21.7661C31.3379 21.5321 31.3906 21.462 31.49 21.462C31.5543 21.462 31.7239 21.4093 31.8642 21.345C32.0982 21.2397 32.1099 21.2222 32.1099 20.9649C32.1099 20.6491 32.1625 20.6316 32.3087 20.9006C32.3672 21.0117 32.5017 21.1813 32.6069 21.2865L32.7999 21.4737L34.104 21.4035C35.297 21.345 35.9695 21.2807 36.3906 21.193C36.4958 21.1754 36.566 21.1052 36.6011 20.9941C36.6946 20.7251 37.0572 20.3743 37.3906 20.2339C37.5777 20.152 37.8642 20.0877 38.1274 20.0702C38.5484 20.0409 38.566 20.0351 38.8058 19.7895C38.9403 19.6491 39.0982 19.5321 39.1566 19.5321C39.2093 19.5321 39.3613 19.4152 39.4841 19.2748C39.7707 18.9474 40.0631 18.8362 40.2736 18.9707L40.4139 19.0702L40.1215 19.3626C39.9637 19.5263 39.7356 19.8128 39.6128 19.9941C39.3028 20.462 38.759 20.9766 38.3789 21.1579C38.0631 21.3099 38.0397 21.3392 37.8701 21.7368C37.6888 22.1696 37.5894 22.3216 37.4081 22.4269C37.3145 22.4795 37.3321 22.5848 37.6946 23.7427C38.1625 25.2748 38.2327 25.4678 38.3321 25.5497C38.3847 25.5965 38.5894 25.5906 39.028 25.5438C39.5835 25.4795 39.6713 25.4854 39.8525 25.5731C40.0865 25.6783 40.0923 25.7017 40.18 26.4912C40.2151 26.7953 40.3438 27.5848 40.4607 28.2456L40.683 29.4444L40.9403 29.5146C41.2794 29.6023 42.3496 29.6082 42.7648 29.5263C43.0221 29.4736 43.104 29.4269 43.1566 29.3158C43.221 29.1813 43.3028 29.1345 43.8701 28.9239L44.1391 28.8245L44.2151 28.3918C44.2911 27.9356 44.2619 27.5029 44.0631 26.1403C43.8642 24.7894 43.9578 24.6491 45.2151 24.4093C45.4958 24.3567 45.7473 24.2982 45.7824 24.2748C45.8701 24.2222 45.9695 23.2807 45.9695 22.4912C45.9695 22.1052 45.9812 21.807 45.9929 21.8187C46.0338 21.8596 46.2034 24.2573 46.3145 26.3976C46.3789 27.5146 46.449 28.4561 46.4783 28.4795C46.5601 28.5614 47.5368 28.6549 48.2502 28.6549C48.9169 28.6549 50.1742 28.5672 50.373 28.5029C50.4783 28.4678 50.5075 28.2748 50.4139 28.2163C50.3028 28.1462 50.4315 28.0117 50.6128 28.0117C50.8818 28.0117 51.4373 27.8655 51.6069 27.7544C51.7414 27.6666 51.7531 27.6257 51.7473 27.2631C51.7414 27.0468 51.759 26.5906 51.7882 26.2456L51.7883 26.2441C51.8213 25.8124 51.8372 25.6039 51.7412 25.5104C51.6516 25.4231 51.4643 25.436 51.1023 25.4609L51.0865 25.462C50.4607 25.497 50.1976 25.4386 50.49 25.3275C50.5835 25.2924 50.7414 25.2631 50.8408 25.2631C51.0923 25.2631 51.4198 25.1637 51.4783 25.076C51.5777 24.9181 51.5192 24.5263 51.3555 24.1696L51.1859 23.807L51.6011 23.6783C51.835 23.6023 52.0806 23.5263 52.1566 23.5029L52.2853 23.462L52.2736 25.1052C52.2619 26.3216 52.2736 26.8187 52.3321 27.0058C52.4022 27.2397 52.4198 27.2514 52.6245 27.2514C52.7414 27.2514 53.0806 27.3041 53.3789 27.3742L53.911 27.497L54.297 27.2163C55.0104 26.69 55.2034 26.5497 55.2385 26.5497C55.2561 26.5497 55.2677 26.614 55.2677 26.69C55.2677 26.7602 55.3379 26.9532 55.4256 27.1111C55.5075 27.269 55.6128 27.4678 55.6596 27.5497C55.7297 27.6959 55.759 27.7017 56.2151 27.7017C56.4841 27.7017 56.8993 27.731 57.1391 27.7661C57.3789 27.8011 57.7239 27.8479 57.8993 27.8655L58.221 27.9006L58.3087 27.5906C58.3847 27.3158 58.4139 27.2807 58.5894 27.2456C58.6946 27.2222 58.8292 27.1637 58.8876 27.1111C58.9461 27.0526 59.0514 27.0058 59.1157 27C59.2093 26.9941 59.2385 26.9356 59.2677 26.6608C59.2853 26.4737 59.3145 26.2222 59.3379 26.0935L59.373 25.8596L59.0514 25.7134C58.3906 25.4093 57.9987 24.8479 57.8935 24.0409C57.8116 23.3859 57.8233 23.3041 58.0046 23.2222C58.5484 22.9766 59.0923 22.3509 59.3145 21.7076C59.4256 21.3801 59.449 21.193 59.449 20.5555C59.449 19.655 59.3613 19.4035 58.9052 18.959L58.6245 18.6842L58.8993 18.4678C59.449 18.0351 60.0865 17 60.7063 15.5263C60.8408 15.2047 61.1332 14.5088 61.3555 13.9883C61.5835 13.462 61.8292 12.7895 61.911 12.4971C62.3145 10.9825 62.1976 8.92983 61.6069 7.14036C60.8759 4.94153 59.7941 3.30996 58.1391 1.92399C57.3379 1.25148 56.8408 0.976627 56.2327 0.85382C55.8525 0.777797 55.7122 0.771949 55.6128 0.818733C55.5251 0.871364 55.3613 0.865516 54.9695 0.812885C54.221 0.71347 53.1566 0.771949 52.4432 0.959083C51.7707 1.12867 50.6186 1.67253 50.0806 2.07019C49.8759 2.21639 49.6946 2.3392 49.6771 2.3392C49.5484 2.3392 47.9461 3.79534 47.0748 4.70177L46.3379 5.46785L46.2619 5.05849C46.104 4.18715 45.7824 3.55557 45.2385 3.05265C44.5601 2.41522 43.8408 2.193 42.6128 2.23393L41.9052 2.25733L41.5251 2.53218C40.9929 2.91814 40.9578 2.95323 40.7063 3.47955C40.4315 4.04095 40.3204 4.462 40.2327 5.23393C40.1332 6.15206 40.2151 7.08188 40.6186 9.53802C40.9987 11.8655 41.0163 12.8421 40.6771 13.8947C40.5426 14.3275 40.5134 14.3684 40.2327 14.5614C39.952 14.7485 39.0982 15.6082 38.9169 15.8772C38.8116 16.0409 38.8935 16.5672 39.0982 16.9649L39.2444 17.2631L38.9344 17.6257C38.7648 17.8187 38.5017 18.1403 38.3555 18.3333C38.0806 18.6959 37.8525 18.924 37.8175 18.883C37.7882 18.8479 37.4958 16.6784 37.3964 15.7602C37.2853 14.7368 37.2327 12.3801 37.297 11.6257C37.3379 11.1637 37.3321 11.0526 37.2677 11.0526C37.2268 11.0526 37.1449 10.9766 37.0923 10.8772C36.9812 10.6842 36.952 10.6784 36.5952 10.7602C36.4607 10.7895 36.0104 10.8772 35.5894 10.9591C35.1742 11.0409 34.6537 11.1579 34.4373 11.2281L34.0514 11.345L34.0806 11.5731C34.1274 11.9123 34.0689 12.0585 33.7707 12.3918L33.5075 12.6901L33.566 13.345C33.642 14.1637 33.6946 15.2047 33.6596 15.2047C33.642 15.2047 33.5835 15.1053 33.5251 14.9883C32.718 13.3509 31.7707 11.9825 31.4432 11.9883C31.3789 11.9942 30.7707 12.1345 30.0923 12.3041L28.8642 12.6199L28.8467 13.0058C28.8291 13.3392 28.8116 13.3918 28.718 13.3918C28.6537 13.3918 28.5718 13.4737 28.5017 13.614C28.4432 13.731 28.3613 13.8304 28.3204 13.8304C28.2794 13.8304 28.18 13.6433 28.0982 13.4035C28.0221 13.1637 27.8993 12.8655 27.835 12.7368C27.718 12.5146 27.7063 12.5029 27.5017 12.5439C27.3847 12.5672 27.1332 12.6316 26.9461 12.6959C26.7005 12.7778 26.5777 12.7953 26.4958 12.7485C26.3204 12.655 25.9578 12.6784 25.759 12.8012C25.6596 12.8596 25.5192 13.0117 25.4432 13.1345C25.2327 13.4854 25.18 13.5146 24.7297 13.4678C24.2619 13.4269 23.9461 13.5263 23.5368 13.8363C23.3964 13.9474 23.2677 14.0351 23.2502 14.0351C23.2093 14.0351 23.2794 13.5789 23.3438 13.4094C23.3672 13.3392 23.4783 13.2339 23.5835 13.1813C23.6888 13.1287 23.9578 12.9532 24.1742 12.7895C24.6011 12.4737 24.6654 12.3099 24.4081 12.193C24.297 12.1462 24.2736 12.0877 24.2736 11.8947C24.2736 11.0585 22.8759 10.9532 22.7239 11.7719C22.6771 12.0058 22.5835 12.0819 22.0104 12.3743C21.7824 12.4912 21.642 12.5322 21.642 12.4912C21.642 12.4503 21.759 12.2515 21.9052 12.0409C22.0514 11.8363 22.1683 11.6199 22.1683 11.5673C22.1683 11.345 22.0221 11.4094 21.6713 11.7895C21.4666 12.0117 21.2853 12.1813 21.2736 12.1637C21.1099 11.9883 20.7707 11.3626 20.7999 11.2865C20.8175 11.2398 20.8701 11.0702 20.9052 10.9064C20.9461 10.7485 21.0631 10.4561 21.1625 10.2632C21.3672 9.87135 21.4139 9.64328 21.3087 9.60819C21.2385 9.5848 21.0514 9.76608 20.7122 10.1754L20.5952 10.3216L20.5894 9.92983C20.5894 9.4269 20.6771 8.75439 20.835 8.10527C20.9403 7.66667 20.9461 7.54387 20.8935 7.3041C20.8058 6.94153 20.8584 6.80118 21.2385 6.38597C21.4022 6.20469 21.5601 6.00001 21.5894 5.92399C21.6946 5.63744 21.3789 5.37428 21.0865 5.50878C20.9052 5.59065 20.7882 5.84212 20.6713 6.38597C20.6245 6.61989 20.5134 6.94738 20.4256 7.11697C20.2794 7.40936 20.2736 7.43276 20.3555 7.70176C20.5309 8.32164 20.4841 8.80702 20.1683 9.54386C20.0163 9.90644 19.8935 9.93568 19.5777 9.70761C19.4022 9.5848 19.2268 9.52047 19.0104 9.49123C18.7648 9.46199 18.6479 9.41521 18.5192 9.28655C18.3555 9.12281 18.3496 9.09942 18.3847 8.731C18.4198 8.38597 18.4022 8.30995 18.2502 7.97077C18.0163 7.462 18.0163 7.36843 18.2794 7.36843C18.3906 7.36843 18.6186 7.42106 18.7882 7.49124C19.0221 7.5848 19.1215 7.5965 19.2268 7.54971C19.4666 7.4386 19.3847 7.24562 19.0046 7.04094L18.9902 7.03282C18.9137 6.98958 18.8571 6.95756 18.8094 6.91537C18.6733 6.79485 18.6106 6.59139 18.3689 5.80674L18.3672 5.80118C18.1625 5.11697 18.1625 4.99416 18.4549 3.92399C18.6362 3.23393 18.6362 3.0351 18.4607 2.64914C18.2502 2.2047 17.9578 2.09943 17.6362 2.35089C17.2151 2.67838 17.1976 3.462 17.6069 3.83042C17.7882 3.99417 17.9578 4.34504 17.9578 4.56142C17.9578 4.76025 17.7765 5.14621 17.5718 5.39767C17.2677 5.76024 17.2502 6.34504 17.5134 6.92983C17.7239 7.38012 17.7122 7.53802 17.4373 7.8772C16.8467 8.63158 15.9987 8.99416 15.4373 8.74269C15.2444 8.65498 15.1274 8.52047 14.7941 8.01755C14.4256 7.45615 14.3906 7.38012 14.3906 7.09942C14.3906 6.83042 14.4081 6.79533 14.5309 6.76024C14.7356 6.70761 14.8467 6.40352 14.7356 6.20469C14.6888 6.12282 14.5894 6.02925 14.5192 5.99416C14.4022 5.94153 14.3906 5.89475 14.3906 5.52633C14.3906 5.09943 14.3321 4.92399 14.221 4.99416C14.1859 5.01756 14.1566 5.21639 14.1566 5.47954C14.1566 5.8772 14.1391 5.93568 14.0104 6.05849C13.9169 6.14621 13.8642 6.25732 13.8642 6.37428C13.8642 6.49124 13.9169 6.60235 14.0104 6.69007C14.1274 6.80118 14.1566 6.88305 14.1566 7.11697C14.1566 7.37428 14.1332 7.43276 13.9344 7.64328C13.7707 7.81287 13.683 7.98246 13.6069 8.25147C13.4432 8.85381 13.3906 8.95322 13.1859 9.04094C13.0748 9.08772 12.9461 9.12281 12.8876 9.12281C12.8291 9.12281 12.7122 9.16375 12.6245 9.20468C12.4724 9.28655 12.4549 9.28071 12.4022 9.17544C12.3672 9.11696 12.297 9.06433 12.2444 9.06433C12.1683 9.06433 12.1625 9.11112 12.1917 9.35088C12.2268 9.60819 12.2151 9.64913 12.0982 9.731C11.8291 9.91813 11.6479 9.83041 11.4373 9.41521C11.3496 9.23977 11.3379 9.10527 11.3672 8.39182C11.3906 7.94153 11.4432 7.40352 11.4958 7.19299C11.5426 6.98246 11.6011 6.64328 11.6186 6.43276C11.6713 5.79533 11.3964 5.462 10.7063 5.3275C10.3028 5.24563 9.98704 5.30995 9.88763 5.49709C9.75897 5.73685 9.8233 6.18714 10.0982 6.97077C10.5426 8.25147 10.5894 8.4503 10.5309 8.76024C10.3379 9.76608 9.77652 10.6374 9.26775 10.7368C9.00459 10.7836 8.87008 10.6667 8.87008 10.386C8.87008 10.152 8.9578 10.0292 9.22096 9.90644C9.48412 9.77778 9.61277 9.49708 9.56014 9.12866C9.51336 8.76024 9.34377 8.59065 8.99874 8.55556C8.81161 8.53802 8.6888 8.56726 8.51921 8.66667C8.16248 8.8772 8.04552 9.07603 8.04552 9.46199C8.05137 9.90059 8.23851 10.2807 8.64201 10.6842C8.91687 10.9532 8.94611 11.0058 8.89348 11.1111C8.72973 11.4211 8.31453 11.3509 8.08061 10.9766C7.93441 10.7368 7.56599 10.3918 7.32623 10.269C6.89932 10.0468 6.81745 10.2632 7.24435 10.4971C7.58938 10.6842 7.77067 10.9532 7.9578 11.5497L8.09816 12L7.92856 12.1403C7.82915 12.2164 7.66541 12.2982 7.56599 12.3158C7.3964 12.3509 7.33792 12.3158 7.03968 12.0468C6.85839 11.8772 6.57184 11.6667 6.40225 11.5731C6.08646 11.3918 5.81161 11.1462 5.2619 10.538C4.99289 10.2456 4.89348 10.1754 4.75313 10.1754C4.56014 10.1754 4.47827 10.2982 4.56014 10.4561C4.58938 10.5146 5.1157 11.0409 5.72973 11.6257C6.33792 12.2164 6.85839 12.7485 6.87593 12.807C6.9578 13.0643 6.47827 13.5205 6.04552 13.6023C5.93441 13.6257 5.69465 13.6082 5.50751 13.5672C5.21511 13.5088 5.14494 13.5088 4.98704 13.5906C4.88178 13.6433 4.74728 13.7836 4.6888 13.9064C4.50166 14.2748 4.47242 14.2807 3.95196 14.0994L3.91604 14.0866C3.15062 13.8128 3.14574 13.8111 3.19757 13.6959C3.22096 13.6433 3.2502 13.4854 3.26775 13.3509C3.28529 13.1403 3.26775 13.0819 3.08646 12.883C2.89348 12.6784 2.85839 12.6608 2.56014 12.6608C2.16248 12.6608 1.94026 12.807 1.8233 13.1462C1.74143 13.3684 1.74728 13.3977 1.88178 13.6667C2.03383 13.9474 2.74728 15.0819 3.19172 15.7368C3.32038 15.924 3.67125 16.3977 3.96365 16.7836C4.2619 17.1696 4.50751 17.538 4.50751 17.6023C4.50751 17.7661 4.25605 17.7544 3.58354 17.5672C3.09231 17.4269 3.02798 17.421 2.94611 17.5029C2.75313 17.6959 3.05137 17.807 3.89348 17.8713C4.49582 17.9181 4.72389 18.0058 4.77652 18.2222C4.82915 18.4269 4.71804 18.7661 4.53675 18.959C4.3964 19.1111 4.3964 19.1169 4.50751 19.152C4.58938 19.1754 4.62447 19.2398 4.62447 19.3567C4.62447 19.4503 4.65371 19.5438 4.68295 19.5614C4.85839 19.6667 4.5543 19.8187 3.91687 19.9415C3.60693 20.0058 3.47827 20.0058 3.27359 19.9474C2.64202 19.7661 2.39055 19.7953 2.25605 20.0643C2.05722 20.4444 2.2502 20.7836 2.71219 20.8596C2.89348 20.8889 2.98704 20.8538 3.32038 20.655C3.75897 20.3859 4.32038 20.1754 4.57184 20.1754C4.6771 20.1754 4.75897 20.2164 4.79991 20.2924C4.88763 20.4503 4.8233 20.5321 4.64786 20.4912C4.50166 20.4561 4.44903 20.5614 4.56599 20.6783C4.59523 20.7076 4.60108 20.7661 4.56599 20.8187C4.52506 20.883 4.46658 20.8655 4.22681 20.7193C3.81161 20.462 3.6888 20.4327 3.6888 20.5789C3.6888 20.6491 3.71219 20.7017 3.73558 20.7017C3.76482 20.7017 3.82915 20.7368 3.88178 20.7778C3.9695 20.8362 3.95196 20.8479 3.74728 20.8479C3.50166 20.8538 3.25605 21.0234 3.18587 21.2397C3.16248 21.3099 3.1157 21.3392 3.05137 21.3158C2.9812 21.2924 2.92857 21.3333 2.87593 21.4386C2.81745 21.5672 2.8233 21.614 2.91102 21.7076C2.9812 21.7836 3.06307 21.8128 3.16248 21.7953C3.24435 21.7778 3.34962 21.7953 3.3964 21.8421C3.44318 21.883 3.56599 21.9415 3.65956 21.9707C3.75897 22 3.84085 22.0702 3.85254 22.1169C3.87009 22.193 3.82915 22.1988 3.58938 22.152C3.17418 22.0643 3.07476 22.0643 3.07476 22.1579C3.07476 22.2164 3.20927 22.269 3.48412 22.3216C3.71219 22.3684 3.91102 22.4269 3.93441 22.4444C4.00459 22.5088 4.09816 23.2982 4.04552 23.3509C3.92856 23.4678 3.14494 23.69 2.9812 23.6549C2.87593 23.6316 2.74143 23.6491 2.63032 23.7076C2.45488 23.7953 2.44903 23.7953 2.30283 23.6257C2.22681 23.5321 2.06307 23.4269 1.94611 23.3918C1.75313 23.3392 1.70049 23.3509 1.46658 23.4971C1.104 23.7193 1.08646 23.9006 1.3964 24.2105C1.6888 24.5029 2.00459 24.538 2.22681 24.2982C2.34377 24.1696 2.37301 24.1637 2.41395 24.2397C2.51921 24.4269 3.01044 24.3041 3.33792 24.0058C3.41979 23.9356 3.60693 23.8011 3.75897 23.7134C3.99289 23.5848 4.03968 23.5731 4.03968 23.6491C4.03968 23.7017 3.92272 23.8304 3.77652 23.9298L3.51336 24.1169L3.63032 24.2397C3.73558 24.3567 3.74143 24.3742 3.65956 24.4444C3.51336 24.5672 3.56014 24.614 3.77652 24.5438C3.9695 24.4854 3.99289 24.4971 4.34377 24.7953C4.54845 24.9707 4.75897 25.1579 4.81161 25.2163C4.94026 25.3392 4.94611 25.6023 4.8233 25.7778C4.74143 25.9006 4.74143 25.9064 4.86424 25.9064C5.1157 25.9064 4.85839 26.076 4.37886 26.228C3.78237 26.4152 3.62447 26.5029 3.42564 26.7368C3.18003 27.0234 3.04552 27.3625 3.04552 27.6959C3.04552 28.3041 3.47242 28.6257 4.57769 28.8538C5.03383 28.9473 5.36716 29.0584 5.65956 29.2105C6.17418 29.4853 6.40225 29.4678 6.74143 29.1228C7.06307 28.8011 7.03968 28.5497 6.65371 28.1462L6.47242 27.9532H6.65956C6.81161 27.9532 6.87009 27.9123 6.96365 27.7661L7.08061 27.5731V27.7368C7.08061 27.9123 7.47242 28.3918 7.67125 28.4503C7.84669 28.5087 7.79991 28.6842 7.56599 28.8362C7.41394 28.9298 7.33792 29.0292 7.32623 29.1345C7.28529 29.462 7.75897 29.6666 7.9812 29.421C8.06892 29.3275 8.08061 29.2456 8.04552 28.9649L8.01044 28.6199L8.5543 28.5555C8.85839 28.5204 9.104 28.5146 9.1157 28.5438C9.15079 28.6374 9.41979 28.6023 9.41979 28.5087C9.41979 28.4152 9.56599 28.3859 9.61862 28.4737C9.6771 28.5614 9.43149 29.731 9.23851 30.2924C9.06307 30.8304 9.06307 30.9941 9.2502 30.9941C9.39055 30.9941 9.47827 30.7777 9.47827 30.4269C9.47827 30.152 9.76482 29.0058 9.835 29.0058C9.91102 29.0058 10.0631 29.4795 10.0631 29.7134C10.0631 29.959 10.1859 30.076 10.3087 29.9532C10.3555 29.9064 10.3438 29.8245 10.2677 29.6491C10.1742 29.4444 10.1683 29.3742 10.2327 29.0994C10.2911 28.8479 10.2853 28.7427 10.221 28.5497L10.1391 28.3099L10.4256 28.2105C10.7414 28.1052 11.0572 28.1345 11.1742 28.2748C11.2385 28.3508 11.221 28.3625 11.0631 28.3625C10.9169 28.3625 10.8525 28.4035 10.7648 28.5555C10.642 28.7485 10.6128 29.0935 10.7005 29.2339C10.7765 29.3508 11.1859 29.2865 11.3847 29.1286L11.5426 29.0058L11.642 29.1637C11.6946 29.2573 11.8701 29.3976 12.0338 29.4912C12.7473 29.8772 13.566 29.538 13.9812 28.6783C14.1215 28.3976 14.1332 27.9649 14.0104 27.8011C13.8876 27.6432 13.8993 27.6199 14.1157 27.5906C14.2151 27.5731 14.3438 27.5438 14.3964 27.5204C14.4666 27.4912 14.5543 27.5497 14.7063 27.7368L14.911 27.9883L14.8175 28.2924C14.7356 28.5438 14.7356 28.6023 14.7999 28.6842C14.8467 28.7427 14.9344 28.7719 15.0163 28.7544C15.1215 28.7368 15.1449 28.7485 15.1215 28.8245C15.0455 29.076 14.987 29.7953 15.0397 29.8947C15.1157 30.0351 15.3204 30.0818 15.5251 30.0058C15.718 29.9298 15.7414 29.9298 15.7239 29.9883C15.718 30.0117 15.7473 30.0877 15.7882 30.1637C15.8292 30.2397 15.8993 30.4327 15.9461 30.5906C15.9929 30.7544 16.0689 30.8947 16.1099 30.9122C16.1625 30.9298 16.2034 31.1111 16.2268 31.4152C16.2736 31.9532 16.4432 32.5204 16.6362 32.7777C16.7414 32.9122 16.759 32.9766 16.7063 33.0526ZM22.9169 29.2573C22.8116 29.3391 22.642 29.4444 22.5368 29.497L22.4991 29.5159C22.4022 29.5648 22.3564 29.5878 22.326 29.5749C22.2988 29.5632 22.2839 29.5227 22.2556 29.4458L22.2444 29.4152C22.1859 29.2573 22.1508 29.2397 21.9403 29.2397C21.759 29.2397 21.6888 29.269 21.642 29.3625C21.6011 29.4269 21.5601 29.4678 21.5426 29.4561C21.5309 29.4386 21.5543 29.3508 21.6011 29.2573C21.6888 29.0877 21.9637 28.8245 22.4841 28.3976C22.6362 28.2748 22.7941 28.0877 22.8291 27.9883C22.8935 27.8245 22.9052 27.8596 22.9344 28.3742C22.952 28.6842 22.9987 28.9766 23.0397 29.0234C23.0982 29.0994 23.0748 29.1403 22.9169 29.2573ZM15.4139 28.4327C15.5134 28.4912 15.5484 28.538 15.5017 28.538C15.4549 28.538 15.3555 28.5555 15.2853 28.5731C15.1449 28.6082 15.1274 28.5789 15.1976 28.4152C15.2327 28.3333 15.2561 28.3333 15.4139 28.4327ZM6.31453 26.959C6.34377 26.959 6.36131 27.0877 6.35547 27.2514C6.33792 27.6608 6.2619 27.69 6.2619 27.2924C6.2619 27.1111 6.28529 26.959 6.31453 26.959ZM29.0748 24.6491L29.1332 24.7953C29.1625 24.8713 29.18 24.9883 29.1742 25.0585C29.1566 25.1696 29.1508 25.1696 29.1099 25.0702C29.0865 25.0117 29.0689 24.8889 29.0748 24.807V24.6491ZM22.9637 24.0994C23.0104 24.1345 23.0455 24.2105 23.0455 24.2631C23.0397 24.3158 23.0046 24.4386 22.9637 24.5321L22.8876 24.7076L22.8525 24.462C22.7999 24.1579 22.8525 24.0058 22.9637 24.0994ZM50.3906 23.8947C50.5309 23.8421 50.718 23.8538 50.683 23.9123C50.642 23.9766 50.297 24.0292 50.297 23.9707C50.297 23.9473 50.3379 23.9123 50.3906 23.8947ZM46.4373 20.8362C46.4373 21.0234 46.4256 21.0409 46.2093 21.076L45.9753 21.1111L45.952 21.421C45.9403 21.5848 45.9286 21.6725 45.9227 21.6023C45.8642 20.9766 45.4607 20.4269 44.9578 20.3041C44.5601 20.1988 44.4198 20.2105 43.1683 20.4678C42.5368 20.5906 41.7063 20.7251 41.3204 20.7544C40.9344 20.7836 40.3438 20.8655 40.0104 20.9357C39.6771 21.0058 39.3847 21.0526 39.3555 21.0409C39.3028 21.0234 40.759 19.2398 40.9578 19.076C41.0338 19.0117 41.0748 19.0117 41.1859 19.0877C41.5484 19.3275 42.5192 19.5263 42.5192 19.3626C42.5192 19.2339 43.1274 18.6608 43.4373 18.4971C44.0806 18.1579 44.3496 18.0994 45.18 18.1052C45.9812 18.1052 46.5543 18.2164 47.0748 18.4737C47.2619 18.5614 47.3613 18.5731 47.5075 18.5322C47.8759 18.4327 48.2093 18.462 48.718 18.6433C49.3145 18.8596 50.1742 19.0175 51.6713 19.1871C52.2853 19.2514 52.7999 19.3216 52.8175 19.3333C52.8818 19.3684 52.7999 19.9649 52.718 20.1052C52.6713 20.1754 52.5952 20.2339 52.5484 20.2339C52.4958 20.2339 52.4607 20.1813 52.4607 20.1052C52.4607 20.0292 52.4081 19.883 52.3438 19.7778L52.221 19.5848L51.5368 19.6199C49.5368 19.7251 47.0397 20.0175 46.7239 20.1813C46.5894 20.2514 46.4373 20.5965 46.4373 20.8362ZM28.747 17.7809C28.7639 18.0687 28.7765 18.2833 28.7765 18.3216C28.7765 18.3801 28.7297 18.421 28.6596 18.421C28.5484 18.421 28.5426 18.3918 28.5777 17.9415C28.5952 17.6725 28.5835 16.9824 28.5484 16.4035C28.5192 15.8246 28.5134 15.3275 28.5426 15.3041C28.566 15.2748 28.6069 15.4971 28.6245 15.8012C28.642 16.0994 28.683 16.7661 28.718 17.2807C28.7281 17.4578 28.7382 17.6296 28.747 17.7809ZM3.9578 14.5731C3.90517 14.6023 3.86424 14.6784 3.86424 14.7368C3.86424 14.7842 3.86424 14.8149 3.84889 14.8304C3.82068 14.859 3.74062 14.8363 3.51336 14.7719C3.13324 14.6667 2.87593 14.5322 2.57769 14.269L2.31453 14.0409L2.5309 14.0351C2.64786 14.0351 2.81161 14.0117 2.89348 13.9766C3.01044 13.9357 3.09231 13.9532 3.30283 14.0702C3.44903 14.152 3.58354 14.269 3.60693 14.3392C3.63617 14.4327 3.6771 14.4503 3.81161 14.421C3.99874 14.386 4.104 14.4912 3.9578 14.5731ZM23.6596 12.7193L23.3964 12.9006C23.1215 13.0877 22.7824 13.2281 22.7356 13.1754C22.7063 13.152 22.759 12.9825 22.8993 12.5848C22.9227 12.5263 22.952 12.5263 23.0572 12.5848C23.1332 12.6199 23.297 12.6667 23.4256 12.6901L23.6596 12.7193ZM17.4487 31.9826C17.6475 32.082 17.9574 32.1989 18.1329 32.2457C18.5715 32.3627 19.7469 32.3627 20.3551 32.2457C20.9925 32.1288 21.7879 31.8597 22.4428 31.5498L22.9867 31.2925V29.8831L22.8405 29.9416C22.7645 29.9708 22.5481 30.0761 22.361 30.1697C21.9048 30.4036 21.7528 30.4328 21.4077 30.3509C20.8112 30.2106 20.6767 29.7837 21.0101 29.117C21.2381 28.6609 21.9282 27.9474 22.2498 27.8304L22.4721 27.7486L22.4428 26.6667C22.4136 25.4503 22.3434 25.076 22.0276 24.5614C21.8112 24.2105 21.4545 23.9532 20.8873 23.7426C20.4955 23.5906 20.3317 23.5847 19.3902 23.6725C17.5188 23.8538 16.8814 24.0994 16.5715 24.7719C16.3668 25.2281 16.3434 25.7251 16.4896 26.7135C16.5539 27.1755 16.6533 28.1462 16.7001 28.8772C16.7937 30.1931 16.9048 31.1463 17.0218 31.5849C17.0744 31.7779 17.127 31.8305 17.4487 31.9826ZM24.2494 31.4503C24.2318 31.4094 24.2084 31.1345 24.1909 30.8363C24.1734 30.538 24.0272 29.4211 23.8693 28.3509C23.612 26.6316 23.3839 24.3217 23.4599 24.2398C23.5359 24.1638 24.647 24.0293 25.6353 23.9766C27.4248 23.8772 28.4658 23.807 28.5652 23.7661C28.647 23.7369 28.6587 23.7836 28.6587 24.0702C28.6587 24.2632 28.6997 24.6667 28.7465 24.9708C28.8517 25.6725 28.8634 26.6316 28.764 26.7135C28.6997 26.7602 27.8517 26.9766 27.2143 27.1053C27.0447 27.1404 27.0155 27.1813 26.9336 27.4445C26.8283 27.8012 26.8225 27.9064 26.916 28C27.0272 28.1111 27.2318 28.0819 27.5476 27.924C27.7055 27.8421 27.8751 27.7778 27.9277 27.7778C28.0389 27.7778 28.1909 28.1111 28.1909 28.3626C28.1909 28.5146 28.1558 28.5556 27.9862 28.6316C27.8751 28.6725 27.6938 28.7135 27.5886 28.7135C27.4775 28.7135 27.3605 28.7485 27.3254 28.7895C27.2318 28.9064 27.1851 29.2105 27.2318 29.4386C27.2726 29.6834 27.2844 29.6842 28.0138 29.7363L28.0213 29.7368L28.5242 29.7778L28.5593 30.0468L28.5676 30.1018L28.5807 30.1905L28.5809 30.1917C28.5992 30.3161 28.6188 30.4493 28.6353 30.5322L28.6704 30.7368L28.2026 30.807C27.9453 30.8479 27.3956 30.9766 26.9862 31.0877C26.571 31.2047 26.0096 31.345 25.7348 31.4094C25.1558 31.538 24.2786 31.5614 24.2494 31.4503ZM30.5596 27.2807C30.7233 28.1988 30.7759 28.6725 30.8052 29.4912L30.8403 30.538L31.1093 30.4971C31.2555 30.4795 31.618 30.386 31.9046 30.2924C32.197 30.2047 32.5303 30.1111 32.6531 30.0877C32.7759 30.0643 32.8929 30.0059 32.9163 29.9532C32.9338 29.9064 32.9046 29.5907 32.8461 29.2632C32.7701 28.807 32.7584 28.6316 32.811 28.5439C32.8461 28.4737 32.8929 28.4211 32.9221 28.4211C33.0157 28.4211 33.466 28.7836 34.0507 29.3275C34.4309 29.6784 34.694 29.8831 34.7759 29.8831C35.0507 29.8831 35.7817 29.7135 36.232 29.5439C36.9688 29.2632 37.8109 28.9357 37.8226 28.924C37.8285 28.9181 37.77 28.5614 37.694 28.1345C37.6121 27.7076 37.4659 26.7719 37.3723 26.0526C37.1735 24.5731 37.0098 23.6374 36.8402 22.9532C36.7232 22.4912 36.5536 21.9181 36.5186 21.8772C36.5127 21.8714 36.1267 21.9825 35.6706 22.1345L34.8461 22.4094L34.8753 23.386C34.8987 24.2105 34.9279 24.4328 35.0566 24.8714C35.2262 25.4328 35.3782 25.7719 35.6004 26.0643C35.7583 26.2807 35.7349 26.3626 35.4601 26.614L35.4173 26.6521C35.2618 26.7905 35.1856 26.8584 35.1109 26.8567C35.0393 26.8552 34.9691 26.7896 34.8315 26.6612L34.7934 26.6257C34.6297 26.4737 34.1852 25.9649 33.8168 25.4971C32.8695 24.3041 32.5478 23.9415 32.1151 23.5907L32.1104 23.5867C31.7466 23.2865 31.74 23.2811 31.5537 23.3626C31.4484 23.4035 31.2087 23.4737 31.0157 23.5088C30.8286 23.5497 30.5362 23.6316 30.3666 23.6959L30.0566 23.8129L30.0917 24.1988C30.1502 24.7836 30.3315 25.9708 30.5596 27.2807ZM41.5654 28.6316C41.5479 28.5848 41.4777 28.193 41.4075 27.7661C41.1385 26.0702 41.0333 25.6842 40.6941 25.1813C40.4251 24.7661 40.2906 24.6959 39.9514 24.7954C39.4426 24.9357 39.3783 24.9357 39.1794 24.772C39.08 24.6901 38.9631 24.6199 38.9221 24.6199C38.8753 24.6199 38.8227 24.5263 38.7993 24.4035C38.7759 24.2807 38.6473 23.8597 38.5069 23.4679C38.3724 23.0819 38.2379 22.6375 38.2204 22.4913C38.1677 22.1579 38.2789 21.655 38.4134 21.6141C38.8227 21.4912 44.8228 20.7369 45.0157 20.7895C45.0976 20.807 45.2438 20.9065 45.3374 21.0059L45.507 21.193L45.4894 22.4445C45.4877 22.5521 45.4865 22.6511 45.4854 22.7422C45.4778 23.3633 45.4746 23.6195 45.3459 23.7634C45.2556 23.8645 45.1033 23.9103 44.8442 23.9882C44.791 24.0042 44.7332 24.0215 44.6707 24.041C43.5128 24.3977 43.3549 24.8129 43.7116 26.5439C43.8812 27.3568 43.9105 28.2807 43.7701 28.4211C43.7175 28.4737 42.852 28.6024 41.9865 28.6784C41.6765 28.7076 41.5888 28.696 41.5654 28.6316ZM47.0099 25.4971C47.0801 26.4152 47.1561 27.3041 47.1736 27.4795L47.2087 27.7953L48.121 27.7602C49.1269 27.7252 49.7234 27.6082 50.6357 27.2515C51.2907 27 51.314 26.9708 51.2673 26.4678C51.2205 25.9298 51.1678 25.8889 50.583 25.9415L50.1386 25.9766L49.9807 25.6667C49.8988 25.4971 49.8286 25.2749 49.8286 25.1696V25.1633C49.8286 25.0991 49.8286 25.0561 49.8475 25.0245C49.8855 24.9609 50.0002 24.943 50.3455 24.8891L50.3842 24.8831C50.7059 24.8363 50.9222 24.7427 50.9632 24.6374C50.9924 24.5731 50.9749 24.5614 50.8988 24.5907C50.8404 24.614 50.6357 24.6433 50.4427 24.6608L50.086 24.6901L49.9281 24.3801C49.7234 23.9649 49.7234 23.7895 49.9456 23.6082C50.1152 23.462 50.2439 23.4269 51.1445 23.2749C51.3667 23.2398 51.6474 23.1579 51.7585 23.0936C51.9456 22.9883 51.9632 22.9532 51.9456 22.7778C51.9339 22.6725 51.9515 22.0351 51.9866 21.3684C52.0275 20.7018 52.0392 20.1462 52.0217 20.1287C51.9515 20.0585 50.1737 20.1111 49.4485 20.2047C48.5479 20.3217 47.0157 20.6257 46.9339 20.7076C46.8228 20.8187 46.8695 23.7018 47.0099 25.4971ZM56.2379 26.772C56.08 26.5322 55.9805 26.2339 55.8519 25.6141C55.7232 25.0059 55.5887 24.655 55.3958 24.3977L55.2905 24.2573L55.1034 24.4152C54.8811 24.6024 54.7993 24.8655 54.7993 25.4152C54.7993 25.8246 54.7934 25.8421 54.5829 26.0234C54.2729 26.2983 53.9455 26.4328 53.5653 26.4328H53.2379L53.1677 26.0994C52.9572 25.0351 52.9513 23.6959 53.1618 21.5205C53.1964 21.1508 53.235 20.7485 53.2657 20.4293L53.2658 20.4275L53.2661 20.4252C53.2871 20.2059 53.3044 20.0262 53.3139 19.924L53.349 19.4678L53.6063 19.2924C54.4542 18.7134 55.9221 18.4211 57.0098 18.6199C58.5536 18.8947 59.308 19.8655 59.0683 21.269C59.0039 21.6784 58.9922 21.7018 58.577 22.117C58.1501 22.5556 57.6648 22.8597 57.2145 22.9766C57.0741 23.0176 56.963 23.0819 56.963 23.1228C56.963 23.2807 57.2145 24.0117 57.3841 24.3567C57.6121 24.8129 58.0975 25.5439 58.4776 26.0176C58.6414 26.2222 58.7759 26.4094 58.7759 26.4386C58.7759 26.5205 58.4191 26.7369 58.1501 26.8187C57.9805 26.8714 57.5946 26.9006 57.1034 26.9006C56.3607 26.9006 56.3197 26.8948 56.2379 26.772ZM13.1912 22.7485C13.4017 23.4386 13.5889 24.0409 13.6006 24.076L13.6019 24.0798C13.605 24.0887 13.6078 24.0965 13.6123 24.1032C13.6461 24.153 13.7779 24.1362 14.8944 23.9943L15.0333 23.9766C16.5304 23.7836 16.5655 23.7719 16.8929 23.5263C17.121 23.3567 17.197 23.269 17.197 23.1521C17.197 22.8538 17.431 22.0936 17.6473 21.6784C17.9222 21.1579 18.5947 20.4737 19.1444 20.1521C19.431 19.9883 19.5362 19.8947 19.5362 19.8012C19.5362 19.579 19.1035 18.2456 19.0275 18.2456C18.9865 18.2456 18.8052 18.2866 18.6181 18.3333C18.4368 18.3801 18.1327 18.4211 17.9397 18.4211C17.6064 18.4211 17.6005 18.4152 17.5128 18.2164C17.4719 18.1053 17.431 17.8947 17.431 17.7485C17.431 17.5263 17.466 17.4503 17.6415 17.2515C17.9222 16.9415 18.5304 16.7193 19.583 16.5497L20.0041 16.4795V16C20.0041 15.269 19.8929 13.7193 19.7935 13.0994C19.7 12.4854 19.4894 11.6491 19.4193 11.6082C19.3959 11.5965 19.1853 11.6374 18.9456 11.7018C18.6181 11.7895 11.583 13.5263 10.776 13.7135C10.6766 13.7368 10.6532 13.7778 10.6766 13.8772C10.6831 13.9165 10.7153 14.0638 10.7588 14.2628C10.793 14.4194 10.8342 14.608 10.8754 14.8012C11.1737 16.1462 11.6064 17.7193 12.2204 19.6491C12.4417 20.3451 12.7155 21.2237 12.9353 21.929C13.0351 22.2489 13.1237 22.5332 13.1912 22.7485ZM24.1854 22.2515C24.1562 22.2456 23.9749 22.2047 23.7936 22.1638C23.6065 22.1287 23.4544 22.0644 23.4544 22.0293C23.4544 21.9883 23.3609 21.8421 23.2497 21.7018C22.9807 21.3684 22.9456 21.2106 23.0685 20.8831C23.1211 20.7369 23.162 20.5673 23.162 20.5088C23.162 20.3743 23.01 20.076 22.8228 19.8538C22.6123 19.6024 22.4778 19.2515 22.3667 18.6667C22.2673 18.1579 22.2731 17.2281 22.3784 15.6082L22.4193 15.0468L22.8404 15.0117C23.0743 14.9883 23.3316 14.9474 23.4135 14.9182L23.5655 14.8597V16.3041C23.5597 18.9591 23.8755 20.1345 24.6123 20.1345C24.9456 20.1345 25.1562 20.0059 25.3258 19.7076C25.4661 19.462 25.472 19.3977 25.4661 18.6258C25.4661 18.0527 25.4135 17.4854 25.2965 16.7252C25.2088 16.1287 25.1211 15.2866 25.1094 14.848L25.0802 14.0527L25.5363 13.8889C25.7936 13.8012 26.2848 13.6141 26.6416 13.4737C26.9924 13.3392 27.2907 13.2339 27.3024 13.2456C27.3492 13.2924 27.7176 15.2339 27.8111 15.9182C27.8696 16.3158 27.9281 17.2106 27.9398 17.924C27.9807 19.6784 27.8404 20.6375 27.3901 21.6491L27.3783 21.6756C27.3332 21.7772 27.3015 21.8485 27.2514 21.9027C27.1333 22.0306 26.9128 22.0639 26.1728 22.1755L26.0568 22.193C25.548 22.269 24.3609 22.3041 24.1854 22.2515ZM29.5599 16.2749C29.5657 19.4386 29.5248 20.5965 29.3845 21.2983L29.3494 21.462L29.6067 21.3685C29.747 21.3217 30.2149 21.2281 30.6476 21.1638L30.8099 21.1403C31.3956 21.0557 31.5685 21.0308 31.6007 20.9499C31.6142 20.916 31.603 20.8722 31.5871 20.8102L31.5833 20.7952L31.5774 20.772C31.4839 20.3743 31.554 19.1755 31.6944 18.6726L31.747 18.5088L32.0862 18.8655C32.326 19.1053 32.5482 19.4386 32.8055 19.9182C32.9366 20.1617 33.0562 20.382 33.1264 20.5114L33.1828 20.6154L33.1915 20.6316C33.1973 20.6375 33.3728 20.6082 33.5774 20.5614C33.7821 20.5147 34.2967 20.4445 34.7119 20.4094C36.0745 20.2983 36.6944 20.1287 36.9576 19.7895C37.2149 19.462 37.2149 19.2164 36.9692 18.3041C36.8055 17.6959 36.7353 16.655 36.671 13.8831C36.6418 12.579 36.6067 11.4971 36.595 11.4854C36.5833 11.4737 36.2207 11.5029 35.788 11.5497L35.6179 11.5701L35.4876 11.5857C34.8526 11.6611 34.6905 11.6804 34.6388 11.7662C34.6211 11.7956 34.6163 11.8329 34.6099 11.8828C34.6074 11.9023 34.6047 11.9237 34.6008 11.9474C34.519 12.4854 34.4956 14.6082 34.5657 15.3801C34.6885 16.7837 34.6944 17.0936 34.6125 17.2456C34.4546 17.5439 34.2441 17.4211 34.1564 16.9766C34.0745 16.5147 33.7997 16.0234 32.6593 14.2924C32.0804 13.4211 31.5833 12.6608 31.554 12.6024C31.4956 12.5029 31.478 12.5029 31.1973 12.5965C30.9751 12.6667 29.8698 12.8538 29.5891 12.8655C29.5716 12.8655 29.5599 14.3977 29.5599 16.2749ZM41.706 18.7076C41.2966 18.4737 40.6826 17.848 40.1095 17.0877C39.7293 16.5848 39.6533 16.4503 39.6533 16.269C39.6533 15.9532 39.858 15.6959 40.5305 15.1521C41.0627 14.7252 41.1446 14.6784 41.3668 14.6784C41.6533 14.6784 41.934 14.8012 42.4545 15.1345C42.8288 15.3801 43.0451 15.4445 43.0451 15.31C43.0393 15.1345 42.8112 14.7485 42.589 14.5497C42.2674 14.2632 41.9282 14.0936 41.5773 14.0526C41.3375 14.0234 41.2908 14 41.3258 13.924C41.4077 13.7544 41.4194 12.4035 41.3492 11.7953C41.3141 11.4678 41.1796 10.5556 41.0568 9.76609C40.6943 7.49709 40.6299 6.89475 40.665 5.79533C40.6884 4.77194 40.7586 4.40352 41.0276 3.81288C41.3258 3.15791 42.0393 2.61405 42.706 2.53802C44.0627 2.38013 45.7878 3.94738 45.9457 5.49124L45.9808 5.81872L45.6475 6.22808C44.4487 7.68422 44.1036 8.76609 44.4545 9.91814C44.8639 11.2456 46.3668 13.3743 48.2206 15.2398C49.5422 16.5731 50.3668 17.1345 50.9984 17.1345C51.4253 17.1345 52.1387 16.9532 52.6066 16.7193C52.9048 16.5731 53.6534 16.0409 54.3668 15.4737C54.5013 15.3626 54.5072 15.3626 54.6183 15.462C54.9516 15.7661 54.9867 16.386 54.7411 17.4971C54.6651 17.848 54.6241 18.1462 54.6475 18.1696C54.7352 18.2573 55.1914 17.6901 55.32 17.3392C55.4662 16.9532 55.5364 16.3275 55.4779 16.0059C55.4545 15.8772 55.3317 15.6667 55.1797 15.4854C55.0335 15.3216 54.9165 15.1638 54.9165 15.1404C54.9165 15.117 55.0101 15.0643 55.127 15.0293C55.3902 14.9415 55.7703 14.9883 56.3083 15.1755C56.8814 15.3743 57.1972 15.4211 57.1972 15.3041C57.1972 15.0936 56.899 14.8538 56.4779 14.7252C55.8873 14.538 55.2206 14.5497 54.589 14.7602C54.0686 14.924 53.8288 15.0819 53.1387 15.6901C52.3376 16.3918 51.7001 16.5965 50.8697 16.4094C49.9574 16.2047 49.1095 15.655 48.0686 14.5848C47.0335 13.5205 46.0335 12.2222 45.5305 11.3158C44.6884 9.78364 44.9633 8.32165 46.4487 6.47369C46.8346 5.99416 48.858 3.78948 49.3376 3.3275C50.782 1.94738 52.3727 1.28656 54.2674 1.28656C56.1504 1.28656 57.7352 1.91814 58.8873 3.12867C59.3844 3.65498 59.6358 4.07019 60.5306 5.85381C61.0686 6.92984 61.244 7.35089 61.3434 7.7544C61.5306 8.56141 61.6007 9.54972 61.5657 10.7602C61.513 12.5965 61.2323 13.7602 60.5013 15.2339C60.051 16.1404 59.554 16.8187 58.8405 17.4971C58.554 17.7719 58.2791 18.0936 58.2265 18.2047L58.1446 18.4094L57.7411 18.2632C57.1388 18.0351 56.4136 18.0526 55.1212 18.3333C53.2031 18.7486 51.6767 18.6842 48.5715 18.0702C48.0919 17.9708 47.2732 17.8187 46.7586 17.7252C45.8756 17.5614 45.8171 17.5439 45.6709 17.3743L45.5247 17.193H43.8054L43.7235 16.9883C43.6124 16.7193 43.4837 16.7252 43.396 17.0059C43.203 17.6024 42.6826 18.3918 42.2615 18.731C42.1504 18.8187 42.051 18.8889 42.0393 18.8889C42.0276 18.8889 41.8814 18.807 41.706 18.7076Z" fill="white"/>
<path d="M22.0747 4.8012C21.5133 4.54389 21.2911 3.84213 21.6069 3.30997C21.835 2.924 22.104 2.7778 22.6128 2.7778C22.9636 2.7778 23.063 2.80119 23.2677 2.94154C23.9519 3.39184 23.8935 4.42108 23.1625 4.79535C22.8701 4.9474 22.3964 4.9474 22.0747 4.8012Z" fill="white"/>
<path d="M8.14464 8.17547C8.1037 8.13454 8.07446 8.05267 8.07446 7.98249C8.07446 7.91231 8.1037 7.83044 8.14464 7.78951C8.18558 7.74857 8.26745 7.71933 8.33762 7.71933C8.4078 7.71933 8.48967 7.74857 8.53061 7.78951C8.57154 7.83044 8.60078 7.91231 8.60078 7.98249C8.60078 8.05267 8.57154 8.13454 8.53061 8.17547C8.48967 8.21641 8.4078 8.24565 8.33762 8.24565C8.26745 8.24565 8.18558 8.21641 8.14464 8.17547Z" fill="white"/>
<path d="M21.3847 9.16375C21.3145 9.11112 21.2853 9.02925 21.3028 8.8889C21.3204 8.70762 21.3379 8.68422 21.5134 8.66668C21.759 8.64329 21.876 8.73685 21.876 8.95323C21.876 9.20468 21.6011 9.32164 21.3847 9.16375Z" fill="white"/>
<path d="M28.4254 10.4269C28.0511 10.2924 27.9576 9.85382 28.2324 9.52633C28.6593 9.02342 29.5891 8.98248 29.7587 9.46786C29.8406 9.69008 29.7938 9.87136 29.6008 10.0819C29.326 10.386 28.7646 10.5497 28.4254 10.4269Z" fill="white"/>
<path d="M0.910887 14.2748C0.694513 14.4035 0.659425 14.4737 0.782232 14.5205C0.998606 14.614 1.20328 14.4327 1.25592 14.0994C1.3027 13.807 1.20328 13.5965 0.928431 13.3626C0.665273 13.1404 0.659425 13.2632 0.905039 13.6667C1.022 13.8538 1.11557 14.0409 1.11557 14.0819C1.11557 14.1228 1.022 14.2105 0.910887 14.2748Z" fill="white"/>
<path d="M1.84045 17.6609C1.67671 17.5965 1.52466 17.3802 1.52466 17.2047C1.52466 17.1287 1.60653 16.9883 1.7001 16.8889C1.85799 16.731 1.91062 16.7135 2.127 16.7427C2.4194 16.7837 2.57729 16.9532 2.57729 17.2164C2.57144 17.5907 2.20887 17.8129 1.84045 17.6609Z" fill="white"/>
<path d="M2.14496 19.3801C2.02215 19.2573 2.028 19.1053 2.15666 18.9883C2.29701 18.8597 2.4783 18.8655 2.59526 18.9942C2.72391 19.1345 2.71806 19.2573 2.58941 19.3743C2.45491 19.4971 2.26192 19.5029 2.14496 19.3801Z" fill="white"/>
<path d="M1.36708 22.1053C1.14486 22.0117 1.03375 21.6258 1.1741 21.4035C1.20919 21.3451 1.19749 21.2866 1.14486 21.2281C1.10392 21.1813 1.05714 21.0643 1.04544 20.9708C1.0279 20.8187 1.05129 20.7895 1.21504 20.7427C1.44895 20.6725 1.58346 20.7661 1.58346 20.9942C1.58346 21.117 1.61854 21.1638 1.72965 21.193C1.95772 21.2515 2.10977 21.4386 2.10977 21.655C2.10392 22.0351 1.7472 22.2574 1.36708 22.1053Z" fill="white"/>
<path d="M65.7062 26.2925C65.5951 26.1229 65.5308 25.696 65.4489 24.5907C65.4021 24.0234 65.3319 23.5731 65.2091 23.1287C65.1039 22.7369 65.0337 22.3451 65.0337 22.1228C65.0337 21.7778 65.0454 21.7544 65.1682 21.7544C65.2384 21.7544 65.4255 21.6608 65.5834 21.5497C65.8992 21.3275 66.1097 21.2866 66.174 21.4503C66.1916 21.503 66.2267 21.772 66.2384 22.0468C66.2559 22.3217 66.2793 22.6316 66.2969 22.7427L66.3261 22.9416L66.484 22.7076C66.7472 22.3217 67.7589 21.1696 67.8349 21.1696C67.8524 21.1696 67.9051 21.2222 67.946 21.2866C68.0045 21.386 67.9986 21.4445 67.8758 21.6842C67.7998 21.8363 67.6127 22.117 67.4606 22.31C67.1858 22.6609 66.9343 23.0878 66.9811 23.1345C66.9928 23.1462 67.1741 23.0819 67.3846 22.9883C67.8875 22.7544 68.2618 22.6667 68.5074 22.7135C68.6828 22.7486 68.7238 22.7837 68.7764 22.9708C68.8641 23.3041 68.8466 23.9884 68.7179 24.7954C68.6536 25.1989 68.601 25.6375 68.601 25.772C68.601 26.0118 68.601 26.0176 68.3554 26.0527C68.215 26.0761 67.9577 26.0819 67.7823 26.0702L67.4606 26.0527L67.4197 25.8188C67.3963 25.6901 67.3787 25.1989 67.3787 24.7252L67.3729 23.8655L67.1741 23.8246C66.9167 23.7778 66.6477 23.8363 66.5366 23.965C66.4606 24.0527 66.4606 24.1112 66.5542 24.4796C66.6127 24.7135 66.6828 25.1755 66.7062 25.5205C66.7413 26.1053 66.7413 26.1404 66.636 26.1404C66.5717 26.1404 66.4197 26.2047 66.291 26.2866C65.9928 26.4679 65.8232 26.4738 65.7062 26.2925Z" fill="white"/>
<path fill-rule="evenodd" clip-rule="evenodd" d="M61.8174 27.0585L61.5542 26.9883L61.56 26.4035C61.5717 25.7486 61.7062 25.2456 62.0805 24.503L62.2852 24.0936H62.5484C62.6945 24.0936 62.9109 24.1345 63.022 24.1813L63.2326 24.269L63.1975 24.0761C63.1799 23.9766 63.1331 23.6784 63.0981 23.4211C63.0454 23.041 62.9343 22.6959 62.7706 22.3918C62.7589 22.3743 62.9343 22.2749 63.1565 22.1755C63.6244 21.9649 64.3027 21.8187 64.3963 21.9123C64.4255 21.9415 64.4782 22.1228 64.5074 22.3158C64.56 22.6316 64.7823 25.3685 64.8174 26.0468L64.8291 26.3275L64.3495 26.5907C64.0864 26.731 63.6945 26.9006 63.4723 26.965C62.9753 27.1111 62.1682 27.1579 61.8174 27.0585ZM63.3554 26.538C63.4606 26.4854 63.484 26.1287 63.408 25.6199C63.3671 25.3685 63.3554 25.3568 63.1039 25.2924C62.5425 25.1462 62.3554 25.1404 62.3203 25.2456C62.256 25.4445 62.1098 26.5147 62.1448 26.5439C62.256 26.655 63.1331 26.6492 63.3554 26.538Z" fill="white"/>
<path d="M13.9342 29.4621C13.8114 29.3393 13.8523 29.1229 14.0161 29.0644C14.2441 28.9766 14.402 29.0878 14.3786 29.3159C14.3611 29.4738 14.3377 29.503 14.1857 29.5206C14.0862 29.5323 13.9751 29.503 13.9342 29.4621Z" fill="white"/>
<path d="M2.05125 36.3275C2.2033 36.8655 2.79394 37.4503 3.36119 37.6257C3.81149 37.7661 4.50739 37.7193 4.92845 37.5322C5.3495 37.3392 5.74716 36.9707 5.9226 36.6199C6.03956 36.386 6.0571 36.2573 6.0571 35.7017V35.0585L6.37874 35.1696C6.64774 35.2573 6.81734 35.269 7.37289 35.2456C7.74131 35.2281 8.09219 35.1988 8.15067 35.1754C8.25008 35.1345 8.25008 35.1462 8.13897 35.3567C7.86412 35.8655 8.06295 36.538 8.56003 36.7778C9.44307 37.2047 10.4489 36.4795 10.1858 35.6082C10.0396 35.1228 9.64692 34.8362 9.12061 34.8304C8.79978 34.8246 8.79401 34.8245 8.87582 34.7018C8.99862 34.5088 9.22084 34.4795 9.46061 34.6199C9.70038 34.7602 9.85827 34.7661 10.1448 34.6491C10.4782 34.5088 10.5483 34.345 10.5074 33.8421C10.4665 33.3684 10.4957 33.2924 10.7764 33.1579C10.9577 33.0702 10.9694 33.0526 10.9694 32.7427C10.9694 32.5146 10.9986 32.3918 11.0746 32.3158C11.2091 32.1813 11.2033 31.9591 11.0571 31.8129C10.8583 31.614 10.7881 31.6433 10.4548 32.0643C10.1097 32.4912 10.0396 32.5088 9.82903 32.2105C9.72962 32.0702 9.50155 31.8655 9.31441 31.7544C8.85242 31.4678 8.79394 31.3216 8.91675 30.7953C8.97523 30.5673 9.03371 30.269 9.05125 30.1345C9.08049 29.8889 9.08049 29.8831 8.89921 29.8831C8.75301 29.8831 8.69453 29.924 8.57757 30.1053C8.40213 30.3801 8.26763 30.5029 8.01032 30.6082C7.79394 30.6959 7.54833 30.6784 7.54833 30.5673C7.54833 30.3743 7.14482 30.1988 7.05125 30.3509C6.98693 30.4503 6.75301 30.4152 6.6419 30.2924C6.57172 30.2164 6.47231 30.1755 6.38459 30.1871C6.25008 30.2047 6.23254 30.2281 6.23254 30.4503C6.23254 30.9415 5.75301 31.1111 5.15067 30.8304C4.82318 30.6725 4.53079 30.6667 4.29102 30.8187C4.03956 30.9708 3.93429 31.1404 3.85827 31.5322C3.79979 31.8187 3.80564 31.8889 3.89921 32.0819C3.96938 32.2164 4.09219 32.345 4.22084 32.4094C4.33195 32.4678 4.50739 32.5965 4.60096 32.6959C4.75886 32.8597 4.77055 32.9123 4.79394 33.4035L4.81149 33.9298L4.6185 33.883C4.50739 33.8538 4.20915 33.8304 3.94599 33.8363C3.55418 33.8363 3.41967 33.8655 3.14482 34C2.71792 34.2047 2.31441 34.6023 2.13897 34.9883C1.98108 35.3216 1.94014 35.924 2.05125 36.3275Z" fill="white"/>
<path d="M7.45454 39.4679C7.34927 39.4386 7.25571 39.3801 7.23816 39.3334C7.20307 39.2398 7.43699 38.4912 7.5715 38.2865C7.62998 38.2047 7.71769 38.1228 7.77033 38.0994C7.90483 38.0526 8.64752 38.1871 8.72355 38.2807C8.82881 38.4093 8.84635 38.7427 8.75863 38.9591C8.68261 39.1462 8.62413 39.1813 8.16799 39.3509C7.88729 39.4503 7.65337 39.5322 7.64752 39.5263C7.6446 39.5263 7.62122 39.519 7.58615 39.5081C7.55106 39.4971 7.50426 39.4825 7.45454 39.4679Z" fill="white"/>
<path d="M7.63023 37.3275C7.36123 37.2749 7.43725 36.8479 7.75304 36.6432C7.8817 36.5555 7.94018 36.5497 8.07468 36.6082C8.35538 36.7251 8.42556 37.1345 8.19164 37.2807C8.10392 37.3392 7.78813 37.3626 7.63023 37.3275Z" fill="white"/>
<path d="M19.9049 35.9006C19.9926 36.3216 20.1973 36.7368 20.3786 36.8479C20.478 36.9064 20.5774 36.959 20.5949 36.959C20.7294 36.959 21.244 36.731 21.4195 36.5906C21.6534 36.4035 21.7352 36.2397 21.7762 35.8538C21.8054 35.614 21.7937 35.5848 21.5247 35.3216C21.0686 34.8596 20.7002 34.8128 20.2616 35.1579C20.0569 35.3216 19.8698 35.7134 19.9049 35.9006Z" fill="white"/>
<path d="M15.2092 35.9883C15.1215 35.7661 15.1391 35.5205 15.2443 35.4153C15.4022 35.2574 16.3613 35.3217 16.4666 35.4971C16.5134 35.5673 16.18 36.0585 16.0572 36.1052C16.0046 36.1228 15.8057 36.1403 15.6128 36.1403C15.2911 36.1403 15.2619 36.1286 15.2092 35.9883Z" fill="white"/>
<path d="M14.2228 33.0913C14.1827 33.1271 14.1785 33.203 14.1684 33.3802L14.1509 33.6843H14.5018C14.8234 33.6843 14.8585 33.6668 15.0047 33.4972L15.1684 33.3042L14.8819 33.1755C14.7123 33.0936 14.5076 33.0469 14.3906 33.0527C14.303 33.0602 14.2529 33.0645 14.2228 33.0913Z" fill="white"/>
<path d="M12.1856 33.2106C12.0336 33.0585 12.2909 32.766 12.5131 32.8362C12.6301 32.8713 12.7061 33.0585 12.6535 33.193C12.6184 33.2924 12.2792 33.3041 12.1856 33.2106Z" fill="white"/>
<path d="M2.44878 32.5848C2.22071 32.6082 2.09205 32.848 2.22656 33.0059C2.31428 33.117 2.64176 33.1287 2.74118 33.0293C2.83475 32.9357 2.8289 32.7193 2.72948 32.6374C2.6827 32.5965 2.55404 32.5731 2.44878 32.5848Z" fill="white"/>
<path d="M14.0749 31.2749C13.9521 31.1053 13.9579 30.9767 14.0866 30.8597C14.2152 30.7428 14.5135 30.7311 14.6129 30.8305C14.6538 30.8714 14.6831 30.9825 14.6831 31.0819C14.6831 31.3159 14.5895 31.4036 14.3556 31.4036C14.2211 31.4036 14.1334 31.3626 14.0749 31.2749Z" fill="white"/>
<path d="M14.0162 29.9766C13.8934 30.0936 13.8993 30.1521 14.0396 30.2924C14.18 30.4328 14.2092 30.4328 14.3788 30.3158C14.5367 30.2047 14.5484 30.0234 14.3963 29.9415C14.2385 29.8597 14.1215 29.8655 14.0162 29.9766Z" fill="white"/>
<path d="M60.1802 25.9474C60.186 26.4445 60.2621 26.8422 60.3615 26.9065C60.4083 26.9357 60.496 26.9474 60.5603 26.9357C60.5727 26.9335 60.591 26.93 60.6142 26.9254L60.7157 26.9053C60.8147 26.8857 60.9439 26.86 61.0692 26.8363L61.461 26.7603L61.4259 26.3217C61.4084 26.0761 61.3733 25.772 61.3557 25.6433L61.3148 25.4094L60.882 25.4269C60.2036 25.462 60.1802 25.4796 60.1802 25.9474Z" fill="white"/>
<path d="M2.21489 24.9241C1.98682 24.9475 1.85817 25.1872 1.99267 25.3451C2.08039 25.4562 2.40788 25.4679 2.50729 25.3685C2.60086 25.2749 2.59501 25.0585 2.4956 24.9767C2.44881 24.9358 2.32016 24.9124 2.21489 24.9241Z" fill="white"/>
<path d="M2.90491 25.2281C2.7938 25.1228 2.7821 24.9065 2.88152 24.807C2.92245 24.7661 3.02187 24.7369 3.10374 24.7369C3.30257 24.7369 3.39614 24.8363 3.39614 25.0409C3.39614 25.2924 3.0862 25.4152 2.90491 25.2281Z" fill="white"/>
<path d="M3.74707 19.1462C3.74707 19.2164 3.76461 19.2983 3.78801 19.3158C3.80555 19.3392 3.89912 19.3568 3.98683 19.3568C4.18566 19.3568 4.27338 19.1579 4.13888 19.0234C4.00438 18.8889 3.74707 18.9708 3.74707 19.1462Z" fill="white"/>
<path d="M5.96358 9.22226C5.70627 9.05852 5.40802 9.36845 5.56007 9.6433C5.6361 9.78949 5.9168 9.81288 6.02206 9.68423C6.11563 9.57312 6.08054 9.29828 5.96358 9.22226Z" fill="white"/>
<path d="M10.18 8.77195C9.94606 8.64914 9.72383 8.82458 9.79986 9.0702C9.84664 9.21056 10.2092 9.2281 10.2619 9.08775C10.3262 8.924 10.3028 8.83628 10.18 8.77195Z" fill="white"/>
<path d="M9.24991 4.65503C9.20897 4.60824 9.19143 4.51467 9.21482 4.4445C9.24406 4.34508 9.29084 4.32754 9.43704 4.33923C9.60078 4.35678 9.62417 4.38017 9.62417 4.53222C9.62417 4.67842 9.60078 4.71351 9.47212 4.7252C9.39026 4.7369 9.29084 4.70181 9.24991 4.65503Z" fill="white"/>
</g>
<defs>
<clipPath id="clip0">
<path d="M0.700195 0H70.8867V40H0.700195V0Z" fill="white"/>
</clipPath>
</defs>
</svg>
