<svg width="122" height="40" viewBox="0 0 122 40" fill="none" xmlns="http://www.w3.org/2000/svg">
<g clip-path="url(#clip0)">
<path d="M61.9189 0.5L65.5439 0C65.9189 0 66.169 0.25 66.169 0.625V30.125C66.169 30.5 65.9189 30.75 65.5439 30.75H62.0439C61.6689 30.75 61.4189 30.5 61.4189 30.125V1.125C61.4189 0.875 61.5439 0.5 61.9189 0.5Z" fill="#FEFEFE"/>
<path d="M37.294 0.500031H33.7939C33.4189 0.500031 33.1689 0.75003 33.1689 1.12503V6.25003C33.1689 6.62503 33.4189 6.87503 33.7939 6.87503H37.294C37.669 6.87503 37.919 6.62503 37.919 6.25003V1.12503C37.919 0.75003 37.669 0.500031 37.294 0.500031Z" fill="#FEFEFE"/>
<path d="M23.2939 1.37497H27.9189C28.1689 1.37497 28.5439 1.62497 28.5439 1.99997L29.4189 30.125C29.4189 30.5 29.1689 30.75 28.7939 30.75H25.2939C24.9189 30.75 24.6689 30.5 24.6689 30.125L24.1689 10.625L18.1689 26.75C18.0439 27 17.7939 27.125 17.5439 27.125H12.6689C12.4189 27.125 12.1689 27 12.0439 26.75L6.04394 10.625L5.54394 30.125C5.54394 30.5 5.29394 30.75 4.91894 30.75H1.41895C1.04395 30.75 0.793945 30.5 0.793945 30.125L1.79394 1.99997C1.79394 1.62497 2.04394 1.37497 2.41894 1.37497H7.04394C7.29394 1.37497 7.54394 1.49997 7.66894 1.74997L15.1689 21.875L22.6689 1.74997C22.7939 1.49997 23.0439 1.37497 23.2939 1.37497Z" fill="#FEFEFE"/>
<path d="M37.919 9.49997C37.919 9.12497 37.669 8.87497 37.294 8.87497L33.669 8.99997C33.294 8.99997 33.044 9.24997 33.044 9.62497V31.125C33.044 33.1675 32.5817 33.7308 31.1801 35.4387C30.952 35.7167 30.699 36.025 30.419 36.375C30.294 36.625 30.169 37 30.419 37.25L33.169 39.5C33.294 39.625 33.544 39.75 33.669 39.75C33.794 39.75 33.919 39.75 34.044 39.625C34.4174 39.1582 34.7553 38.7412 35.0609 38.364C37.6197 35.2059 37.919 34.8365 37.919 31.375V9.49997Z" fill="#FEFEFE"/>
<path d="M82.1689 8.5C79.7939 8.5 76.6689 9.5 74.2939 10.375L74.1689 9.375C74.1689 9.125 73.7939 8.875 73.5439 8.875H70.6689C70.2939 8.875 70.0439 9.125 70.0439 9.5V30.125C70.0439 30.5 70.2939 30.75 70.6689 30.75H74.1689C74.5439 30.75 74.7939 30.5 74.7939 30.125V15C77.0439 13.875 79.7939 13.125 81.0439 13.125C82.0439 13.125 82.4189 13.5 82.4189 14.375V30.125C82.4189 30.5 82.6689 30.75 83.0439 30.75H86.5439C86.9189 30.75 87.1689 30.5 87.1689 30.125V14.375C87.2939 11.75 86.4189 8.5 82.1689 8.5Z" fill="#FEFEFE"/>
<path fill-rule="evenodd" clip-rule="evenodd" d="M98.9189 8.5C93.1689 8.5 90.1689 11.375 90.1689 16.875V23C90.1689 28.5 93.0439 31.25 98.9189 31.25C101.544 31.25 104.294 30.75 106.419 30C106.669 29.875 106.919 29.625 106.794 29.25L106.419 26.5C106.419 26.125 106.044 25.875 105.669 26C103.294 26.625 101.169 27 99.2939 27C96.0439 27 95.0439 26.375 95.0439 23.125V22H106.669C107.044 22 107.294 21.75 107.294 21.375V17C107.294 11.375 104.419 8.5 98.9189 8.5ZM98.9189 12.75C101.669 12.75 102.544 13.75 102.544 16.625V17.625H94.9189V16.625C95.0439 13.875 96.1689 12.75 98.9189 12.75Z" fill="#FEFEFE"/>
<path d="M119.669 8.5C120.044 8.5 120.294 8.625 120.294 9L120.794 12.375C120.794 12.625 120.669 12.875 120.419 13C118.419 13.875 116.169 15.375 114.919 16.25V30.125C114.919 30.5 114.669 30.75 114.294 30.75H110.794C110.419 30.75 110.169 30.5 110.169 30.125V9.5C110.169 9.125 110.419 8.875 110.794 8.875H113.794C114.169 8.875 114.419 9.125 114.419 9.5L114.544 11.25C116.169 10.125 117.794 9.25 119.419 8.5H119.669Z" fill="#FEFEFE"/>
<path d="M45.3564 23.5625C45.3252 23.375 45.2939 23.1875 45.2939 23V16.75C45.2939 14.125 46.669 12.875 49.419 12.875C50.294 12.875 51.044 13 51.669 13.25C51.919 13.375 52.2939 13.25 52.4189 13L54.169 10.25C54.419 10 54.294 9.5 53.919 9.375H53.794C52.544 8.75 50.9189 8.5 49.2939 8.5C43.5439 8.5 40.2939 11.5 40.2939 16.875V22.875C40.2939 25 40.7939 26.75 41.7939 28.125C41.9189 28.25 42.0439 28.375 42.2939 28.375C42.5439 28.375 42.6689 28.25 42.7939 28.125L45.0439 24.625C45.419 24.375 45.4189 24.25 45.4189 24.125C45.4189 23.9375 45.3877 23.75 45.3564 23.5625Z" fill="#FEFEFE"/>
<path d="M56.419 11.375C56.169 11.375 56.044 11.5 55.919 11.625L53.669 15.125C53.544 15.25 53.544 15.375 53.544 15.625C53.669 16 53.669 16.375 53.669 16.75V23C53.669 25.625 52.294 26.875 49.5439 26.875C48.5439 26.875 47.7939 26.75 47.1689 26.5C46.9189 26.375 46.5439 26.5 46.4189 26.75L44.6689 29.5C44.4189 29.75 44.5439 30.25 44.9189 30.375H45.0439C46.294 31 47.9189 31.25 49.6689 31.25C55.4189 31.25 58.669 28.25 58.669 22.875V16.875C58.669 14.75 58.169 13 57.044 11.625C56.794 11.375 56.669 11.375 56.419 11.375Z" fill="#FEFEFE"/>
<path d="M42.6689 39.875H42.0439V35.125H42.6689V39.875Z" fill="#FEFEFE"/>
<path d="M47.7939 39.875V35.875L49.7939 39.875H50.6689V35.125H50.0439V39.125L48.0439 35.125H47.1689V39.875H47.7939Z" fill="#FEFEFE"/>
<path d="M55.0439 35.125V39.875L55.6689 39.75V37.75H57.6689V37.25H55.6689V35.625H57.9189V35.125H55.0439Z" fill="#FEFEFE"/>
<path fill-rule="evenodd" clip-rule="evenodd" d="M63.4189 39.875C64.6689 39.875 65.1689 39.25 65.1689 38.5V36.5C65.1689 35.75 64.6689 35.125 63.4189 35.125C62.1689 35.125 61.6689 35.75 61.6689 36.5V38.5C61.6689 39.25 62.1689 39.875 63.4189 39.875ZM63.5439 39.375C62.7939 39.375 62.4189 39.125 62.4189 38.5V36.5C62.4189 36 62.7939 35.625 63.5439 35.625C64.2939 35.625 64.6689 35.875 64.6689 36.5V38.5C64.6689 39 64.2939 39.375 63.5439 39.375Z" fill="#FEFEFE"/>
<path fill-rule="evenodd" clip-rule="evenodd" d="M70.1689 38.25H71.2939L72.4189 39.875H73.1689L71.9189 38.125C72.4189 38 72.6689 37.625 72.6689 37V36.375C72.6689 35.75 72.2939 35.25 71.2939 35.25H69.5439V40H70.1689V38.25ZM70.1689 35.75H71.2939C71.9189 35.75 72.0439 35.875 72.0439 36.375V37C72.0439 37.5 71.9189 37.625 71.2939 37.625H70.1689V35.75Z" fill="#FEFEFE"/>
<path d="M77.6689 39.875L77.7939 36.125L78.6689 39.25H79.5439L80.7939 36L80.9189 39.875H81.5439L81.4189 35.125H80.6689L79.2939 38.75L77.9189 35.125H77.1689L77.0439 39.875H77.6689Z" fill="#FEFEFE"/>
<path fill-rule="evenodd" clip-rule="evenodd" d="M89.0439 39.875H89.6689L88.1689 35.125H87.2939L85.6689 39.875H86.2939L86.6689 38.75H88.6689L89.0439 39.875ZM86.7939 38.25L87.6689 35.625L88.5439 38.25H86.7939Z" fill="#FEFEFE"/>
<path d="M92.9189 35.75H94.2939L94.4189 40H95.0439V35.75H96.4189V35.25H92.9189V35.75Z" fill="#FEFEFE"/>
<path d="M100.919 39.875H100.294V35.125H100.919V39.875Z" fill="#FEFEFE"/>
<path d="M106.794 39.5C106.044 39.5 105.794 39.25 105.794 38.625V36.5C105.794 35.875 106.044 35.625 106.794 35.625C106.981 35.625 107.169 35.6562 107.356 35.6875C107.544 35.7188 107.731 35.75 107.919 35.75L108.044 35.25C107.669 35.125 107.169 35.125 106.794 35.125C105.669 35.125 105.169 35.625 105.169 36.5V38.625C105.169 39.5 105.669 40 106.794 40C107.294 40 107.669 40 108.044 39.875L107.919 39.375C107.544 39.5 107.044 39.5 106.794 39.5Z" fill="#FEFEFE"/>
<path d="M112.044 39.75C112.419 39.875 112.919 40 113.419 40C114.669 40 114.919 39.5 115.169 38.625C115.169 37.75 115.044 37.625 113.794 37.25C113.204 37.1025 112.962 37.0421 112.863 36.889C112.794 36.7826 112.794 36.6314 112.794 36.375C112.794 35.75 112.919 35.625 113.669 35.625C114.169 35.625 114.544 35.625 114.919 35.75V35.25C114.544 35.125 114.044 35.125 113.669 35.125C112.544 35.125 112.169 35.5 112.169 36.375C112.169 37.375 112.294 37.625 113.419 37.875C114.419 38 114.419 38.125 114.419 38.75C114.419 39.25 114.294 39.5 113.544 39.5C113.044 39.5 112.544 39.375 112.169 39.25L112.044 39.75Z" fill="#FEFEFE"/>
</g>
<defs>
<clipPath id="clip0">
<path d="M0.168945 0H121.419V40H0.168945V0Z" fill="white"/>
</clipPath>
</defs>
</svg>
