<svg width="70" height="40" viewBox="0 0 70 40" fill="none" xmlns="http://www.w3.org/2000/svg">
<g clip-path="url(#clip0)">
<path d="M44.3614 32.6061C44.2402 32.6788 44.119 32.9212 44.119 33.1152C44.119 33.3091 44.2402 33.4546 44.3614 33.4546C44.5069 33.4546 44.6039 33.2364 44.6039 32.9455C44.6039 32.6788 44.5069 32.5334 44.3614 32.6061Z" fill="white"/>
<path d="M57.5979 29.1152C56.8464 28.3394 56.9191 27.8788 57.7918 27.8788C58.5676 27.8788 59.0039 28.4606 58.81 29.2122C58.6161 29.9879 58.4221 29.9879 57.5979 29.1152Z" fill="white"/>
<path d="M36.0222 23.7819C35.5373 24.0243 35.4646 24.1455 35.6828 24.4122C36.0464 24.8485 36.4585 24.6788 36.5555 24.0485C36.6282 23.5637 36.5798 23.5394 36.0222 23.7819Z" fill="white"/>
<path d="M21.0887 16.097C21.0887 15.5637 21.1372 15.491 21.4524 15.7576C21.7433 16.0001 21.7675 16.1455 21.5494 16.3879C21.1615 16.8728 21.0887 16.8243 21.0887 16.097Z" fill="white"/>
<path d="M43.7555 17.2122C43.0525 17.2122 43.004 17.3819 43.5373 18.1334C44.0464 18.8607 44.3615 18.8122 44.3615 17.9394C44.3615 17.3334 44.2646 17.2122 43.7555 17.2122Z" fill="white"/>
<path d="M49.3555 18.0607C48.8464 17.2849 48.8707 17.2122 49.5737 17.2122C50.0828 17.2122 50.1798 17.3334 50.1798 17.9394C50.1798 18.8122 49.8889 18.8607 49.3555 18.0607Z" fill="white"/>
<path d="M15.198 6.13337C14.9799 6.71518 15.3192 7.75761 15.8526 8.12124C16.1192 8.31518 16.4586 8.46064 16.6041 8.41215C16.9677 8.29094 17.0405 7.03034 16.7011 6.37579C16.3859 5.76973 15.392 5.60003 15.198 6.13337Z" fill="white"/>
<path d="M56.8463 12.1213C56.7493 11.9758 56.7251 11.8304 56.7493 11.7819C58.2039 10.7152 58.4221 10.6425 58.5918 11.0546C58.6645 11.2728 58.6403 11.6364 58.4948 11.8546C58.2039 12.3152 57.0887 12.5092 56.8463 12.1213Z" fill="white"/>
<path d="M43.101 7.2243C42.9556 6.78793 42.4222 6.7152 42.4222 7.12733C42.4222 7.34551 42.5919 7.5152 42.8101 7.5152C43.0283 7.5152 43.1495 7.39399 43.101 7.2243Z" fill="white"/>
<path d="M63.4828 21C63.4828 21.9665 62.6993 22.75 61.7328 22.75C60.7663 22.75 59.9828 21.9665 59.9828 21C59.9828 20.0335 60.7663 19.25 61.7328 19.25C62.6993 19.25 63.4828 20.0335 63.4828 21Z" fill="white"/>
<path d="M7.73279 22.75C8.69929 22.75 9.48279 21.9665 9.48279 21C9.48279 20.0335 8.69929 19.25 7.73279 19.25C6.76629 19.25 5.98279 20.0335 5.98279 21C5.98279 21.9665 6.76629 22.75 7.73279 22.75Z" fill="white"/>
<path fill-rule="evenodd" clip-rule="evenodd" d="M43.4646 38.1334C43.6585 38.594 44.0706 39.1515 44.3858 39.3697C45.1616 39.9031 46.8343 39.8788 47.5373 39.297C48.0464 38.8849 48.1676 38.8849 48.9191 39.2C50.1313 39.7091 51.5131 39.4182 52.1676 38.5455C52.5797 37.9879 52.7737 37.8909 53.1131 38.0606C53.6949 38.3758 54.9313 38.3758 55.5858 38.0364C56.3131 37.6728 57.6949 36.3394 57.6949 36.0243C57.6949 35.8788 58.0585 35.7334 58.4706 35.7334C59.3434 35.6849 60.5797 34.4728 62.301 31.9031C63.1252 30.6909 63.2706 30.2788 63.2706 29.2122C63.2706 28.194 63.3919 27.8546 63.8767 27.394C64.2161 27.0788 64.4828 26.6909 64.4828 26.5455C64.4828 26.3758 64.7494 26.3031 65.1616 26.3515C66.0585 26.4728 67.2222 25.697 67.707 24.6546C68.1919 23.6606 68.2161 23.1758 67.7797 22.1819C67.5131 21.5516 67.5373 21.3576 67.9252 20.7273C68.1676 20.3152 68.3616 19.5394 68.3616 18.9576C68.3616 18.0606 68.2161 17.7455 67.5373 17.0667C66.9555 16.4849 66.4949 16.2425 65.9616 16.2425C65.4525 16.2425 65.1616 16.097 65.0646 15.8061C64.7494 14.8364 64.3373 14.2303 63.8282 13.9879C63.3676 13.794 63.3434 13.6728 63.5616 13.2606C63.707 12.9697 63.7555 12.194 63.6585 11.297C63.3676 8.4364 61.1131 4.84852 59.5858 4.84852C59.0525 4.84852 58.907 4.72731 58.907 4.33943C58.907 4.04852 58.4949 3.41822 57.9858 2.90913C56.8949 1.79398 55.4161 1.30913 54.3979 1.72125C53.7676 1.93943 53.6464 1.89095 53.21 1.35761C51.4888 -0.799961 46.9797 -0.0726893 46.4222 2.44852L46.2525 3.20004L45.7434 2.71519C44.2888 1.38186 41.7676 0.824281 40.0706 1.47883C38.3009 2.13337 36.9919 4.21822 37.1373 6.18186L37.21 7.44246L36.2888 6.95761C35.6343 6.61822 35.101 6.52125 34.3979 6.61822C33.5252 6.73943 33.404 6.69095 33.0888 6.0364C32.7009 5.28489 31.61 4.6061 30.81 4.6061C30.5434 4.6061 30.1797 4.36367 30.0343 4.07277C29.4525 2.90913 28.5312 2.2061 27.2706 1.91519C26.3009 1.69701 25.8888 1.69701 25.4767 1.93943C24.9919 2.18186 24.8464 2.13337 24.2161 1.50307C23.2222 0.484886 21.6706 0.0970075 20.5312 0.557614C20.0706 0.775796 19.5616 1.16367 19.4161 1.43034L19.1494 1.91519L18.3009 1.43034C17.6949 1.0667 17.0403 0.92125 15.8767 0.92125C13.3555 0.92125 11.1252 2.2061 10.5676 4.07277C10.4222 4.50913 10.204 4.6061 9.35549 4.6061C7.92519 4.6061 6.20398 5.16367 5.16155 5.93943C4.26458 6.64246 3.14943 8.67883 3.14943 9.69701C3.14943 11.3212 4.2161 13.2364 5.33125 13.6243C5.59791 13.7212 5.50094 13.9152 4.91913 14.4C4.48276 14.7637 4.11913 15.2243 4.11913 15.394C4.11913 15.5637 3.80397 15.7819 3.39185 15.8788C2.32518 16.1212 1.54943 16.8485 1.08882 18.0606C0.676701 19.1031 0.676701 19.1516 1.18579 20.1212C1.57367 20.8728 1.6464 21.2364 1.45246 21.5758C0.676701 23.0061 1.50094 25.2606 3.05246 26.0122C3.8767 26.4 4.0464 26.594 3.85246 26.8364C3.707 27.0061 3.51307 27.1031 3.4161 27.0546C3.22216 26.9334 3.17367 27.2 3.00398 29.3334C2.88276 30.7879 2.93125 30.9819 3.61004 32.0243C5.307 34.5455 7.56155 36.0485 9.21003 35.7091C9.74337 35.6122 9.91307 35.6849 10.0343 36.0728C10.3009 36.897 11.7797 38.0122 13.1373 38.4243C14.6403 38.8606 15.6343 38.8849 16.604 38.4485C17.2585 38.1576 17.3797 38.1818 17.8646 38.594C19.0282 39.6606 21.8161 39.3455 23.0767 38.0122C23.5858 37.4788 23.8282 37.3576 24.1434 37.5273C24.3616 37.6485 24.8949 37.6728 25.3312 37.5758C26.4949 37.3091 29.404 35.5152 30.3009 34.5212C30.7131 34.0364 31.5858 33.2606 32.2161 32.8243L33.3797 32.0485L35.9737 34.5455C39.4161 37.8667 39.9252 38.0849 42.4706 37.4546C43.0525 37.3091 43.1737 37.3819 43.4646 38.1334ZM47.4888 32.4364C47.9009 35.6849 47.8525 36.994 47.2706 37.5758C46.3009 38.5455 44.7494 37.9879 44.5555 36.6061C44.507 36.194 44.2403 35.9273 43.5858 35.6849C42.7616 35.3697 42.6403 35.3697 42.0343 35.8546C41.21 36.5091 40.3858 36.5091 39.7797 35.8546L39.2949 35.3212L40.0464 34.6182C40.701 34.0122 40.7737 33.8182 40.6525 32.994C40.5313 32.097 40.604 32 41.9131 30.8606C43.9979 29.0425 44.4828 28.7758 45.4525 28.9455C46.7131 29.1879 47.1737 29.9637 47.4888 32.4364ZM51.3191 35.7334C51.3919 36.3152 51.3191 37.0182 51.1737 37.3091C50.7616 38.0606 49.3555 38.0122 48.8222 37.2122C48.6282 36.897 48.2161 35.2485 47.9494 33.5758L47.4646 30.5212L48.0222 29.9152C48.7737 29.1152 49.4282 29.1879 50.5919 30.1819L51.5616 31.0061L51.4646 29.9637C51.3434 29.0667 51.4161 28.8485 51.901 28.5091C52.6282 28 53.1616 28.0243 53.6464 28.5576C54.1555 29.1152 55.6343 32.4849 56.0464 34.0364L56.3616 35.2L55.5616 35.9031C54.5191 36.8485 53.8403 36.8 52.41 35.6606L51.2222 34.7152L51.3191 35.7334ZM21.8403 36.097C21.6949 36.6303 21.3555 37.1879 21.0888 37.3334C20.4585 37.6728 19.804 37.6485 19.2706 37.2364C18.7373 36.8485 18.6888 36 18.9797 32.4849L19.1494 30.4243L18.6646 32.2182C17.6706 35.7091 16.7252 36.8485 14.81 36.8485C13.3555 36.8485 11.9252 36.0243 11.2464 34.8122L10.7131 33.8667L11.2706 33.1152C11.5858 32.7031 11.9494 32.0728 12.0949 31.6849C12.2646 31.2243 12.5312 31.0303 12.9191 31.0303C13.6464 31.0303 14.7858 31.9031 14.7858 32.4364C14.81 33.1879 15.1979 32.2182 15.3676 31.0303C15.4646 30.4243 15.7312 29.5758 15.9979 29.1394C16.3858 28.5091 16.6282 28.3637 17.2585 28.3637C18.2767 28.3637 18.5676 28.5576 18.9797 29.5515L19.3191 30.3515L19.4646 29.6243C19.61 28.9697 19.8767 28.7515 21.9131 27.7819C23.1979 27.1758 24.4343 26.6667 24.7009 26.6667C25.2343 26.6667 25.9373 27.5152 25.9373 28.1455C25.9373 28.5576 25.0403 29.4303 24.41 29.6485C24.2403 29.697 24.2161 29.8425 24.3131 29.9637C24.41 30.0606 24.8706 29.9637 25.307 29.7212C27.2222 28.6788 28.1919 30.0364 26.5191 31.4425C25.3555 32.4122 25.5737 32.7515 26.8343 31.9031C27.9009 31.1515 28.6282 31.1031 29.1616 31.7091C29.9858 32.6303 29.6464 33.1394 27.0767 34.7152C25.307 35.8061 24.6767 35.8546 24.0706 35.0061C23.61 34.4 23.5616 34.3758 22.8828 34.7394C22.3737 35.0061 22.0585 35.4182 21.8403 36.097ZM39.7797 31.9515C40.5797 32.8485 40.6525 33.3576 40.0949 34.1334C39.5858 34.8606 38.5919 34.8122 37.6222 34.0122C36.507 33.0182 34.907 30.9819 34.907 30.5212C34.907 29.794 39.61 25.697 40.41 25.697C40.8949 25.697 42.1797 27.0303 42.1797 27.5152C42.1797 27.7334 41.4767 28.6546 40.6282 29.5273L39.0767 31.1515L39.7797 31.9515ZM11.2949 32.4364C11.0767 32.8485 10.5676 33.3576 10.1797 33.5758C9.21003 34.0849 8.53125 34.0364 7.39185 33.3819C5.33125 32.2182 4.2161 29.2364 5.33125 27.8303C6.4464 26.4 8.24034 27.2485 8.24034 29.1879C8.24034 29.794 8.36155 30.3515 8.507 30.4485C8.79791 30.6182 8.74943 29.8425 8.33731 27.3697C8.2161 26.6182 8.31306 26.3515 8.91912 25.6728C9.59792 24.9212 9.79185 24.8485 10.9797 24.8485C12.5555 24.8485 13.404 25.3576 14.2282 26.8122C14.9312 28 14.9312 29.3091 14.2767 30.1576C13.3555 31.3455 11.9494 30.6667 11.707 28.897C11.6343 28.3394 11.4646 27.8788 11.3434 27.8788C11.1979 27.8788 11.1494 28.2667 11.2464 28.8C11.6828 31.5394 11.6828 31.6849 11.2949 32.4364ZM61.8161 28.7031C61.8161 29.6485 61.0403 31.0303 59.61 32.5819C58.9313 33.3334 58.2767 33.9394 58.1313 33.9394C58.01 33.9394 57.3313 33.4061 56.6525 32.7515C55.7555 31.9031 55.2464 31.1515 54.907 30.2546C54.6646 29.5515 54.204 28.7273 53.8646 28.3879L53.2828 27.8061L54.3494 26.7394C55.8282 25.1879 57.0161 24.6546 58.3494 24.8485C60.0949 25.1152 61.8161 27.0303 61.8161 28.7031ZM32.8222 29.2122C32.9676 29.9152 32.8706 30.0606 31.8525 30.8849C30.2525 32.1212 29.8646 32.0485 28.3131 30.2546C26.2767 27.9031 25.21 26.4 25.21 25.8909C25.21 25.1637 26.5191 24 27.2949 24C27.804 24 28.2888 24.3394 29.2343 25.3576L30.4949 26.6909L31.707 26.0122C32.3858 25.6485 32.9919 25.4061 33.0888 25.5031C33.1858 25.5758 33.1131 26.2788 32.9676 27.0303C32.7979 27.7819 32.7494 28.7758 32.8222 29.2122ZM35.9737 28.0728C35.804 28.6546 35.4888 29.3334 35.2464 29.6C34.7131 30.1819 34.0585 30.1819 33.4525 29.5758C32.8706 28.994 32.8706 28.9212 33.307 27.0546C33.7191 25.3576 33.5979 24.8728 32.8706 25.0667C31.3676 25.5031 31.0767 25.5031 30.5676 24.994C29.8888 24.3152 29.9131 23.4182 30.6403 22.8606C30.9555 22.6182 32.2646 21.9879 33.5494 21.4546C35.3676 20.7273 35.804 20.4606 35.4403 20.3394C35.1737 20.2425 34.7858 19.6606 34.5191 18.9819C34.0828 17.794 33.6949 17.1394 33.6949 17.6243C33.6949 17.7697 33.8646 18.3516 34.0585 18.9091C34.4949 20.1697 34.3494 20.8 33.5494 20.994C32.9919 21.1394 32.2403 20.7758 32.2403 20.3637C32.2403 20.2667 32.0706 19.7819 31.8767 19.297C31.2949 17.9152 30.9797 18.497 31.5373 19.9273C31.9737 21.0425 31.9737 21.1879 31.6343 21.7212C31.1737 22.4243 30.2282 22.4728 29.5979 21.8425C29.0403 21.2849 28.1191 18.8849 28.1191 17.9637C28.1191 17.3576 28.2403 17.2364 28.9434 17.1152C29.404 17.0182 30.4706 16.4849 31.3191 15.9031C32.1919 15.3212 33.3555 14.6909 33.9131 14.5212C34.907 14.2303 35.004 14.2303 35.4161 14.7637C35.6585 15.0788 36.1434 16.194 36.4828 17.2606C37.0646 19.1031 37.0888 19.2485 36.7009 19.8061C36.3373 20.3879 36.3373 20.4122 36.7979 20.2667C37.3797 20.0728 37.6706 20.4122 38.5676 22.3273C39.8525 25.0182 39.4161 26.594 37.2828 26.8849C36.3616 27.0303 36.2646 27.1031 35.9737 28.0728ZM16.507 22.3758C15.7555 23.2 15.5373 23.6364 15.4646 24.4849C15.3919 25.4788 15.0767 25.9152 14.7131 25.5515C14.4464 25.2606 14.5191 23.0061 14.8343 22.1576C15.0525 21.5273 15.0525 21.2849 14.81 20.994C14.3009 20.3637 14.107 20.5334 14.204 21.5273C14.3252 22.5697 13.8888 23.5879 13.2343 23.7091C12.8222 23.8061 12.7979 23.6122 12.8949 21.2364C12.9676 18.6425 13.1858 18.0122 14.0828 17.8425C14.2767 17.8182 14.7858 17.6 15.2464 17.3576C16.0464 16.9212 17.3797 16.9212 18.4949 17.3576C18.8343 17.4788 18.907 17.3334 18.907 16.3879C18.907 15.4425 18.81 15.2243 18.2525 14.8606C17.2828 14.2788 16.9676 13.8182 16.9676 13.0425C16.9676 12.6061 17.0888 12.3637 17.3312 12.3637C17.5252 12.3637 17.6949 12.5576 17.6949 12.8C17.6949 13.2849 18.2767 13.8909 18.9797 14.1334C19.4403 14.3031 19.5373 14.0606 19.1252 13.6485C18.9797 13.5031 18.907 13.1394 18.9555 12.8243C19.004 12.3637 19.1737 12.2425 19.7555 12.2425C20.3373 12.2425 20.507 12.3637 20.5555 12.8C20.604 13.1152 20.507 13.5273 20.3616 13.7212C20.1191 13.9879 20.1191 14.0606 20.41 14.0606C20.5797 14.0606 21.1131 14.3758 21.5737 14.7394L22.3737 15.4182L23.3676 14.9576C23.9252 14.6909 24.5312 14.3758 24.7252 14.2546C25.5737 13.794 25.7191 13.794 26.3494 14.2546C26.81 14.594 27.0282 15.0061 27.0767 15.5394C27.2706 17.7697 27.2706 17.794 26.8585 17.8909C26.6161 17.9394 26.1312 17.7455 25.7919 17.4788C25.4282 17.1879 25.0646 16.9697 24.9434 16.9697C24.604 16.9697 23.9979 18.3516 23.7555 19.6606C23.61 20.4606 23.2949 21.1152 22.9312 21.4546C22.4464 21.8909 22.3252 22.3273 22.1797 23.8546C21.9373 26.3031 21.4767 26.2061 21.3797 23.6849L21.307 21.8182H20.4828C20.0464 21.8182 19.1737 21.6 18.5676 21.3334C17.9616 21.0909 17.4525 20.9697 17.4525 21.1152C17.4525 21.2364 17.0161 21.8182 16.507 22.3758ZM43.4403 18.7637C43.3676 18.8606 43.7555 19.5637 44.3131 20.3637L45.307 21.8182H42.6888C40.9919 21.8182 39.9979 21.7212 39.804 21.5273C39.3919 21.1152 39.4403 19.2485 39.9009 18.3516L39.9556 18.2468C40.212 17.7552 40.3308 17.5274 40.4707 17.5136C40.5915 17.5016 40.728 17.649 40.9823 17.9235L41.0646 18.0122C41.4282 18.4 41.9373 18.6667 42.3009 18.6667C43.0282 18.6667 43.0525 18.5455 42.4222 17.5031C42.1555 17.0667 41.9373 16.6546 41.9373 16.6061C41.9373 16.5334 42.5919 16.4849 43.3919 16.4849C44.1919 16.4849 44.8464 16.4364 44.8464 16.3637C44.8464 16.2909 44.7252 16.0243 44.5555 15.7819C44.0222 14.9091 44.9434 13.9394 45.7191 14.5697C45.9616 14.7637 46.0585 15.1031 45.9616 15.5637C45.8888 15.9273 45.9373 16.2909 46.0585 16.3637C46.204 16.4364 46.3009 16.8243 46.3009 17.2122C46.3009 18.4728 46.4949 18.6667 47.804 18.6667H49.0161L48.3858 17.6C48.0464 16.994 47.7555 16.4606 47.7555 16.4122C47.7555 16.3394 48.1919 16.3394 48.701 16.4122C49.9616 16.5819 51.0767 16.3152 50.6888 15.9273C50.01 15.2485 50.7131 14.1334 51.6585 14.4243C52.0949 14.5697 52.1676 14.7152 52.0464 15.5394C51.9737 16.0485 52.0222 16.5576 52.1434 16.6303C52.2646 16.7031 52.3616 17.1879 52.3616 17.7212C52.3616 18.497 52.4343 18.6667 52.8464 18.6667C53.0888 18.6667 53.6949 18.3273 54.1555 17.9394L54.9797 17.2122L55.4888 18.0122C55.804 18.5455 55.9979 19.2485 55.9979 19.9273C55.9979 21.4788 55.5373 21.8182 53.4282 21.8182H51.7313L50.5676 20.2182C49.1373 18.2303 48.7979 18.3273 50.1555 20.3394L51.1737 21.8182H45.8646L44.7252 20.2182C44.0949 19.3455 43.5131 18.6909 43.4403 18.7637ZM34.1313 13.4061C33.8161 13.7455 32.6767 14.6182 31.5616 15.3697C29.4525 16.8 28.4828 17.0425 27.7797 16.3394C27.5616 16.1455 27.3919 15.8061 27.3919 15.5879C27.3919 15.2243 29.0161 13.5758 29.3797 13.5758C29.4767 13.5758 29.5737 13.4788 29.5737 13.3819C29.5737 13.2606 29.3312 13.1879 29.0403 13.1879C28.5555 13.2122 28.4828 13.0909 28.5312 12.4122L28.5555 11.6122L27.61 12.4849C26.4706 13.5031 26.1312 13.5273 25.4525 12.6788L24.9434 12.0485L25.6222 11.3455C25.9858 10.9576 26.5191 10.1819 26.7858 9.62428C27.4161 8.33943 29.5737 6.54549 30.5434 6.54549C31.4403 6.54549 32.3373 7.61216 32.1191 8.4364L32.1102 8.47151C31.8106 9.65557 31.6927 10.1218 31.869 10.3053C31.9835 10.4245 32.2221 10.4244 32.6157 10.4243L32.6525 10.4243C34.4222 10.4243 35.2706 12.1455 34.1313 13.4061ZM41.7919 11.2C42.5434 12.2667 42.3009 13.0182 40.5797 14.9334C39.6828 15.9273 38.907 16.7273 38.81 16.7273C38.2282 16.6788 36.7252 15.5637 35.804 14.5212C34.81 13.4061 34.7373 13.2122 34.8343 12.2667C34.9555 11.3455 34.8828 11.1758 34.204 10.594C33.7919 10.2546 33.4525 9.8667 33.4525 9.74549C33.4525 9.35761 34.3252 8.72731 34.907 8.72731C35.707 8.72731 37.4282 9.79398 38.1555 10.7152C38.4761 11.1384 38.6271 11.3378 38.806 11.367C38.9651 11.393 39.1463 11.2843 39.4888 11.0788C40.4585 10.497 41.3555 10.5455 41.7919 11.2ZM13.307 13.9394C12.8706 14.4243 12.2403 14.9576 11.9009 15.1516C11.1252 15.5394 9.74337 15.7576 9.13731 15.5879C8.91912 15.5394 8.55549 15.1516 8.36155 14.7637C7.73125 13.5758 8.57973 12.6061 10.2767 12.6061C11.0525 12.6061 11.61 12.2667 11.3191 11.9516C11.2464 11.9031 10.4222 12.097 9.4767 12.3879C7.44034 13.0425 6.71307 12.897 5.88882 11.6606C5.18579 10.6182 5.18579 9.50307 5.88882 8.46064C7.10094 6.6667 9.08882 5.96367 10.6888 6.73943L11.6343 7.20004V6.56973C11.6343 5.43034 12.6282 3.8061 13.6949 3.22428C14.8343 2.56973 16.6525 2.49701 17.6706 3.03034C19.4403 3.92731 20.4828 6.54549 19.8767 8.53337C19.4888 9.89095 18.2282 11.0546 16.8949 11.3212C15.2706 11.6606 14.5919 11.4425 13.9616 10.4485C13.6464 9.96367 13.1131 9.43034 12.7494 9.2364C12.41 9.04246 12.1191 8.72731 12.1191 8.53337C12.1191 8.31519 11.9737 8.36367 11.6828 8.72731C11.3434 9.16367 10.907 9.30913 9.86458 9.4061C8.91912 9.47882 8.48276 9.62428 8.48276 9.84246C8.48276 9.86693 8.48233 9.89003 8.48193 9.91171C8.48025 10.002 8.47903 10.068 8.51095 10.1054C8.59606 10.205 8.91677 10.1035 10.0927 9.73104L10.2767 9.67276C12.1191 9.11519 12.5797 9.18792 13.4525 10.2061C14.3494 11.297 14.3009 12.8 13.307 13.9394ZM61.307 9.45458C62.3009 11.6606 61.7676 13.9394 59.9737 14.9576C59.3191 15.3455 58.6161 15.5152 57.6706 15.5152C56.0464 15.5152 55.0525 14.9334 53.9616 13.3819L53.21 12.3394L53.7434 11.9273C54.01 11.7091 54.6161 10.8849 55.0282 10.1091C55.8767 8.6061 57.9373 6.78792 58.81 6.78792C59.4646 6.78792 60.701 8.12125 61.307 9.45458ZM43.8282 10.7637C43.8525 11.6122 43.7555 12.097 43.4888 12.4122C42.907 13.0425 42.7131 12.9697 42.5191 12.0243C42.3252 10.9576 41.7191 10.4 40.701 10.3516C39.9494 10.3031 39.8767 10.2061 39.4646 8.96973C39.2464 8.24246 39.0525 7.05458 39.0525 6.32731C39.0282 5.13943 39.1009 4.96973 39.9737 4.09701C40.8222 3.24852 41.0403 3.15155 42.1555 3.15155C43.3191 3.15155 43.5131 3.24852 44.6525 4.29095C46.8828 6.3758 48.2403 8.16973 48.2403 9.0667C48.2403 10.6425 46.6888 11.1758 45.3555 10.0364C44.2161 9.09095 43.7313 9.33337 43.8282 10.7637ZM56.8464 4.82428C57.0161 5.35761 54.6161 10.4 53.7434 11.3455C53.1373 12 52.0464 12.0485 51.4161 11.4182C51.1494 11.1516 50.81 10.4728 50.6646 9.91519L50.3979 8.92125L49.9858 9.72125C49.6706 10.3273 49.404 10.5455 48.9676 10.5455C48.5555 10.5455 48.3858 10.4243 48.4585 10.1819C48.8222 8.80004 48.7494 8.48489 47.4888 6.78792C47.2949 6.49701 47.2949 6.0364 47.5131 4.96973C47.8525 3.32125 48.9919 1.93943 50.01 1.93943C50.9797 1.93943 52.1676 2.90913 52.5555 4.07277C52.9191 5.18792 53.1858 5.33337 53.5494 4.63034C53.6949 4.38792 54.107 4.04852 54.5191 3.90307C55.1009 3.66064 55.3434 3.66064 55.9494 3.97579C56.3616 4.19398 56.7494 4.58186 56.8464 4.82428ZM28.1191 5.33337C28.1191 6.23034 26.3252 10.0364 25.4767 10.9819C24.7737 11.7576 24.2403 11.8061 23.6343 11.1516C23.2464 10.7152 23.2464 10.6182 23.61 9.55155C23.9737 8.46064 23.9737 8.4364 23.5616 8.82428C22.9555 9.35761 22.6161 9.30913 22.3979 8.67883C22.2525 8.21822 22.1797 8.2667 21.7191 9.2364C21.2828 10.1576 21.1131 10.3031 20.4828 10.3031C19.6828 10.3031 19.6585 10.2303 20.1676 8.55761C20.3858 7.73337 20.41 7.22428 20.1676 6.08489C19.9009 4.84852 19.9252 4.50913 20.2646 3.6364C20.7494 2.42428 21.5494 2.01216 22.4949 2.47276C23.1494 2.81216 23.3676 3.10307 23.7555 4.19398L23.9979 4.87276L24.7737 4.2667C25.5737 3.68489 25.9373 3.56367 26.7373 3.61216C27.4161 3.66064 28.1191 4.53337 28.1191 5.33337ZM60.1193 24.2667C60.1193 24.9697 60.3132 25.2849 60.9677 25.6485C61.9617 26.2304 62.9071 25.8182 63.1496 24.7031C63.2708 24.1455 63.4162 24 63.7071 24.1455C64.6526 24.5334 65.2344 24.5334 65.695 24.1213C66.3253 23.5637 66.3253 22.3031 65.7193 21.5516C65.2587 20.994 65.2587 20.9697 65.8405 20.4364C67.0768 19.297 66.2041 17.5758 64.4587 17.7455C63.5374 17.8182 63.5132 17.8182 63.5132 17.0425C63.5132 16.5091 63.3193 16.1213 62.8829 15.7819C61.598 14.7637 60.1193 15.4667 60.1193 17.091C60.1193 17.8667 60.0708 17.9394 59.6587 17.697C57.5253 16.5576 55.7314 19.1031 57.6708 20.5334C58.0102 20.7758 58.0102 20.8728 57.5253 21.3819C56.7738 22.1819 56.8223 23.1031 57.6223 23.7576C58.2526 24.2425 58.6647 24.2667 59.7314 23.8546C60.0223 23.7334 60.1193 23.8546 60.1193 24.2667ZM6.47063 25.2607C6.2282 25.0182 6.05851 24.5819 6.05851 24.3152C6.05851 23.8788 5.93729 23.8304 4.89487 23.9516C3.63426 24.0728 3.29487 23.8546 3.0282 22.7395C2.90699 22.2304 3.00396 21.9395 3.48881 21.4788L4.09487 20.8485L3.51305 20.2425C2.81002 19.5637 2.73729 18.691 3.31911 17.9637C3.77972 17.3819 4.36153 17.2607 5.35548 17.5273C5.93729 17.6728 6.01002 17.6001 6.15548 16.9213C6.44638 15.394 7.3676 14.9334 8.70093 15.6364C9.4282 16.0001 9.69487 16.4364 9.69487 17.3092C9.69487 17.7698 9.79184 17.8182 10.6161 17.7455C11.2706 17.6728 11.6827 17.7698 11.9494 18.0607C12.507 18.6182 12.4827 19.9516 11.8767 20.4849C11.4161 20.897 11.4161 20.9213 11.8767 21.5273C12.507 22.3031 12.4827 23.394 11.8767 24.0001C11.3434 24.5334 10.9797 24.5819 10.0585 24.2425C9.54942 24.0485 9.40396 24.0728 9.28275 24.4364C8.84638 25.697 7.27063 26.1576 6.47063 25.2607Z" fill="white"/>
</g>
<defs>
<clipPath id="clip0">
<path d="M0.482727 0H69.0888V40H0.482727V0Z" fill="white"/>
</clipPath>
</defs>
</svg>
