<svg width="65" height="40" viewBox="0 0 65 40" fill="none" xmlns="http://www.w3.org/2000/svg">
<g clip-path="url(#clip0)">
<path d="M23.4948 6.97975C25.3343 6.97975 26.8255 5.48854 26.8255 3.64903C26.8255 1.80952 25.3343 0.318298 23.4948 0.318298C21.6553 0.318298 20.1641 1.80952 20.1641 3.64903C20.1641 5.48854 21.6553 6.97975 23.4948 6.97975Z" fill="white"/>
<path d="M0.907227 31.1347C0.907227 36.3176 3.60279 39.426 9.04364 39.426C10.9157 39.4208 12.7794 39.1768 14.5896 38.6998V33.2583C13.1974 33.4359 11.795 33.5223 10.3914 33.5169C8.31966 33.5169 7.38538 32.6373 7.38538 30.5634V18.5989H13.7797V12.1435H7.38538V3.65685H0.907227V31.1347Z" fill="white"/>
<path d="M20.2395 31.1346C20.2395 36.3176 22.9351 39.4259 28.3759 39.4259C30.2949 39.4259 31.5297 38.7425 31.5972 38.6998V33.2583C31.5455 33.2714 31.4927 33.2863 31.4364 33.3022C31.1181 33.3921 30.6893 33.5133 29.7237 33.5169C27.6519 33.524 26.7177 32.6373 26.7177 30.5634V12.1343H20.2395V31.1346Z" fill="white"/>
<path fill-rule="evenodd" clip-rule="evenodd" d="M59.8109 30.5449C59.8109 32.6195 60.7452 33.5062 62.8169 33.4991C63.7856 33.4955 64.2118 33.3745 64.5286 33.2846C64.5847 33.2686 64.6374 33.2537 64.6891 33.2405V38.6821C64.6223 38.7247 63.3867 39.4082 61.4685 39.4082C57.8031 39.4082 55.3932 37.9972 54.2109 35.4913C51.7882 37.5822 48.0575 39.4828 45.4145 39.4828C41.8403 39.4828 38.8852 38.1909 36.5491 35.6071C34.231 32.9693 33.072 29.6774 33.072 25.7314C33.072 21.8558 34.2308 18.6259 36.5491 16.0426C38.8674 13.4593 41.7697 12.1414 45.2553 12.1414C48.2514 12.1414 50.9889 13.5076 53.3548 15.887V12.1307H59.8109V30.5449ZM51.4699 31.0885C52.5972 29.9005 53.2366 28.4355 53.3882 26.6934L53.3889 25.0394C53.2383 23.2964 52.5988 21.8309 51.4706 20.643C50.1683 19.3023 48.3715 18.6409 46.4099 18.6409C44.4482 18.6409 42.7956 19.3101 41.4763 20.6664C40.1742 22.0377 39.5232 23.7322 39.5232 25.7499C39.5232 27.9083 40.1572 29.6647 41.4251 31.0188C42.7274 32.3915 44.3814 33.244 46.3601 33.244C48.4738 33.244 50.1676 32.4135 51.4699 31.0885Z" fill="white"/>
</g>
<defs>
<clipPath id="clip0">
<path d="M0.822266 0H64.7654V40H0.822266V0Z" fill="white"/>
</clipPath>
</defs>
</svg>
