<svg width="230" height="40" viewBox="0 0 230 40" fill="none" xmlns="http://www.w3.org/2000/svg">
<g clip-path="url(#clip0)">
<path d="M59.3388 23.4914L30.2875 12.1371C30.1583 12.087 30.0151 12.087 29.8859 12.1371L0.835806 23.4914C0.476525 23.6313 0.0878906 23.3678 0.0878906 22.9852V12.0555C0.0878906 11.8315 0.225263 11.631 0.435431 11.5493L29.8871 0.0376105C30.0163 -0.0125368 30.1595 -0.0125368 30.2887 0.0376105L59.7403 11.5493C59.9493 11.631 60.0879 11.8315 60.0879 12.0555V22.9852C60.0867 23.3678 59.6981 23.6313 59.3388 23.4914Z" fill="white"/>
<path d="M0.835806 16.5092L29.8871 27.8632C30.0163 27.9133 30.1595 27.9133 30.2887 27.8632L59.34 16.5092C59.6993 16.3692 60.0879 16.6316 60.0879 17.0153V27.9448C60.0879 28.1687 59.9505 28.3693 59.7403 28.4509L30.2887 39.9624C30.1595 40.0125 30.0163 40.0125 29.8871 39.9624L0.435431 28.4498C0.225263 28.3681 0.0878906 28.1675 0.0878906 27.9436V17.0141C0.0878906 16.6316 0.476525 16.3681 0.835806 16.5092Z" fill="white"/>
<path d="M71.3171 14.8731C70.9582 14.8731 70.6758 14.5968 70.6758 14.243V11.2172C70.6758 10.8646 70.9582 10.5882 71.3171 10.5882H86.5051C86.8639 10.5882 87.1464 10.8646 87.1464 11.2172V14.243C87.1464 14.5968 86.8639 14.8731 86.5051 14.8731H81.2974V27.6051C81.2974 27.9589 81.0149 28.2353 80.6561 28.2353H77.1661C76.8073 28.2353 76.5248 27.9589 76.5248 27.6051V14.8731H71.3171Z" fill="white"/>
<path d="M88.9329 28.2353C88.5918 28.2353 88.3232 27.9827 88.3232 27.6301V11.1934C88.3232 10.9158 88.518 10.5882 88.9329 10.5882H96.9822C100.642 10.5882 102.739 13.2352 102.739 16.0834C102.739 17.6714 102.08 19.4868 100.08 20.5959L103.495 27.3776C103.568 27.5039 103.617 27.6551 103.617 27.7814C103.617 28.034 103.447 28.2353 103.106 28.2353H99.4463C98.9104 28.2353 98.7145 28.134 98.4702 27.5801L96.0556 22.0075H92.7144V27.6039C92.7144 27.9577 92.4459 28.2341 92.1047 28.2341H88.9329V28.2353ZM92.7132 14.673V18.2527H96.104C97.2012 18.2527 98.129 17.5963 98.129 16.4122C98.129 15.2269 97.2012 14.673 96.1536 14.673H92.7132Z" fill="white"/>
<path d="M118.555 10.5882C118.815 10.5882 119.234 10.7395 119.364 11.2172L124.717 27.2013C124.768 27.3776 124.794 27.6051 124.794 27.7064C124.794 27.9827 124.586 28.2353 124.194 28.2353H119.964C119.625 28.2353 119.39 27.9327 119.311 27.6301L118.476 24.8307H112.053L111.218 27.6301C111.14 27.9327 110.905 28.2353 110.566 28.2353H106.571C106.18 28.2353 105.971 27.9827 105.971 27.7064C105.971 27.6051 105.997 27.3788 106.048 27.2013L111.399 11.2172C111.53 10.7395 111.948 10.5882 112.209 10.5882H118.555ZM113.334 20.5959H117.197L115.265 14.1679L113.334 20.5959Z" fill="white"/>
<path d="M141.265 27.6302C141.265 27.9828 140.966 28.2353 140.642 28.2353H136.881C136.233 28.2353 135.81 28.059 135.585 27.6052L130.454 17.3695V27.6302C130.454 27.9828 130.205 28.2353 129.856 28.2353H126.593C126.245 28.2353 125.971 27.9828 125.971 27.6302V11.1933C125.971 10.8658 126.245 10.5882 126.593 10.5882H131.077C131.426 10.5882 131.725 10.6883 131.925 11.0921L136.782 21.0252V11.1933C136.782 10.8658 137.055 10.5882 137.38 10.5882H140.642C140.966 10.5882 141.265 10.8646 141.265 11.1933V27.6302Z" fill="white"/>
<path d="M152.748 10.5882C155.865 10.5882 157.812 11.798 158.702 12.6475C159.314 13.2401 159.426 13.5757 159.426 13.8068C159.426 14.1154 159.203 14.3478 159.008 14.5014L156.951 16.2263C156.728 16.4058 156.451 16.5091 156.172 16.5091C155.866 16.5091 155.671 16.3812 155.421 16.123C154.78 15.4542 153.894 14.8125 152.588 14.8125C151.531 14.8125 150.66 15.2452 150.66 16.0431C150.66 16.6099 151.198 17.0021 152.144 17.3893C153.673 18.0323 155.695 18.3397 157.364 19.2408C158.894 20.0658 160.088 21.4107 160.088 23.5991C160.088 26.9726 157.31 29.4118 152.472 29.4118C149.133 29.4118 146.63 28.2536 145.406 26.9136C145.072 26.5521 144.794 26.1145 144.794 25.7284C144.794 25.4703 144.905 25.2133 145.294 24.9293L147.492 23.3077C147.714 23.127 147.965 23.0754 148.159 23.0754C148.548 23.0754 148.743 23.2561 149.021 23.5401C149.938 24.4671 151.134 25.2391 152.776 25.2391C154.083 25.2391 154.748 24.6023 154.748 23.9064C154.748 22.4373 151.8 22.1717 149.27 21.1685C147.379 20.4211 145.378 19.1609 145.378 16.3284C145.378 12.8012 148.549 10.5882 152.748 10.5882Z" fill="white"/>
<path d="M165.683 23.9504H173.592C173.937 23.9504 174.206 24.2268 174.206 24.5806V27.6051C174.206 27.9589 173.937 28.2353 173.592 28.2353H161.878C161.535 28.2353 161.265 27.9589 161.265 27.6301V11.2172C161.265 10.8646 161.535 10.5882 161.878 10.5882H165.071C165.414 10.5882 165.683 10.8646 165.683 11.2172V23.9504Z" fill="white"/>
<path d="M184.29 11.0421C184.413 10.7645 184.661 10.5882 184.985 10.5882H188.904C189.276 10.5882 189.5 10.8146 189.5 11.1171C189.5 11.2172 189.475 11.4447 189.377 11.621L183.496 22.185V27.6051C183.496 27.9589 183.224 28.2353 182.901 28.2353H179.652C179.305 28.2353 179.032 27.9589 179.032 27.6051V22.185L173.152 11.621C173.053 11.4459 173.029 11.2172 173.029 11.1171C173.029 10.8146 173.252 10.5882 173.625 10.5882H177.718C178.039 10.5882 178.287 10.7633 178.413 11.0421L181.364 16.9673L184.29 11.0421Z" fill="white"/>
<path d="M194.903 27.6051C194.903 27.9589 194.645 28.2353 194.317 28.2353H191.263C190.934 28.2353 190.676 27.9589 190.676 27.6051V11.1934C190.676 10.8658 190.934 10.5882 191.263 10.5882H203.03C203.358 10.5882 203.617 10.8646 203.617 11.2172V14.243C203.617 14.5968 203.358 14.8731 203.03 14.8731H194.904V17.7726H201.01C201.339 17.7726 201.597 18.0502 201.597 18.4028V21.4285C201.597 21.7811 201.339 22.0575 201.01 22.0575H194.904V27.6051H194.903Z" fill="white"/>
<path d="M207.788 14.8731C207.428 14.8731 207.146 14.5968 207.146 14.243V11.2172C207.146 10.8646 207.428 10.5882 207.788 10.5882H222.977C223.336 10.5882 223.617 10.8646 223.617 11.2172V14.243C223.617 14.5968 223.336 14.8731 222.977 14.8731H217.768V27.6051C217.768 27.9589 217.486 28.2353 217.126 28.2353H213.637C213.278 28.2353 212.996 27.9589 212.996 27.6051V14.8731H207.788Z" fill="white"/>
<path d="M227.149 10.5882C228.468 10.5882 229.5 11.6298 229.5 12.9412C229.5 14.2514 228.466 15.2941 227.149 15.2941C225.826 15.2941 224.794 14.2526 224.794 12.9412C224.793 11.6298 225.826 10.5882 227.149 10.5882ZM227.149 14.8243C228.203 14.8243 228.981 13.9876 228.981 12.9412C228.981 11.8935 228.203 11.0569 227.149 11.0569C226.091 11.0569 225.312 11.8935 225.312 12.9412C225.312 13.9888 226.091 14.8243 227.149 14.8243ZM226.295 14.1385C226.25 14.1385 226.211 14.1029 226.211 14.0563V11.7647C226.211 11.7291 226.24 11.6825 226.295 11.6825H227.313C227.833 11.6825 228.117 12.0235 228.117 12.41C228.117 12.648 228.013 12.9314 227.747 13.0761L228.222 14.0207C228.233 14.0367 228.237 14.0563 228.237 14.0772C228.237 14.114 228.217 14.1385 228.167 14.1385H227.664C227.619 14.1385 227.579 14.1385 227.529 14.0453L227.19 13.2712H226.825V14.0502C226.825 14.1017 226.785 14.1373 226.74 14.1373H226.295V14.1385ZM226.824 12.2505V12.751H227.193C227.349 12.751 227.473 12.6578 227.473 12.4934C227.473 12.3278 227.349 12.2505 227.199 12.2505H226.824Z" fill="white"/>
</g>
<defs>
<clipPath id="clip0">
<path d="M0.0878906 0H229.5V40H0.0878906V0Z" fill="white"/>
</clipPath>
</defs>
</svg>
